<?xml version="1.0" encoding="utf-8"?>
<!-- Generator: Adobe Illustrator 16.0.0, SVG Export Plug-In . SVG Version: 6.00 Build 0)  -->
<!DOCTYPE svg PUBLIC "-//W3C//DTD SVG 1.1//EN" "http://www.w3.org/Graphics/SVG/1.1/DTD/svg11.dtd">
<svg version="1.1" id="Layer_1" xmlns="http://www.w3.org/2000/svg" xmlns:xlink="http://www.w3.org/1999/xlink" x="0px" y="0px"
	 width="100px" height="100px" viewBox="0 0 100 100" enable-background="new 0 0 100 100" xml:space="preserve">
<g>
	<g>
		<path fill="#B3B3B3" d="M46.5,5.6c2.1-1.3,4.7-2.8,7-1.1c1,0.3,2,0.7,3,1c1,0.3,2,0.7,3,1c1.7,0.5,3.4,1.2,5,2
			c1,0.3,2.1,0.6,3.1,0.9c1,0.3,2,0.7,3,1c1,0.3,2,0.6,3,1c1,0.3,2,0.6,3,1c1,0.3,2,0.6,3,1c1,0.3,2,0.7,3,1c1,0.3,2,0.6,3,1
			c1,0.3,2,0.7,3,1c2.3,0.5,4.3,2.2,6.7,2.3c-0.2,2.2,0.2,4.7-1,6.7c-0.3,2.7,0.4,5.6-1,8c-0.4,3,0.5,6.3-1,9c-0.3,2.7,0.5,5.6-1,8
			c-0.3,2.7,0.5,5.6-1,8c-0.3,2.7,0.5,5.6-1,8c-0.3,2.7,0.5,5.6-1,8c0,0.6,0,1.8-0.1,2.4c-4.6,1.9-9,4.9-13.7,6.8
			c-3.4,2.5-7.2,4.2-11,6c-3.4,2.4-7.2,4.2-11,6c-0.8,0.5-1.7,1-2.5,1.5c-0.8-0.5-1.7-1-2.5-1.5c-2.5-1.1-4.8-2.5-7-4
			c-2.5-1-4.8-2.5-7-4c-2.5-1-4.8-2.5-7-4c-3.1-1.4-6.2-3-9-5c-1.7-0.6-3.3-1.6-4.1-3.3c-0.8-2.9-0.5-5.9-0.7-8.9
			c-1.4-2.4-0.7-5.3-1-8c-1.5-2.8-0.7-6-1-9c-1.5-2.4-0.7-5.3-1-8c-1.5-2.4-0.7-5.3-1-8c-1.5-2.4-0.7-5.3-1-8c-1.2-2-0.8-4.4-1-6.6
			c1.3,0,2.5-0.3,3.7-0.9c1.3-0.6,2.6-1.2,4-1.6c1-0.3,2-0.7,3-1c1-0.3,2-0.7,3-1c1-0.3,2-0.7,3-1c1-0.3,2-0.7,3.1-0.9
			c1.6-0.9,3.2-1.5,4.9-2c1-0.4,2-0.7,3-1c1-0.3,2-0.7,3-1c1-0.4,2-0.7,3.1-1C42.4,6.5,44.4,5.7,46.5,5.6z M10.1,22
			C12,38.6,13.9,55.3,15.8,72c0.2,1.3,0.1,3,1.6,3.5c10.8,6.1,21.7,12,32.5,18.1c11.4-6.3,22.8-12.5,34.1-19
			c0.9-2.1,0.8-4.5,1.2-6.7c2-15.4,3.7-30.8,5.9-46.1c-13.6-4.9-27.4-9.4-41.1-14.1C36.7,12.5,23.3,17.1,10.1,22z"/>
	</g>
	<path fill="#B3B3B3" d="M49.8,11.8c0-0.4,0.1-1.1,0.1-1.4c9.6,21,19.6,41.8,29.3,62.8c-3.3,0-6.6,0-10-0.2c-2-4.8-4.1-9.5-6.2-14.2
		c-4.4,0.1-8.8,0.1-13.2,0c0.1-2.8,0.1-5.6,0.2-8.4c3.1,0,6.3,0,9.4,0C56.3,43.7,53,37.2,50,30.5C50.2,24.3,50.2,18,49.8,11.8z"/>
</g>
<g>
	<path fill="#E52A3A" d="M10.1,22c13.3-4.8,26.6-9.5,39.9-14.2c0,0.7-0.1,2-0.1,2.6c0,0.4-0.1,1.1-0.1,1.4
		C40.2,32,31.3,52.5,22.1,72.9c3.5-0.1,6.9-0.1,10.4-0.2c1.9-4.7,3.8-9.4,5.6-14c3.9,0,7.8,0,11.8,0.1c0.3,11.6,0,23.2,0.1,34.8
		c-10.8-6.1-21.7-12-32.5-18.1C15.9,75,16,73.3,15.8,72C13.9,55.3,12,38.6,10.1,22z"/>
	<path fill="#E52A3A" d="M49.6,32.2c0.4,6,0.5,12.1,0.4,18.1c-2.8,0-5.5,0-8.3,0C44.4,44.4,46.8,38.2,49.6,32.2z"/>
</g>
<g>
	<path fill="#B82934" d="M49.9,7.7c13.7,4.7,27.5,9.2,41.1,14.1c-2.1,15.3-3.9,30.7-5.9,46.1c-0.4,2.2-0.3,4.6-1.2,6.7
		c-11.2,6.5-22.7,12.6-34.1,19c-0.1-11.6,0.2-23.2-0.1-34.8c4.4,0.1,8.8,0,13.2,0c2.1,4.7,4.2,9.5,6.2,14.2c3.3,0.1,6.6,0.2,10,0.2
		c-9.7-21-19.7-41.8-29.3-62.8C49.9,9.7,49.9,8.4,49.9,7.7z"/>
	<path fill="#B82934" d="M49.6,32.2c0.1-0.4,0.3-1.3,0.4-1.7c3,6.7,6.4,13.2,9.5,19.8c-3.1,0-6.3,0-9.4,0C50,44.3,50,38.3,49.6,32.2
		z"/>
</g>
<g>
	<path fill="#F2F2F2" d="M49.8,11.8c0.4,6.2,0.5,12.5,0.2,18.8c-0.1,0.4-0.3,1.3-0.4,1.7c-2.8,6-5.2,12.1-7.8,18.1
		c2.8,0,5.5,0,8.3,0c-0.1,2.8-0.1,5.6-0.2,8.4c-3.9-0.1-7.8-0.1-11.8-0.1c-1.9,4.7-3.7,9.4-5.6,14c-3.5,0-6.9,0.1-10.4,0.2
		C31.3,52.5,40.2,32,49.8,11.8z"/>
</g>
</svg>
