<?xml version="1.0" encoding="utf-8"?>
<!-- Generator: Adobe Illustrator 16.0.0, SVG Export Plug-In . SVG Version: 6.00 Build 0)  -->
<!DOCTYPE svg PUBLIC "-//W3C//DTD SVG 1.1//EN" "http://www.w3.org/Graphics/SVG/1.1/DTD/svg11.dtd">
<svg version="1.1" id="Layer_1" xmlns="http://www.w3.org/2000/svg" xmlns:xlink="http://www.w3.org/1999/xlink" x="0px" y="0px"
	 width="182px" height="206px" viewBox="0 0 182 206" enable-background="new 0 0 182 206" xml:space="preserve">
<g>
	<g>
		<path fill="#472F14" d="M85.6,30.1c1.1-6.9,6.8-11.5,12.9-14c-1.1,4.3-0.8,8.7,1,12.8c3.2-2.9,7-4.8,11.3-5.6
			c-2,4.2-3.4,8.6-3.3,13.2c1.3,0.3,2.6,0.7,3.9,1.1c5.9-7.6,14.2-14.9,24.5-14.4c7.2-0.5,14.1,3,18.7,8.4
			c-4.9,1.1-10.4,2.3-13.7,6.6c-1.6,2.8-0.7,6.2-0.5,9.2c3.8,0.6,8.3,1.2,10.4,4.8c2.4,4.2,1.1,9.4-1.4,13.2c-3,4-2.1,9.2-1.7,13.9
			c1.8,4.1,7.4,5.7,7.8,10.7c1.4,6-3.2,10.9-7.9,13.8c-4.3,3-10.7,4.4-12.1,10.2c-0.5,8.2-0.4,16.6,1,24.7c4.7-3.5,7.3-8.9,8.6-14.5
			c11.1,10.7,9.3,32.1-4.4,39.8c-1.4,0.8-2.9,1.4-4.3,2.1c-2.5,3.6-4.6,7.6-8.1,10.4c-3.4,3-7.5,5-12,6c-4.7,0.8-8.2,4.4-12.8,5.6
			c-10.3,2.8-22.1,2.5-31.4-3.2c-4.2-2.6-9.6-2.6-13.7-5.4c-5.4-2.9-8.9-8.2-11.9-13.3c-5.5-2-10.6-5.7-13.2-11
			c-4.8-10-3.6-22.9,4.2-31.1c1.3,5.6,4,11,8.6,14.6c1.4-6.4,1.2-13,1.5-19.5c0.3-4.1-1.1-8.9-5-11c-5-2.8-10.5-5.3-13.9-10.1
			c-2.4-3.2-1.6-7.5-0.9-11c0.1,1.3,0.3,2.6,0.4,3.9c0.5-1.6,1.9-3.5,0.1-4.7c2-1.6,3.9-3.2,6-4.7c1.2-5.1,2.4-11.1-0.8-15.7
			c-2.7-4.1-4.2-9.9-1-14.1c2.2-3,6.2-3.4,9.6-3.6c0.9-3.2,1.7-6.9-0.3-9.8c-3.2-4.1-8.5-5.3-13.3-6.3c4.1-6.3,12-9.1,19.3-8.6
			c9.7,0,17.8,6.7,23.3,14.1c0.6,0,1.7,0,2.3,0C74,30.6,77.1,24,83,20.5C83.3,23.9,83.2,27.5,85.6,30.1z M38.5,29.6
			c4.2,2.7,9.5,0.7,13.8,3.2c4,2,7.1,5.3,9.6,8.8c1.2-0.6,2.5-1.2,3.8-1.8c-3.8-5.4-8.9-10.5-15.6-11.6
			C46.1,27.2,42.1,28.3,38.5,29.6z M117.5,39.7c1.2,0.6,2.5,1.2,3.7,1.8c3.1-4.5,7.4-8.7,13-9.9c3.6-0.5,7.3-0.1,10.5-2
			c-3.7-1.2-7.7-2.5-11.6-1.5C126.4,29.3,121.1,34.2,117.5,39.7z M46.3,34.9c1.4,4,2.1,8.2,2.5,12.4c1.5,0.5,2.9,1,4.4,1.4
			c1.2-1.3,2.5-2.5,3.7-3.8c-1.1-2.4-2.1-4.9-4-6.8C51.2,36.2,48.6,35.7,46.3,34.9z M130.5,37.7c-2.2,1.9-3.2,4.7-4.4,7.2
			c1.3,1.3,2.6,2.5,3.8,3.8c1.4-0.5,2.9-1,4.3-1.4c0.3-4.2,1-8.5,2.5-12.5C134.7,35.6,132.4,36.2,130.5,37.7z M59,50.4
			c7.7,4,14.7,9.9,18.8,17.6c-9.6-6.8-19.6-14.4-31.7-15.6c-3.5-0.3-8.4-0.6-10.3,3.1c-1,3.6,1.7,6.9,3.4,9.9
			c0.2-1.1,0.5-3.4,0.7-4.5c1,4.6,1.9,9.3,1.5,14.1c-0.4,5.5-2.6,10.6-4.9,15.5c-0.1-1.3-0.2-3.9-0.3-5.1c-2.8,2.6-3.8,6.5-2.5,10.1
			c2.9,4.2,8,6,12.2,8.6c3.8,2.3,6.4,6.5,6.6,10.9c0.3,8.9,0,17.8-1.1,26.6c4.4,1.5,9,2.1,13.7,2c3.1-8.4,6.2-16.9,10.5-24.8
			c-1.4,10.2-4.2,20.2-7.8,29.8c15.9-0.2,31.7-0.2,47.6,0c-3.4-9.7-6.6-19.5-7.8-29.8c4.4,7.9,7.2,16.5,10.6,24.9
			c4.6,0,9.2-0.4,13.4-2.1c-0.7-8.5-1.5-17.1-1.1-25.6c0.1-4.5,2.3-9,6.1-11.5c4.3-2.9,9.8-4.5,12.8-9.2c1.5-3.7,0-7.6-2.8-10.3
			c0,1.3,0.1,4,0.1,5.3c-2.1-4-3.9-8.1-4.6-12.6c-1.1-5.6,0-11.3,1.3-16.7c0.1,1.1,0.4,3.1,0.5,4.2c1.7-2.9,4.3-6,3.4-9.6
			c-1.7-3.9-6.9-3.6-10.4-3.3c-12.3,1.2-22.4,9-32,16c4.2-7.9,11.1-14,19.1-18c-9.3-8-22-10.6-34-10.2C79,40.3,67.7,43.4,59,50.4z
			 M39.7,155.4c4.4,5.4,11.4,7.2,17.9,8.2c-0.4-2.2-1.4-4.4-0.6-6.6c0.8-3.2,3.3-5.6,5.1-8.2c-6.9-0.4-14-2-19.4-6.5
			c-2.8-2.3-4.5-5.6-6.2-8.7C34.4,140.8,34.9,149.3,39.7,155.4z M120.8,148.7c1.9,2.6,4.5,5,5.2,8.3c0.7,2.2-0.1,4.5-0.6,6.6
			c5.9-0.9,12.1-2.3,16.5-6.7c6.3-6,6.8-15.8,4.5-23.7C143,143.9,131.2,148.6,120.8,148.7z M65.5,153.7c-2.8,0.7-4.2,3.7-3.6,6.4
			c2.4,11.3,10.7,22.2,22.6,24.2c7.1,0.9,14.9,1,21.4-2.6c8.2-4.5,13.5-13.1,15.4-22c0.9-4.3-3.6-6.8-7.3-6.8
			c-12-0.4-24-0.1-36.1-0.2C73.8,152.8,69.5,152.4,65.5,153.7z M53.5,168.2c2.8,3.6,6.4,6.7,10.5,8.7c-1.4-2.7-2.8-5.3-4.2-8
			C57.7,168.7,55.6,168.4,53.5,168.2z M123.4,169.3c-1.8,2.3-2.9,5-4.3,7.6c4.2-2,7.7-5.1,10.5-8.8
			C127.5,168.5,125.2,168.3,123.4,169.3z"/>
	</g>
	<g>
		<path fill="#472F14" d="M45.4,74.7c7.5-2,15.7,0.5,21.7,5.2c3.3,2.3,5.8,5.6,9,8c2.8,2.2,6.4,1.2,9.7,1.4
			c-1.4,3.1-4.1,5.2-7.3,6.2c-0.8,4-2.5,7.6-5.1,10.7c1-3.7,1.5-7.5,0-11.1c-8,5.8-20.7,0.4-22.5-9.2c-0.3-1.4-0.6-2.8-0.9-4.2
			c-0.5,1.7-1.1,3.5-1.6,5.2c-1.5-3.5-1.9-7.4,0.3-10.8C47.5,75.7,46.5,75.2,45.4,74.7z M58.8,91.2c3.6,3.4,9.1,2.9,13.2,1
			c-4.2-5.3-9.7-9.4-15.6-12.7C56.1,83.5,55.6,88.3,58.8,91.2z"/>
	</g>
	<g>
		<path fill="#472F14" d="M115.4,80.4c6.3-4.8,14.9-8,22.7-5.5c-1.2,0.4-2.5,0.7-3.7,1c2,3.2,1.9,7.1,0.2,10.4
			c-0.5-1.6-1.1-3.2-1.6-4.8c-0.5,4-1.4,8.2-4.3,11.1c-4.9,4.9-13.4,6.8-19.2,2.4c-0.9,3.7-0.8,7.4,0.1,11.1
			c-2.6-3.1-4.2-6.7-5-10.7c-3.5-0.8-6.1-3.2-7.2-6.5c2.8,0.2,5.8,1.2,8.4-0.2C109.5,86.6,111.9,82.8,115.4,80.4z M111,92.2
			c4,1.7,9.1,2.4,12.7-0.6c3.7-2.7,3.3-8,2.9-12.1C120.7,82.8,115.1,86.9,111,92.2z"/>
	</g>
	<path fill="#472F14" d="M82.6,74.4c3.4,0.9,6.8,2.4,10.4,1.9c2.6-0.4,5-1.2,7.5-1.9c-2.5,2.2-5,5-8.5,5.5
		C88.1,79.9,85.4,76.6,82.6,74.4z"/>
	<path fill="#472F14" d="M66.6,159.9c1-2,3.4-1.7,5.3-1.8c4.3,0.1,8.9-0.8,12.8,1.5c-1.8,3.7-3.6,8.1-7.6,9.8
		C71.7,170.2,67.6,164.7,66.6,159.9z"/>
	<path fill="#472F14" d="M99.2,158.5c5.5-0.6,11.1-0.6,16.7-0.1c1,4-1.9,7.5-4.8,9.8c-1.8,1.5-4.7,1.8-6.7,0.4
		C101.3,166.2,98.9,162.6,99.2,158.5z"/>
</g>
<g>
	<path fill="#FBA81A" d="M38.5,29.6c3.7-1.3,7.6-2.4,11.6-1.5c6.7,1.1,11.9,6.2,15.6,11.6c-1.2,0.6-2.5,1.2-3.8,1.8
		c-2.6-3.5-5.6-6.9-9.6-8.8C48,30.3,42.6,32.3,38.5,29.6z"/>
	<path fill="#FBA81A" d="M117.5,39.7c3.6-5.5,8.8-10.5,15.5-11.6c3.9-1,7.9,0.3,11.6,1.5c-3.2,2-6.9,1.6-10.5,2
		c-5.5,1.2-9.8,5.4-13,9.9C120,41,118.8,40.3,117.5,39.7z"/>
	<path fill="#FBA81A" d="M46.3,34.9c2.3,0.8,4.9,1.3,6.6,3.2c1.9,1.9,2.8,4.4,4,6.8c-1.2,1.3-2.5,2.5-3.7,3.8
		c-1.5-0.5-2.9-1-4.4-1.4C48.4,43.1,47.7,38.9,46.3,34.9z"/>
	<path fill="#FBA81A" d="M130.5,37.7c1.8-1.5,4.1-2,6.2-2.8c-1.5,4-2.1,8.2-2.5,12.5c-1.4,0.5-2.9,1-4.3,1.4
		c-1.3-1.3-2.6-2.6-3.8-3.8C127.4,42.4,128.4,39.6,130.5,37.7z"/>
	<g>
		<path fill="#FBA81A" d="M59,50.4c8.7-7,20-10.1,31-10c12-0.4,24.7,2.2,34,10.2c-8,4-14.8,10.1-19.1,18c9.6-7.1,19.7-14.8,32-16
			c3.6-0.4,8.7-0.6,10.4,3.3c0.9,3.5-1.7,6.7-3.4,9.6c-0.1-1.1-0.4-3.1-0.5-4.2c-1.3,5.4-2.4,11.1-1.3,16.7
			c0.7,4.4,2.5,8.6,4.6,12.6c0-1.3-0.1-4-0.1-5.3c2.8,2.6,4.2,6.6,2.8,10.3c-2.9,4.6-8.4,6.2-12.8,9.2c-3.8,2.5-6,7-6.1,11.5
			c-0.3,8.5,0.4,17.1,1.1,25.6c-4.3,1.7-8.9,2.1-13.4,2.1c-3.4-8.4-6.2-17-10.6-24.9c1.2,10.2,4.4,20.1,7.8,29.8
			c-15.9-0.2-31.7-0.2-47.6,0c3.6-9.6,6.4-19.6,7.8-29.8c-4.3,7.9-7.4,16.4-10.5,24.8c-4.6,0.2-9.3-0.4-13.7-2
			c1.1-8.8,1.4-17.8,1.1-26.6c-0.2-4.5-2.8-8.6-6.6-10.9c-4.2-2.6-9.3-4.4-12.2-8.6c-1.3-3.6-0.3-7.5,2.5-10.1
			c0.1,1.3,0.2,3.9,0.3,5.1c2.3-4.9,4.4-10,4.9-15.5c0.4-4.7-0.6-9.4-1.5-14.1c-0.2,1.1-0.5,3.4-0.7,4.5c-1.7-3-4.4-6.2-3.4-9.9
			c1.9-3.7,6.8-3.4,10.3-3.1c12.1,1.2,22.1,8.8,31.7,15.6C73.7,60.3,66.7,54.4,59,50.4z M45.4,74.7c1.1,0.5,2.2,0.9,3.3,1.4
			c-2.2,3.4-1.8,7.2-0.3,10.8c0.6-1.7,1.1-3.4,1.6-5.2c0.3,1.4,0.6,2.8,0.9,4.2c1.8,9.6,14.5,15,22.5,9.2c1.5,3.6,1,7.5,0,11.1
			c2.5-3.1,4.3-6.8,5.1-10.7c3.2-1,5.9-3,7.3-6.2c-3.2-0.2-6.9,0.8-9.7-1.4c-3.2-2.5-5.7-5.7-9-8C61,75.2,52.9,72.7,45.4,74.7z
			 M115.4,80.4c-3.5,2.4-5.9,6.2-9.6,8.3c-2.6,1.4-5.6,0.4-8.4,0.2c1.2,3.4,3.8,5.7,7.2,6.5c0.8,3.9,2.4,7.6,5,10.7
			c-0.9-3.6-1-7.4-0.1-11.1c5.8,4.4,14.3,2.5,19.2-2.4c2.9-3,3.7-7.2,4.3-11.1c0.5,1.6,1,3.2,1.6,4.8c1.7-3.3,1.7-7.2-0.2-10.4
			c1.2-0.4,2.5-0.7,3.7-1C130.2,72.3,121.7,75.5,115.4,80.4z M82.6,74.4c2.8,2.2,5.5,5.6,9.4,5.4c3.5-0.5,6-3.3,8.5-5.5
			C98,75,95.6,75.8,93,76.2C89.4,76.7,86,75.2,82.6,74.4z"/>
	</g>
	<g>
		<path fill="#FBA81A" d="M65.5,153.7c4-1.3,8.3-0.9,12.5-1c12,0.1,24.1-0.2,36.1,0.2c3.7,0,8.2,2.5,7.3,6.8
			c-1.9,8.9-7.3,17.5-15.4,22c-6.5,3.6-14.2,3.4-21.4,2.6c-11.9-2.1-20.2-13-22.6-24.2C61.3,157.4,62.7,154.4,65.5,153.7z
			 M66.6,159.9c0.9,4.8,5,10.3,10.5,9.5c4-1.7,5.9-6.1,7.6-9.8c-3.9-2.2-8.5-1.3-12.8-1.5C70.1,158.2,67.6,157.9,66.6,159.9z
			 M99.2,158.5c-0.2,4,2.2,7.7,5.3,10.1c2,1.5,4.8,1.2,6.7-0.4c2.9-2.3,5.8-5.8,4.8-9.8C110.3,157.9,104.7,157.9,99.2,158.5z"/>
	</g>
	<path fill="#FBA81A" d="M53.5,168.2c2.1,0.2,4.2,0.4,6.3,0.7c1.4,2.7,2.8,5.3,4.2,8C59.9,174.9,56.4,171.8,53.5,168.2z"/>
	<path fill="#FBA81A" d="M123.4,169.3c1.9-1,4.2-0.8,6.2-1.2c-2.8,3.7-6.3,6.8-10.5,8.8C120.4,174.4,121.6,171.6,123.4,169.3z"/>
</g>
<g>
	<path fill="#F9F9F8" d="M58.8,91.2c-3.3-2.9-2.8-7.7-2.3-11.7c5.9,3.3,11.4,7.4,15.6,12.7C67.9,94.1,62.4,94.6,58.8,91.2z"/>
	<path fill="#F9F9F8" d="M111,92.2c4.2-5.3,9.7-9.4,15.6-12.6c0.4,4.1,0.8,9.3-2.9,12.1C120.1,94.7,115,93.9,111,92.2z"/>
	<path fill="#F9F9F8" d="M39.7,155.4c-4.8-6.1-5.2-14.6-3.2-21.9c1.7,3.1,3.4,6.4,6.2,8.7c5.4,4.5,12.5,6.1,19.4,6.5
		c-1.8,2.6-4.3,5-5.1,8.2c-0.8,2.2,0.2,4.5,0.6,6.6C51,162.7,44,160.8,39.7,155.4z"/>
	<path fill="#F9F9F8" d="M120.8,148.7c10.4-0.1,22.2-4.8,25.7-15.4c2.3,7.9,1.7,17.7-4.5,23.7c-4.4,4.3-10.6,5.8-16.5,6.7
		c0.4-2.2,1.3-4.4,0.6-6.6C125.3,153.7,122.8,151.4,120.8,148.7z"/>
</g>
</svg>
