<svg xmlns="http://www.w3.org/2000/svg" width="182" height="206" viewBox="0 0 182 206"><path fill="#472F14" d="M85.6 30.1c1.1-6.9 6.8-11.5 12.9-14-1.1 4.3-.8 8.7 1 12.8 3.2-2.9 7-4.8 11.3-5.6-2 4.2-3.4 8.6-3.3 13.2 1.3.3 2.6.7 3.9 1.1 5.9-7.6 14.2-14.9 24.5-14.4 7.2-.5 14.1 3 18.7 8.4-4.9 1.1-10.4 2.3-13.7 6.6-1.6 2.8-.7 6.2-.5 9.2 3.8.6 8.3 1.2 10.4 4.8 2.4 4.2 1.1 9.4-1.4 13.2-3 4-2.1 9.2-1.7 13.9 1.8 4.1 7.4 5.7 7.8 10.7 1.4 6-3.2 10.9-7.9 13.8-4.3 3-10.7 4.4-12.1 10.2-.5 8.2-.4 16.6 1 24.7 4.7-3.5 7.3-8.9 8.6-14.5 11.1 10.7 9.3 32.1-4.4 39.8-1.4.8-2.9 1.4-4.3 2.1-2.5 3.6-4.6 7.6-8.1 10.4-3.4 3-7.5 5-12 6-4.7.8-8.2 4.4-12.8 5.6-10.3 2.8-22.1 2.5-31.4-3.2-4.2-2.6-9.6-2.6-13.7-5.4-5.4-2.9-8.9-8.2-11.9-13.3-5.5-2-10.6-5.7-13.2-11-4.8-10-3.6-22.9 4.2-31.1 1.3 5.6 4 11 8.6 14.6 1.4-6.4 1.2-13 1.5-19.5.3-4.1-1.1-8.9-5-11-5-2.8-10.5-5.3-13.9-10.1-2.4-3.2-1.6-7.5-.9-11l.4 3.9c.5-1.6 1.9-3.5.1-4.7 2-1.6 3.9-3.2 6-4.7 1.2-5.1 2.4-11.1-.8-15.7-2.7-4.1-4.2-9.9-1-14.1 2.2-3 6.2-3.4 9.6-3.6.9-3.2 1.7-6.9-.3-9.8-3.2-4.1-8.5-5.3-13.3-6.3 4.1-6.3 12-9.1 19.3-8.6 9.7 0 17.8 6.7 23.3 14.1h2.3c.6-7 3.7-13.6 9.6-17.1.3 3.4.2 7 2.6 9.6zm-47.1-.5c4.2 2.7 9.5.7 13.8 3.2 4 2 7.1 5.3 9.6 8.8 1.2-.6 2.5-1.2 3.8-1.8-3.8-5.4-8.9-10.5-15.6-11.6-4-1-8 .1-11.6 1.4zm79 10.1l3.7 1.8c3.1-4.5 7.4-8.7 13-9.9 3.6-.5 7.3-.1 10.5-2-3.7-1.2-7.7-2.5-11.6-1.5-6.7 1.2-12 6.1-15.6 11.6zm-71.2-4.8c1.4 4 2.1 8.2 2.5 12.4 1.5.5 2.9 1 4.4 1.4l3.7-3.8c-1.1-2.4-2.1-4.9-4-6.8-1.7-1.9-4.3-2.4-6.6-3.2zm84.2 2.8c-2.2 1.9-3.2 4.7-4.4 7.2 1.3 1.3 2.6 2.5 3.8 3.8 1.4-.5 2.9-1 4.3-1.4.3-4.2 1-8.5 2.5-12.5-2 .8-4.3 1.4-6.2 2.9zm-71.5 12.7c7.7 4 14.7 9.9 18.8 17.6-9.6-6.8-19.6-14.4-31.7-15.6-3.5-.3-8.4-.6-10.3 3.1-1 3.6 1.7 6.9 3.4 9.9l.7-4.5c1 4.6 1.9 9.3 1.5 14.1-.4 5.5-2.6 10.6-4.9 15.5-.1-1.3-.2-3.9-.3-5.1-2.8 2.6-3.8 6.5-2.5 10.1 2.9 4.2 8 6 12.2 8.6 3.8 2.3 6.4 6.5 6.6 10.9.3 8.9 0 17.8-1.1 26.6 4.4 1.5 9 2.1 13.7 2 3.1-8.4 6.2-16.9 10.5-24.8-1.4 10.2-4.2 20.2-7.8 29.8 15.9-.2 31.7-.2 47.6 0-3.4-9.7-6.6-19.5-7.8-29.8 4.4 7.9 7.2 16.5 10.6 24.9 4.6 0 9.2-.4 13.4-2.1-.7-8.5-1.5-17.1-1.1-25.6.1-4.5 2.3-9 6.1-11.5 4.3-2.9 9.8-4.5 12.8-9.2 1.5-3.7 0-7.6-2.8-10.3l.1 5.3c-2.1-4-3.9-8.1-4.6-12.6-1.1-5.6 0-11.3 1.3-16.7l.5 4.2c1.7-2.9 4.3-6 3.4-9.6-1.7-3.9-6.9-3.6-10.4-3.3-12.3 1.2-22.4 9-32 16 4.2-7.9 11.1-14 19.1-18-9.3-8-22-10.6-34-10.2-11 .2-22.3 3.3-31 10.3zm-19.3 105c4.4 5.4 11.4 7.2 17.9 8.2-.4-2.2-1.4-4.4-.6-6.6.8-3.2 3.3-5.6 5.1-8.2-6.9-.4-14-2-19.4-6.5-2.8-2.3-4.5-5.6-6.2-8.7-2.1 7.2-1.6 15.7 3.2 21.8zm81.1-6.7c1.9 2.6 4.5 5 5.2 8.3.7 2.2-.1 4.5-.6 6.6 5.9-.9 12.1-2.3 16.5-6.7 6.3-6 6.8-15.8 4.5-23.7-3.4 10.7-15.2 15.4-25.6 15.5zm-55.3 5c-2.8.7-4.2 3.7-3.6 6.4 2.4 11.3 10.7 22.2 22.6 24.2 7.1.9 14.9 1 21.4-2.6 8.2-4.5 13.5-13.1 15.4-22 .9-4.3-3.6-6.8-7.3-6.8-12-.4-24-.1-36.1-.2-4.1.1-8.4-.3-12.4 1zm-12 14.5c2.8 3.6 6.4 6.7 10.5 8.7l-4.2-8-6.3-.7zm69.9 1.1c-1.8 2.3-2.9 5-4.3 7.6 4.2-2 7.7-5.1 10.5-8.8-2.1.4-4.4.2-6.2 1.2zm-78-94.6c7.5-2 15.7.5 21.7 5.2 3.3 2.3 5.8 5.6 9 8 2.8 2.2 6.4 1.2 9.7 1.4-1.4 3.1-4.1 5.2-7.3 6.2-.8 4-2.5 7.6-5.1 10.7 1-3.7 1.5-7.5 0-11.1-8 5.8-20.7.4-22.5-9.2l-.9-4.2-1.6 5.2c-1.5-3.5-1.9-7.4.3-10.8-1.2-.4-2.2-.9-3.3-1.4zm13.4 16.5c3.6 3.4 9.1 2.9 13.2 1-4.2-5.3-9.7-9.4-15.6-12.7-.3 4-.8 8.8 2.4 11.7zm56.6-10.8c6.3-4.8 14.9-8 22.7-5.5-1.2.4-2.5.7-3.7 1 2 3.2 1.9 7.1.2 10.4l-1.6-4.8c-.5 4-1.4 8.2-4.3 11.1-4.9 4.9-13.4 6.8-19.2 2.4-.9 3.7-.8 7.4.1 11.1-2.6-3.1-4.2-6.7-5-10.7-3.5-.8-6.1-3.2-7.2-6.5 2.8.2 5.8 1.2 8.4-.2 3.7-2.1 6.1-5.9 9.6-8.3zm-4.4 11.8c4 1.7 9.1 2.4 12.7-.6 3.7-2.7 3.3-8 2.9-12.1-5.9 3.3-11.5 7.4-15.6 12.7zm-28.4-17.8c3.4.9 6.8 2.4 10.4 1.9 2.6-.4 5-1.2 7.5-1.9-2.5 2.2-5 5-8.5 5.5-3.9 0-6.6-3.3-9.4-5.5zm-16 85.5c1-2 3.4-1.7 5.3-1.8 4.3.1 8.9-.8 12.8 1.5-1.8 3.7-3.6 8.1-7.6 9.8-5.4.8-9.5-4.7-10.5-9.5zm32.6-1.4c5.5-.6 11.1-.6 16.7-.1 1 4-1.9 7.5-4.8 9.8-1.8 1.5-4.7 1.8-6.7.4-3.1-2.4-5.5-6-5.2-10.1z"/><path fill="#FBA81A" d="M38.5 29.6c3.7-1.3 7.6-2.4 11.6-1.5 6.7 1.1 11.9 6.2 15.6 11.6-1.2.6-2.5 1.2-3.8 1.8-2.6-3.5-5.6-6.9-9.6-8.8-4.3-2.4-9.7-.4-13.8-3.1zm79 10.1c3.6-5.5 8.8-10.5 15.5-11.6 3.9-1 7.9.3 11.6 1.5-3.2 2-6.9 1.6-10.5 2-5.5 1.2-9.8 5.4-13 9.9-1.1-.5-2.3-1.2-3.6-1.8zm-71.2-4.8c2.3.8 4.9 1.3 6.6 3.2 1.9 1.9 2.8 4.4 4 6.8l-3.7 3.8c-1.5-.5-2.9-1-4.4-1.4-.4-4.2-1.1-8.4-2.5-12.4zm84.2 2.8c1.8-1.5 4.1-2 6.2-2.8-1.5 4-2.1 8.2-2.5 12.5-1.4.5-2.9 1-4.3 1.4l-3.8-3.8c1.3-2.6 2.3-5.4 4.4-7.3zm-71.5 12.7c8.7-7 20-10.1 31-10 12-.4 24.7 2.2 34 10.2-8 4-14.8 10.1-19.1 18 9.6-7.1 19.7-14.8 32-16 3.6-.4 8.7-.6 10.4 3.3.9 3.5-1.7 6.7-3.4 9.6l-.5-4.2c-1.3 5.4-2.4 11.1-1.3 16.7.7 4.4 2.5 8.6 4.6 12.6l-.1-5.3c2.8 2.6 4.2 6.6 2.8 10.3-2.9 4.6-8.4 6.2-12.8 9.2-3.8 2.5-6 7-6.1 11.5-.3 8.5.4 17.1 1.1 25.6-4.3 1.7-8.9 2.1-13.4 2.1-3.4-8.4-6.2-17-10.6-24.9 1.2 10.2 4.4 20.1 7.8 29.8-15.9-.2-31.7-.2-47.6 0 3.6-9.6 6.4-19.6 7.8-29.8-4.3 7.9-7.4 16.4-10.5 24.8-4.6.2-9.3-.4-13.7-2 1.1-8.8 1.4-17.8 1.1-26.6-.2-4.5-2.8-8.6-6.6-10.9-4.2-2.6-9.3-4.4-12.2-8.6-1.3-3.6-.3-7.5 2.5-10.1.1 1.3.2 3.9.3 5.1 2.3-4.9 4.4-10 4.9-15.5.4-4.7-.6-9.4-1.5-14.1l-.7 4.5c-1.7-3-4.4-6.2-3.4-9.9 1.9-3.7 6.8-3.4 10.3-3.1 12.1 1.2 22.1 8.8 31.7 15.6-4.1-8-11.1-13.9-18.8-17.9zm-13.6 24.3l3.3 1.4c-2.2 3.4-1.8 7.2-.3 10.8.6-1.7 1.1-3.4 1.6-5.2l.9 4.2c1.8 9.6 14.5 15 22.5 9.2 1.5 3.6 1 7.5 0 11.1 2.5-3.1 4.3-6.8 5.1-10.7 3.2-1 5.9-3 7.3-6.2-3.2-.2-6.9.8-9.7-1.4-3.2-2.5-5.7-5.7-9-8-6.1-4.7-14.2-7.2-21.7-5.2zm70 5.7c-3.5 2.4-5.9 6.2-9.6 8.3-2.6 1.4-5.6.4-8.4.2 1.2 3.4 3.8 5.7 7.2 6.5.8 3.9 2.4 7.6 5 10.7-.9-3.6-1-7.4-.1-11.1 5.8 4.4 14.3 2.5 19.2-2.4 2.9-3 3.7-7.2 4.3-11.1.5 1.6 1 3.2 1.6 4.8 1.7-3.3 1.7-7.2-.2-10.4 1.2-.4 2.5-.7 3.7-1-7.9-2.6-16.4.6-22.7 5.5zm-32.8-6c2.8 2.2 5.5 5.6 9.4 5.4 3.5-.5 6-3.3 8.5-5.5-2.5.7-4.9 1.5-7.5 1.9-3.6.5-7-1-10.4-1.8zm-17.1 79.3c4-1.3 8.3-.9 12.5-1 12 .1 24.1-.2 36.1.2 3.7 0 8.2 2.5 7.3 6.8-1.9 8.9-7.3 17.5-15.4 22-6.5 3.6-14.2 3.4-21.4 2.6-11.9-2.1-20.2-13-22.6-24.2-.7-2.7.7-5.7 3.5-6.4zm1.1 6.2c.9 4.8 5 10.3 10.5 9.5 4-1.7 5.9-6.1 7.6-9.8-3.9-2.2-8.5-1.3-12.8-1.5-1.8.1-4.3-.2-5.3 1.8zm32.6-1.4c-.2 4 2.2 7.7 5.3 10.1 2 1.5 4.8 1.2 6.7-.4 2.9-2.3 5.8-5.8 4.8-9.8-5.7-.5-11.3-.5-16.8.1zm-45.7 9.7c2.1.2 4.2.4 6.3.7l4.2 8c-4.1-2-7.6-5.1-10.5-8.7zm69.9 1.1c1.9-1 4.2-.8 6.2-1.2-2.8 3.7-6.3 6.8-10.5 8.8 1.3-2.5 2.5-5.3 4.3-7.6z"/><path d="M58.8 91.2c-3.3-2.9-2.8-7.7-2.3-11.7 5.9 3.3 11.4 7.4 15.6 12.7-4.2 1.9-9.7 2.4-13.3-1zm52.2 1c4.2-5.3 9.7-9.4 15.6-12.6.4 4.1.8 9.3-2.9 12.1-3.6 3-8.7 2.2-12.7.5zm-71.3 63.2c-4.8-6.1-5.2-14.6-3.2-21.9 1.7 3.1 3.4 6.4 6.2 8.7 5.4 4.5 12.5 6.1 19.4 6.5-1.8 2.6-4.3 5-5.1 8.2-.8 2.2.2 4.5.6 6.6-6.6-.8-13.6-2.7-17.9-8.1zm81.1-6.7c10.4-.1 22.2-4.8 25.7-15.4 2.3 7.9 1.7 17.7-4.5 23.7-4.4 4.3-10.6 5.8-16.5 6.7.4-2.2 1.3-4.4.6-6.6-.8-3.4-3.3-5.7-5.3-8.4z" fill="#F9F9F8"/></svg>