<?xml version="1.0" encoding="utf-8"?>
<!-- Generator: Adobe Illustrator 16.0.0, SVG Export Plug-In . SVG Version: 6.00 Build 0)  -->
<!DOCTYPE svg PUBLIC "-//W3C//DTD SVG 1.1//EN" "http://www.w3.org/Graphics/SVG/1.1/DTD/svg11.dtd">
<svg version="1.1" id="Layer_1" xmlns="http://www.w3.org/2000/svg" xmlns:xlink="http://www.w3.org/1999/xlink" x="0px" y="0px"
	 width="88.3px" height="100px" viewBox="0 0 88.3 100" enable-background="new 0 0 88.3 100" xml:space="preserve">
<path fill="#8AC756" d="M38.8,7.9C41,6.4,43.9,6.6,46,8.1c8.3,4.7,16.4,9.6,24.7,14.3c2,1.2,4.6,2.6,4.4,5.3c0,11.3,0.1,22.6,0,33.9
	c0.1,2.1-2,3.3-3.6,4.4C62.2,71.2,52.8,76.6,43.5,82c-0.6,0-1.9,0.1-2.5,0.1c-3.9-2.5-8.2-4.6-11.8-7.5c1.8-0.8,3.6-1.7,5.4-2.5
	c2.5,1.4,5,2.9,7.4,4.5c9.6-4.9,18.7-10.8,28.1-16c-0.1-11,0.5-22-0.3-33c-9.3-4.9-18.4-10.3-27.4-15.7c-8.5,5-17.2,9.9-25.7,14.9
	c-1.1,0.7-2.6,1.4-2.4,3c-0.1,10.1,0.1,20.3-0.1,30.4c3.2,2.2,6.5,4.1,10,5.8c0.4,0,1.3,0.1,1.7,0.1c0.9-1,2.5-1.8,2.3-3.4
	c0.2-10.7-0.3-21.5,0.3-32.2c1.8,0,3.5,0.1,5.3,0.1c0,10.8,0,21.5,0,32.2c0.1,2.8-1.2,5.8-3.7,7.4c-3.5,1.9-7.9,1.2-11.2-0.8
	c-3.5-2.1-7.7-3.6-9.8-7.3c0.2-11.2,0-22.5,0.1-33.7c-0.1-2.1,1.3-4.1,3.1-5C21.2,18.2,30,13,38.8,7.9z"/>
<path fill="#8AC756" d="M39.4,32.6c3-2.6,7.2-3.2,11-3.2c3.9,0.3,8.3,0.9,10.9,4.1c1.6,1.9,1.8,4.3,2,6.6c-1.7,0-3.4,0-5.1,0
	c-0.8-5.9-7.8-6.4-12.4-5.2c-2.3,0.4-3.7,2.7-3,4.9c6,2.5,13,1.3,18.6,4.6c3.2,1.8,3.1,5.8,2.6,8.9c-1.2,3.7-5,5.8-8.6,6.3
	c-4.9,0.8-10.1,0.6-14.6-1.6c-3.4-1.7-5-5.7-4.7-9.4c1.7,0.1,3.5,0.1,5.2,0.3c0.5,2,1.1,4.6,3.4,5.1c3.9,1.4,8.4,1.4,12.2-0.2
	c2-1,2.9-4.4,0.4-5.3c-5.3-2.4-11.7-0.9-16.9-3.8C36.2,42.3,36,35.8,39.4,32.6z"/>
</svg>
