<svg xmlns="http://www.w3.org/2000/svg" width="191" height="48.7" viewBox="0 0 191 48.7"><path fill="#fff" d="M24.4 20.7l5.2-3.2-.2-5.7c-.1-1.9-.7-3.6-1.8-5.2-1.4-1.8-3.4-3.1-5.6-3.5-1.8-1.9-4.3-2.9-6.9-2.8-2.6.1-5 1.3-6.6 3.2-4.1 1.1-7 4.9-6.9 9.2 0 .9.2 1.8.6 2.6-.3.9-.4 1.9-.4 2.9.1 2 1 4.1 2.4 5.4 1.7 1.6 4 2.8 6 3.8 2.2 1.1 4.6 1.7 6.5 3.4.6.6 1.1 1.3 1.5 2.1-.3.9-.8 1.8-1.4 2.6-.9.2-2 .3-3 .1-.2-.2-.4-.4-.5-.6-1-1.3-1.6-2.9-1.6-4.6v-.3l-5.3-2.8h-.1l-5.1 3.2.2 5.7c.1 1.9.7 3.6 1.8 5.2 1.4 1.8 3.4 3.1 5.6 3.5 1.8 1.9 4.3 2.9 6.9 2.8 2.6-.1 5-1.3 6.6-3.2 4.1-1.1 7-4.9 6.9-9.2 0-.9-.2-1.8-.6-2.6.3-.9.4-1.9.4-2.9-.1-2-.9-4.1-2.4-5.4-.7-.6-1.4-1.2-2.2-1.7l-8.2-4c-.8-.4-1.5-.9-2.1-1.5-.6-.6-1.1-1.3-1.5-2.1.3-.9.8-1.8 1.4-2.6.9-.2 2-.3 3-.1.2.2.4.4.5.6 1 1.3 1.6 2.9 1.6 4.6v.3l5.3 2.8zm-13.7 10c.1 1.7.7 3.3 1.6 4.7-1.6-.5-3-1.5-4-2.9-.8-1.1-1.4-2.5-1.6-3.9l4 2.1zm-4.8-2.1c.1 1.6.7 3.2 1.7 4.4 1.4 1.9 3.5 3.2 5.8 3.5.6.1 1.2.1 1.8.1h.5l-.7.6c-1 .7-2 1.1-3.2 1.4l-1.3.2c-2.7.1-5.3-1.1-6.9-3.3-1-1.3-1.5-2.8-1.6-4.4l3.9-2.5zm3.1 15.5c-2.1-.4-3.9-1.5-5.2-3.2-1-1.4-1.6-3-1.6-4.7l-.1-1.6c.2.4.5.9.8 1.2 1.8 2.4 4.7 3.8 7.6 3.7.5 0 1-.1 1.5-.2 1.3-.3 2.4-.8 3.5-1.5.7-.5 1.3-1 1.8-1.6s.9-1.2 1.2-1.9c.1.3.1.6.1.9v.5c0 1-.1 2-.4 2.9-.6 1.6-1.7 3.1-3.1 4.1-1.3.9-2.8 1.4-4.5 1.5-.4.1-1 0-1.6-.1zm12.7-.2c-1.5 1.8-3.7 2.9-6.1 3-1.9.1-3.8-.5-5.3-1.7h.5c1.8-.1 3.5-.6 4.9-1.7 1.6-1.1 2.8-2.7 3.4-4.5.4-1 .5-2.1.5-3.3v-.5c-.1-.8-.3-1.6-.6-2.3s-.6-1.3-1.1-1.8l.8.5c1.1.6 2 1.3 2.7 2l.1.1c1.1 1.1 1.9 2.6 2 4.3v.5c.1 1.8-.5 3.8-1.8 5.4zm1.4-.6c.9-1.5 1.4-3.2 1.3-5v-.5c-.2-1.9-1-3.6-2.3-4.9l-.1-.1c-2.5-2.3-5.7-3.6-8.8-4.9-.9-.4-1.8-.8-2.6-1.2-2-1-4.2-2.2-5.8-3.7-1.2-1.2-2-3-2.1-4.8 0-.5 0-1 .1-1.6.3.6.7 1.1 1.2 1.5.8.7 1.7 1.5 2.9 2.2 1.1.7 2.3 1.3 3 1.7 3.5 1.7 7.1 3.2 10.5 5 1 .5 2 1 2.9 1.6 1.1.7 2.1 1.4 2.8 2.1.6.6 1.2 1.4 1.5 2.3.3.8.5 1.6.5 2.5.3 3.4-1.8 6.5-5 7.8zm-8.5-24.3l4.2 2c2.5 1.1 5.1 2.2 7.1 4.1 1.2 1.2 2 3 2.1 4.8 0 .5 0 1-.1 1.6-.3-.6-.7-1.1-1.2-1.5-.8-.7-1.7-1.5-2.9-2.2-3.4-2-7-3.7-10.6-5.3-2-.9-4-1.8-5.9-2.9-1.1-.7-2.1-1.4-2.8-2.1-.6-.6-1.2-1.4-1.5-2.3-.3-.8-.5-1.6-.5-2.5-.1-3.4 1.9-6.6 5.1-7.9-.9 1.5-1.4 3.2-1.3 5v.5c.2 1.9 1 3.6 2.3 4.9l.1.1c.7.7 1.7 1.4 2.8 2 1 .6 2 1.2 3.1 1.7zm-1.8-1.9l-.8-.5c-1.1-.6-2-1.3-2.7-2l-.1-.1c-1.1-1.1-1.9-2.6-2-4.3v-.5c-.1-2 .6-4 1.9-5.5 1.5-1.8 3.7-2.9 6.1-3 1.9 0 3.8.6 5.3 1.8h-.5c-1.8.1-3.5.6-4.9 1.7-1.6 1.1-2.8 2.7-3.4 4.5-.4 1-.5 2.1-.5 3.3v.5c.1.8.3 1.6.6 2.3.2.6.6 1.3 1 1.8zm.6-5.3c-.5.6-.9 1.2-1.2 1.9-.1-.3-.1-.6-.1-.9v-.5c0-1 .1-2 .4-2.9.6-1.6 1.7-3.1 3.1-4.1 1.3-.9 2.8-1.4 4.5-1.5.6 0 1.2 0 1.7.1 2.1.4 3.9 1.5 5.2 3.2 1 1.4 1.6 3 1.6 4.7l.1 1.6c-.2-.4-.5-.9-.8-1.2-1.8-2.4-4.7-3.8-7.6-3.7-.5 0-1 .1-1.5.2-1.3.3-2.4.8-3.5 1.5-.8.4-1.4 1-1.9 1.6zm3.9-.3c-.6-.1-1.2-.1-1.8-.1h-.5l.7-.6c1-.7 2-1.1 3.2-1.4l1.3-.2c2.7-.1 5.3 1.1 6.9 3.3 1 1.3 1.5 2.8 1.6 4.4l-3.8 2.4c-.2-1.6-.8-3.1-1.7-4.4-1.5-1.7-3.6-3-5.9-3.4zm1.1 1.2c1.6.5 3 1.5 4 2.9.8 1.1 1.4 2.5 1.6 3.9l-3.9-2.1c-.2-1.7-.7-3.3-1.7-4.7z"/><path d="M47.5 33.7c-2.1 0-3.8-.5-4.9-1.2l.3-1.9c1.1.7 2.9 1.4 4.8 1.4 2.2 0 3.8-1.2 3.8-3.3 0-1.8-.9-2.8-3.8-4-3.6-1.6-4.9-2.8-4.9-5.4 0-2.8 2.3-4.7 5.3-4.7 1.8 0 3.1.4 4.1 1l-.2 1.9c-1.1-.7-2.3-1.2-3.9-1.2-2.2 0-3.4 1.3-3.4 2.9 0 1.7.9 2.5 3.8 3.8 3.5 1.5 4.9 2.9 4.9 5.6-.1 3.1-2.6 5.1-5.9 5.1zm11.4-16c-.7 0-1.3-.6-1.3-1.3 0-.7.6-1.3 1.3-1.3.7 0 1.3.6 1.3 1.3 0 .7-.6 1.3-1.3 1.3zm-.9 15.8v-12.8h1.8v12.8h-1.8zm23.4 0v-8.8c0-1.6-.7-2.6-2.3-2.6-1.3 0-2.6.8-4 2.2v9.3h-1.8v-8.8c0-1.6-.7-2.6-2.3-2.6-1.3 0-2.7.8-4 2.2v9.3h-1.8v-13h1.4l.3 1.8c1.4-1.2 2.8-2.1 4.5-2.1 2 0 3.1.8 3.5 2.2 1.4-1.3 2.9-2.2 4.6-2.2 2.5 0 3.7 1.5 3.7 3.9v9.2h-1.8zm11.9.1c-1.3 0-2.4-.2-3.3-.6v5.1l-1.8.3v-17.7h1.4l.3 1.8c1-1.1 2.3-2.1 4.1-2.1 2.8 0 5.1 2 5.1 6.3.1 4.7-2.7 6.9-5.8 6.9zm.6-11.6c-1.5 0-2.7.9-3.8 2.3v7c1 .5 1.9.8 3.3.8 2.3 0 4.1-1.8 4.1-5.3-.1-3.1-1.6-4.8-3.6-4.8zm9.9 11.5v-19.1l1.8-.3v19.4h-1.8zm17-6.3h-8.9c.1 3.1 1.5 5 4.1 5 1.7 0 3.2-.8 4.5-1.9l.3 1.6c-1.3 1.1-2.9 1.8-4.9 1.8-3.3 0-5.7-2.3-5.7-6.7 0-4.1 2.4-6.6 5.5-6.6 3.5 0 5.2 2.9 5.2 6.4-.1.1-.1.3-.1.4zm-5.2-5.3c-2 0-3.3 1.5-3.6 3.9h7c-.3-2.3-1.3-3.9-3.4-3.9zm14.2 11.7c-1.8 0-3.2-.4-4.6-.8v-18.4l1.8-.3v8.3c.9-1 2.2-1.9 3.9-1.9 2.8 0 5.1 2 5.1 6.3 0 4.6-2.7 6.8-6.2 6.8zm.9-11.6c-1.4 0-2.6.9-3.8 2.2v7.3c.8.3 1.6.5 2.9.5 2.5 0 4.3-1.6 4.3-5.3.1-3-1.4-4.7-3.4-4.7zm9.9 11.5v-19.1l1.8-.3v19.4h-1.8zm17-6.3h-8.9c.1 3.1 1.5 5 4.1 5 1.7 0 3.2-.8 4.5-1.9l.3 1.6c-1.3 1.1-2.9 1.8-4.9 1.8-3.3 0-5.7-2.3-5.7-6.7 0-4.1 2.4-6.6 5.5-6.6 3.5 0 5.2 2.9 5.2 6.4-.1.1-.1.3-.1.4zm-5.2-5.3c-2 0-3.3 1.5-3.6 3.9h7c-.2-2.3-1.3-3.9-3.4-3.9zm17.9 11.6v-8.8c0-1.6-.8-2.6-2.4-2.6-1.3 0-2.7.8-4.1 2.2v9.2h-1.8v-12.8h1.4l.3 1.9c1.4-1.2 2.9-2.2 4.6-2.2 2.5 0 3.8 1.5 3.8 3.9v9.1h-1.8v.1zm15.6 0l-.3-1.9c-1 1.2-2.2 2.1-4.1 2.1-2.8 0-5.2-2-5.2-6.3 0-4.7 2.7-6.9 5.8-6.9 1.3 0 2.4.2 3.3.6v-6.7l1.8-.3v19.4h-1.3zm-.4-10.7c-1-.5-1.9-.8-3.3-.8-2.3 0-4.1 1.7-4.1 5.3 0 3.1 1.5 4.8 3.5 4.8 1.5 0 2.7-.9 3.8-2.3l.1-7z" enable-background="new" fill="#fff"/></svg>