<svg xmlns="http://www.w3.org/2000/svg" width="748" height="189" viewBox="0 0 748 189"><path fill="#F7DC3E" d="M2.105 177.33v-170.62h168.6c.73 0 1.46-.03 2.19-.05l.16.04v168.51c0 .7-.01 1.41-.02 2.11-.93.189-1.87 0-2.8 0-56.04.01-112.08.01-168.13.01zm93.01-92.34c-.2-.2-.46-.14-.69-.14-4.89 0-9.78 0-14.67.01-.21 0-.48-.14-.63.16-.01.32-.04.65-.04.97-.06 18.609.12 37.22-.09 55.83-.07.51-.12 1.02-.22 1.529-.51 2.631-1.62 4.82-4.34 5.811-1.19.439-2.43.52-3.68.56-2.99.11-5.43-1-7.37-3.27-1.17-1.37-2.08-2.9-2.96-4.46-.21-.381-.35-.49-.78-.23-4.04 2.471-8.1 4.91-12.16 7.36-.35.21-.4.39-.21.76 3.55 7.07 9.08 11.66 16.85 13.46 2.01.471 4.06.6 6.11.78l-.79.069.01.07h3.35v-.08l-.46-.06c2.02-.19 4.04-.32 6.03-.78 4.94-1.13 9.18-3.42 12.25-7.55 2.69-3.63 3.91-7.8 4.31-12.25.15-.16.14-.351.08-.54l.02-.21c.27-1.04.18-2.101.18-3.149.01-17.9.01-35.801 0-53.69.01-.32.07-.66-.1-.96zm36.67 79.119c-.15.07-.36-.039-.49.15h4.02v-.08l-.95-.07c.32-.029.64-.09.96-.1 3.49-.15 6.89-.76 10.16-2 5.66-2.14 10.06-5.689 12.51-11.359 1.71-3.961 1.99-8.121 1.54-12.371-.54-5.1-2.59-9.459-6.33-13.01-3.11-2.939-6.75-5.08-10.59-6.869-3.85-1.801-7.76-3.461-11.62-5.23-1.73-.79-3.34-1.779-4.69-3.17-2.67-2.74-2.88-9.25 2.42-11.23 3.9-1.449 7.58-.81 10.73 2.061 1.13 1.029 1.99 2.29 2.75 3.609.21.371.38.5.79.23 3.84-2.49 7.69-4.96 11.55-7.43.33-.211.45-.37.22-.75-3.37-5.73-7.99-9.85-14.58-11.5-2.19-.55-4.43-.74-6.67-.93.16-.07.36.03.5-.15h-3.37v.07l.47.08c-.27.04-.53.09-.8.1-2.48.1-4.9.54-7.25 1.34-6.21 2.13-10.74 6.08-13.1 12.311-1.35 3.549-1.52 7.229-1.1 10.969.48 4.261 2 8.07 4.79 11.351 2.75 3.21 6.2 5.47 9.92 7.37 4.03 2.05 8.3 3.59 12.37 5.55 2.08 1 4.15 2.021 5.76 3.74 2.69 2.87 2.61 7.399-.22 10.12-1.75 1.68-3.91 2.47-6.29 2.73l-4.96.01c-2.09-.15-4.02-.811-5.85-1.811-3.01-1.65-5.19-4.15-6.99-7-.4-.63-.68-.67-1.3-.3-3.83 2.25-7.67 4.479-11.53 6.68-.62.351-.7.601-.35 1.21 4.79 8.57 12.21 13.311 21.73 15.051 1.96.369 3.9.439 5.84.628z"/><path fill="#F2E592" d="M173.045 177.33c.01-.7.02-1.41.02-2.11v-168.51h.32c0 56.74 0 113.479-.02 170.22 0 .211.4.75-.3.73l-.02-.33z"/><path fill="#FADE5A" d="M173.045 177.33l.01.33c-56.74 0-113.48 0-170.22-.02-.21 0-.75.399-.73-.301h168.14c.93-.009 1.87.171 2.8-.009z"/><path fill="#FBF7BF" d="M173.375 6.71h-.32l-.16-.04c-.3-.21-.63-.11-.95-.11-56.61-.02-113.23-.02-169.84-.02.03-.04-.09-.16.08-.16h.65c56.6 0 113.21 0 169.81.02.21 0 .75-.4.73.31z"/><path fill="#E4D88D" d="M2.105 6.54h169.85c.32 0 .65-.09.95.11-.73.01-1.46.05-2.19.05h-168.6v-.16h-.01z"/><path fill="#30302D" d="M135.225 149.65c2.38-.26 4.54-1.041 6.29-2.73 2.83-2.72 2.91-7.25.22-10.12-1.61-1.72-3.68-2.75-5.76-3.739-4.08-1.961-8.34-3.5-12.37-5.551-3.72-1.9-7.18-4.15-9.92-7.369-2.79-3.281-4.32-7.091-4.79-11.351-.42-3.74-.25-7.42 1.1-10.97 2.37-6.22 6.9-10.17 13.1-12.311 2.34-.81 4.76-1.25 7.25-1.34.27-.01.53-.07.8-.1l2.4.01c2.24.18 4.48.38 6.67.93 6.58 1.65 11.21 5.771 14.58 11.5.23.391.11.54-.22.75-3.86 2.471-7.71 4.94-11.55 7.43-.42.271-.58.141-.79-.229-.76-1.319-1.62-2.58-2.75-3.61-3.15-2.88-6.83-3.52-10.73-2.06-5.31 1.979-5.09 8.49-2.42 11.229 1.35 1.391 2.96 2.381 4.69 3.17 3.86 1.771 7.78 3.431 11.62 5.23 3.84 1.79 7.49 3.92 10.59 6.87 3.74 3.54 5.78 7.91 6.33 13.01.45 4.24.17 8.4-1.54 12.37-2.45 5.67-6.85 9.23-12.51 11.36-3.27 1.239-6.67 1.85-10.16 2-.32.01-.64.069-.96.1h-2.58c-1.94-.19-3.89-.271-5.81-.62-9.52-1.74-16.94-6.479-21.73-15.05-.35-.62-.27-.87.35-1.22 3.86-2.19 7.7-4.42 11.53-6.68.62-.371.9-.33 1.3.299 1.81 2.851 3.98 5.351 6.99 7 1.82 1 3.76 1.66 5.85 1.811 1.63.27 3.28.27 4.93-.019z"/><path fill="#302F2D" d="M70.245 164.12c-2.05-.181-4.1-.31-6.11-.78-7.76-1.8-13.3-6.38-16.84-13.46-.19-.37-.13-.55.21-.76 4.06-2.44 8.11-4.89 12.16-7.36.42-.26.56-.15.78.23.87 1.56 1.79 3.09 2.96 4.46 1.94 2.27 4.38 3.38 7.37 3.27 1.25-.04 2.49-.13 3.68-.56 2.71-.99 3.83-3.18 4.34-5.811.1-.5.15-1.02.22-1.529.49-.26.27-.721.27-1.09.01-18.17.02-36.34 0-54.51 0-.82.22-1.06 1.05-1.06 4.45.04 8.9.02 13.34.02 1.26 0 1.26 0 1.26 1.22v52.23l.01 4.39.03.511c-.41 4.45-1.62 8.62-4.32 12.25-3.07 4.13-7.31 6.42-12.25 7.55-1.99.46-4.01.59-6.03.779-.73-.001-1.43-.001-2.13.01z"/><path fill="#3E3516" d="M94.915 143.03l-.01-4.39v-52.24c0-1.22 0-1.22-1.26-1.22-4.45 0-8.9.02-13.34-.02-.83-.01-1.05.23-1.05 1.06.02 18.171.02 36.341 0 54.511 0 .369.22.83-.27 1.09.21-18.61.03-37.221.09-55.83 0-.32.03-.65.04-.97l15.95.02v54.58c0 1.05-.01 2.11-.02 3.17l-.02.21-.11.029z"/><path fill="#A29567" d="M95.045 142.79c.01-1.06.02-2.11.02-3.17v-54.58l.04-.05c.17.3.12.63.12.96v53.69c0 1.049.09 2.11-.18 3.15z"/><path fill="#E5D78A" d="M95.115 84.99l-.04.05-15.95-.02c.15-.3.42-.16.63-.16 4.89-.01 9.78-.01 14.67-.01.23 0 .49-.06.69.14z"/><path fill="#D4C57D" d="M135.225 149.65c-1.65.289-3.3.289-4.96.01l4.96-.01z"/><path fill="#F0D96B" d="M131.785 164.109h2.58l.95.07v.08h-4.02c.13-.198.34-.079.49-.15z"/><path fill="#F3D86D" d="M133.545 84.08l-2.4-.01-.47-.07v-.07h3.37c-.14.18-.34.08-.5.15z"/><path fill="#EFD96B" d="M70.245 164.12h2.11l.46.06v.08h-3.35l-.01-.07.79-.07z"/><path fill="#A29567" d="M94.915 143.03l.11-.03c.06.189.07.38-.08.54l-.03-.51z"/><path fill="#fff" d="M251.61 86.124h-12.62v-12.54h-9.41v12.54h-12.46v9.399h12.46v12.541h9.41v-12.53h12.62v-9.41zm283.31 0h-12.62v-12.54h-9.409v12.54h-12.46v9.399h12.46v12.541h9.409v-12.53h12.62v-9.41z"/><path d="M417.699 139.83l-.14.08.14-.08zm-.88.38l-.07.03.07-.03zm.5-.19l-.13.061.13-.061zm-38.91-41.17l-.03-19.58h.011v-.17l-.011.17.03 19.58zm45.18-19.53l.17.13.15.2.04.07.06.2.051.29c.02.23.02.5-.011.83-.939 9.7-1.79 19.399-2.659 29.101-.761 8.43-1.54 16.859-2.221 25.299-.12 1.451-.18 2.4-.39 3.07.2-.67.27-1.619.39-3.07.681-8.439 1.46-16.869 2.221-25.299.869-9.701 1.729-19.411 2.659-29.101.091-.98-.02-1.5-.52-1.74l.02.01.04.01zm-45.19-.29c-4.41.04-8.82.08-13.23.1-3.83.02-7.66-.02-11.489.02-.921.01-1.341-.21-1.421-1.23-.47-5.9-.989-11.79-1.529-17.68-.021-.19-.03-.36-.03-.5 0 .15.01.31.03.5.54 5.89 1.06 11.78 1.529 17.68.08 1.01.5 1.23 1.421 1.23 3.829-.04 7.659 0 11.489-.02 4.41-.02 8.82-.06 13.23-.1v.04-.04l.03-19.83c-.02 6.61-.03 13.22-.03 19.83zm.02-39.68h-.02l.02-.1-.02.1h.02zm-.02 19.67h-.009v.01l.029.13v-.02zm0-33.81v.21-.21zm40.371 113.36l-.09.24.09-.24zm6.179-79.46h.04c.72-.03.99-.34 1.09-1.01l-.03.12c-.23.54-.69.78-1.1.89zm-67.05 86.17c-5.851-1.62-11.71-3.24-17.57-4.83 5.86 1.59 11.72 3.21 17.57 4.83zm60.121-5.639l-.141.09.141-.09zm.25-.221l-.13.12.13-.12zm.209-.24l-.12.15.12-.15zm.161-.28l-.101.189.101-.189zm8.96-98.11c-.561 5.71-1.03 11.42-1.5 17.14v.03l.01-.03c.469-5.72.939-11.43 1.49-17.14.109-1.09-.07-1.47-1.021-1.53h.021c.939.07 1.109.45 1 1.53zm-28.79 84.01c.439-.12.77-.26 1-.46-.241.2-.561.34-1 .46-6.82 1.78-13.61 3.66-20.41 5.511l.03-.131-.03.131c6.799-1.851 13.589-3.731 20.41-5.511zm-20.401-9.08l.01 14.45-.01-14.45zm-23.22-5.49c.31 4.34.79 8.66 1.18 12.989.07.761.19 1.24 1.08 1.47 6.83 1.801 13.64 3.66 20.45 5.5.08.021.17.021.25.011-.09.01-.17.01-.25-.011-6.82-1.84-13.63-3.699-20.45-5.5-.89-.229-1.02-.709-1.08-1.47-.38-4.328-.86-8.649-1.18-12.989-.09-1.271-.45-1.621-1.73-1.601 1.28-.02 1.641.331 1.73 1.601zm-22.89-33.75c-.75-8.59-1.54-17.19-2.31-25.78-.28-3.17-.46-6.36-.88-9.51-.05-.38-.08-.69-.061-.94-.02.25.011.57.061.95.42 3.15.6 6.34.88 9.51.77 8.59 1.55 17.18 2.31 25.77.66 7.44 1.28 14.89 1.91 22.331l.05.039-.05-.039c-.64-7.441-1.26-14.881-1.91-22.331zm46.1 75.459c.03.381.01.771.01 1.15 0-.389.021-.778-.01-1.15zm-33.21-43.239c-2.76 0-5.51-.021-8.271-.07 2.762.05 5.512.07 8.271.07zm33.23-69.46v-.5.49.01z" fill="none"/><path fill="#EBE9E9" d="M378.39 79.27l.01-.17v-.06c-4.41.04-8.82.08-13.23.1-3.83.02-7.66-.02-11.489.02-.921.01-1.341-.21-1.421-1.23-.47-5.9-.989-11.79-1.529-17.68-.021-.19-.03-.36-.03-.5.01-.44.18-.66.9-.66 8.939.05 17.88.07 26.81.09v-.02l-.02-.13v-19.68l.02-.1v-.02c-.689.02-1.39.06-2.08.06-15.189 0-30.38.03-45.57-.04-1.229-.01-1.67.24-1.72 1-.02.25.01.57.061.94.42 3.15.6 6.34.88 9.51.77 8.59 1.56 17.19 2.31 25.78.66 7.44 1.28 14.88 1.91 22.331l.56.039h43.53l.12-.01-.022-19.57z"/><path fill="#F0672C" d="M398.81 124.79c.439-.12.76-.26 1-.45.39-.33.54-.8.609-1.529.59-7.271 1.28-14.53 1.96-21.791.19-2.08.23-2.08-1.89-2.08-7.36-.029-14.71-.06-22.07-.09l-.12.01h.131v1.951l.02.47c-.03 4.819-.04 9.63-.03 14.45.011 4.819.011 9.629.011 14.449l-.03.131c6.798-1.851 13.588-3.731 20.409-5.521zm.919-25.601l-1.34.431 1.34-.431zm-65.47-.33h.5l-.56-.039.06.039z"/><path fill="#E44F26" d="M352.259 77.93c.08 1.01.5 1.23 1.421 1.23 3.829-.04 7.659 0 11.489-.02 4.41-.02 8.82-.07 13.23-.1.01-6.61.02-13.22.02-19.83h-.02.02v-.03c-8.939-.03-17.88-.04-26.81-.09-.72 0-.89.22-.9.66 0 .14.011.31.03.5.54 5.89 1.05 11.78 1.52 17.68z"/><path d="M398.39 99.62l1.339-.431m-21.31-39.989h-.02" fill="none"/><path fill="#F1662A" d="M378.39 79.27v-.1.1zm.029-39.92v-.1l-.02.1h.02zm0 19.67h-.02l.02.11v-.11zm62.13-39.28c-20.09.04-40.17.04-60.26 0-1.43 0-1.92.44-1.899 1.89l.02 3.57v.21c.021 4.44.021 8.88.021 13.32v.5h46.51c.52-.01 1.31-.01 1.66.02.949.06 1.12.44 1.02 1.53-.56 5.71-1.03 11.42-1.5 17.14l-.01.03v.08l-.021.07c-.09.67-.369.97-1.09 1.01h-.06v.07h-46.51v.02c-.011 6.61-.021 13.22-.021 19.82v.04h44.08v.01c.2-.01.68 0 1.06.22.5.25.61.77.521 1.74-.94 9.7-1.79 19.4-2.66 29.1-.76 8.431-1.54 16.86-2.22 25.3-.12 1.461-.19 2.4-.391 3.07l-.02.061-.09.239-.04.08-.101.19-.06.09-.12.15-.09.1-.13.12-.13.1-.141.09-.17.101-.14.08-.24.109-.13.061-.36.13-.069.03c-.341.109-.721.229-1.17.359l.27-.01-37.45 10.609v.74c.03.381.01.771.01 1.15.011 5.4.04 10.8-.02 16.2-.02 1.479.11 2.06 1.9 1.54 9.14-2.62 18.33-5.08 27.489-7.61 7.04-1.95 14.08-3.92 21.11-5.89.83-.23 1.7-.37 1.78-1.561.189-2.82.46-5.65.689-8.47.37-4.5.73-8.99 1.12-13.479.41-4.66.891-9.32 1.311-13.98.29-3.17.52-6.34.8-9.51l1.29-14.16c.27-3.05.51-6.11.79-9.16l1.3-13.81c.39-4.32.75-8.64 1.13-12.96.43-4.89.87-9.79 1.32-14.68.3-3.34.64-6.67.93-10.01.4-4.61.74-9.22 1.17-13.83.021-.19.021-.37.021-.53-.049-1.119-.699-1.439-2.009-1.439z"/><path fill="#FFFFFE" d="M378.419 39.24v.11c9.44-.02 18.88-.05 28.33-.06 5.9-.01 11.79.02 17.69-.03l.01-.01.49-.01h-46.52zm46.19 19.88c-15.4-.05-30.8-.07-46.2-.09v.16h46.51v-.07l-.33.06.02-.06zm-.179-19.86c-5.9.04-11.79.021-17.69.03-9.45.01-18.89.04-28.33.06h-.02v19.68h.02c15.4.03 30.8.05 46.2.09l-.01.06.33-.06h.02c.41-.11.87-.35 1.09-.88l.03-.12.02-.07v-.111c.471-5.71.931-11.43 1.5-17.14.11-1.08-.06-1.47-1-1.53h-.02c-.34-.04-1.13-.03-1.66-.02l-.49.01h.01z"/><path fill="#E44F26" d="M299.669 6.54c1.28 14.27 2.561 28.54 3.851 42.81 1.12 12.42 2.25 24.84 3.359 37.26 1.101 12.31 2.17 24.61 3.261 36.92 1.26 14.21 2.56 28.43 3.79 42.64.029.38.14.63.279.8l64.45 17.73 64.04-18.06c.11-.23.18-.511.21-.871 1.43-16.41 2.93-32.81 4.39-49.209 1.45-16.291 2.86-32.581 4.32-48.871 1.57-17.56 3.17-35.11 4.76-52.67.261-2.83.511-5.66.771-8.49-52.491.011-104.991.011-157.481.011zm142.86 15.17c-.42 4.6-.771 9.22-1.17 13.83-.29 3.34-.63 6.67-.93 10.01-.45 4.89-.891 9.79-1.32 14.68-.38 4.32-.74 8.64-1.13 12.96-.42 4.6-.87 9.21-1.3 13.81-.28 3.05-.521 6.11-.79 9.16l-1.29 14.16c-.28 3.17-.511 6.34-.801 9.51-.42 4.66-.899 9.32-1.31 13.98-.4 4.489-.75 8.989-1.12 13.479-.229 2.819-.5 5.649-.689 8.47-.08 1.19-.96 1.33-1.78 1.561-7.03 1.97-14.07 3.939-21.11 5.89-9.16 2.53-18.35 4.99-27.49 7.61-1.79.51-1.909-.061-1.899-1.54.06-5.4.03-10.8.02-16.2 0-.38.021-.77-.01-1.15v-.74l-.06.021v-.13l-8.601-2.5.021-.01c-3.95-1.1-7.9-2.2-11.86-3.29-5.85-1.62-11.71-3.24-17.57-4.83l-.409-.11c-1.57-.42-2.11-1.119-2.24-2.65-.76-9.069-1.561-18.129-2.42-27.189-.13-1.41.109-1.9 1.66-1.87 2.76.05 5.51.07 8.27.07s5.51-.021 8.27-.07c1.28-.021 1.641.33 1.73 1.601.31 4.34.79 8.66 1.18 12.99.07.76.19 1.239 1.08 1.469 6.83 1.801 13.641 3.66 20.45 5.5.08.021.17.021.25.011l.26-.03-.01-14.449c0-4.82 0-9.631.03-14.451l-.021-.47v-1.95h-44.16l-.05-.039c-.64-7.44-1.26-14.891-1.91-22.331-.75-8.59-1.54-17.19-2.31-25.78-.28-3.17-.46-6.36-.88-9.51-.05-.38-.08-.69-.061-.95.051-.76.49-1.01 1.721-1 15.189.07 30.38.04 45.569.04.69 0 1.391-.04 2.08-.06v-.49c0-4.44 0-8.88-.02-13.32v-.21c-.01-1.19 0-2.38-.021-3.57-.02-1.45.471-1.89 1.9-1.89 20.09.04 40.17.04 60.26 0 1.32 0 1.96.31 2 1.44.022.157.011.337-.009.527z"/><path fill="#EBEAEA" d="M378.399 141.061l-.01-10.75.029-.131-.26.03c-.09.01-.17.01-.25-.01-6.82-1.841-13.63-3.7-20.45-5.5-.89-.23-1.02-.71-1.08-1.47-.38-4.33-.859-8.65-1.18-12.99-.09-1.271-.45-1.62-1.729-1.6-2.761.039-5.511.06-8.271.069-2.76 0-5.51-.021-8.27-.069-1.551-.031-1.801.459-1.66 1.869.859 9.061 1.67 18.12 2.42 27.19.13 1.53.67 2.229 2.24 2.649l.409.11c5.86 1.59 11.721 3.2 17.57 4.83 3.95 1.101 7.9 2.19 11.86 3.29l-.021.01 8.601 2.5.052-10.027z"/><path fill="#FFFEFD" d="M415.569 140.59c.45-.13.84-.24 1.17-.359l.07-.03.359-.13.13-.061.24-.109.141-.08.17-.101.14-.09.13-.101.13-.119.09-.1.12-.15.061-.09.1-.19.04-.08.09-.239.021-.061c.2-.67.27-1.62.39-3.07.68-8.439 1.46-16.869 2.22-25.3.87-9.7 1.721-19.41 2.66-29.1.03-.33.03-.6.011-.83l-.051-.29-.06-.2-.04-.07-.15-.2-.17-.13-.029-.02-.021-.01c-.39-.23-.87-.24-1.06-.22v-.01h-44.08v.21h-.011c.011 6.53.021 13.05.03 19.58 7.36.03 14.71.061 22.07.09 2.12.01 2.09 0 1.89 2.08-.68 7.26-1.37 14.52-1.96 21.79-.06.74-.21 1.21-.609 1.53-.24.199-.561.34-1 .46-6.82 1.78-13.61 3.66-20.41 5.51l.01 10.75-.06 10.011v.129l.06-.02 37.45-10.609-.282.029z"/><path d="M653.26 79.28h-.05v19.14h.061l.06-19-.071-.14c7.931.02 15.86 0 23.79.09-7.93-.09-15.86-.07-23.79-.09zm-.05-.01h.05v.01h-.05zm42.92-39.85c7 .01 7.17.02 6.591 6.83-1.521 17.75-3.231 35.48-4.811 53.22-.96 10.71-1.8 21.44-2.7 32.16-.02.261-.05.521-.08.78l.08-.78c.9-10.72 1.75-21.45 2.7-32.16 1.58-17.74 3.29-35.47 4.811-53.22.59-6.8.409-6.81-6.591-6.83l-17.3-.03 17.3.03zm-1.37 96.7c.08-.87.171-1.75.261-2.62-.09.88-.19 1.76-.261 2.63v-.01zm-84.02-36.89c-.85-.211-1.13-.78-1.19-1.621-.409-5.25-.8-10.5-1.329-15.739v-.01.02c.529 5.24.92 10.49 1.329 15.74.06.83.341 1.4 1.19 1.61zm.031.03l.02.01-.02-.01zm102.069-14.81l.631-6.98-5.591 60.11zm-62.14 14.82h.01zm16.17-80.27l-.01.01 5.78-.01-16.83-.02c-.25 0-.48.01-.69.03h1.76l9.99-.01zm46.72-.02c-7.75.02-15.51.03-23.26.04 7.75-.01 15.5-.02 23.26-.04zm-93.15 90.15h.77-.77zm51-69.75c-6.03-.01-12.05-.02-18.08-.04 5.95.01 11.91.02 17.86.04h.22zm3.491 127.11c.75-.2 1.5-.41 2.25-.62l-.95.26-1.3.36zm-44.021-54.65c.26 3.58.61 7.16.8 10.74.08 1.5.57 2.22 2.101 2.62l1.71.45c-.57-.15-1.141-.311-1.71-.45-1.53-.39-2.021-1.12-2.101-2.62-.189-3.58-.54-7.16-.8-10.74-.11-1.57-.65-2.439-1.93-2.71 1.27.27 1.82 1.14 1.93 2.71zm49.53 53.13c4.359-1.22 8.71-2.47 13.069-3.7-4.359 1.23-8.72 2.461-13.079 3.69l.01.01zm-21.58-35.73l.33-.07c.399-.09.8-.2 1.2-.3l-1.53.37z" fill="none"/><path fill="#E9EAEB" d="M653.16 151.15l.061.029.05-.01v-.09l-.111.071zm.231-20.65l-.23.05v.42l.23-.03v-.44zm-.231.47l-.02-.55h.02v-.02c-5.88-1.59-11.75-3.211-17.64-4.74-.57-.15-1.141-.311-1.71-.45-1.53-.39-2.021-1.12-2.101-2.62-.18-3.58-.54-7.16-.8-10.74-.11-1.569-.66-2.439-1.93-2.709h-6.16c-.54 0-1.07.01-1.61 0h-8.62c-2.159.14-2.069.799-1.729 4.129.81 7.98 1.689 15.961 2.26 23.961.16 2.209.86 3.069 2.91 3.629 12.39 3.371 24.75 6.86 37.12 10.311v-20.2h.01z"/><path fill="#76B4DE" d="M653.26 79.27c7.931.03 15.86 0 23.79.1 1.69.02 2.61-.5 2.75-2.21.381-4.49.771-8.97 1.171-13.46v-.34c.22-2.45-.131-2.84-.53-3.41-.391-.57-1.61-.39-1.61-.39h-25.66c.029 6.57.059 13.14.089 19.71z"/><path fill="#74B3DE" d="M649.44 99.27l-38.67-.01.02.01h39.91l.01-.01h-1.27v.01zm-38.7-.04zm42.47 31.18l-.05-.01v.02l.05-.01zm5.65-1.17c.51-.12 1.02-.24 1.53-.37l.25-.06c2.899-.74 5.77-1.621 8.649-2.44l.21-.06c.67-.19 1.351-.371 2.03-.551l.7-.189c.79-.211 1.59-.4 2.38-.58l.2-.051c1.18-.26 1.189-1.319 1.27-2.289.62-7.041 1.23-14.08 1.88-21.12.141-1.48-.069-2.431-1.93-2.4-7.58.11-15.149.13-22.729.181h-.11c.04 10.299.09 20.609.14 30.909.9-.1 1.801-.239 2.69-.39l2.84-.59z"/><path fill="#73B2DE" d="M666.87 19l-9.99.02h-1.76l-.05.01 11.79-.01.01-.02z"/><path fill="#449AD5" d="M730.13 6.44c-.239-.02-.5-.03-.779-.03-25.091.14-50.181.08-75.261.08-25.189 0-50.39.04-75.58-.06l-.31.01h-2.93l14.62 160.791 62.59 17.58 65.92-18.17.03-.07 14.07-160.131h-2.37zm-13.489 36.93l-.08.69c-.17 1.27-.261 2.53-.34 3.8l-2.75 29.62-.631 6.98-4.96 53.13-1.399 15.07-.011.01v.1l-.04.461c-.159 1.26-.859 4.319-4.01 5.569-2.97.82-5.939 1.65-8.91 2.49-4.359 1.229-8.71 2.47-13.069 3.7l.04.02-3.301.891-2.25.63v-.011l-.399.11h.149l-16.22 4.31c-1.85.631-3.03 1.031-3.79 1.011l-1.46.39-.16.04.12-21.021-.02-.119.03-.01v-.03c-12.37-3.45-24.73-6.95-37.12-10.31-2.061-.561-2.75-1.42-2.91-3.631-.57-8-1.45-15.979-2.26-23.96-.341-3.329-.431-4 1.729-4.13h16.381c1.28.27 1.82 1.141 1.931 2.71.26 3.58.609 7.16.8 10.74.08 1.5.569 2.22 2.1 2.62l1.71.449c5.9 1.531 11.771 3.15 17.641 4.74l.05.01.16-.029-.04-.16c-.051-10.3-.091-20.609-.141-30.91l.011-.04h-2.49l-.01.011h-39.932l-.02-.011h-.03v-.02c-.85-.21-1.13-.78-1.2-1.62-.41-5.25-.8-10.5-1.33-15.74v-.02l-.02-.31-.011-.08c-.199-2.41 1.65-2.2 1.65-2.2h43.38v-.01h.05c-.029-6.57-.05-13.14-.08-19.71h-.01v-.04h-.05v.04h-40.69v-.02l-2.93.01h-.76c-1.62.02-2.47-.29-2.62-2.18-.2-2.55-.45-5.09-.71-7.63l-.04-.36-.43-4.06-.061-.55c-.12-1.11-.239-2.21-.35-3.32l-.01-.04v-.07l-.03-.32v-.13l-.03-.11c-.12-1.3.88-1.45 1.13-1.47l.16-.01h47.55c0-2.39.011-4.78.021-7.17l-.08.05-.061-13.17h1.891l.05-.01c.21-.021.44-.03.69-.03 5.609.02 11.22.02 16.829.02 5.891.01 11.79.01 17.681.01 7.75 0 15.51-.01 23.26-.04h2.54c1.78-.01 2.5.56 2.61 1.83l-2.088 22.55zm-63.471 107.819l.051-.01-.061-.02.01.03z"/><path fill="#E9EAEB" d="M653.32 39.38l-.01-.04v-.02h-47.55l-.159.01c-.25.02-1.25.17-1.13 1.47l.029.11v.13l.03.32v.07l.01.04.351 3.32.06.55.43 4.06.04.36c.261 2.54.511 5.08.71 7.63.15 1.89.99 2.2 2.62 2.18h.761c.979-.01 1.949-.01 2.93-.01v.02h40.689v-.04h.051v-20.16h.138zm-.11 59.04v-19.14h.05v-.01h-43.43s-1.859-.21-1.65 2.2l.011.08.02.31v.01c.53 5.24.92 10.49 1.33 15.739.07.841.351 1.41 1.2 1.621v.02h38.7v.01h3.76v-.84h.009z"/><path fill="#FDFEFF" d="M653.13 130.42l.021.55h.01v-.42l.23-.05v.439l-.23.03v20.181l.12-.08v.09l1.5-.391 37.06-10.34-.02-.02s2.439-.25 2.939-4.28c.08-.88.171-1.76.261-2.63l.109-1.09.08-.78c.9-10.72 1.75-21.45 2.7-32.16 1.58-17.74 3.29-35.47 4.811-53.22.58-6.81.409-6.82-6.591-6.83l-17.3-.03-7.39-.01h-.21c-5.95-.01-11.91-.02-17.86-.04h-.06l.01.04h-.15v20.18h25.67s1.21-.18 1.61.39c.4.57.74.96.53 3.41v.34c-.391 4.48-.78 8.97-1.17 13.46-.141 1.71-1.07 2.23-2.75 2.21-7.931-.09-15.86-.07-23.79-.09l.08.14-.061 19h-.06v.84l-.01.04h.109c7.58-.05 15.15-.069 22.73-.18 1.859-.03 2.069.92 1.93 2.399-.65 7.041-1.27 14.08-1.88 21.121-.08.969-.09 2.02-1.271 2.289l-.199.051c-.801.18-1.591.369-2.381.58l-.699.189c-.681.18-1.351.359-2.03.55l-.21.06c-2.88.82-5.75 1.711-8.65 2.44l-.25.06-1.2.301-.33.07-2.829.59c-.891.16-1.79.289-2.69.39l.04.16-.16.03-.05.01-.069.011z"/><path fill="#74B3DE" d="M716.13 18.97h-2.54c-7.75.02-15.51.03-23.27.03-5.89 0-11.79 0-17.68-.01l-5.78.01-11.79.01h-1.89l.06 13.17.08-.05c-.01 2.39-.021 4.78-.021 7.17v.02h.061c6.03.01 12.05.02 18.08.04l7.39.01 17.3.03c7 .01 7.17.02 6.591 6.83-1.521 17.75-3.23 35.48-4.811 53.22-.96 10.72-1.8 21.44-2.7 32.159-.02.261-.05.521-.08.781l-.109 1.09c-.09.869-.181 1.75-.261 2.619v.01c-.5 4.041-2.939 4.281-2.939 4.281l.02.02-37.06 10.34-1.5.391-.05.01-.05.01-.011-.03v-.01.01.03l-.029.01.02.12-.12 21.021.16-.041 1.46-.39c.76.021 1.94-.38 3.79-1.01l16.22-4.31h-.149l.399-.11 1.301-.36.949-.26 3.301-.891-.04-.02-.011-.01 13.08-3.69c2.971-.84 5.94-1.67 8.91-2.489 3.14-1.25 3.85-4.311 4.01-5.57l.04-.46v-.101l.011-.01 1.399-15.07 5.59-60.109 2.75-29.62c.07-1.27.17-2.53.341-3.8l.079-.69 2.101-22.56c-.102-1.201-.822-1.771-2.602-1.771z"/></svg>