<svg xmlns="http://www.w3.org/2000/svg" width="100" height="100" viewBox="0 0 100 100"><path fill="#B3B3B3" d="M46.5 5.6c2.1-1.3 4.7-2.8 7-1.1l3 1 3 1c1.7.5 3.4 1.2 5 2l3.1.9 3 1c1 .3 2 .6 3 1 1 .3 2 .6 3 1 1 .3 2 .6 3 1l3 1c1 .3 2 .6 3 1l3 1c2.3.5 4.3 2.2 6.7 2.3-.2 2.2.2 4.7-1 6.7-.3 2.7.4 5.6-1 8-.4 3 .5 6.3-1 9-.3 2.7.5 5.6-1 8-.3 2.7.5 5.6-1 8-.3 2.7.5 5.6-1 8-.3 2.7.5 5.6-1 8 0 .6 0 1.8-.1 2.4-4.6 1.9-9 4.9-13.7 6.8-3.4 2.5-7.2 4.2-11 6-3.4 2.4-7.2 4.2-11 6l-2.5 1.5-2.5-1.5c-2.5-1.1-4.8-2.5-7-4-2.5-1-4.8-2.5-7-4-2.5-1-4.8-2.5-7-4-3.1-1.4-6.2-3-9-5-1.7-.6-3.3-1.6-4.1-3.3-.8-2.9-.5-5.9-.7-8.9-1.4-2.4-.7-5.3-1-8-1.5-2.8-.7-6-1-9-1.5-2.4-.7-5.3-1-8-1.5-2.4-.7-5.3-1-8-1.5-2.4-.7-5.3-1-8-1.2-2-.8-4.4-1-6.6 1.3 0 2.5-.3 3.7-.9 1.3-.6 2.6-1.2 4-1.6l3-1 3-1 3-1c1-.3 2-.7 3.1-.9 1.6-.9 3.2-1.5 4.9-2 1-.4 2-.7 3-1l3-1c1-.4 2-.7 3.1-1 1.9-.9 3.9-1.7 6-1.8zm-36.4 16.4c1.9 16.6 3.8 33.3 5.7 50 .2 1.3.1 3 1.6 3.5l32.5 18.1c11.4-6.3 22.8-12.5 34.1-19 .9-2.1.8-4.5 1.2-6.7 2-15.4 3.7-30.8 5.9-46.1-13.6-4.9-27.4-9.4-41.1-14.1-13.3 4.8-26.7 9.4-39.9 14.3zm39.7-10.2c0-.4.1-1.1.1-1.4 9.6 21 19.6 41.8 29.3 62.8-3.3 0-6.6 0-10-.2-2-4.8-4.1-9.5-6.2-14.2-4.4.1-8.8.1-13.2 0l.2-8.4h9.4c-3.1-6.7-6.4-13.2-9.4-19.9.2-6.2.2-12.5-.2-18.7z"/><path d="M10.1 22c13.3-4.8 26.6-9.5 39.9-14.2 0 .7-.1 2-.1 2.6 0 .4-.1 1.1-.1 1.4-9.6 20.2-18.5 40.7-27.7 61.1l10.4-.2c1.9-4.7 3.8-9.4 5.6-14 3.9 0 7.8 0 11.8.1.3 11.6 0 23.2.1 34.8l-32.5-18.1c-1.6-.5-1.5-2.2-1.7-3.5-1.9-16.7-3.8-33.4-5.7-50zm39.5 10.2c.4 6 .5 12.1.4 18.1h-8.3c2.7-5.9 5.1-12.1 7.9-18.1z" fill="#E52A3A"/><path d="M49.9 7.7c13.7 4.7 27.5 9.2 41.1 14.1-2.1 15.3-3.9 30.7-5.9 46.1-.4 2.2-.3 4.6-1.2 6.7-11.2 6.5-22.7 12.6-34.1 19-.1-11.6.2-23.2-.1-34.8 4.4.1 8.8 0 13.2 0 2.1 4.7 4.2 9.5 6.2 14.2 3.3.1 6.6.2 10 .2-9.7-21-19.7-41.8-29.3-62.8.1-.7.1-2 .1-2.7zm-.3 24.5l.4-1.7c3 6.7 6.4 13.2 9.5 19.8h-9.4c-.1-6-.1-12-.5-18.1z" fill="#B82934"/><path fill="#F2F2F2" d="M49.8 11.8c.4 6.2.5 12.5.2 18.8l-.4 1.7c-2.8 6-5.2 12.1-7.8 18.1h8.3l-.2 8.4c-3.9-.1-7.8-.1-11.8-.1-1.9 4.7-3.7 9.4-5.6 14-3.5 0-6.9.1-10.4.2 9.2-20.4 18.1-40.9 27.7-61.1z"/></svg>