<svg xmlns="http://www.w3.org/2000/svg" width="216" height="146" viewBox="0 0 216 146"><path d="M124.865 102.207c0-.543-.19-1.086-.57-1.629-3.042-3.641-5.486-6.764-7.333-9.37 1.14-2.226 2.009-4.29 2.606-6.19l12.629-1.955c.49-.055.924-.34 1.304-.855.38-.518.569-1.046.569-1.589v-15.074c0-.597-.189-1.127-.569-1.588s-.842-.747-1.385-.854l-12.384-1.874c-.599-1.847-1.522-4.075-2.771-6.681.814-1.196 2.037-2.826 3.667-4.889 1.629-2.064 2.771-3.53 3.422-4.399.38-.543.57-1.06.57-1.548 0-1.467-3.911-5.812-11.731-13.036-.543-.434-1.113-.651-1.712-.651-.651 0-1.194.188-1.63.57l-9.614 7.251c-2.226-1.14-4.263-1.982-6.11-2.526l-1.874-12.465c-.053-.543-.325-1.019-.814-1.426-.489-.407-1.032-.611-1.63-.611h-15.153c-1.249 0-2.064.652-2.444 1.955-.652 2.499-1.276 6.682-1.874 12.547-2.335.76-4.426 1.629-6.273 2.607l-9.369-7.332c-.543-.381-1.113-.57-1.711-.57-1.033 0-3.178 1.602-6.437 4.807-3.259 3.204-5.487 5.621-6.681 7.251-.381.435-.57.978-.57 1.63 0 .488.189 1.031.57 1.629 3.041 3.64 5.485 6.763 7.332 9.369-1.14 2.228-2.009 4.291-2.606 6.192l-12.629 1.954c-.489.054-.923.339-1.304.854-.38.517-.57 1.046-.57 1.589v15.072c0 .598.19 1.128.57 1.589.381.462.842.72 1.386.774l12.384 1.955c.652 2.064 1.603 4.291 2.852 6.681-.869 1.196-2.145 2.853-3.829 4.97-1.685 2.119-2.798 3.559-3.341 4.318-.38.543-.57 1.061-.57 1.548 0 1.468 3.911 5.812 11.732 13.036.543.434 1.113.65 1.711.65.706 0 1.249-.188 1.629-.569l9.614-7.251c2.226 1.141 4.263 1.982 6.11 2.525l1.874 12.466c.054.543.326 1.019.814 1.426.489.407 1.032.61 1.63.61h15.153c1.25 0 2.064-.651 2.444-1.955.652-2.554 1.276-6.763 1.874-12.629 2.172-.65 4.263-1.494 6.273-2.524l9.37 7.332c.543.381 1.113.569 1.711.569 1.032 0 3.165-1.615 6.396-4.848 3.231-3.23 5.472-5.662 6.722-7.292.38-.378.57-.894.57-1.546zm-28.19-14.501c-4.073 4.073-8.989 6.11-14.746 6.11-5.758 0-10.674-2.037-14.747-6.11s-6.11-8.989-6.11-14.747c0-5.757 2.037-10.673 6.11-14.746 4.073-4.074 8.989-6.11 14.747-6.11 5.757 0 10.673 2.036 14.746 6.11 4.074 4.073 6.11 8.989 6.11 14.746 0 5.758-2.036 10.674-6.11 14.747zm77.399 18.739c-.705-1.575-1.52-2.987-2.443-4.237 2.77-6.138 4.154-9.886 4.154-11.243 0-.216-.107-.407-.325-.57-6.519-3.802-9.886-5.703-10.103-5.703l-.489.164c-2.226 2.227-4.726 5.269-7.495 9.125-1.086-.108-1.9-.164-2.443-.164-.545 0-1.358.056-2.445.164-.758-1.142-2.172-2.975-4.235-5.5s-3.313-3.789-3.748-3.789c-.108 0-.923.435-2.444 1.305-1.521.869-3.123 1.792-4.807 2.771-1.686.979-2.634 1.521-2.852 1.63-.219.162-.326.353-.326.569 0 1.358 1.385 5.104 4.154 11.243-.922 1.25-1.737 2.662-2.443 4.236-8.094.814-12.141 1.656-12.141 2.525v11.406c0 .869 4.047 1.711 12.141 2.525.65 1.466 1.466 2.879 2.443 4.235-2.769 6.138-4.154 9.886-4.154 11.244 0 .216.107.407.326.57 6.625 3.856 9.994 5.784 10.103 5.784.435 0 1.685-1.276 3.748-3.829 2.063-2.554 3.476-4.399 4.235-5.54 1.086.107 1.9.162 2.445.162.543 0 1.357-.055 2.443-.162.759 1.141 2.172 2.986 4.236 5.54 2.063 2.553 3.312 3.829 3.748 3.829.108 0 3.477-1.929 10.103-5.784.218-.163.325-.353.325-.57 0-1.358-1.385-5.106-4.154-11.244.977-1.356 1.792-2.769 2.443-4.235 8.094-.814 12.141-1.656 12.141-2.525v-11.406c0-.869-4.047-1.711-12.141-2.526zm-11.773 15.602c-2.035 2.037-4.494 3.057-7.373 3.057s-5.337-1.02-7.373-3.057c-2.037-2.037-3.056-4.494-3.056-7.373 0-2.824 1.033-5.27 3.097-7.333s4.508-3.096 7.332-3.096 5.27 1.032 7.334 3.096c2.063 2.063 3.096 4.509 3.096 7.333-.001 2.879-1.019 5.336-3.057 7.373zm11.773-99.031c-.705-1.575-1.52-2.987-2.443-4.237 2.77-6.137 4.154-9.885 4.154-11.243 0-.216-.107-.407-.325-.57-6.519-3.802-9.886-5.703-10.103-5.703l-.489.163c-2.226 2.228-4.726 5.269-7.495 9.125-1.086-.108-1.9-.163-2.443-.163-.545 0-1.358.055-2.445.163-.758-1.141-2.172-2.974-4.235-5.499-2.063-2.526-3.313-3.789-3.748-3.789-.108 0-.923.434-2.444 1.304-1.521.87-3.123 1.793-4.807 2.771-1.686.978-2.634 1.521-2.852 1.629-.219.163-.326.353-.326.57 0 1.358 1.385 5.106 4.154 11.243-.922 1.25-1.737 2.662-2.443 4.237-8.094.814-12.141 1.656-12.141 2.525v11.406c0 .869 4.047 1.711 12.141 2.525.65 1.466 1.466 2.879 2.443 4.237-2.769 6.138-4.154 9.885-4.154 11.243 0 .216.107.407.326.57 6.625 3.856 9.994 5.784 10.103 5.784.435 0 1.685-1.276 3.748-3.829s3.476-4.399 4.235-5.54c1.086.108 1.9.163 2.445.163.543 0 1.357-.055 2.443-.163.759 1.141 2.172 2.987 4.236 5.54 2.063 2.553 3.312 3.829 3.748 3.829.108 0 3.477-1.928 10.103-5.784.218-.163.325-.353.325-.57 0-1.358-1.385-5.105-4.154-11.243.977-1.358 1.792-2.77 2.443-4.237 8.094-.814 12.141-1.656 12.141-2.525v-11.406c0-.869-4.047-1.711-12.141-2.526zm-11.773 15.602c-2.035 2.037-4.494 3.056-7.373 3.056s-5.337-1.019-7.373-3.056c-2.037-2.036-3.056-4.494-3.056-7.373 0-2.824 1.033-5.269 3.097-7.333s4.508-3.096 7.332-3.096 5.27 1.033 7.334 3.096c2.063 2.064 3.096 4.509 3.096 7.333-.001 2.879-1.019 5.337-3.057 7.373z"/></svg>