<?xml version="1.0" encoding="utf-8"?>
<!-- Generator: Adobe Illustrator 16.0.0, SVG Export Plug-In . SVG Version: 6.00 Build 0)  -->
<!DOCTYPE svg PUBLIC "-//W3C//DTD SVG 1.1//EN" "http://www.w3.org/Graphics/SVG/1.1/DTD/svg11.dtd">
<svg version="1.1" id="Layer_1" xmlns="http://www.w3.org/2000/svg" xmlns:xlink="http://www.w3.org/1999/xlink" x="0px" y="0px"
	 width="196.8px" height="109px" viewBox="0 0 196.8 109" enable-background="new 0 0 196.8 109" xml:space="preserve">
<g>
	<path fill="#FFFFFF" d="M4.6-112.5c2.3-0.6,4.5-1.4,6.9-1.8c-0.4,0.2-0.8,0.5-1.3,0.7c-7,3.1-13.8,6.8-19.7,11.9
		c-4,3.5-7.3,7.7-9.7,12.4c-4.6-1.4-9-3-13.5-4.8c4.1-4.4,9.2-7.9,14.7-10.4C-10.7-108-3-110.3,4.6-112.5z"/>
	<g>
		<path fill="#FFFFFF" d="M17.9-114.2c1.2,0,2.4,0,3.6,0c1.4,2.3,3,4.5,4.5,6.8c-1.1,0-2.3,0-3.4-0.1c-0.2-0.4-0.4-0.7-0.6-1.1
			c-1.6,0-3.2,0-4.8,0c-0.7,1.6-2.4,1.1-3.8,1.1C14.9-109.7,16.5-111.9,17.9-114.2z M19.4-112.4c-0.6,0.8-1,1.7-1.5,2.6
			c1.1,0,2.3,0,3.4,0C20.6-110.6,20.4-112,19.4-112.4z"/>
	</g>
	<path fill="#FFFFFF" d="M30.3-114.2c1.1,0,2.3,0,3.4,0c0.9,1.6,1.8,3.1,2.7,4.7c0.9-1.6,1.8-3.1,2.7-4.7c1.1,0,2.2,0,3.4,0
		c0.7,2.3,1.4,4.5,2,6.8c-1,0-2,0-3.1,0c-0.3-1.4-0.6-2.8-1-4.2c-1.1,1.3-1.8,2.8-2.6,4.2c-1,0-1.9,0.1-2.9-0.1
		c-1-1.3-1.7-2.9-2.6-4.3c-0.4,1.5-0.7,2.9-1.1,4.4c-1,0-2,0-3,0C28.9-109.7,29.6-111.9,30.3-114.2z"/>
	<path fill="#FFFFFF" d="M46.4-114.2c3.7,0,7.4,0,11.1,0c-0.1,0.5-0.2,1-0.3,1.5c-1.3,0-2.5,0-3.8,0c0,1.8,0,3.5,0,5.3
		c-1,0-2.1,0-3.1,0c-0.1-1.8-0.1-3.5-0.1-5.3c-1.4,0-2.7,0-4.1,0C46.2-113.2,46.3-113.7,46.4-114.2z"/>
	<g>
		<path fill="#FFFFFF" d="M60.4-114.2c2.8,0.1,5.6-0.2,8.4,0.3c1.1,0.2,2.3,0.9,2.1,2.2c0,1-1.1,1.3-1.8,1.8
			c0.7,0.8,1.5,1.7,2.2,2.5c-1.2,0-2.3,0-3.4,0c-0.5-0.7-1.1-1.4-1.6-2c-0.9,0-1.9,0-2.8,0c0,0.7,0,1.4,0,2c-1,0-2.1,0-3.1,0
			C60.4-109.7,60.4-111.9,60.4-114.2z M63.5-112.9c0,0.7,0,1.5,0,2.2c1.1,0,2.3,0.1,3.4-0.1c0.8-0.1,1.4-1.3,0.5-1.8
			C66.2-113.1,64.8-112.9,63.5-112.9z"/>
	</g>
	<g>
		<path fill="#FFFFFF" d="M78.4-114.2c1.2,0,2.3,0,3.5,0c1.5,2.3,3,4.5,4.6,6.7c-1,0-2.1,0.1-3.1,0c-0.4-0.3-0.7-0.7-1-1.1
			c-1.6,0-3.2,0-4.8,0c-0.2,0.4-0.5,0.8-0.7,1.1c-1,0-2,0-3.1,0C75.3-109.6,76.8-111.9,78.4-114.2z M78.2-109.8c1.1,0,2.3,0,3.4,0
			c-0.5-1-1.1-1.9-1.7-2.9C79.4-111.7,78.8-110.8,78.2-109.8z"/>
	</g>
	<path fill="#FFFFFF" d="M89.3-114.2c1,0,2,0,3,0c0,1,0,2,0,3c1.3-0.9,2.6-2,3.8-3c1.3,0,2.5,0,3.8,0c-1.4,1.1-2.9,2.1-4.3,3.2
		c1.5,1.2,3,2.4,4.5,3.5c-1.4-0.1-2.8,0.2-4.1-0.2c-1.3-0.9-2.4-2.1-3.7-2.9c0,1-0.1,2.1-0.1,3.1c-1,0-2,0-3,0
		C89.3-109.7,89.3-111.9,89.3-114.2z"/>
	<path fill="#FFFFFF" d="M-44.5-112.9c7-0.5,14-0.6,21-0.3c2.7,0.6,5.3,1.1,8,1.6c-11.4,0.8-22.9,1.9-33.6,5.9
		c-1.4,0.5-2.8,1.3-4.2,1.7c-3.3-1.6-6.5-3.6-9.7-5.4C-57.1-111.7-50.8-112.4-44.5-112.9z"/>
	<path fill="#FFFFFF" d="M-8.9-111.3c3,0,6-0.4,8.9-0.5c-3,0.8-6,1.3-9,2.1c-10.3,2.5-20.6,6.4-28.7,13.3c-3.7-1.6-7.3-3.3-10.8-5.1
		c6.9-4,14.7-6.1,22.5-7.7C-20.4-110.3-14.7-111.3-8.9-111.3z"/>
	<g>
		<path fill="#FFFFFF" d="M193.4-104.5c1.7,0,3.4,0,5.2,0c0,5.7,0,11.4,0,17.1c-1.6,0-3.1,0-4.7,0c0-0.7,0-1.4,0-2
			c-2.3,2.7-6.7,3-9.5,1.1c-2.8-1.9-3.4-6.2-1.3-8.8c2.5-3.1,7.4-3,10.4-0.6C193.4-100,193.4-102.2,193.4-104.5z M188.9-96.2
			c-1.6,0.6-2.4,2.6-1.7,4.2c0.7,1.9,3.4,2.4,4.9,1.2c1.5-1.1,1.6-3.5,0.3-4.7C191.6-96.5,190.1-96.5,188.9-96.2z"/>
	</g>
	<path fill="#FFFFFF" d="M6.5-103.4c2.8-0.2,5.6,0,8.4,0.6c-0.1,1.1-0.3,2.2-0.4,3.3c-3.5-1.2-7.5-1.4-10.8,0.4
		C1.2-97.7,0.9-93.8,3-92c1.9,1.8,4.8,2,7.3,1.7c0-1.1,0-2.3,0-3.4c-1,0-2.1,0-3.1,0c0-1,0-2,0-3c2.8,0,5.5,0,8.3,0c0,3,0,5.9,0,8.8
		C10.9-87,6.2-86.5,1.8-88c-2.2-0.8-4.4-2.3-5.2-4.6c-1-2.8-0.4-6.2,1.9-8.1C0.7-102.6,3.7-103.2,6.5-103.4z"/>
	<path fill="#FFFFFF" d="M70.9-101.9c1.7-0.4,3.3-0.8,5-1.2c0,1.3,0,2.6,0,3.9c1.2,0,2.4,0,3.7,0c0,0.9,0,1.9,0,2.8
		c-1.2,0-2.4,0-3.6,0c0.1,1.9-0.2,3.9,0.2,5.7c0.6,1.3,2.3,0.7,3.5,0.8c0.1,0.8,0.1,1.7,0.2,2.5c-2.3,0.1-4.8,0.5-7-0.4
		c-1.1-0.4-1.8-1.5-1.9-2.7c-0.2-2,0-4-0.1-6c-1,0-2,0-2.9,0c0-1,0-1.9,0-2.8c1,0,2,0,3,0C70.9-100.1,70.9-101,70.9-101.9z"/>
	<g>
		<path fill="#FFFFFF" d="M91-103.3c3,0,6.1,0,9.1,0c2,0.1,4.1,0.2,5.7,1.6c1.2,1,1.3,2.7,0.8,4.1c-0.6,1.4-2,2-3.3,2.4
			c0.7,0.5,1.4,1,1.7,1.7c1,2,1.9,4.1,2.8,6.1c-1.8,0-3.7,0-5.5,0c-0.7-1.8-1.3-3.7-2.4-5.3c-0.8-1.2-2.4-1-3.7-1.1
			c0,2.1,0,4.2,0,6.4c-1.8,0-3.5,0-5.3,0C91-92.7,91-98,91-103.3z M96.2-100.4c0,1.3,0,2.5,0,3.8c1.7,0.1,3.5,0.1,5.1-0.7
			c0.1-0.8,0.6-1.7-0.2-2.3C99.7-100.5,97.8-100.3,96.2-100.4z"/>
	</g>
	<path fill="#FFFFFF" d="M55.6-98.2c3-1.8,6.8-1.4,10.1-0.6c-0.1,0.9-0.3,1.8-0.4,2.8c-2-0.6-4.2-1.2-6.2-0.4
		c-0.1,0.2-0.2,0.6-0.3,0.8c2.1,1.5,5.3,0.7,7.1,2.8c1.4,1.6,0.5,4.3-1.5,5c-3.2,1.3-6.9,0.9-10.3,0.3c0.1-1,0.2-1.9,0.3-2.9
		c2.3,0.6,4.8,1.2,7.1,0.3c-0.1-0.4-0.2-0.8-0.4-1.2c-2-1.1-4.5-0.7-6.3-2.3C53.5-94.9,54-97.4,55.6-98.2z"/>
	<g>
		<path fill="#FFFFFF" d="M153.7-98.7c3.2-0.8,6.6-1.2,9.7-0.2c1.6,0.5,3,1.8,3.2,3.6c0.2,2.7-0.1,5.3,0.3,8c-1.5,0-3.1,0-4.6,0
			c-0.1-0.6-0.1-1.1-0.2-1.7c-1.1,0.9-2.2,1.8-3.7,1.9c-1.9,0.2-4,0-5.6-1.2c-1.6-1.3-1.5-4,0.3-5.1c2.6-1.6,5.9-1.4,8.9-1.3
			c-0.4-0.7-0.6-1.5-1.4-1.8c-2.3-0.7-4.8-0.2-7,0.5C153.7-96.9,153.7-97.8,153.7-98.7z M157.4-92.2c-0.7,0.3-0.9,1.1-0.6,1.8
			c1.2,1,3,0.9,4.2,0c0.7-0.5,0.9-1.4,1.2-2.2C160.5-92.7,158.8-93,157.4-92.2z"/>
	</g>
	<path fill="#FFFFFF" d="M29.3-99.2c1.7,0,3.4,0,5.1,0c0,4,0,7.9,0,11.9c-1.5,0-3.1,0-4.6,0c0-0.7,0-1.4,0-2
		c-1.5,1.6-3.7,2.5-5.9,2.3c-2.3,0-4.8-1.3-5.2-3.7c-0.3-2.8-0.1-5.6-0.2-8.4c1.7,0,3.4,0,5.2,0c0,2,0,4,0,6c0,0.9,0.2,1.9,1,2.4
		c1.6,0.8,4,0.1,4.4-1.8C29.5-94.7,29.3-97,29.3-99.2z"/>
	<g>
		<path fill="#FFFFFF" d="M39.3-98.3c2.1-1.2,4.6-1.4,6.9-1.1c1.9,0.2,3.8,1.2,4.8,2.8c0.8,1.3,1,2.9,1,4.4c-3.5,0-7,0-10.5,0
			c0.4,0.9,1,1.8,2,2c2.4,0.6,4.9,0.2,7.1-0.5c0,0.9-0.1,1.9-0.1,2.8c-3.4,0.8-7.2,1.2-10.4-0.3c-2-0.9-3.7-2.8-3.7-5.1
			C36.3-95.3,37.5-97.3,39.3-98.3z M42.9-96.6c-0.9,0.4-1.2,1.4-1.5,2.2c2,0,4.1,0,6.1,0c-0.3-0.7-0.3-1.5-0.9-1.9
			C45.5-97.1,44-97.1,42.9-96.6z"/>
	</g>
	<g>
		<path fill="#FFFFFF" d="M110.3-97.2c1.8-1.8,4.4-2.3,6.9-2.2c2.2,0.1,4.7,0.8,6,2.7c1,1.4,1.1,3,1.1,4.7c-3.5,0-7,0-10.5,0
			c0.4,0.9,1,1.7,2,2c2.4,0.7,4.9,0.3,7.2-0.5c0,0.9-0.1,1.9-0.1,2.8c-2.9,0.7-5.9,1-8.9,0.3c-2-0.5-4-1.7-4.8-3.6
			C108.3-93.1,108.7-95.7,110.3-97.2z M115.2-96.6c-0.9,0.4-1.1,1.4-1.4,2.2c2,0,4.1,0,6.1,0c-0.3-0.7-0.4-1.7-1.1-2.1
			C117.6-97.1,116.2-97.1,115.2-96.6z"/>
	</g>
	<path fill="#FFFFFF" d="M124.6-99.2c1.8,0,3.6,0,5.4,0c0.8,2.9,1.6,5.8,2.4,8.7c1.1-2.8,1.8-5.8,2.7-8.7c2.1,0,4.1,0,6.2,0
		c0.8,2.9,1.7,5.8,2.5,8.6c1-2.8,1.7-5.8,2.5-8.6c1.7,0,3.3,0,5,0c-1.6,3.9-3,7.9-4.6,11.9c-2,0-4,0-6,0c-0.8-2.9-1.7-5.8-2.5-8.7
		c-1.1,2.9-1.9,5.8-3,8.7c-2,0-4,0-6,0C127.6-91.3,126.1-95.3,124.6-99.2z"/>
	<path fill="#FFFFFF" d="M170.1-99.2c1.6,0,3.2,0,4.7,0c0,0.7,0,1.5,0,2.2c0.7-0.8,1.3-1.6,2.3-2c1.2-0.5,2.6-0.4,3.9-0.3
		c-0.1,1.1-0.2,2.2-0.2,3.3c-1.3,0-2.8-0.2-4,0.5c-0.9,0.5-1.4,1.6-1.5,2.6c-0.1,1.8,0,3.7,0,5.5c-1.7,0-3.4,0-5.2,0
		C170.1-91.3,170.1-95.3,170.1-99.2z"/>
	<path fill="#FFFFFF" d="M202.6-98.3c3-1.8,6.8-1.3,10-0.6c-0.1,0.9-0.3,1.9-0.4,2.8c-2-0.7-4.3-1.2-6.3-0.3c0,0.2-0.1,0.6-0.2,0.8
		c2,1.3,4.5,0.8,6.5,2.2c1.5,1,1.7,3.3,0.5,4.6c-0.9,1-2.3,1.4-3.6,1.6c-2.7,0.3-5.4,0.2-8-0.3c0.1-0.9,0.2-1.9,0.2-2.8
		c2.1,0.3,4.2,0.9,6.4,0.5c0.8-0.2,0.8-1.3,0.1-1.6c-1.9-0.9-4.4-0.7-6-2.2C200.5-95,201-97.4,202.6-98.3z"/>
	<g>
		<path fill="#FFFFFF" d="M216.5-99.4c1.3,0.2,3.1,0.7,3.3,2.2c0.4,1.8-1.8,3.4-3.4,2.4c-1.9-0.9-1.4-4.2,0.8-4.5
			c-1.4,0.7-1.3,2.4-0.6,3.4c0.2-0.8,0-1.6,0.1-2.4c0.8,0.2,2.1-0.2,2.1,1.2c-0.3-0.2-0.8-0.6-1.1-0.8l-0.4,0.1l-0.3,0.8
			c0.2,0,0.7,0,1,0c0.2,0.5,0.3,1.1,0.5,1.6c-0.4-0.4-0.8-0.9-1.3-1.2c0.1,0.3,0.2,1,0.2,1.4c-0.3-0.1-0.9-0.3-1.1-0.4
			c0.4,1,2,1,2.6,0.2c0.8-0.6,0.5-1.7,0.5-2.5C218.3-98.4,217.4-98.9,216.5-99.4z M215.9-96c0.3-0.3,0.1-1-0.1-1.3
			C215.3-97.1,215.5-96.2,215.9-96z"/>
	</g>
</g>
<g>
	<g>
		<path fill="#FFFFFF" d="M13.7,4.8c0.6-1.2,0.7-2.6,1.4-3.8c1.3,0.5,2.1,1.6,3,2.7c1.6-0.3,3.2-0.3,4.8-0.2C23,5.3,22.2,7,21.2,8.4
			c0.6,1.3,1.5,2.6,1.2,4c-0.3,0.5-0.9,0.3-1.4,0.3c-1.2,0-2.4-0.4-3.5-0.6c-0.5-0.1-0.8,0.2-1.2,0.4c-0.7,0.4-1.3,0.9-2.1,1
			c-0.1-0.1-0.3-0.2-0.4-0.3c-0.1-0.9-0.1-1.8,0.2-2.7c0.3,0.6,0.4,1.2,0.5,1.9c1-0.3,1.7-1.2,2.5-1.8c1.3,0.2,2.5,0.9,3.9,0.8
			c0.1-1.1-0.8-2-1.2-2.9c-0.2-0.3-0.2-0.8,0.1-1.1c0.6-0.8,1.4-1.6,1.3-2.7c-1.3-0.2-2.5,0.4-3.7,0.4c-0.5-0.9-1-2-1.9-2.6
			c-0.5,0.9-0.5,2-0.9,3c-0.8,0.6-1.9,0.7-2.9,0.6C12.3,5.5,13.1,5.3,13.7,4.8z"/>
		<g>
			<path fill="#FFFFFF" d="M114.6,51.8c0.1-0.4,0.5-0.6,0.8-0.8c2.9,6.9,5.5,13.9,8.3,20.8c0.6,1.5,1.2,3,2,4.4
				c0.3,0.7,0.9,1.1,1.4,1.6c-0.4,0.1-0.8,0.2-1.2,0.2c-1.6,0-3.2,0-4.8,0c0.1-0.4,0.6-0.7,0.6-1.2c0.1-0.7-0.2-1.5-0.5-2.2
				c-0.5-1.4-1-2.8-1.6-4.1c-3.1,0-6.3,0-9.4,0c-0.7,1.8-1.5,3.6-2.1,5.5c-0.1,0.3-0.2,0.6-0.1,0.9c0.2,0.3,0.6,0.6,0.8,1
				c-1,0.2-2.1,0.1-3.1,0.1c-1,0-1.9,0.1-2.9-0.1c0.6-0.5,1.3-1.1,1.6-1.8c1.5-3.1,2.7-6.3,4.1-9.4
				C110.6,61.7,112.7,56.8,114.6,51.8z M115.1,58c-0.8,1.9-1.5,3.9-2.3,5.8c-0.5,1.3-1.1,2.6-1.4,4c2.5,0,4.9,0,7.4,0
				C117.5,64.6,116.3,61.3,115.1,58z"/>
		</g>
		<path fill="#FFFFFF" d="M59.8,51.8c0.4-0.1,0.9-0.2,1.3-0.2c4.2,0,8.3,0,12.5,0c-0.1,1.5,0.2,3-0.4,4.4c-0.3-0.5-0.6-1.1-1.1-1.4
			c-0.6-0.3-1.2-0.3-1.8-0.3c-1.5,0-3,0-4.4,0c-0.6,0-1.1,0.1-1.7,0.2c0,3.1,0,6.1,0,9.2c1.6,0.1,3.1,0,4.7,0c0.9,0,1.8,0.1,2.6-0.2
			c0.4-0.2,0.8-0.5,1.2-0.8c0,1.6,0,3.2,0,4.9c-0.7-0.5-1.3-1.2-2.2-1.1c-2,0-4.1,0-6.1,0c0,2.2,0,4.4,0,6.6c0,1.2,0,2.3,0.2,3.5
			c0.2,0.7,0.9,1,1.3,1.5c-2.1,0.1-4.2,0-6.3,0c0.6-0.7,1.3-1.3,1.3-2.3c0.1-3.6,0-7.1,0.1-10.7c0-3.7,0-7.5,0-11.2
			C61,52.9,60.4,52.3,59.8,51.8z"/>
		<g>
			<path fill="#FFFFFF" d="M81.3,51.8c0.8-0.2,1.6-0.2,2.4-0.2c1.9,0,3.8-0.1,5.7,0c1.9,0.2,3.8,0.8,5.1,2.3
				c1.3,1.3,1.9,3.1,1.8,4.9c0.2,2.4-1,4.8-2.9,6.2c-0.8,0.6-1.7,1-2.5,1.4c1.7,2.5,3.6,4.9,5.4,7.4c0.6,0.8,1.2,1.6,1.8,2.4
				c0.6,0.7,1.4,1.1,2.1,1.7c-1.2,0.1-2.4,0-3.6,0.1c-0.6,0-1.3,0.1-1.7-0.5c-1.1-1.5-2.1-3.1-3.2-4.6c-1.5-2-2.8-4-4.3-6
				c-0.5,0-1,0-1.6,0c0,2.6,0,5.1,0,7.7c0,0.6,0.1,1.2,0.2,1.7c0.1,0.7,0.8,1.2,1.2,1.7c-1.3,0.1-2.5,0-3.8,0
				c-0.7,0-1.5,0.1-2.2-0.2c0.4-0.4,1-0.7,1.2-1.2c0.4-1.4,0.1-2.8,0.4-4.2c0-4.7,0-9.5,0-14.2c0-0.5,0-0.9,0-1.4
				c-0.2-1.3,0-2.6-0.3-3.8C82.3,52.4,81.7,52.1,81.3,51.8z M85.9,54.3c0,3.4,0,6.7,0,10.1c1,0,2,0.1,2.9-0.2c1.2-0.3,2.5-0.9,3.2-2
				c1.5-2,1.3-5.2-0.6-6.9C89.8,54.1,87.7,54.2,85.9,54.3z"/>
		</g>
		<path fill="#FFFFFF" d="M136,52c1.1-0.5,2.2-0.4,3.4-0.4c1.2,0,2.5,0,3.7,0.4c0,1.1,0,2.2,0,3.3c0,0.4-0.1,0.8-0.3,1.1
			c-0.4-0.6-0.7-1.5-1.5-1.8c-1.5-0.7-3.2-0.4-4.5,0.3c-0.9,0.5-1.5,1.4-1.8,2.4c-0.3,1.5,0.3,3,1.4,4.1c1.6,1.6,3.7,2.8,5.3,4.4
			c1.1,1,1.9,2.4,2.2,3.9c0.1,1,0.1,2,0,3c-0.3,1.9-1.6,3.7-3.3,4.6c-2.9,1.6-6.5,1.4-9.5,0.3c0-1.5,0.1-3,0.3-4.5
			c0.6,0.6,0.9,1.6,1.7,2.1c1.2,0.6,2.6,0.7,3.9,0.5c1.5-0.2,2.8-1.1,3.4-2.5c0.6-1.2,0.3-2.7-0.3-3.8c-0.6-1.1-1.7-1.8-2.6-2.6
			c-1.8-1.4-3.8-2.8-5-4.8c-1.1-2-1.1-4.5,0-6.6C133.1,53.7,134.4,52.5,136,52z"/>
		<path fill="#FFFFFF" d="M151.2,51.6c4.3-0.1,8.5,0,12.8-0.1c0.3,0,0.8-0.1,1,0.2c0,1.4,0,2.8-0.2,4.2c-0.5-0.5-0.7-1.3-1.5-1.5
			c-1.3-0.3-2.7-0.2-4-0.2c-1.2,0-2.3-0.1-3.5,0.1c0,2.9,0,5.8,0,8.7c2.1,0,4.2,0,6.3,0c0.8,0,1.4-0.5,2-0.9c0,1.6,0,3.2,0,4.7
			c-0.6-0.6-1.3-1.1-2.2-1.1c-2,0-4.1,0-6.1,0c0,2.9,0,5.9,0,8.8c-0.1,0.3,0.1,0.6,0.4,0.6c2.4,0,4.8,0,7.1,0c1,0,1.4-0.9,2-1.6
			c0.1,1.5,0,3,0,4.4c-4.7,0-9.5,0-14.2,0c0.3-0.4,0.7-0.7,1-1.1c0.4-0.8,0.3-1.6,0.3-2.5c0.3-2.2,0.1-4.5,0.1-6.7
			c0-3.4,0-6.7,0-10.1c0-0.7,0-1.4-0.1-2.1c-0.1-0.9,0-1.8-0.3-2.6C152,52.3,151.5,52,151.2,51.6z"/>
		<g>
			<path fill="#FFFFFF" d="M173.6,51.8c1.2-0.3,2.5-0.1,3.8-0.2c2.2,0,4.5-0.2,6.6,0.5c1.9,0.6,3.5,2.1,4.1,4
				c0.5,1.3,0.4,2.7,0.4,4.1c-0.3,1.8-1.3,3.6-2.8,4.7c-0.8,0.6-1.7,1.1-2.6,1.5c2,2.8,4,5.5,6,8.2c0.4,0.5,0.8,1.1,1.2,1.6
				c0.6,0.6,1.3,1.1,2,1.7c-1.2,0.1-2.4,0-3.6,0.1c-0.4,0-0.8,0-1.2-0.1c-0.6-0.4-0.9-1.1-1.3-1.6c-2-2.9-4-5.7-6-8.5
				c-0.3-0.3-0.5-0.8-1-0.7c-0.4,0-0.8,0.1-1.3,0.2c0,1.3,0,2.7,0,4c0.3,1.8-0.1,3.7,0.3,5.4c0.2,0.7,0.7,1.1,1.1,1.5
				c-1.2,0.1-2.4,0-3.6,0c-0.8,0-1.6,0.1-2.4-0.2c0.4-0.3,0.9-0.6,1.1-1c0.3-1,0.4-2,0.4-3c0-1.9,0-3.8,0-5.7
				c0.2-1.2,0.1-2.5,0.1-3.7c0-1.2,0.1-2.4-0.1-3.5c-0.1-2.2,0-4.4-0.1-6.6c-0.1-0.6-0.1-1.2-0.4-1.7
				C174.3,52.3,173.9,52.1,173.6,51.8z M178.2,54.3c0,3.4,0,6.7,0,10.1c1.9,0.1,4.1-0.1,5.5-1.6c2-1.9,2.1-5.5,0-7.4
				C182.2,54.1,180.1,54.1,178.2,54.3z"/>
		</g>
	</g>
	<g>
		<path fill="#FFFFFF" d="M39.2,22c0.9,0.4,1.5,1.2,2.1,2c2.4,3.2,3.8,7.2,4,11.2c0.2,2.1-0.2,4.3-0.6,6.4c-0.5,2.3-1.3,4.6-2.5,6.7
			c-0.5,0.7-0.9,1.6-1.8,1.8c-0.1-0.8,0-1.6,0.2-2.4c1-4,1.7-8.1,1.6-12.2c-0.1-3.9-0.9-7.8-2.4-11.4C39.5,23.3,39.1,22.7,39.2,22z"
			/>
		<path fill="#FFFFFF" d="M5.6,29.5c0.2-0.9,0.4-1.8,1-2.5c0.4,1,0.2,2.1,0.4,3.2c0.7,5.3,2.9,10.3,5.3,14.9
			c2.4,4.4,5.2,8.7,8.8,12.2c1,0.9,2.1,1.7,2.9,2.8c-0.1,0-0.4,0.1-0.6,0.2c-1-0.2-1.9-0.7-2.8-1.2c-4.3-2.5-7.9-6.3-10.4-10.6
			c-1.9-3.4-3.5-7-4.3-10.8c-0.2-1.4-0.6-2.8-0.6-4.3C5.4,32.1,5.3,30.8,5.6,29.5z"/>
		<path fill="#FFFFFF" d="M19.9,34.9c0.9-1.2,2.4-1.6,3.8-1.7c2.4-0.2,4.9,0.7,6.4,2.5c1,1.3,1.7,3,1.6,4.7c0.1,2.3-1,4.6-2.8,6
			c-0.3,0.3-0.8,0.4-1.2,0.6c0.6-1.4,1.6-2.7,1.7-4.3c0-1.1,0.1-2.2-0.3-3.3c-0.6-1.4-1.5-2.8-2.9-3.6c-1.5-0.9-3.3-1.2-5-0.9
			C20.8,34.9,20.4,34.9,19.9,34.9z"/>
		<path fill="#FFFFFF" d="M39.8,59.6c-0.2-1.3-0.6-2.7-0.4-4c0.9,0.5,1.3,1.4,1.7,2.3c1.2,2.8,1.8,5.8,2.1,8.8
			c0,1.4,0.3,2.8,0.2,4.3c0.1,8.6-2.5,17-6.5,24.5c-1.6,3-3.5,5.9-5.8,8.4c-1.1,1-2.1,2.3-3.6,2.7c0-0.5,0.1-0.9,0.4-1.3
			c1.9-2.9,3.7-6,5.2-9.2c1.7-3.5,3.1-7.2,4.4-10.9C40.3,77.1,41.3,68.2,39.8,59.6z"/>
		<path fill="#FFFFFF" d="M26,81.9c0.3-0.4,0.7-0.7,1.1-1c0,1-0.4,1.9-0.7,2.9c-1.2,2.9-3,5.5-5.1,7.7c-3.9,4-9.2,6.7-14.7,7.8
			c-0.9,0-1.8,0.3-2.6-0.2c1.1-0.8,2.4-1.2,3.6-1.8c6.1-2.9,11.2-7.4,15.8-12.3C24.3,84,25.2,82.9,26,81.9z"/>
		<path fill="#FFFFFF" d="M88.9,83.4c0.4,0,1.1-0.6,1.4,0c-0.4,2.1-0.9,4.1-1.3,6.2c0.4-0.1,0.8-0.2,1.2-0.3c-0.5,0.6-1.2,1.2-2,1.2
			c0-0.4,0-0.8,0.1-1.2c0.3-1.6,0.7-3.1,1-4.7C89.4,84.2,89.2,83.8,88.9,83.4z"/>
		<g>
			<path fill="#FFFFFF" d="M112.2,83.6c0.5-0.2,1-0.3,1.5-0.4c0.1,0.1,0.2,0.2,0.2,0.3c-0.4,2-0.8,3.9-1.2,5.9
				c0.1,0.3,0.3,0.5,0.4,0.7c-0.4,0.2-0.8,0.4-1.2,0.6c-0.2-0.5-0.1-1.1-0.1-1.6c-0.7,0.7-1.4,1.6-2.5,1.5c-0.7-1.6,0.1-3.6,1.7-4.4
				c0.5-0.3,1.1-0.3,1.6-0.3c0.1-0.6,0.2-1.2,0.3-1.8C112.7,83.9,112.5,83.7,112.2,83.6z M111,86.6c-0.8,0.8-1.1,2.1-0.9,3.2
				c1.4-0.5,2.3-2,2.5-3.5C112,86.4,111.3,86.2,111,86.6z"/>
		</g>
		<path fill="#FFFFFF" d="M150.2,83.6c0.5-0.2,1-0.3,1.6-0.5c0.1,1.4-0.5,2.7-0.6,4.1c0.8-0.6,1.5-1.3,2.5-1.4
			c0.5,1.1-0.3,2.2-0.3,3.3c-0.1,0.4,0.1,0.7,0.3,1c-0.4,0.2-0.7,0.4-1.1,0.5c-0.3-0.3-0.2-0.7-0.1-1.1c0.2-0.9,0.5-1.7,0.6-2.6
			c-0.1-0.1-0.2-0.2-0.2-0.3c-1,0.5-1.9,1.4-2.1,2.5c-0.1,0.4-0.2,0.8-0.2,1.2c-0.2,0.1-0.5,0.2-0.7,0.3c0-1,0.3-1.9,0.4-2.8
			c0.2-1.2,0.5-2.4,0.7-3.7C150.6,83.9,150.4,83.7,150.2,83.6z"/>
		<path fill="#FFFFFF" d="M164.4,83.4c0.4-0.3,0.9-0.2,1.3-0.2c0.1,0.2,0.2,0.5,0.4,0.7c-0.5,0.1-1.1-0.1-1.6-0.2
			c-0.4,0.7-0.6,1.5-0.7,2.3c0.4,0,0.8,0,1.2,0.1c-0.4,0.2-0.9,0.4-1.3,0.5c-0.3,1.6-0.5,3.3-1.1,4.9c-0.3,0.8-1,1.5-1.9,1.4
			c0-0.2,0-0.4-0.1-0.6c0.3,0,0.7,0,1,0c0.3-0.3,0.4-0.8,0.5-1.2c0.3-1.4,0.5-2.9,0.7-4.3c-0.3-0.1-0.6-0.2-0.9-0.3
			c0.3-0.1,0.7-0.2,1-0.3C163,84.9,163.5,83.9,164.4,83.4z"/>
		<path fill="#FFFFFF" d="M80.5,84.2c0.1-0.3,0.2-0.7,0.5-0.9c0.2,0.1,0.4,0.1,0.6,0.3c0,0.3-0.1,0.6-0.2,0.9
			C81.1,84.4,80.7,84.5,80.5,84.2z"/>
		<path fill="#FFFFFF" d="M142.4,83.9c0.2-0.2,0.4-0.4,0.6-0.6c0.1,0.1,0.4,0.2,0.6,0.3c0,0.3-0.1,0.5-0.1,0.8
			c-0.3,0-0.5,0.1-0.8,0.1C142.7,84.3,142.5,84.1,142.4,83.9z"/>
		<path fill="#FFFFFF" d="M61.3,83.8c0.8-0.4,1.6-0.2,2.4,0c0,0.6,0,1.2,0,1.8c-0.2-0.3-0.3-0.7-0.5-1c-0.3-0.7-1.3-0.6-1.8-0.2
			c-0.4,0.3-0.3,0.9-0.2,1.3c0.6,0.9,1.8,1.1,2.2,2.1c0.6,1.1-0.3,2.5-1.4,2.8c-0.8,0.3-1.7,0-2.5-0.4c0-0.5,0-1.1,0.1-1.6
			c0.4,0.6,0.7,1.7,1.7,1.6c0.5,0.1,1-0.2,1.3-0.6c0.1-0.6,0.2-1.3-0.3-1.7c-0.6-0.5-1.4-0.8-1.8-1.6C59.9,85.3,60.4,84.2,61.3,83.8
			z"/>
		<g>
			<path fill="#FFFFFF" d="M131.1,83.7c1,0,2.1,0,3.1,0c0.7,0.1,1.5,0.5,1.5,1.3c0.1,0.8-0.7,1.3-1.3,1.7c0.4,0.3,0.9,0.7,1.1,1.2
				c0.2,1-0.5,2-1.4,2.2c-1.3,0.4-2.8,0.3-4.2,0.3c0.4-0.3,1.1-0.5,1.2-1.1c0.4-1.6,0.6-3.3,1-5C131.7,84.2,131.4,84,131.1,83.7z
				 M133,84.3c-0.2,0.7-0.3,1.5-0.5,2.3c0.5,0,1.2,0.1,1.6-0.2c0.3-0.2,0.6-0.4,0.6-0.8c0-0.4,0.1-0.9-0.2-1.1
				C134.1,84.1,133.4,83.9,133,84.3z M132.4,87c-0.2,0.9-0.5,1.9-0.4,2.9c0.4,0.1,0.8,0.1,1.2,0c1.2-0.1,1.9-1.9,0.9-2.6
				C133.6,86.9,133,87.1,132.4,87z"/>
		</g>
		<path fill="#FFFFFF" d="M122.5,86.5c0-0.7,0.1-1.3,0.5-1.9c0.4,0.6,0.8,1.2,1.1,1.8c0.6-0.1,1.3-0.2,2-0.2
			c0.1,0.7-0.4,1.2-0.8,1.7c0.3,0.6,0.7,1.2,0.9,1.9c-0.9,0.2-1.6-0.7-2.4-0.8c-0.5,0.4-1,0.9-1.6,1.3c-0.1-0.7,0-1.5,0.2-2.2
			c-0.5-0.3-1.1-0.6-1.5-1.1C121.3,86.7,121.9,86.6,122.5,86.5z"/>
		<path fill="#FFFFFF" d="M156.3,85.9c0.3-0.5,0.6-1,1.1-1.3c0,0.5,0,0.9-0.2,1.4c0.4,0,0.9,0.1,1.3,0.3c-0.5,0.1-0.9,0.3-1.4,0.3
			c-0.2,1-0.4,1.9-0.6,2.8c0.2,0.2,0.4,0.4,0.7,0.5c-0.4,0.2-0.9,0.4-1.3,0.6c-0.1-0.4-0.3-0.7-0.2-1.1c0.2-0.9,0.4-1.9,0.7-2.8
			c-0.3-0.1-0.6-0.3-0.9-0.4C155.7,86.2,156,86.1,156.3,85.9z"/>
		<path fill="#FFFFFF" d="M172.2,86c0.2-0.6,0.6-1,1.1-1.3c-0.1,0.5-0.2,0.9-0.3,1.4c0.4,0,0.9,0,1.3,0.1c-0.5,0.3-1,0.4-1.5,0.5
			c-0.1,1.1-0.4,2.1-0.6,3.1c0.5-0.2,0.9-0.4,1.4-0.6c-0.5,0.7-1.2,1.3-2.1,1.4c-0.2-1.3,0.3-2.6,0.6-3.9c-0.3-0.1-0.6-0.3-0.9-0.4
			C171.6,86.2,171.9,86.1,172.2,86z"/>
		<g>
			<path fill="#FFFFFF" d="M64.9,86.7c0.6-0.5,1.1-1,1.6-1.6c0.1,0.2,0.3,0.4,0.4,0.7c0.7-0.1,1.6-0.1,2,0.6
				c0.5,1.2-0.2,2.6-1.2,3.4c-0.6,0.5-1.3,0.6-2,0.8c-0.1,0.5-0.2,1-0.3,1.5c0.3,0.2,0.7,0.3,1,0.5c-0.9,0.1-1.7,0.1-2.6,0.1
				c0.3-0.3,0.8-0.5,0.9-1c0.4-1.7,0.7-3.4,1-5C65.4,86.7,65.1,86.7,64.9,86.7z M66.6,86.3c-0.3,1.2-0.6,2.3-0.7,3.5
				c0.2,0.1,0.5,0.2,0.7,0.3c1.1-0.6,1.8-2.1,1.4-3.3C67.8,86.2,67.1,86.4,66.6,86.3z"/>
		</g>
		<path fill="#FFFFFF" d="M96.8,86.5c0.5-0.4,1.1-0.7,1.7-0.8c0.2,1.3-0.4,2.4-0.6,3.7c0.3,0,0.6,0,0.9,0c-0.5,0.6-1.1,1-1.8,1.2
			c-0.1-1.4,0.5-2.7,0.8-4C97.4,86.6,97.1,86.6,96.8,86.5z"/>
		<path fill="#FFFFFF" d="M169,86.1c0.3-0.1,0.6-0.2,0.9-0.3c-0.2,1.3-0.6,2.5-0.8,3.8c0.3-0.1,0.7-0.2,1-0.2
			c-0.5,0.6-1.1,1-1.8,1.2c0-0.5,0-1.1,0.1-1.6c-0.8,0.6-1.4,1.7-2.5,1.6c-0.2-1.2,0.2-2.4,0.5-3.6c-0.3,0-0.7,0-1,0.1
			c0.5-0.4,1-0.9,1.6-1.1c0.1,0.1,0.2,0.2,0.3,0.3c-0.1,1.3-0.7,2.5-0.6,3.9C167.9,89.1,168.9,87.7,169,86.1z"/>
		<path fill="#FFFFFF" d="M174.9,86.9c0.5-0.5,1.1-1,1.8-1.2c0.1,1.4-0.7,2.7-0.6,4.1c1.1-0.6,2-1.7,2.3-3c0.1-0.3,0.1-0.6,0.2-0.9
			c0.3,0,0.5,0,0.8,0c-0.3,1.2-0.5,2.4-0.8,3.5c0.3,0.1,0.5,0.2,0.8,0.3c-0.5,0.3-0.9,0.6-1.4,0.7c-0.5-0.4,0-1.2,0-1.7
			c-0.8,0.7-1.5,1.8-2.7,1.7c-0.2-1.2,0.3-2.4,0.6-3.6C175.6,86.9,175.2,86.9,174.9,86.9z"/>
		<g>
			<path fill="#FFFFFF" d="M186.7,86c0.4-0.3,0.9-0.3,1.4-0.2c0.5,0.2,0.5,0.8,0.4,1.2c-0.6,0.8-1.7,1.1-2.6,1.5
				c-0.1,0.4,0.1,0.8,0.2,1.2c0.8,0.1,1.5-0.2,2.2-0.5c-0.5,0.8-1.5,1.4-2.4,1.2c-0.5,0-0.7-0.5-0.8-0.8
				C184.7,88.2,185.4,86.7,186.7,86z M186.9,86.4c-0.6,0.3-0.8,1-1,1.7c0.5-0.1,1.1-0.3,1.5-0.7c0.2-0.3,0.1-0.6,0.2-0.9
				C187.3,86.4,187.1,86.3,186.9,86.4z"/>
		</g>
		<path fill="#FFFFFF" d="M70.8,87.3c0.5-0.8,1.4-1.5,2.4-1.5c0.6,0,1,0.8,0.6,1.2c-0.5,0.7-1.3,1.2-2.2,1.1
			c0.5-0.4,1.1-0.8,1.5-1.3c-0.1-0.2-0.2-0.5-0.3-0.6c-0.4,0.1-0.9,0.3-1.1,0.7c-0.4,0.5-0.1,1.1-0.3,1.6c-0.2,0.4,0,0.8,0,1.2
			c0.4,0,0.8,0.1,1.2,0c0.4-0.2,0.8-0.4,1.2-0.5c-0.5,0.9-1.5,1.4-2.5,1.3c-0.4,0-0.6-0.3-0.8-0.6C70.3,89,70.3,88.1,70.8,87.3z"/>
		<path fill="#FFFFFF" d="M74.9,89.8c-0.4-1.7,0.7-3.7,2.5-4c0.4-0.1,0.8,0.2,1.1,0.5c-0.2,0.2-0.4,0.4-0.6,0.5
			c-0.4-0.1-0.7-0.4-1.2-0.4c-1,0.8-1.3,2.3-0.9,3.4c0.7,0.1,1.4-0.3,2.1-0.5c-0.5,0.9-1.6,1.5-2.6,1.2C75.2,90.3,75,90,74.9,89.8z"
			/>
		<path fill="#FFFFFF" d="M79.2,86.9c0.5-0.5,1.1-0.9,1.8-1.1c0.1,0.1,0.2,0.2,0.2,0.3c-0.2,1-0.5,2-0.7,3c-0.1,0.4,0.1,0.7,0.3,1
			c-0.4,0.2-0.8,0.4-1.2,0.6c-0.1-1.3,0.4-2.5,0.6-3.7C79.9,86.9,79.6,86.9,79.2,86.9z"/>
		<g>
			<path fill="#FFFFFF" d="M82.9,87.8c0.5-1.4,2.3-2.3,3.7-1.8c-0.1,1.3-0.5,2.4-0.6,3.7c0.3-0.1,0.7-0.2,1-0.2
				c-0.5,0.6-1.1,1-1.8,1.2c0-0.5,0-1.1,0-1.6c-0.7,0.7-1.4,1.6-2.5,1.5C82.5,89.6,82.5,88.6,82.9,87.8z M84.3,86.7
				c-0.6,0.9-1.1,2.1-0.7,3.1c1.2-0.7,2.2-2,2.1-3.5C85.3,86.4,84.6,86.2,84.3,86.7z"/>
		</g>
		<path fill="#FFFFFF" d="M94.2,86.8c0.5-0.4,1-0.8,1.6-1.1c0.1,0.7,0.3,1.4,0.2,2c-0.5,0.8-0.7,1.6-0.8,2.5
			c-0.2,0.1-0.6,0.2-0.8,0.3c0.1-1.3,0.5-2.5,0.8-3.8C94.8,86.8,94.5,86.8,94.2,86.8z"/>
		<g>
			<path fill="#FFFFFF" d="M100.2,90.1c-0.7-1.7,0.4-3.9,2.2-4.2c0.5-0.1,0.8,0.2,1.2,0.4c0,1.5-1.7,1.8-2.7,2.3
				c0,0.4,0,0.8,0.2,1.2c0.8,0.2,1.5-0.3,2.2-0.5c-0.5,0.6-1.2,1.2-2,1.3C101,90.5,100.4,90.5,100.2,90.1z M101.1,88
				c0.8-0.2,1.9-0.7,1.7-1.7C101.7,86.1,101.1,87.2,101.1,88z"/>
		</g>
		<g>
			<path fill="#FFFFFF" d="M106.3,86c0.5-0.3,1.2-0.2,1.7,0c0,0.3,0,0.7,0,1c-0.6,0.9-1.7,1.1-2.7,1.5c0.1,0.4,0.2,0.8,0.2,1.2
				c0.9,0.3,1.6-0.3,2.4-0.5c-0.6,0.8-1.5,1.4-2.5,1.3c-0.6,0-0.9-0.6-1-1C104.4,88.1,105,86.6,106.3,86z M105.5,87.8
				c0.1,0.1,0.2,0.2,0.3,0.2c0.7-0.1,1.2-0.6,1.6-1.1c-0.1-0.1-0.2-0.4-0.3-0.6C106.2,86.2,105.8,87.1,105.5,87.8z"/>
		</g>
		<path fill="#FFFFFF" d="M115.1,87.7c-0.1-0.9,0.6-1.6,1.4-1.9c0.4-0.1,0.8,0.1,1.2,0.3c-0.1,0.2-0.2,0.5-0.3,0.7
			c-0.4-0.2-0.7-0.3-1.1-0.5c-0.1,0.1-0.3,0.3-0.4,0.4c0,0.2,0,0.3,0,0.5c0.6,0.5,1.6,0.9,1.4,1.9c-0.2,0.6-0.7,1.1-1.2,1.3
			c-0.5,0.1-1,0-1.4-0.1c0-0.3,0-0.6,0-0.9c0.4,0.2,0.9,0.4,1.3,0.5c0.5,0,0.8-0.5,0.6-0.9C116.2,88.5,115.6,88.2,115.1,87.7z"/>
		<path fill="#FFFFFF" d="M137.1,86.7c0.4-0.4,0.9-0.7,1.4-0.9c0,0.4,0,0.7,0.1,1.1c0.4-0.4,0.7-0.7,1.1-1c0.2,0.1,0.5,0.1,0.7,0.2
			c0,0.2-0.1,0.5-0.1,0.7c-0.4,0.1-1-0.2-1.3,0.2c-0.7,0.9-0.9,2.1-1,3.3c-0.3,0.1-0.6,0.2-0.9,0.3c0.2-1.2,0.4-2.4,0.8-3.6
			C137.6,86.8,137.4,86.8,137.1,86.7z"/>
		<path fill="#FFFFFF" d="M141.3,87c0.5-0.5,1.1-1.2,1.9-1.2c-0.1,1.2-0.5,2.4-0.8,3.6c0.4,0,0.7-0.1,1.1-0.1
			c-0.6,0.5-1.2,1-1.9,1.3c-0.2-1.3,0.5-2.6,0.7-3.9C142,86.8,141.6,86.9,141.3,87z"/>
		<g>
			<path fill="#FFFFFF" d="M144.8,88c-0.1-1.3,1.4-2.6,2.7-2.1c0.5,0.1,1,0.1,1.5,0.1c-0.3,0.2-0.5,0.4-0.8,0.6
				c-0.2,0.5-0.1,1.2-0.5,1.6c-0.5,0.6-1.2,0.8-1.9,1.2c0.6,0.5,1.4,0.9,1.9,1.4c0.3,0.2,0.3,0.7,0.1,1c-0.5,0.7-1.3,0.9-2.1,1.1
				c-0.7,0-1.4-0.2-1.8-0.8c-0.2-0.9,0.8-1.3,1.4-1.7c0-0.4,0-0.8,0-1.2C145.1,88.8,144.8,88.5,144.8,88z M146.2,86.4
				c-0.6,0.5-0.6,1.4-0.5,2.1c0.2,0.2,0.6,0.2,0.8,0.3c0.3-0.3,0.6-0.7,0.7-1.1c0.1-0.5,0-0.9-0.2-1.4
				C146.8,86.3,146.5,86.3,146.2,86.4z M145.5,90.6c-0.4,0.3-0.9,0.7-0.7,1.3c0.5,0.5,1.2,0.6,1.9,0.4c0.3-0.2,0.4-0.5,0.6-0.8
				C146.9,91.2,146.3,90.4,145.5,90.6z"/>
		</g>
		<path fill="#FFFFFF" d="M181.1,86.5c0.3-0.2,0.7-0.5,1-0.7c0.1,0.1,0.3,0.2,0.4,0.3c0,0.3,0,0.6-0.1,0.9c0.4-0.5,0.8-1.3,1.6-1.1
			c0.1,0.3,0.1,0.6,0.1,0.9c-0.4,0-0.7,0-1.1,0.1c-1,0.9-1,2.3-1.3,3.5c-0.2,0.1-0.5,0.2-0.7,0.3c0-1.2,0.4-2.3,0.6-3.5
			C181.5,86.9,181.3,86.7,181.1,86.5z"/>
		<path fill="#FFFFFF" d="M190.5,86.2c0.5-0.3,1.2-0.6,1.7-0.1c0.1,0.3,0,0.5-0.2,0.7c-0.5-0.2-0.9-0.3-1.3-0.5L190.5,86.2z"/>
		<path fill="#FFFFFF" d="M190.2,86.4c0.1,0,0.2,0.1,0.2,0.1c0.1,0.3,0.1,0.5,0.1,0.8c0.4,0.3,1,0.6,1.3,1.1c0.1,0.6,0,1.3-0.6,1.7
			c-0.5,0.5-1.2,0.4-1.9,0.3c-0.1-0.3-0.2-0.5-0.3-0.8c0.7-0.5,1.4,0.7,2.1,0.1c0-0.3,0-0.6-0.1-0.8c-0.4-0.4-0.8-0.7-1.2-1.1
			C189.7,87.3,189.8,86.7,190.2,86.4z"/>
	</g>
</g>
</svg>
