<?xml version="1.0" encoding="utf-8"?>
<!-- Generator: Adobe Illustrator 16.0.0, SVG Export Plug-In . SVG Version: 6.00 Build 0)  -->
<!DOCTYPE svg PUBLIC "-//W3C//DTD SVG 1.1//EN" "http://www.w3.org/Graphics/SVG/1.1/DTD/svg11.dtd">
<svg version="1.1" id="Layer_1" xmlns="http://www.w3.org/2000/svg" xmlns:xlink="http://www.w3.org/1999/xlink" x="0px" y="0px"
	 width="221.2px" height="89.7px" viewBox="0 0 221.2 89.7" enable-background="new 0 0 221.2 89.7" xml:space="preserve">
<polygon fill="#FFFFFF" points="36.3,43.5 36.3,48.5 44.3,48.5 44.3,52.1 36.3,52.1 36.3,57.6 45.3,57.6 45.3,61.2 32.2,61.2 
	32.2,40 44.9,40 44.9,43.5 "/>
<rect x="63.8" y="40" fill="#FFFFFF" width="4.1" height="21.3"/>
<polygon fill="#FFFFFF" points="86.4,40 89.3,40 101.2,53.8 101.2,40 105.3,40 105.3,61.2 102.4,61.2 90.5,47.3 90.5,61.2 
	86.4,61.2 "/>
<path fill="#FFFFFF" d="M125.6,50.5c0,4.2,3.1,7.3,7.3,7.3c2,0,3.5-0.7,4.7-1.7v-3.3h-5.5v-3.6h9.6v8.3c-1.9,2.4-5.1,4.1-8.9,4.1
	c-6.6,0-11.3-4.9-11.3-10.9c0-6.1,4.6-10.9,11.3-10.9c3.1,0,5.8,1.2,7.8,3.1l-2.7,2.9c-1.2-1.2-3.1-2.2-5.2-2.2
	C128.6,43.2,125.6,46.5,125.6,50.5"/>
<path fill="#FFFFFF" d="M95.9,1.9c6.6,0,11.1,4.9,11.1,10.9s-4.5,10.9-11.1,10.9s-11.1-4.9-11.1-10.9S89.3,1.9,95.9,1.9 M95.9,20.1
	c4,0,7-3.3,7-7.3s-3-7.3-7-7.3c-4,0-7,3.3-7,7.3C88.9,16.8,91.8,20.1,95.9,20.1"/>
<path fill="#FFFFFF" d="M12.8,49.3c0,0-0.1-0.1-0.2-0.1c1.3-1,2.2-2.4,2.2-4.2c0-2.9-2.3-5-5-5H7.4H0.2v21.3h8.3
	c2.8,0,4.4-0.7,5.5-1.9c1.2-1.2,2-2.9,2-4.6C16,52.4,14.7,50.2,12.8,49.3 M4.3,43.5h3.9c1.2,0,1.9,0.3,2.3,0.8
	c0.4,0.4,0.7,1,0.7,1.4c0,0.6-0.2,1.1-0.7,1.4C10,47.6,9.5,48,8.2,48H4.3V43.5z M11.1,56.7c-0.6,0.6-1.3,1-2.8,1H4.3v-5.7h4.1
	c1.4,0,2.2,0.4,2.8,1c0.4,0.6,0.8,1.2,0.8,2C11.9,55.3,11.7,56.1,11.1,56.7"/>
<polygon fill="#FFFFFF" points="194.5,80.4 194.5,82.6 197.9,82.6 197.9,84.2 194.5,84.2 194.5,86.4 198.4,86.4 198.4,87.9 
	192.7,87.9 192.7,78.9 198.1,78.9 198.1,80.4 "/>
<polygon fill="#FFFFFF" points="86.4,68 87.2,68 88.1,70.6 89,68 89.5,68 90.4,70.6 91.3,68 92.1,68 90.7,72 90.2,72 89.2,69.5 
	88.3,72 87.9,72 "/>
<rect x="93.5" y="68" fill="#FFFFFF" width="0.8" height="4.1"/>
<polygon fill="#FFFFFF" points="99.1,68 99.1,68.7 98,68.7 98,72 97.2,72 97.2,68.7 96.1,68.7 96.1,68 "/>
<polygon fill="#FFFFFF" points="103.8,70.2 101.7,70.2 101.7,72 100.8,72 100.8,68 101.7,68 101.7,69.6 103.8,69.6 103.8,68 
	104.5,68 104.5,72 103.8,72 "/>
<rect x="109.6" y="78.9" fill="#FFFFFF" width="1.8" height="9"/>
<path fill="#FFFFFF" d="M117.3,85.6c0.6,0.6,1.3,1,2.1,1c0.8,0,1.3-0.4,1.3-1.1c0-1.2-1.7-1.3-2.9-2c-0.7-0.4-1.2-1-1.2-2
	c0-1.7,1.4-2.5,3-2.5c1,0,1.8,0.2,2.5,0.9l-1,1.2c-0.4-0.3-1-0.7-1.5-0.7c-0.7,0-1.4,0.3-1.4,1c0,1.4,4.2,1,4.2,4.1
	c0,1.5-1.4,2.6-3.1,2.6c-1.2,0-2.3-0.4-3.3-1.3L117.3,85.6z"/>
<polygon fill="#FFFFFF" points="133.1,78.9 133.1,80.4 130.7,80.4 130.7,87.9 129,87.9 129,80.4 126.6,80.4 126.6,78.9 "/>
<path fill="#FFFFFF" d="M135.9,87.9l3.9-9h1.2l3.9,9h-1.8l-0.9-2h-3.6l-0.9,2H135.9z M139.2,84.4h2.3l-1.2-2.6L139.2,84.4z"/>
<polygon fill="#FFFFFF" points="160.7,78.9 160.7,80.4 158.4,80.4 158.4,87.9 156.6,87.9 156.6,80.4 154.2,80.4 154.2,78.9 "/>
<rect x="165.2" y="78.9" fill="#FFFFFF" width="1.8" height="9"/>
<path fill="#FFFFFF" d="M173.7,84.3v3.6H172v-9h3.4c1.2,0,1.8,0.3,2.3,0.8c0.4,0.4,0.7,1.2,0.7,1.9c0,0.7-0.2,1.4-0.7,1.9
	c-0.4,0.6-1.2,0.8-2.3,0.8L173.7,84.3L173.7,84.3z M175.3,82.7c0.7,0,0.9-0.1,1.1-0.4c0.1-0.2,0.3-0.4,0.3-0.8
	c0-0.3-0.1-0.6-0.3-0.8c-0.2-0.2-0.4-0.4-1.1-0.4h-1.5v2.3L175.3,82.7L175.3,82.7z"/>
<path fill="#FFFFFF" d="M184.1,84.3v3.6h-1.8v-9h3.4c1.2,0,1.9,0.3,2.3,0.8c0.4,0.4,0.7,1.2,0.7,1.9c0,0.7-0.2,1.4-0.7,1.9
	c-0.4,0.6-1.2,0.8-2.3,0.8L184.1,84.3L184.1,84.3z M185.7,82.7c0.7,0,0.9-0.1,1.1-0.4c0.1-0.2,0.3-0.4,0.3-0.8
	c0-0.3-0.1-0.6-0.3-0.8c-0.2-0.2-0.4-0.4-1.1-0.4h-1.5v2.3L185.7,82.7L185.7,82.7z"/>
<polygon fill="#FFFFFF" points="209.1,78.9 209.1,80.4 206.6,80.4 206.6,87.9 204.9,87.9 204.9,80.4 202.5,80.4 202.5,78.9 "/>
<polygon fill="#FFFFFF" points="219.4,78.9 219.4,80.4 217,80.4 217,87.9 215.4,87.9 215.4,80.4 213,80.4 213,78.9 "/>
<polygon fill="#FFFFFF" points="93.7,78.9 91.4,78.9 88.5,82.5 88.5,78.9 86.8,78.9 86.8,87.9 88.5,87.9 88.5,85.3 89.1,84.5 
	91.5,87.9 93.5,87.9 90.3,82.9 "/>
<path fill="#FFFFFF" d="M105,87.9l-1.8-3.9c0.3-0.1,0.6-0.3,0.8-0.6c0.4-0.4,0.7-1.2,0.7-1.9c0-0.7-0.2-1.4-0.7-1.9
	c-0.4-0.6-1.2-0.8-2.3-0.8h-3.4V88h1.8v-3.9h1.4l1.7,3.6h1.9V87.9z M100,80.4h1.5c0.7,0,0.9,0.1,1.1,0.4c0.1,0.2,0.3,0.4,0.3,0.8
	c0,0.3-0.1,0.6-0.3,0.8c-0.2,0.2-0.4,0.4-1.1,0.4H100V80.4z"/>
</svg>
