<svg xmlns="http://www.w3.org/2000/svg" width="210.3" height="45.3" viewBox="0 0 210.3 45.3"><path fill="#fff" d="M-6.9-137.9c2.3-.6 4.5-1.4 6.9-1.8-.4.2-.8.5-1.3.7-7 3.1-13.8 6.8-19.7 11.9-4 3.5-7.3 7.7-9.7 12.4-4.6-1.4-9-3-13.5-4.8 4.1-4.4 9.2-7.9 14.7-10.4 7.4-3.5 15-5.8 22.6-8zm13.3-1.6h3.6c1.4 2.3 3 4.5 4.5 6.8-1.1 0-2.3 0-3.4-.1l-.6-1.1h-4.8c-.7 1.6-2.4 1.1-3.8 1.1 1.5-2.3 3.1-4.5 4.5-6.7zm1.5 1.7c-.6.8-1 1.7-1.5 2.6h3.4c-.7-.8-.9-2.2-1.9-2.6zm10.9-1.8h3.4l2.7 4.7 2.7-4.7h3.4c.7 2.3 1.4 4.5 2 6.8h-3.1c-.3-1.4-.6-2.8-1-4.2-1.1 1.3-1.8 2.8-2.6 4.2-1 0-1.9.1-2.9-.1-1-1.3-1.7-2.9-2.6-4.3l-1.1 4.4h-3l2.1-6.8zm16.1 0h11.1l-.3 1.5h-3.8v5.3h-3.1c-.1-1.8-.1-3.5-.1-5.3h-4.1l.3-1.5zm14 0c2.8.1 5.6-.2 8.4.3 1.1.2 2.3.9 2.1 2.2 0 1-1.1 1.3-1.8 1.8l2.2 2.5h-3.4c-.5-.7-1.1-1.4-1.6-2h-2.8v2h-3.1v-6.8zm3.1 1.3v2.2c1.1 0 2.3.1 3.4-.1.8-.1 1.4-1.3.5-1.8-1.2-.4-2.6-.3-3.9-.3zm14.9-1.3h3.5c1.5 2.3 3 4.5 4.6 6.7-1 0-2.1.1-3.1 0-.4-.3-.7-.7-1-1.1h-4.8c-.2.4-.5.8-.7 1.1h-3.1c1.5-2.1 3-4.4 4.6-6.7zm-.1 4.4h3.4c-.5-1-1.1-1.9-1.7-2.9-.6 1-1.2 1.9-1.7 2.9zm11-4.4h3v3c1.3-.9 2.6-2 3.8-3h3.8l-4.3 3.2c1.5 1.2 3 2.4 4.5 3.5-1.4-.1-2.8.2-4.1-.2-1.3-.9-2.4-2.1-3.7-2.9l-.1 3.1h-3c.1-2.2.1-4.4.1-6.7zm-133.8 1.3c7-.5 14-.6 21-.3 2.7.6 5.3 1.1 8 1.6-11.4.8-22.9 1.9-33.6 5.9-1.4.5-2.8 1.3-4.2 1.7-3.3-1.6-6.5-3.6-9.7-5.4 5.9-2.3 12.2-3 18.5-3.5zm35.6 1.6c3 0 6-.4 8.9-.5l-9 2.1c-10.3 2.5-20.6 6.4-28.7 13.3-3.7-1.6-7.3-3.3-10.8-5.1 6.9-4 14.7-6.1 22.5-7.7 5.6-1 11.3-2.1 17.1-2.1zm202.3 6.8h5.2v17.1h-4.7v-2c-2.3 2.7-6.7 3-9.5 1.1s-3.4-6.2-1.3-8.8c2.5-3.1 7.4-3 10.4-.6-.1-2.3-.1-4.5-.1-6.8zm-4.5 8.3c-1.6.6-2.4 2.6-1.7 4.2.7 1.9 3.4 2.4 4.9 1.2 1.5-1.1 1.6-3.5.3-4.7-.8-1-2.3-1-3.5-.7zm-182.4-7.2c2.8-.2 5.6 0 8.4.6l-.4 3.3c-3.5-1.2-7.5-1.4-10.8.4-2.5 1.4-2.8 5.3-.7 7.1 1.9 1.8 4.8 2 7.3 1.7v-3.4h-3.1v-3h8.3v8.8c-4.5.8-9.2 1.2-13.6-.2-2.2-.8-4.4-2.3-5.2-4.6-1-2.8-.4-6.2 1.9-8.1 2.1-1.8 5.1-2.4 7.9-2.6zm64.4 1.5l5-1.2v3.9h3.7v2.8h-3.6c.1 1.9-.2 3.9.2 5.7.6 1.3 2.3.7 3.5.8l.2 2.5c-2.3.1-4.8.5-7-.4-1.1-.4-1.8-1.5-1.9-2.7-.2-2 0-4-.1-6h-2.9v-2.8h3c-.1-.8-.1-1.7-.1-2.6zm20.1-1.4h9.1c2 .1 4.1.2 5.7 1.6 1.2 1 1.3 2.7.8 4.1-.6 1.4-2 2-3.3 2.4.7.5 1.4 1 1.7 1.7 1 2 1.9 4.1 2.8 6.1h-5.5c-.7-1.8-1.3-3.7-2.4-5.3-.8-1.2-2.4-1-3.7-1.1v6.4h-5.3c.1-5.3.1-10.6.1-15.9zm5.2 2.9v3.8c1.7.1 3.5.1 5.1-.7.1-.8.6-1.7-.2-2.3-1.4-.9-3.2-.7-4.9-.8zm-40.6 2.2c3-1.8 6.8-1.4 10.1-.6-.1.9-.3 1.8-.4 2.8-2-.6-4.2-1.2-6.2-.4l-.3.8c2.1 1.5 5.3.7 7.1 2.8 1.4 1.6.5 4.3-1.5 5-3.2 1.3-6.9.9-10.3.3l.3-2.9c2.3.6 4.8 1.2 7.1.3-.1-.4-.2-.8-.4-1.2-2-1.1-4.5-.7-6.3-2.3-1.3-1.3-.8-3.7.8-4.6zm98.2-.5c3.2-.8 6.6-1.2 9.7-.2 1.6.5 3 1.8 3.2 3.6.2 2.7-.1 5.3.3 8h-4.6l-.2-1.7c-1.1.9-2.2 1.8-3.7 1.9-1.9.2-4 0-5.6-1.2-1.6-1.3-1.5-4 .3-5.1 2.6-1.6 5.9-1.4 8.9-1.3-.4-.7-.6-1.5-1.4-1.8-2.3-.7-4.8-.2-7 .5l.1-2.7zm3.6 6.5c-.7.3-.9 1.1-.6 1.8 1.2 1 3 .9 4.2 0 .7-.5.9-1.4 1.2-2.2-1.6-.1-3.4-.4-4.8.4zm-128.1-7h5.1v11.9h-4.6v-2c-1.5 1.6-3.7 2.5-5.9 2.3-2.3 0-4.8-1.3-5.2-3.7-.4-2.9-.2-5.7-.2-8.5h5.2v6c0 .9.2 1.9 1 2.4 1.6.8 4 .1 4.4-1.8.4-2.1.2-4.4.2-6.6zm10.1.9c2.1-1.2 4.6-1.4 6.9-1.1 1.9.2 3.8 1.2 4.8 2.8.8 1.3 1 2.9 1 4.4h-10.5c.4.9 1 1.8 2 2 2.4.6 4.9.2 7.1-.5l-.1 2.8c-3.4.8-7.2 1.2-10.4-.3-2-.9-3.7-2.8-3.7-5.1-.2-2 1-4 2.9-5zm3.5 1.7c-.9.4-1.2 1.4-1.5 2.2h6.1c-.3-.7-.3-1.5-.9-1.9-1.1-.8-2.6-.8-3.7-.3zm67.4-.6c1.8-1.8 4.4-2.3 6.9-2.2 2.2.1 4.7.8 6 2.7 1 1.4 1.1 3 1.1 4.7h-10.5c.4.9 1 1.7 2 2 2.4.7 4.9.3 7.2-.5l-.1 2.8c-2.9.7-5.9 1-8.9.3-2-.5-4-1.7-4.8-3.6-.9-2.1-.5-4.7 1.1-6.2zm4.9.6c-.9.4-1.1 1.4-1.4 2.2h6.1c-.3-.7-.4-1.7-1.1-2.1-1.2-.6-2.5-.6-3.6-.1zm9.4-2.6h5.4l2.4 8.7c1.1-2.8 1.8-5.8 2.7-8.7h6.2c.8 2.9 1.7 5.8 2.5 8.6 1-2.8 1.7-5.8 2.5-8.6h5c-1.6 3.9-3 7.9-4.6 11.9h-6l-2.5-8.7-3 8.7h-6c-1.6-4-3.1-8-4.6-11.9zm45.5 0h4.7v2.2c.7-.8 1.3-1.6 2.3-2 1.2-.5 2.6-.4 3.9-.3-.1 1.1-.2 2.2-.2 3.3-1.3 0-2.8-.2-4 .5-.9.5-1.4 1.6-1.5 2.6-.1 1.8 0 3.7 0 5.5h-5.2c0-3.9.1-7.9 0-11.8zm32.5.9c3-1.8 6.8-1.3 10-.6l-.4 2.8c-2-.7-4.3-1.2-6.3-.3 0 .2-.1.6-.2.8 2 1.3 4.5.8 6.5 2.2 1.5 1 1.7 3.3.5 4.6-.9 1-2.3 1.4-3.6 1.6-2.7.3-5.4.2-8-.3.1-.9.2-1.9.2-2.8 2.1.3 4.2.9 6.4.5.8-.2.8-1.3.1-1.6-1.9-.9-4.4-.7-6-2.2-1.3-1.4-.8-3.8.8-4.7zm13.9-1.1c1.3.2 3.1.7 3.3 2.2.4 1.8-1.8 3.4-3.4 2.4-1.9-.9-1.4-4.2.8-4.5-1.4.7-1.3 2.4-.6 3.4.2-.8 0-1.6.1-2.4.8.2 2.1-.2 2.1 1.2l-1.1-.8-.4.1-.3.8h1l.5 1.6c-.4-.4-.8-.9-1.3-1.2.1.3.2 1 .2 1.4-.3-.1-.9-.3-1.1-.4.4 1 2 1 2.6.2.8-.6.5-1.7.5-2.5-1-.5-2-1-2.9-1.5zm-.6 3.4c.3-.3.1-1-.1-1.3-.5.2-.3 1.1.1 1.3z"/><path fill="#D73E2F" d="M-292.6-185.3c.4-.9.5-1.9 1-2.7.9.4 1.5 1.2 2.1 1.9 1.1-.2 2.3-.2 3.5-.2.1 1.3-.5 2.5-1.2 3.5.4.9 1.1 1.8.9 2.9-.2.3-.7.2-1 .2-.9 0-1.7-.3-2.5-.4-.3-.1-.6.1-.9.3-.5.3-.9.6-1.5.7-.1 0-.2-.1-.3-.2-.1-.6-.1-1.3.2-1.9.2.4.3.9.4 1.3.7-.2 1.2-.9 1.8-1.3.9.1 1.8.6 2.8.5 0-.8-.6-1.4-.9-2.1-.1-.3-.1-.6.1-.8.4-.6 1-1.1.9-1.9-.9-.1-1.8.3-2.7.3-.4-.7-.7-1.4-1.4-1.9-.4.7-.4 1.4-.6 2.1-.6.5-1.4.5-2.1.4.4-.2 1-.4 1.4-.7zm72.2 33.6c.1-.3.3-.4.6-.6l5.9 14.9c.4 1.1.9 2.2 1.4 3.2.2.5.7.8 1 1.1-.3.1-.6.1-.9.1h-3.4c.1-.3.4-.5.5-.9 0-.5-.2-1-.3-1.5-.4-1-.7-2-1.2-3h-6.8c-.5 1.3-1.1 2.6-1.5 3.9-.1.2-.1.4-.1.7l.6.7c-.7.2-1.5.1-2.2.1-.7 0-1.4.1-2-.1.4-.4.9-.8 1.2-1.3 1.1-2.2 1.9-4.5 2.9-6.7 1.5-3.5 2.9-7 4.3-10.6zm.4 4.5c-.6 1.4-1.1 2.8-1.6 4.2-.3 1-.8 1.9-1 2.9h5.3c-1-2.4-1.9-4.8-2.7-7.1zm-39.6-4.5c.3-.1.6-.1 1-.1h9c-.1 1.1.1 2.2-.3 3.2-.2-.3-.4-.8-.8-1-.4-.2-.9-.2-1.3-.2h-3.2c-.4 0-.8 0-1.2.1v6.6c1.1.1 2.2 0 3.3 0 .6 0 1.3.1 1.9-.2.3-.2.6-.4.8-.6v3.5c-.5-.3-.9-.9-1.6-.8h-4.4v4.7c0 .8 0 1.7.2 2.5.2.5.6.7 1 1.1h-4.5c.4-.5 1-1 1-1.6.1-2.6 0-5.1 0-7.7v-8c0-.7-.5-1.1-.9-1.5zm15.4 0c.6-.2 1.1-.1 1.7-.1 1.4 0 2.7-.1 4.1 0 1.3.1 2.7.6 3.6 1.6.9.9 1.4 2.2 1.3 3.5.1 1.7-.7 3.4-2 4.4-.5.4-1.2.7-1.8 1l3.9 5.3c.4.6.9 1.2 1.3 1.7l1.5 1.2c-.9.1-1.7 0-2.6 0-.4 0-.9.1-1.2-.3l-2.3-3.3c-1-1.4-2-2.9-3.1-4.3h-1.1v5.5l.1 1.2c.1.5.5.8.8 1.2h-2.7c-.5 0-1.1 0-1.6-.1.3-.3.7-.5.8-.9.3-1 .1-2 .3-3v-11.2c-.1-.9 0-1.8-.2-2.7-.1-.3-.5-.5-.8-.7zm3.3 1.8v7.2c.7 0 1.4.1 2.1-.1.9-.2 1.8-.7 2.3-1.4 1-1.5.9-3.7-.5-4.9-1.1-1-2.6-.9-3.9-.8zm35.8-1.7c.8-.4 1.6-.3 2.4-.3.9 0 1.8 0 2.6.3v2.4c0 .3-.1.5-.2.8-.3-.5-.5-1.1-1.1-1.3-1-.5-2.3-.3-3.2.2-.6.4-1.1 1-1.3 1.7-.2 1.1.2 2.2 1 2.9l3.8 3.2c.8.7 1.4 1.7 1.6 2.8.1.7.1 1.4 0 2.1-.2 1.4-1.1 2.6-2.4 3.3-2.1 1.2-4.6 1-6.8.2 0-1.1 0-2.2.2-3.3.5.5.6 1.2 1.2 1.5.8.4 1.9.5 2.8.3 1-.1 2-.8 2.4-1.8.4-.9.2-1.9-.2-2.7-.4-.8-1.2-1.3-1.9-1.9-1.3-1-2.8-2-3.6-3.5-.8-1.4-.8-3.2 0-4.7.7-1 1.6-1.8 2.7-2.2zm10.9-.2c3.1-.1 6.1 0 9.2 0 .2 0 .5-.1.7.2 0 1 0 2-.2 3-.3-.4-.5-1-1.1-1.1-.9-.2-1.9-.2-2.9-.2-.8 0-1.7-.1-2.5.1v6.2h4.5c.6 0 1-.4 1.4-.7v3.4c-.4-.4-.9-.8-1.6-.8h-4.4v6.3c-.1.2.1.4.3.4h5.1c.7 0 1-.7 1.4-1.1.1 1.1 0 2.1 0 3.2h-10.2l.7-.8c.3-.5.2-1.2.2-1.8.2-1.6.1-3.2.1-4.8v-7.2c0-.5 0-1-.1-1.5-.1-.6 0-1.3-.2-1.9.2-.4-.1-.6-.4-.9zm16 .1c.9-.2 1.8-.1 2.7-.1 1.6 0 3.2-.1 4.7.4 1.4.4 2.5 1.5 3 2.9.4.9.3 1.9.3 2.9-.2 1.3-.9 2.6-2 3.4-.6.4-1.2.8-1.9 1.1l4.3 5.9c.3.4.6.8.9 1.1l1.4 1.2c-.9.1-1.7 0-2.6 0-.3 0-.6 0-.8-.1-.4-.3-.6-.8-.9-1.2l-4.3-6.1c-.2-.2-.4-.5-.7-.5-.3 0-.6 0-.9.1v2.9c.2 1.3-.1 2.6.2 3.9.1.5.5.8.8 1.1-.9.1-1.7 0-2.6 0-.6 0-1.2.1-1.7-.1.3-.2.6-.4.8-.7.2-.7.3-1.4.3-2.1v-4.1l.1-2.7c0-.8 0-1.7-.1-2.5l-.1-4.7c-.1-.4-.1-.8-.3-1.2 0-.5-.3-.6-.6-.8zm3.3 1.8v7.2c1.4.1 2.9-.1 4-1.1 1.5-1.3 1.5-4 0-5.3-1.1-.9-2.6-.9-4-.8z"/><path fill="#2E376C" d="M-274.4-173.1c.6.3 1.1.9 1.5 1.4 1.7 2.3 2.7 5.2 2.9 8 .1 1.5-.1 3-.4 4.5-.4 1.7-1 3.3-1.8 4.8-.3.5-.6 1.1-1.3 1.3-.1-.6 0-1.1.1-1.7.7-2.9 1.2-5.8 1.1-8.8 0-2.8-.6-5.6-1.7-8.2-.1-.3-.4-.7-.4-1.3zm-24 5.4c.1-.6.3-1.3.7-1.8.3.7.2 1.5.3 2.3.5 3.8 2.1 7.3 3.8 10.7 1.7 3.2 3.7 6.2 6.3 8.7.7.7 1.5 1.2 2.1 2l-.4.1c-.7-.2-1.4-.5-2-.9-3.1-1.8-5.6-4.5-7.5-7.6-1.4-2.4-2.5-5-3.1-7.7-.2-1-.4-2-.4-3.1.1-.8 0-1.8.2-2.7zm10.2 3.9c.7-.8 1.7-1.1 2.7-1.2 1.7-.2 3.5.5 4.6 1.8.7.9 1.2 2.1 1.2 3.4.1 1.6-.7 3.3-2 4.3-.2.2-.5.3-.9.4.4-1 1.1-1.9 1.2-3 0-.8.1-1.6-.2-2.3-.4-1-1.1-2-2-2.6-1.1-.6-2.4-.9-3.6-.7-.3-.1-.6-.1-1-.1zm14.3 17.7c-.1-1-.4-1.9-.3-2.9.6.4 1 1 1.2 1.7.8 2 1.3 4.2 1.5 6.3l.2 3c.1 6.1-1.8 12.1-4.6 17.5-1.2 2.1-2.5 4.2-4.1 6-.8.8-1.5 1.7-2.6 1.9 0-.3.1-.7.3-.9 1.4-2.1 2.6-4.3 3.7-6.6 1.2-2.5 2.2-5.2 3.1-7.8 2-5.7 2.6-12.1 1.6-18.2zm-9.9 15.9c.2-.3.5-.5.8-.7 0 .7-.3 1.4-.5 2-.9 2-2.1 3.9-3.7 5.5-2.8 2.9-6.6 4.8-10.5 5.6-.6 0-1.3.2-1.9-.1.8-.6 1.7-.9 2.6-1.3 4.3-2.1 8-5.3 11.3-8.8.7-.7 1.3-1.4 1.9-2.2zm45.1 1.1c.3 0 .8-.4 1 0-.3 1.5-.6 3-1 4.4.3-.1.6-.2.8-.2-.4.4-.8.8-1.4.9v-.8c.2-1.1.5-2.2.7-3.4.2-.3 0-.6-.1-.9zm16.6.1l1-.3.2.2-.9 4.2.3.5-.9.4c-.1-.4-.1-.8-.1-1.2-.5.5-1 1.2-1.8 1.1-.5-1.2.1-2.6 1.2-3.1.4-.2.8-.2 1.2-.2.1-.4.2-.8.2-1.3 0-.1-.2-.2-.4-.3zm-.9 2.2c-.6.6-.8 1.5-.7 2.3 1-.3 1.7-1.4 1.8-2.5-.3 0-.8-.1-1.1.2zm28.1-2.2l1.1-.3c0 1-.4 1.9-.5 2.9.6-.4 1.1-.9 1.8-1 .3.8-.2 1.6-.2 2.4-.1.3.1.5.2.7-.3.1-.5.3-.8.3-.2-.2-.1-.5-.1-.8.1-.6.3-1.2.4-1.9 0-.1-.1-.2-.2-.2-.7.4-1.4 1-1.5 1.8l-.2.9-.5.2c0-.7.2-1.4.3-2 .2-.9.4-1.7.5-2.6 0-.1-.1-.3-.3-.4zm10.2-.1c.3-.2.6-.2.9-.2.1.2.2.4.3.5-.4.1-.8-.1-1.1-.2-.3.5-.5 1.1-.5 1.7.3 0 .6 0 .9.1l-.9.4c-.2 1.2-.4 2.4-.8 3.5-.2.6-.7 1.1-1.4 1v-.4h.7c.2-.2.3-.6.4-.9l.5-3.1c-.2-.1-.5-.2-.7-.2.2-.1.5-.2.7-.2 0-.9.3-1.6 1-2zm-60.1.6c.1-.2.1-.5.3-.6.2 0 .3.1.4.2l-.1.6c-.2 0-.4 0-.6-.2zm44.3-.2l.4-.4c.1 0 .3.1.4.2 0 .2 0 .4-.1.6l-.6.1c.1-.2 0-.4-.1-.5zm-58.1-.1c.5-.3 1.2-.1 1.7 0v1.3c-.1-.2-.2-.5-.4-.7-.2-.5-.9-.4-1.3-.1-.3.2-.2.6-.2.9.4.6 1.3.8 1.6 1.5.4.8-.2 1.8-1 2-.6.2-1.2 0-1.8-.3v-1.2c.3.4.5 1.2 1.2 1.2.4 0 .8-.1.9-.5.1-.4.1-.9-.2-1.2-.4-.4-1-.6-1.3-1.1-.1-.7.2-1.5.8-1.8zm50 0h2.2c.5 0 1.1.4 1.1.9.1.6-.5.9-.9 1.2.3.2.6.5.8.9.1.7-.4 1.4-1 1.6-1 .3-2 .2-3 .2.3-.2.8-.4.8-.8.3-1.2.5-2.4.7-3.5-.2-.2-.5-.4-.7-.5zm1.4.3c-.2.5-.2 1.1-.3 1.6.4 0 .8.1 1.2-.2.2-.1.4-.3.4-.6s.1-.6-.2-.8c-.3-.1-.8-.2-1.1 0zm-.4 2c-.1.7-.4 1.4-.3 2 .3 0 .6.1.8 0 .8-.1 1.3-1.3.6-1.9-.3-.2-.7 0-1.1-.1zm-7.1-.4c0-.5.1-1 .3-1.4.3.4.5.8.8 1.3.5-.1.9-.2 1.4-.2.1.5-.3.9-.6 1.2.2.4.5.9.6 1.3-.7.1-1.1-.5-1.7-.5l-1.1.9c0-.5 0-1 .1-1.6-.4-.2-.8-.5-1.1-.8.4 0 .9-.1 1.3-.2zm24.2-.4c.2-.3.4-.7.8-.9 0 .3 0 .7-.1 1 .3 0 .6.1.9.2-.3.1-.7.2-1 .2-.1.7-.3 1.4-.4 2l.5.4c-.3.2-.6.3-.9.4-.1-.3-.2-.5-.1-.8.1-.7.3-1.3.5-2l-.6-.3.4-.2zm11.4.1c.1-.4.4-.7.8-1l-.2 1c.3 0 .6 0 .9.1-.3.2-.7.3-1.1.4-.1.8-.3 1.5-.4 2.2.3-.2.6-.3 1-.4-.4.5-.8 1-1.5 1-.1-.9.2-1.8.4-2.8-.2-.1-.4-.2-.7-.3.3-.1.5-.2.8-.2zm-76.9.5c.4-.3.8-.7 1.2-1.1l.3.5c.5 0 1.1-.1 1.4.4.3.9-.2 1.9-.9 2.4-.4.4-.9.4-1.4.6l-.2 1.1c.2.1.5.2.7.4-.6.1-1.2.1-1.9 0 .2-.2.6-.4.6-.7.3-1.2.5-2.4.7-3.6h-.5zm1.3-.3c-.2.8-.4 1.7-.5 2.5l.5.2c.8-.5 1.3-1.5 1-2.4-.2-.4-.7-.3-1-.3zm21.5.2c.3-.3.8-.5 1.2-.5.1.9-.3 1.7-.4 2.6h.7c-.3.4-.8.7-1.3.8-.1-1 .3-1.9.5-2.9h-.7zm51.7-.4l.6-.2-.6 2.7.7-.2c-.3.4-.8.7-1.3.9v-1.2c-.5.5-1 1.2-1.8 1.1-.1-.9.2-1.8.4-2.6h-.7c.4-.3.7-.7 1.2-.8l.2.2c-.1.9-.5 1.8-.4 2.8 1-.5 1.7-1.5 1.7-2.7zm4.3.6c.4-.4.8-.7 1.3-.8l-.4 2.9c.8-.4 1.5-1.2 1.6-2.1 0-.2.1-.4.2-.6h.6l-.6 2.5c.2.1.4.1.5.2-.3.2-.6.4-1 .5-.4-.3 0-.8 0-1.3-.6.5-1.1 1.3-1.9 1.2-.1-.9.2-1.7.4-2.6-.2.1-.5.1-.7.1zm8.4-.6c.3-.2.7-.2 1-.1.3.2.3.5.3.8-.5.6-1.2.8-1.9 1.1-.1.3 0 .6.1.9.6.1 1.1-.1 1.6-.4-.4.6-1 1-1.7.9-.3 0-.5-.4-.6-.6-.2-1 .3-2.2 1.2-2.6zm.1.2c-.4.2-.6.7-.7 1.2.4-.1.8-.2 1.1-.5.2-.2.1-.4.1-.7h-.5zm-83 .7c.3-.6 1-1.1 1.7-1.1.4 0 .8.6.5.9-.4.5-1 .8-1.6.8.4-.3.8-.5 1.1-.9l-.2-.4c-.3.1-.7.2-.8.5-.3.3-.1.8-.2 1.1-.1.3 0 .6 0 .9.3 0 .6.1.9 0l.8-.4c-.3.6-1.1 1-1.8.9-.3 0-.4-.2-.5-.4-.3-.7-.3-1.3.1-1.9zm2.9 1.8c-.3-1.2.5-2.7 1.8-2.8.3-.1.5.2.8.3l-.4.4c-.3-.1-.5-.3-.8-.3-.7.6-.9 1.6-.6 2.4.5.1 1-.2 1.5-.4-.3.6-1.1 1-1.9.9-.2-.2-.3-.3-.4-.5zm3.1-2.1c.4-.3.8-.7 1.3-.8l.2.2-.5 2.1c-.1.3.1.5.2.7-.3.1-.6.3-.8.4-.1-.9.3-1.8.4-2.7-.3.1-.5.1-.8.1zm2.6.6c.4-1 1.6-1.6 2.7-1.3 0 .9-.4 1.8-.4 2.6l.7-.2c-.3.4-.8.7-1.3.8v-1.1c-.5.5-1 1.2-1.8 1.1-.1-.6-.2-1.3.1-1.9zm1-.7c-.5.6-.8 1.5-.5 2.2.9-.5 1.6-1.4 1.5-2.5-.3 0-.7-.1-1 .3zm7.2 0c.3-.3.7-.5 1.1-.8.1.5.2 1 .1 1.4-.4.5-.5 1.2-.6 1.8-.1.1-.4.2-.5.2 0-.9.4-1.8.5-2.7-.2.1-.4.1-.6.1zm4.2 2.4c-.5-1.2.3-2.8 1.6-3 .3-.1.6.1.8.3 0 1-1.2 1.3-2 1.6 0 .3 0 .6.2.9.6.2 1.1-.2 1.6-.4-.3.5-.8.9-1.4.9-.2 0-.6 0-.8-.3zm.6-1.5c.6-.1 1.4-.5 1.2-1.2-.7-.1-1.1.6-1.2 1.2zm3.8-1.4c.4-.2.8-.2 1.2 0v.7c-.5.6-1.2.8-1.9 1.1 0 .3.1.6.2.8.6.2 1.1-.2 1.7-.4-.4.5-1 1-1.8.9-.4 0-.6-.4-.7-.7-.1-.9.4-2 1.3-2.4zm-.6 1.2l.2.2c.5-.1.9-.4 1.1-.8-.1-.1-.2-.3-.2-.4-.6 0-.9.5-1.1 1zm6.9 0c-.1-.6.4-1.2 1-1.4.3-.1.6.1.8.2-.1.1-.2.4-.2.5-.3-.1-.5-.2-.8-.4l-.3.3v.4c.4.4 1.2.7 1 1.3-.1.4-.5.8-.9 1-.3.1-.7 0-1-.1v-.6l.9.4c.3 0 .6-.3.4-.6-.2-.4-.6-.7-.9-1zm15.7-.7c.3-.3.6-.5 1-.7v.8c.3-.3.5-.5.8-.7.2 0 .3.1.5.2 0 .2 0 .3-.1.5-.3.1-.7-.1-.9.2-.5.7-.6 1.5-.7 2.3l-.6.2c.2-.9.3-1.7.6-2.6-.2-.1-.4-.2-.6-.2zm3 .2c.4-.4.8-.9 1.4-.8 0 .9-.4 1.7-.6 2.6l.8-.1c-.4.4-.8.7-1.3.9-.1-1 .4-1.9.5-2.8l-.8.2zm2.5.7c-.1-1 1-1.8 1.9-1.5.4.1.7.1 1.1.1-.2.1-.4.3-.5.4-.1.4-.1.8-.4 1.1-.4.4-.9.6-1.3.8l1.4 1c.2.2.2.5 0 .7-.3.5-.9.7-1.5.8-.5 0-1-.2-1.3-.6-.2-.6.6-.9 1-1.2v-.9c-.1-.1-.4-.3-.4-.7zm1.1-1.2c-.5.3-.4 1-.4 1.5.2.2.4.2.6.2.2-.2.4-.5.5-.8.1-.3 0-.7-.1-1-.2.1-.4.1-.6.1zm-.5 3.1c-.3.2-.6.5-.5.9.3.4.9.4 1.4.3l.5-.5c-.5-.3-.9-.9-1.4-.7zm25.4-3l.7-.5c.1.1.2.2.3.2v.6c.3-.4.6-1 1.1-.8.1.2.1.4.1.6h-.8c-.7.6-.7 1.6-.9 2.5-.2.1-.4.1-.5.2 0-.9.3-1.7.4-2.5-.1 0-.2-.1-.4-.3zm6.8-.2c.4-.2.9-.4 1.2 0 0 .2 0 .3-.1.5-.3-.1-.6-.2-1-.4l-.1-.1zm-.3.1s.1.1.2.1c.1.2.1.4.1.6.3.2.7.5.9.8.1.4 0 .9-.4 1.2-.4.4-.9.3-1.3.2-.1-.2-.2-.4-.2-.5l1.5.1v-.6l-.9-.8c-.2-.4-.1-.8.1-1.1z"/><path fill="#fff" d="M149.7 3.4h3.3l8.8 20.1h-3.7c-.7-1.6-1.3-3.2-2.1-4.8h-9.4l-2 4.8h-3.6c2.8-6.7 5.8-13.4 8.7-20.1zm1.6 4.3c-1.1 2.6-2.3 5.2-3.3 7.8h6.7c0-.2-.1-.5-.2-.7-1.2-2.3-2.2-4.7-3.2-7.1zm-125.5-4.1c1.3-.1 2.6-.1 3.8 0 1.6 4.9 3.1 9.8 4.7 14.6l4.8-14.6h3.1l4.8 14.6c.3-.7.5-1.5.7-2.2l4-12.4c1.2-.1 2.5-.1 3.7 0-2.3 6.7-4.6 13.4-7 20.1h-3.1c-1.4-4-2.8-8.1-4.1-12.1-.2-.7-.4-1.4-.7-2-1.5 4.2-2.9 8.5-4.4 12.8l-.4 1.3c-1 .1-2.1.1-3.1 0-2.2-6.8-4.5-13.4-6.8-20.1zm30.8 0c1.1-.1 2.2-.1 3.4-.1.3 0 .8 0 1 .3l4.6 7.3c.2.4.5.8.8 1.1l5.4-8.4c.2-.4.7-.3 1-.3 1.1 0 2.2-.1 3.2.1l-7.6 11.4c-.1.2-.3.5-.3.8v7.6h-3.6v-7.3c0-.3 0-.5-.1-.8-2.6-3.8-5.3-7.7-7.8-11.7zm21.3 0c.9 0 1.9-.1 2.8 0 .7 0 1 .7 1.4 1.2 3.2 4.2 6.4 8.4 9.7 12.5v-13.6c1.1-.1 2.3-.1 3.5 0v19.9h-2.9c-3.7-4.6-7.3-9.4-10.9-14v14h-3.5c-.1-6.7-.2-13.4-.1-20zm21.9 0l3.7-.1c2.3.1 4.7-.2 7 .5 2.6.7 5 2.4 6.2 4.8 1.1 2 1.4 4.5 1 6.7-.5 2.6-2.1 5-4.4 6.4-1.7 1.1-3.8 1.6-5.9 1.6h-7.6v-19.9zm3.5 3.2v13.5h4.3c2.1 0 4.2-1 5.4-2.8 2-3 1.3-7.7-1.8-9.6-2.4-1.5-5.2-1-7.9-1.1zm18.2-3.2c1.2 0 2.4-.1 3.6.1v8.2h9.4c.1-2.7 0-5.5 0-8.2 1.2-.1 2.4-.1 3.6 0v19.9h-3.6v-8.3h-9.5v8.3c-1.2.1-2.4 0-3.6 0 .1-6.7.1-13.4.1-20zm42.5 0l3.3-.1c.7-.1.9.7 1.2 1.1 1.8 2.8 3.5 5.6 5.4 8.3 1.9-3.1 4-6.1 5.9-9.3 1.3-.3 2.6-.1 3.9-.1v19.9h-3.5l-.1-14.1-6.2 9.1c-.2.2-.3-.2-.5-.4-1.9-3-3.9-5.9-5.9-8.8v13.3c0 .3 0 .6-.1.8h-3.4l-.1-2.3c.1-5.6.1-11.5.1-17.4zm-72.6 23.3c16.3-.2 32.5-.1 48.8.7 15.4.7 30.7 1.9 45.9 4.1 5.9.9 11.7 1.9 17.4 3.4-14.1-2.1-28.4-3.3-42.7-4.1-19.2-1.1-38.4-1.5-57.6-1.6-23.4.1-46.9.7-70.2 2.7-9 .8-18.1 1.7-27 3.1 0 0-.1.1-.2.1v-.2c.8-.1 1.6-.4 2.4-.6 3.1-.8 6.3-1.4 9.5-1.9 9.6-1.7 19.4-2.8 29.1-3.6 15-1.3 29.8-1.9 44.6-2.1zm62.8 8.2c1.1-.2 2 1.1 1.6 2.1-.4 1-1.8 1.2-2.5.4-.8-.8-.3-2.4.9-2.5zm-.3.3c-.8.3-1.1 1.5-.4 2.1.4.4 1 .3 1.6.2-.3-.4-.6-.7-.9-1-.1.3-.1.7-.5.6v-1.7c.4 0 .7 0 1.1.1.4.2.2.7 0 1l.4.7c.2-.4.4-.7.4-1.2 0-.6-1-1.1-1.7-.8zm.2.7v.4h.4v-.4h-.4zm-94.2-.9h3.8c.9 0 1.9.4 2.3 1.2.5.9.4 2.2-.3 3-.3.4-.8.5-1.2.7.5 1.1 1.4 2 2 3-.6 0-1.1.1-1.7 0-.8-.8-1.3-1.9-2-2.7-.5-.1-1.1 0-1.6 0v2.8h-1.4c.1-2.7.1-5.4.1-8zm1.5 1.3v2.6h2.2c.5 0 1.1-.3 1.3-.8.3-.6-.1-1.5-.8-1.7-.9-.2-1.8-.1-2.7-.1zm12.2-1.3h5.9v1.2h-4.5c0 .7-.1 1.3 0 2 1.3.2 2.6 0 3.9.1v1.3h-4v2.1h4.5v1.3h-6c.2-2.8.2-5.4.2-8zm12.4 0h1.5l1.8 5.7c.7-1.9 1.3-3.8 1.9-5.7h1.3c.6 1.9 1.2 3.9 1.9 5.8l1.8-5.7h1.5l-2.8 8h-1.3c-.7-1.8-1.2-3.7-2-5.6-.6 1.9-1.3 3.7-1.9 5.5h-1.3c-.5-2.7-1.5-5.3-2.4-8zm31.4 0h3.8c.9 0 1.9.4 2.4 1.2.5.9.4 2.2-.3 3-.3.4-.8.5-1.2.8l2 2.9c-.6 0-1.1.1-1.7 0-.7-.8-1.2-1.9-2-2.7-.5-.1-1.1 0-1.7 0v2.8h-1.4c0-2.7 0-5.4.1-8zm1.4 1.3v2.6h2.2c.5 0 1.1-.3 1.3-.8.3-.6-.1-1.5-.8-1.7-.9-.2-1.8-.1-2.7-.1zm12.5-1.3c1.4.1 2.9-.1 4.3.1 1.7.4 3.1 2 3 3.8.1 1.2-.5 2.5-1.4 3.2-.8.7-2 1-3.1 1h-2.8v-8.1zm1.4 1.3v5.4c1.1-.1 2.3.2 3.2-.4 1.5-1 1.5-3.5.1-4.5-.9-.7-2.2-.5-3.3-.5zm12.2-1.1c1.4-.8 3.3-.4 4.5.6l-.7 1.1c-.9-.6-1.9-1.1-3-.6-.6.3-.7 1.2-.1 1.5 1.1.6 2.5.5 3.5 1.4 1 1.1.5 3.1-.9 3.6-1.6.6-3.6.2-4.8-1.1.3-.3.6-.6.9-1 .9.8 2.1 1.3 3.3.9.6-.2.9-1.2.3-1.5-1.1-.6-2.5-.5-3.5-1.4-1-.9-.7-2.8.5-3.5zm-38.4 0c.4-.2.9-.1 1.4 0l3.5 7.9h-1.5l-.8-1.8c-1.2-.1-2.5 0-3.7 0-.4.5-.5 1.2-.8 1.8-.4.2-.9.1-1.4.1l.3-1c1-2.4 1.9-4.8 3-7zm-.6 4.7h2.6c-.3-1.1-.8-2-1.3-3-.5 1-1 2-1.3 3z"/></svg>