<?xml version="1.0" encoding="utf-8"?>
<!-- Generator: Adobe Illustrator 16.0.0, SVG Export Plug-In . SVG Version: 6.00 Build 0)  -->
<!DOCTYPE svg PUBLIC "-//W3C//DTD SVG 1.1//EN" "http://www.w3.org/Graphics/SVG/1.1/DTD/svg11.dtd">
<svg version="1.1" id="Layer_1" xmlns="http://www.w3.org/2000/svg" xmlns:xlink="http://www.w3.org/1999/xlink" x="0px" y="0px"
	 width="366.1px" height="27.5px" viewBox="0 0 366.1 27.5" enable-background="new 0 0 366.1 27.5" xml:space="preserve">
<path fill="#FFFFFF" d="M3.5,1.7v23.1H0V1.7H3.5z"/>
<path fill="#FFFFFF" d="M28.8,5.2L26,6.8c-0.5-0.9-1-1.5-1.5-1.8c-0.5-0.3-1.1-0.5-1.9-0.5c-1,0-1.8,0.3-2.4,0.8c-0.6,0.5-1,1.2-1,2
	c0,1.1,0.8,2.1,2.5,2.7L24,11c1.9,0.8,3.2,1.7,4.1,2.8c0.9,1.1,1.3,2.4,1.3,4c0,2.1-0.7,3.9-2.1,5.3c-1.4,1.4-3.2,2.1-5.3,2.1
	c-2,0-3.7-0.6-5-1.8c-1.3-1.2-2.1-2.9-2.4-5l3.5-0.8c0.2,1.4,0.5,2.3,0.8,2.8c0.7,1,1.8,1.5,3.1,1.5c1.1,0,2-0.4,2.7-1.1
	c0.7-0.7,1.1-1.6,1.1-2.8c0-0.4-0.1-0.9-0.2-1.2c-0.1-0.4-0.3-0.7-0.6-1c-0.3-0.3-0.6-0.6-1-0.9c-0.4-0.3-0.9-0.5-1.5-0.8l-2.2-0.9
	c-3.2-1.3-4.7-3.3-4.7-5.8c0-1.7,0.7-3.2,2-4.3c1.3-1.2,3-1.8,4.9-1.8C25.2,1.3,27.3,2.6,28.8,5.2L28.8,5.2z"/>
<path fill="#FFFFFF" d="M37.9,13.2c0-3.2,1.2-6,3.6-8.4c2.4-2.3,5.2-3.5,8.5-3.5c3.3,0,6.1,1.1,8.5,3.5C60.9,7.2,62,10,62,13.3
	c0,3.3-1.2,6.1-3.6,8.4c-2.4,2.3-5.3,3.5-8.6,3.5c-3,0-5.6-1-8-3.1C39.2,19.9,37.9,16.8,37.9,13.2L37.9,13.2z M41.4,13.2
	c0,2.5,0.8,4.7,2.6,6.3c1.7,1.6,3.7,2.4,5.9,2.5c2.4,0,4.5-0.8,6.1-2.5c1.7-1.7,2.5-3.8,2.5-6.2c0-2.5-0.8-4.5-2.5-6.2
	c-1.6-1.7-3.7-2.5-6.1-2.5c-2.4,0-4.4,0.8-6.1,2.5C42.3,8.7,41.4,10.8,41.4,13.2L41.4,13.2z"/>
<path fill="#FFFFFF" d="M76,1.7v19.8h6.8v3.3H72.5V1.7H76z"/>
<path fill="#FFFFFF" d="M108.8,19.2H99l-2.6,5.6h-3.7l11.4-24.5l11,24.5h-3.8L108.8,19.2z M107.4,15.9L104,8.1l-3.6,7.8H107.4z"/>
<path fill="#FFFFFF" d="M131.6,5v19.8h-3.5V5h-5.3V1.7h14.1V5L131.6,5L131.6,5z"/>
<path fill="#FFFFFF" d="M161.3,5H152v5.5h9v3.3h-9v7.7h9.2v3.3h-12.7V1.7h12.7V5z"/>
<path fill="#FFFFFF" d="M196.6,12l4.2,5l0.1-0.1c0.4-0.5,0.9-1,1.3-1.4c0.4-0.5,0.8-0.9,1.1-1.4l2.3,2.3c-0.3,0.4-0.6,0.9-1.1,1.4
	c-0.5,0.5-1,1.1-1.6,1.8l4.3,5.3h-4.3l-2.3-2.8c-2.1,2.2-4.3,3.3-6.6,3.3c-2,0-3.8-0.7-5.2-2c-1.4-1.3-2.1-2.9-2.1-4.9
	c0-2.3,1.1-4.2,3.3-5.7l1.5-1c0,0,0.1,0,0.1-0.1c0.1,0,0.1-0.1,0.2-0.2c-1.5-1.6-2.3-3.2-2.3-4.8c0-1.6,0.5-2.8,1.5-3.8
	c1-1,2.4-1.5,4-1.5c1.6,0,2.9,0.5,3.9,1.4c1,0.9,1.5,2.1,1.5,3.6c0,1-0.3,1.9-0.9,2.7C199,9.9,198,10.9,196.6,12L196.6,12z
	 M193.8,13.9l-0.2,0.1c-1.4,1-2.4,1.8-2.9,2.4c-0.5,0.6-0.8,1.2-0.8,1.9c0,0.9,0.4,1.8,1.1,2.6c0.8,0.8,1.7,1.1,2.6,1.1
	c1.3,0,2.9-0.9,4.6-2.6L193.8,13.9z M194.5,9.5l0.3-0.2c0.5-0.4,0.9-0.7,1.2-1c0.3-0.3,0.5-0.5,0.7-0.7c0.3-0.4,0.4-0.8,0.4-1.4
	c0-0.6-0.2-1.1-0.6-1.5c-0.4-0.4-1-0.6-1.6-0.6c-0.6,0-1.2,0.2-1.6,0.6c-0.4,0.4-0.6,0.8-0.6,1.5c0,0.7,0.3,1.4,0.8,2l0.9,1
	C194.4,9.3,194.5,9.4,194.5,9.5L194.5,9.5z"/>
<path fill="#FFFFFF" d="M232.1,24.8V1.7h3.5c1.5,0,2.8,0.2,3.7,0.4c0.9,0.2,1.7,0.6,2.4,1.2c0.6,0.6,1.1,1.3,1.5,2.2
	c0.4,0.9,0.6,1.8,0.6,2.7c0,1.7-0.6,3.1-1.9,4.2c1.2,0.4,2.2,1.1,2.9,2.2c0.7,1.1,1.1,2.2,1.1,3.6c0,1.8-0.6,3.3-1.9,4.6
	c-0.8,0.8-1.6,1.3-2.6,1.6c-1,0.3-2.4,0.4-3.9,0.4L232.1,24.8L232.1,24.8z M235.6,11.6h1.1c1.3,0,2.2-0.3,2.8-0.9
	c0.6-0.6,0.9-1.4,0.9-2.5c0-1.1-0.3-1.9-0.9-2.5c-0.6-0.6-1.5-0.8-2.7-0.8h-1.2V11.6z M235.6,21.5h2.1c1.6,0,2.7-0.3,3.5-0.9
	c0.8-0.7,1.2-1.5,1.2-2.5c0-1-0.4-1.8-1.1-2.5c-0.7-0.7-2-1-3.9-1h-1.8L235.6,21.5L235.6,21.5z"/>
<path fill="#FFFFFF" d="M260.4,1.7v19.8h6.8v3.3h-10.3V1.7H260.4z"/>
<path fill="#FFFFFF" d="M274.5,13.2c0-3.2,1.2-6,3.6-8.4c2.4-2.3,5.2-3.5,8.5-3.5c3.3,0,6.1,1.1,8.5,3.5c2.4,2.4,3.5,5.2,3.5,8.5
	c0,3.3-1.2,6.1-3.6,8.4c-2.4,2.3-5.3,3.5-8.6,3.5c-3,0-5.6-1-8-3.1C275.8,19.9,274.5,16.8,274.5,13.2L274.5,13.2z M278,13.2
	c0,2.5,0.8,4.7,2.6,6.3c1.7,1.6,3.7,2.4,5.9,2.5c2.4,0,4.5-0.8,6.1-2.5c1.7-1.7,2.5-3.8,2.5-6.2c0-2.5-0.8-4.5-2.5-6.2
	c-1.6-1.7-3.7-2.5-6.1-2.5c-2.4,0-4.4,0.8-6.1,2.5C278.9,8.7,278,10.8,278,13.2L278,13.2z"/>
<path fill="#FFFFFF" d="M306.7,13.2c0-3.2,1.2-6,3.6-8.4c2.4-2.3,5.2-3.5,8.5-3.5c3.3,0,6.1,1.1,8.5,3.5c2.4,2.4,3.5,5.2,3.5,8.5
	c0,3.3-1.2,6.1-3.6,8.4c-2.4,2.3-5.3,3.5-8.6,3.5c-3,0-5.6-1-8-3.1C308,19.9,306.7,16.8,306.7,13.2L306.7,13.2z M310.2,13.2
	c0,2.5,0.8,4.7,2.6,6.3c1.7,1.6,3.7,2.4,5.9,2.5c2.4,0,4.5-0.8,6.1-2.5c1.7-1.7,2.5-3.8,2.5-6.2c0-2.5-0.8-4.5-2.5-6.2
	c-1.6-1.7-3.7-2.5-6.1-2.5c-2.4,0-4.4,0.8-6.1,2.5C311.1,8.7,310.3,10.8,310.2,13.2L310.2,13.2z"/>
<path fill="#FFFFFF" d="M338.7,24.8L343.5,0l7.9,17.9L359.6,0l4.4,24.8h-3.6l-2.2-13.9l-6.8,15l-6.6-15l-2.5,13.9H338.7z"/>
</svg>
