<svg xmlns="http://www.w3.org/2000/svg" width="366.1" height="27.5" viewBox="0 0 366.1 27.5"><path fill="#fff" d="M3.5 1.7v23.1h-3.5v-23.1h3.5zm25.3 3.5l-2.8 1.6c-.5-.9-1-1.5-1.5-1.8-.5-.3-1.1-.5-1.9-.5-1 0-1.8.3-2.4.8-.6.5-1 1.2-1 2 0 1.1.8 2.1 2.5 2.7l2.3 1c1.9.8 3.2 1.7 4.1 2.8.9 1.1 1.3 2.4 1.3 4 0 2.1-.7 3.9-2.1 5.3-1.4 1.4-3.2 2.1-5.3 2.1-2 0-3.7-.6-5-1.8-1.3-1.2-2.1-2.9-2.4-5l3.5-.8c.2 1.4.5 2.3.8 2.8.7 1 1.8 1.5 3.1 1.5 1.1 0 2-.4 2.7-1.1.7-.7 1.1-1.6 1.1-2.8 0-.4-.1-.9-.2-1.2-.1-.4-.3-.7-.6-1-.3-.3-.6-.6-1-.9-.4-.3-.9-.5-1.5-.8l-2.2-.9c-3.2-1.3-4.7-3.3-4.7-5.8 0-1.7.7-3.2 2-4.3 1.3-1.2 3-1.8 4.9-1.8 2.7 0 4.8 1.3 6.3 3.9zm9.1 8c0-3.2 1.2-6 3.6-8.4 2.4-2.3 5.2-3.5 8.5-3.5s6.1 1.1 8.5 3.5c2.4 2.4 3.5 5.2 3.5 8.5s-1.2 6.1-3.6 8.4c-2.4 2.3-5.3 3.5-8.6 3.5-3 0-5.6-1-8-3.1-2.6-2.2-3.9-5.3-3.9-8.9zm3.5 0c0 2.5.8 4.7 2.6 6.3 1.7 1.6 3.7 2.4 5.9 2.5 2.4 0 4.5-.8 6.1-2.5 1.7-1.7 2.5-3.8 2.5-6.2 0-2.5-.8-4.5-2.5-6.2-1.6-1.7-3.7-2.5-6.1-2.5-2.4 0-4.4.8-6.1 2.5-1.5 1.6-2.4 3.7-2.4 6.1zm34.6-11.5v19.8h6.8v3.3h-10.3v-23.1h3.5zm32.8 17.5h-9.8l-2.6 5.6h-3.7l11.4-24.5 11 24.5h-3.8l-2.5-5.6zm-1.4-3.3l-3.4-7.8-3.6 7.8h7zm24.2-10.9v19.8h-3.5v-19.8h-5.3v-3.3h14.1v3.3h-5.3zm29.7 0h-9.3v5.5h9v3.3h-9v7.7h9.2v3.3h-12.7v-23.1h12.7v3.3zm35.3 7l4.2 5 .1-.1c.4-.5.9-1 1.3-1.4.4-.5.8-.9 1.1-1.4l2.3 2.3c-.3.4-.6.9-1.1 1.4-.5.5-1 1.1-1.6 1.8l4.3 5.3h-4.3l-2.3-2.8c-2.1 2.2-4.3 3.3-6.6 3.3-2 0-3.8-.7-5.2-2-1.4-1.3-2.1-2.9-2.1-4.9 0-2.3 1.1-4.2 3.3-5.7l1.5-1s.1 0 .1-.1c.1 0 .1-.1.2-.2-1.5-1.6-2.3-3.2-2.3-4.8 0-1.6.5-2.8 1.5-3.8s2.4-1.5 4-1.5 2.9.5 3.9 1.4c1 .9 1.5 2.1 1.5 3.6 0 1-.3 1.9-.9 2.7-.5.8-1.5 1.8-2.9 2.9zm-2.8 1.9l-.2.1c-1.4 1-2.4 1.8-2.9 2.4-.5.6-.8 1.2-.8 1.9 0 .9.4 1.8 1.1 2.6.8.8 1.7 1.1 2.6 1.1 1.3 0 2.9-.9 4.6-2.6l-4.4-5.5zm.7-4.4l.3-.2c.5-.4.9-.7 1.2-1l.7-.7c.3-.4.4-.8.4-1.4 0-.6-.2-1.1-.6-1.5-.4-.4-1-.6-1.6-.6-.6 0-1.2.2-1.6.6-.4.4-.6.8-.6 1.5s.3 1.4.8 2l.9 1 .1.3zm37.6 15.3v-23.1h3.5c1.5 0 2.8.2 3.7.4.9.2 1.7.6 2.4 1.2.6.6 1.1 1.3 1.5 2.2.4.9.6 1.8.6 2.7 0 1.7-.6 3.1-1.9 4.2 1.2.4 2.2 1.1 2.9 2.2.7 1.1 1.1 2.2 1.1 3.6 0 1.8-.6 3.3-1.9 4.6-.8.8-1.6 1.3-2.6 1.6-1 .3-2.4.4-3.9.4h-5.4zm3.5-13.2h1.1c1.3 0 2.2-.3 2.8-.9.6-.6.9-1.4.9-2.5s-.3-1.9-.9-2.5c-.6-.6-1.5-.8-2.7-.8h-1.2v6.7zm0 9.9h2.1c1.6 0 2.7-.3 3.5-.9.8-.7 1.2-1.5 1.2-2.5s-.4-1.8-1.1-2.5c-.7-.7-2-1-3.9-1h-1.8v6.9zm24.8-19.8v19.8h6.8v3.3h-10.3v-23.1h3.5zm14.1 11.5c0-3.2 1.2-6 3.6-8.4 2.4-2.3 5.2-3.5 8.5-3.5s6.1 1.1 8.5 3.5c2.4 2.4 3.5 5.2 3.5 8.5s-1.2 6.1-3.6 8.4c-2.4 2.3-5.3 3.5-8.6 3.5-3 0-5.6-1-8-3.1-2.6-2.2-3.9-5.3-3.9-8.9zm3.5 0c0 2.5.8 4.7 2.6 6.3 1.7 1.6 3.7 2.4 5.9 2.5 2.4 0 4.5-.8 6.1-2.5 1.7-1.7 2.5-3.8 2.5-6.2 0-2.5-.8-4.5-2.5-6.2-1.6-1.7-3.7-2.5-6.1-2.5-2.4 0-4.4.8-6.1 2.5-1.5 1.6-2.4 3.7-2.4 6.1zm28.7 0c0-3.2 1.2-6 3.6-8.4 2.4-2.3 5.2-3.5 8.5-3.5s6.1 1.1 8.5 3.5c2.4 2.4 3.5 5.2 3.5 8.5s-1.2 6.1-3.6 8.4c-2.4 2.3-5.3 3.5-8.6 3.5-3 0-5.6-1-8-3.1-2.6-2.2-3.9-5.3-3.9-8.9zm3.5 0c0 2.5.8 4.7 2.6 6.3 1.7 1.6 3.7 2.4 5.9 2.5 2.4 0 4.5-.8 6.1-2.5 1.7-1.7 2.5-3.8 2.5-6.2 0-2.5-.8-4.5-2.5-6.2-1.6-1.7-3.7-2.5-6.1-2.5-2.4 0-4.4.8-6.1 2.5-1.5 1.6-2.3 3.7-2.4 6.1zm28.5 11.6l4.8-24.8 7.9 17.9 8.2-17.9 4.4 24.8h-3.6l-2.2-13.9-6.8 15-6.6-15-2.5 13.9h-3.6z"/></svg>