<svg xmlns="http://www.w3.org/2000/svg" width="87.9" height="91.3" viewBox="0 0 87.9 91.3"><path fill-rule="evenodd" clip-rule="evenodd" fill="#fff" d="M83.7 37.7c-13.3-1-26.4-2.3-29.4 15.2 2.2.9 4.6 1 5.6-2 2.5-7.8 8.1-9.3 15.2-8.4.5.1 1 0 1.5 0 9.5 0 9.5 0 11.2 10.8-4.8 0-9.6.2-14.3-.1-2.9-.1-4.5.9-5.8 3.4-5.1 9.5-10.6 18.9-15.6 28.4-1.6 3-3.6 3.8-6.8 3.7-3.1-.1-5.6-.1-7.4-3.6-4.7-9.2-10.2-18.1-14.9-27.5-1.8-3.5-4.1-4.7-7.8-4.4-4.1.3-8.3.1-12.4.1-.3-8.7 1.6-10.8 9.6-10.8 1.7 0 3.4.2 5 0 5.9-.8 9.8 1.2 12.1 7 1.6 4 2 3.9 7.5 3.3-3.8-5.3-4.3-12.8-11.3-14.4-5.9-1.4-12.2-.9-18.9-1.3 1.1-3.8 2.1-7.5 3.2-11.1 2.1-6.8 3.9-13.8 6.4-20.5.8-2.1 3.1-4.7 5.1-5 1.6-.3 4.2 2 5.5 3.8 2.3 3.2 4 6.9 5.9 10.4.4.7.7 1.5 1.2 2.2 2.5 3.6 20.1 3 22.3-.8 2.5-4.3 4.7-8.8 7.3-13.1 2.5-4 7.6-4.1 9.1 0 3.8 11.2 7.1 22.5 10.9 34.7z"/></svg>