<?xml version="1.0" encoding="utf-8"?>
<!-- Generator: Adobe Illustrator 16.0.0, SVG Export Plug-In . SVG Version: 6.00 Build 0)  -->
<!DOCTYPE svg PUBLIC "-//W3C//DTD SVG 1.1//EN" "http://www.w3.org/Graphics/SVG/1.1/DTD/svg11.dtd">
<svg version="1.1" id="Layer_1" xmlns="http://www.w3.org/2000/svg" xmlns:xlink="http://www.w3.org/1999/xlink" x="0px" y="0px"
	 width="77.9px" height="61.8px" viewBox="0 0 77.9 61.8" enable-background="new 0 0 77.9 61.8" xml:space="preserve">
<g>
	<path fill="#FFFFFF" d="M-6.9-121.4c2.3-0.6,4.5-1.4,6.9-1.8c-0.4,0.2-0.8,0.5-1.3,0.7c-7,3.1-13.8,6.8-19.7,11.9
		c-4,3.5-7.3,7.7-9.7,12.4c-4.6-1.4-9-3-13.5-4.8c4.1-4.4,9.2-7.9,14.7-10.4C-22.1-116.9-14.5-119.2-6.9-121.4z"/>
	<g>
		<path fill="#FFFFFF" d="M6.4-123c1.2,0,2.4,0,3.6,0c1.4,2.3,3,4.5,4.5,6.8c-1.1,0-2.3,0-3.4-0.1c-0.2-0.4-0.4-0.7-0.6-1.1
			c-1.6,0-3.2,0-4.8,0c-0.7,1.6-2.4,1.1-3.8,1.1C3.4-118.6,5-120.8,6.4-123z M7.9-121.3c-0.6,0.8-1,1.7-1.5,2.6c1.1,0,2.3,0,3.4,0
			C9.1-119.5,8.9-120.9,7.9-121.3z"/>
	</g>
	<path fill="#FFFFFF" d="M18.8-123.1c1.1,0,2.3,0,3.4,0c0.9,1.6,1.8,3.1,2.7,4.7c0.9-1.6,1.8-3.1,2.7-4.7c1.1,0,2.2,0,3.4,0
		c0.7,2.3,1.4,4.5,2,6.8c-1,0-2,0-3.1,0c-0.3-1.4-0.6-2.8-1-4.2c-1.1,1.3-1.8,2.8-2.6,4.2c-1,0-1.9,0.1-2.9-0.1
		c-1-1.3-1.7-2.9-2.6-4.3c-0.4,1.5-0.7,2.9-1.1,4.4c-1,0-2,0-3,0C17.4-118.6,18.1-120.8,18.8-123.1z"/>
	<path fill="#FFFFFF" d="M34.9-123.1c3.7,0,7.4,0,11.1,0c-0.1,0.5-0.2,1-0.3,1.5c-1.3,0-2.5,0-3.8,0c0,1.8,0,3.5,0,5.3
		c-1,0-2.1,0-3.1,0c-0.1-1.8-0.1-3.5-0.1-5.3c-1.4,0-2.7,0-4.1,0C34.7-122.1,34.8-122.6,34.9-123.1z"/>
	<g>
		<path fill="#FFFFFF" d="M48.9-123.1c2.8,0.1,5.6-0.2,8.4,0.3c1.1,0.2,2.3,0.9,2.1,2.2c0,1-1.1,1.3-1.8,1.8
			c0.7,0.8,1.5,1.7,2.2,2.5c-1.2,0-2.3,0-3.4,0c-0.5-0.7-1.1-1.4-1.6-2c-0.9,0-1.9,0-2.8,0c0,0.7,0,1.4,0,2c-1,0-2.1,0-3.1,0
			C48.9-118.6,48.9-120.8,48.9-123.1z M52-121.8c0,0.7,0,1.5,0,2.2c1.1,0,2.3,0.1,3.4-0.1c0.8-0.1,1.4-1.3,0.5-1.8
			C54.7-121.9,53.3-121.8,52-121.8z"/>
	</g>
	<g>
		<path fill="#FFFFFF" d="M66.9-123.1c1.2,0,2.3,0,3.5,0c1.5,2.3,3,4.5,4.6,6.7c-1,0-2.1,0.1-3.1,0c-0.4-0.3-0.7-0.7-1-1.1
			c-1.6,0-3.2,0-4.8,0c-0.2,0.4-0.5,0.8-0.7,1.1c-1,0-2,0-3.1,0C63.8-118.5,65.3-120.8,66.9-123.1z M66.8-118.7c1.1,0,2.3,0,3.4,0
			c-0.5-1-1.1-1.9-1.7-2.9C67.9-120.6,67.3-119.7,66.8-118.7z"/>
	</g>
	<path fill="#FFFFFF" d="M77.8-123.1c1,0,2,0,3,0c0,1,0,2,0,3c1.3-0.9,2.6-2,3.8-3c1.3,0,2.5,0,3.8,0c-1.4,1.1-2.9,2.1-4.3,3.2
		c1.5,1.2,3,2.4,4.5,3.5c-1.4-0.1-2.8,0.2-4.1-0.2c-1.3-0.9-2.4-2.1-3.7-2.9c0,1-0.1,2.1-0.1,3.1c-1,0-2,0-3,0
		C77.8-118.6,77.8-120.8,77.8-123.1z"/>
	<path fill="#FFFFFF" d="M-56-121.8c7-0.5,14-0.6,21-0.3c2.7,0.6,5.3,1.1,8,1.6c-11.4,0.8-22.9,1.9-33.6,5.9
		c-1.4,0.5-2.8,1.3-4.2,1.7c-3.3-1.6-6.5-3.6-9.7-5.4C-68.6-120.6-62.3-121.3-56-121.8z"/>
	<path fill="#FFFFFF" d="M-20.4-120.2c3,0,6-0.4,8.9-0.5c-3,0.8-6,1.3-9,2.1c-10.3,2.5-20.6,6.4-28.7,13.3
		c-3.7-1.6-7.3-3.3-10.8-5.1c6.9-4,14.7-6.1,22.5-7.7C-31.9-119.1-26.2-120.2-20.4-120.2z"/>
	<g>
		<path fill="#FFFFFF" d="M181.9-113.4c1.7,0,3.4,0,5.2,0c0,5.7,0,11.4,0,17.1c-1.6,0-3.1,0-4.7,0c0-0.7,0-1.4,0-2
			c-2.3,2.7-6.7,3-9.5,1.1c-2.8-1.9-3.4-6.2-1.3-8.8c2.5-3.1,7.4-3,10.4-0.6C181.9-108.9,181.9-111.1,181.9-113.4z M177.4-105.1
			c-1.6,0.6-2.4,2.6-1.7,4.2c0.7,1.9,3.4,2.4,4.9,1.2c1.5-1.1,1.6-3.5,0.3-4.7C180.1-105.4,178.6-105.4,177.4-105.1z"/>
	</g>
	<path fill="#FFFFFF" d="M-5-112.3c2.8-0.2,5.6,0,8.4,0.6c-0.1,1.1-0.3,2.2-0.4,3.3c-3.5-1.2-7.5-1.4-10.8,0.4
		c-2.5,1.4-2.8,5.3-0.7,7.1c1.9,1.8,4.8,2,7.3,1.7c0-1.1,0-2.3,0-3.4c-1,0-2.1,0-3.1,0c0-1,0-2,0-3c2.8,0,5.5,0,8.3,0
		c0,3,0,5.9,0,8.8c-4.5,0.8-9.2,1.2-13.6-0.2c-2.2-0.8-4.4-2.3-5.2-4.6c-1-2.8-0.4-6.2,1.9-8.1C-10.8-111.5-7.8-112.1-5-112.3z"/>
	<path fill="#FFFFFF" d="M59.4-110.8c1.7-0.4,3.3-0.8,5-1.2c0,1.3,0,2.6,0,3.9c1.2,0,2.4,0,3.7,0c0,0.9,0,1.9,0,2.8
		c-1.2,0-2.4,0-3.6,0c0.1,1.9-0.2,3.9,0.2,5.7c0.6,1.3,2.3,0.7,3.5,0.8c0.1,0.8,0.1,1.7,0.2,2.5c-2.3,0.1-4.8,0.5-7-0.4
		c-1.1-0.4-1.8-1.5-1.9-2.7c-0.2-2,0-4-0.1-6c-1,0-2,0-2.9,0c0-1,0-1.9,0-2.8c1,0,2,0,3,0C59.4-109,59.4-109.9,59.4-110.8z"/>
	<g>
		<path fill="#FFFFFF" d="M79.5-112.2c3,0,6.1,0,9.1,0c2,0.1,4.1,0.2,5.7,1.6c1.2,1,1.3,2.7,0.8,4.1c-0.6,1.4-2,2-3.3,2.4
			c0.7,0.5,1.4,1,1.7,1.7c1,2,1.9,4.1,2.8,6.1c-1.8,0-3.7,0-5.5,0c-0.7-1.8-1.3-3.7-2.4-5.3c-0.8-1.2-2.4-1-3.7-1.1
			c0,2.1,0,4.2,0,6.4c-1.8,0-3.5,0-5.3,0C79.5-101.6,79.5-106.9,79.5-112.2z M84.7-109.3c0,1.3,0,2.5,0,3.8c1.7,0.1,3.5,0.1,5.1-0.7
			c0.1-0.8,0.6-1.7-0.2-2.3C88.2-109.4,86.4-109.2,84.7-109.3z"/>
	</g>
	<path fill="#FFFFFF" d="M44.1-107.1c3-1.8,6.8-1.4,10.1-0.6c-0.1,0.9-0.3,1.8-0.4,2.8c-2-0.6-4.2-1.2-6.2-0.4
		c-0.1,0.2-0.2,0.6-0.3,0.8c2.1,1.5,5.3,0.7,7.1,2.8c1.4,1.6,0.5,4.3-1.5,5c-3.2,1.3-6.9,0.9-10.3,0.3c0.1-1,0.2-1.9,0.3-2.9
		c2.3,0.6,4.8,1.2,7.1,0.3c-0.1-0.4-0.2-0.8-0.4-1.2c-2-1.1-4.5-0.7-6.3-2.3C42-103.8,42.5-106.2,44.1-107.1z"/>
	<g>
		<path fill="#FFFFFF" d="M142.3-107.6c3.2-0.8,6.6-1.2,9.7-0.2c1.6,0.5,3,1.8,3.2,3.6c0.2,2.7-0.1,5.3,0.3,8c-1.5,0-3.1,0-4.6,0
			c-0.1-0.6-0.1-1.1-0.2-1.7c-1.1,0.9-2.2,1.8-3.7,1.9c-1.9,0.2-4,0-5.6-1.2c-1.6-1.3-1.5-4,0.3-5.1c2.6-1.6,5.9-1.4,8.9-1.3
			c-0.4-0.7-0.6-1.5-1.4-1.8c-2.3-0.7-4.8-0.2-7,0.5C142.2-105.8,142.3-106.7,142.3-107.6z M145.9-101.1c-0.7,0.3-0.9,1.1-0.6,1.8
			c1.2,1,3,0.9,4.2,0c0.7-0.5,0.9-1.4,1.2-2.2C149.1-101.6,147.3-101.9,145.9-101.1z"/>
	</g>
	<path fill="#FFFFFF" d="M17.8-108.1c1.7,0,3.4,0,5.1,0c0,4,0,7.9,0,11.9c-1.5,0-3.1,0-4.6,0c0-0.7,0-1.4,0-2
		c-1.5,1.6-3.7,2.5-5.9,2.3c-2.3,0-4.8-1.3-5.2-3.7c-0.3-2.8-0.1-5.6-0.2-8.4c1.7,0,3.4,0,5.2,0c0,2,0,4,0,6c0,0.9,0.2,1.9,1,2.4
		c1.6,0.8,4,0.1,4.4-1.8C18-103.6,17.8-105.9,17.8-108.1z"/>
	<g>
		<path fill="#FFFFFF" d="M27.9-107.2c2.1-1.2,4.6-1.4,6.9-1.1c1.9,0.2,3.8,1.2,4.8,2.8c0.8,1.3,1,2.9,1,4.4c-3.5,0-7,0-10.5,0
			c0.4,0.9,1,1.8,2,2c2.4,0.6,4.9,0.2,7.1-0.5c0,0.9-0.1,1.9-0.1,2.8c-3.4,0.8-7.2,1.2-10.4-0.3c-2-0.9-3.7-2.8-3.7-5.1
			C24.8-104.2,26-106.2,27.9-107.2z M31.4-105.5c-0.9,0.4-1.2,1.4-1.5,2.2c2,0,4.1,0,6.1,0c-0.3-0.7-0.3-1.5-0.9-1.9
			C34-106,32.5-106,31.4-105.5z"/>
	</g>
	<g>
		<path fill="#FFFFFF" d="M98.8-106.1c1.8-1.8,4.4-2.3,6.9-2.2c2.2,0.1,4.7,0.8,6,2.7c1,1.4,1.1,3,1.1,4.7c-3.5,0-7,0-10.5,0
			c0.4,0.9,1,1.7,2,2c2.4,0.7,4.9,0.3,7.2-0.5c0,0.9-0.1,1.9-0.1,2.8c-2.9,0.7-5.9,1-8.9,0.3c-2-0.5-4-1.7-4.8-3.6
			C96.8-102,97.2-104.6,98.8-106.1z M103.7-105.5c-0.9,0.4-1.1,1.4-1.4,2.2c2,0,4.1,0,6.1,0c-0.3-0.7-0.4-1.7-1.1-2.1
			C106.1-106,104.8-106,103.7-105.5z"/>
	</g>
	<path fill="#FFFFFF" d="M113.1-108.1c1.8,0,3.6,0,5.4,0c0.8,2.9,1.6,5.8,2.4,8.7c1.1-2.8,1.8-5.8,2.7-8.7c2.1,0,4.1,0,6.2,0
		c0.8,2.9,1.7,5.8,2.5,8.6c1-2.8,1.7-5.8,2.5-8.6c1.7,0,3.3,0,5,0c-1.6,3.9-3,7.9-4.6,11.9c-2,0-4,0-6,0c-0.8-2.9-1.7-5.8-2.5-8.7
		c-1.1,2.9-1.9,5.8-3,8.7c-2,0-4,0-6,0C116.1-100.2,114.6-104.2,113.1-108.1z"/>
	<path fill="#FFFFFF" d="M158.6-108.1c1.6,0,3.2,0,4.7,0c0,0.7,0,1.5,0,2.2c0.7-0.8,1.3-1.6,2.3-2c1.2-0.5,2.6-0.4,3.9-0.3
		c-0.1,1.1-0.2,2.2-0.2,3.3c-1.3,0-2.8-0.2-4,0.5c-0.9,0.5-1.4,1.6-1.5,2.6c-0.1,1.8,0,3.7,0,5.5c-1.7,0-3.4,0-5.2,0
		C158.6-100.2,158.7-104.2,158.6-108.1z"/>
	<path fill="#FFFFFF" d="M191.1-107.2c3-1.8,6.8-1.3,10-0.6c-0.1,0.9-0.3,1.9-0.4,2.8c-2-0.7-4.3-1.2-6.3-0.3c0,0.2-0.1,0.6-0.2,0.8
		c2,1.3,4.5,0.8,6.5,2.2c1.5,1,1.7,3.3,0.5,4.6c-0.9,1-2.3,1.4-3.6,1.6c-2.7,0.3-5.4,0.2-8-0.3c0.1-0.9,0.2-1.9,0.2-2.8
		c2.1,0.3,4.2,0.9,6.4,0.5c0.8-0.2,0.8-1.3,0.1-1.6c-1.9-0.9-4.4-0.7-6-2.2C189-103.9,189.5-106.3,191.1-107.2z"/>
	<g>
		<path fill="#FFFFFF" d="M205-108.3c1.3,0.2,3.1,0.7,3.3,2.2c0.4,1.8-1.8,3.4-3.4,2.4c-1.9-0.9-1.4-4.2,0.8-4.5
			c-1.4,0.7-1.3,2.4-0.6,3.4c0.2-0.8,0-1.6,0.1-2.4c0.8,0.2,2.1-0.2,2.1,1.2c-0.3-0.2-0.8-0.6-1.1-0.8l-0.4,0.1l-0.3,0.8
			c0.2,0,0.7,0,1,0c0.2,0.5,0.3,1.1,0.5,1.6c-0.4-0.4-0.8-0.9-1.3-1.2c0.1,0.3,0.2,1,0.2,1.4c-0.3-0.1-0.9-0.3-1.1-0.4
			c0.4,1,2,1,2.6,0.2c0.8-0.6,0.5-1.7,0.5-2.5C206.9-107.3,205.9-107.8,205-108.3z M204.4-104.9c0.3-0.3,0.1-1-0.1-1.3
			C203.8-106,204-105.1,204.4-104.9z"/>
	</g>
</g>
<g>
	<g>
		<path fill="#D73E2F" d="M-292.6-168.8c0.4-0.9,0.5-1.9,1-2.7c0.9,0.4,1.5,1.2,2.1,1.9c1.1-0.2,2.3-0.2,3.5-0.2
			c0.1,1.3-0.5,2.5-1.2,3.5c0.4,0.9,1.1,1.8,0.9,2.9c-0.2,0.3-0.7,0.2-1,0.2c-0.9,0-1.7-0.3-2.5-0.4c-0.3-0.1-0.6,0.1-0.9,0.3
			c-0.5,0.3-0.9,0.6-1.5,0.7c-0.1,0-0.2-0.1-0.3-0.2c-0.1-0.6-0.1-1.3,0.2-1.9c0.2,0.4,0.3,0.9,0.4,1.3c0.7-0.2,1.2-0.9,1.8-1.3
			c0.9,0.1,1.8,0.6,2.8,0.5c0-0.8-0.6-1.4-0.9-2.1c-0.1-0.3-0.1-0.6,0.1-0.8c0.4-0.6,1-1.1,0.9-1.9c-0.9-0.1-1.8,0.3-2.7,0.3
			c-0.4-0.7-0.7-1.4-1.4-1.9c-0.4,0.7-0.4,1.4-0.6,2.1c-0.6,0.5-1.4,0.5-2.1,0.4C-293.6-168.3-293-168.5-292.6-168.8z"/>
		<g>
			<path fill="#D73E2F" d="M-220.4-135.2c0.1-0.3,0.3-0.4,0.6-0.6c2,4.9,3.9,10,5.9,14.9c0.4,1.1,0.9,2.2,1.4,3.2
				c0.2,0.5,0.7,0.8,1,1.1c-0.3,0.1-0.6,0.1-0.9,0.1c-1.1,0-2.3,0-3.4,0c0.1-0.3,0.4-0.5,0.5-0.9c0-0.5-0.2-1-0.3-1.5
				c-0.4-1-0.7-2-1.2-3c-2.3,0-4.5,0-6.8,0c-0.5,1.3-1.1,2.6-1.5,3.9c-0.1,0.2-0.1,0.4-0.1,0.7c0.2,0.2,0.4,0.5,0.6,0.7
				c-0.7,0.2-1.5,0.1-2.2,0.1c-0.7,0-1.4,0.1-2-0.1c0.4-0.4,0.9-0.8,1.2-1.3c1.1-2.2,1.9-4.5,2.9-6.7
				C-223.2-128.1-221.8-131.6-220.4-135.2z M-220-130.7c-0.6,1.4-1.1,2.8-1.6,4.2c-0.3,1-0.8,1.9-1,2.9c1.8,0,3.5,0,5.3,0
				C-218.3-126-219.2-128.4-220-130.7z"/>
		</g>
		<path fill="#D73E2F" d="M-259.6-135.2c0.3-0.1,0.6-0.1,1-0.1c3,0,6,0,9,0c-0.1,1.1,0.1,2.2-0.3,3.2c-0.2-0.3-0.4-0.8-0.8-1
			c-0.4-0.2-0.9-0.2-1.3-0.2c-1.1,0-2.1,0-3.2,0c-0.4,0-0.8,0-1.2,0.1c0,2.2,0,4.4,0,6.6c1.1,0.1,2.2,0,3.3,0c0.6,0,1.3,0.1,1.9-0.2
			c0.3-0.2,0.6-0.4,0.8-0.6c0,1.2,0,2.3,0,3.5c-0.5-0.3-0.9-0.9-1.6-0.8c-1.5,0-2.9,0-4.4,0c0,1.6,0,3.2,0,4.7c0,0.8,0,1.7,0.2,2.5
			c0.2,0.5,0.6,0.7,1,1.1c-1.5,0-3,0-4.5,0c0.4-0.5,1-1,1-1.6c0.1-2.6,0-5.1,0-7.7c0-2.7,0-5.3,0-8
			C-258.7-134.4-259.2-134.8-259.6-135.2z"/>
		<g>
			<path fill="#D73E2F" d="M-244.2-135.2c0.6-0.2,1.1-0.1,1.7-0.1c1.4,0,2.7-0.1,4.1,0c1.3,0.1,2.7,0.6,3.6,1.6
				c0.9,0.9,1.4,2.2,1.3,3.5c0.1,1.7-0.7,3.4-2,4.4c-0.5,0.4-1.2,0.7-1.8,1c1.3,1.8,2.6,3.5,3.9,5.3c0.4,0.6,0.9,1.2,1.3,1.7
				c0.4,0.5,1,0.8,1.5,1.2c-0.9,0.1-1.7,0-2.6,0c-0.4,0-0.9,0.1-1.2-0.3c-0.8-1.1-1.5-2.2-2.3-3.3c-1-1.4-2-2.9-3.1-4.3
				c-0.4,0-0.7,0-1.1,0c0,1.8,0,3.7,0,5.5c0,0.4,0.1,0.8,0.1,1.2c0.1,0.5,0.5,0.8,0.8,1.2c-0.9,0-1.8,0-2.7,0c-0.5,0-1.1,0-1.6-0.1
				c0.3-0.3,0.7-0.5,0.8-0.9c0.3-1,0.1-2,0.3-3c0-3.4,0-6.8,0-10.2c0-0.3,0-0.7,0-1c-0.1-0.9,0-1.8-0.2-2.7
				C-243.5-134.8-243.9-135-244.2-135.2z M-240.9-133.4c0,2.4,0,4.8,0,7.2c0.7,0,1.4,0.1,2.1-0.1c0.9-0.2,1.8-0.7,2.3-1.4
				c1-1.5,0.9-3.7-0.5-4.9C-238.1-133.6-239.6-133.5-240.9-133.4z"/>
		</g>
		<path fill="#D73E2F" d="M-205.1-135.1c0.8-0.4,1.6-0.3,2.4-0.3c0.9,0,1.8,0,2.6,0.3c0,0.8,0,1.6,0,2.4c0,0.3-0.1,0.5-0.2,0.8
			c-0.3-0.5-0.5-1.1-1.1-1.3c-1-0.5-2.3-0.3-3.2,0.2c-0.6,0.4-1.1,1-1.3,1.7c-0.2,1.1,0.2,2.2,1,2.9c1.2,1.2,2.6,2,3.8,3.2
			c0.8,0.7,1.4,1.7,1.6,2.8c0.1,0.7,0.1,1.4,0,2.1c-0.2,1.4-1.1,2.6-2.4,3.3c-2.1,1.2-4.6,1-6.8,0.2c0-1.1,0-2.2,0.2-3.3
			c0.5,0.5,0.6,1.2,1.2,1.5c0.8,0.4,1.9,0.5,2.8,0.3c1-0.1,2-0.8,2.4-1.8c0.4-0.9,0.2-1.9-0.2-2.7c-0.4-0.8-1.2-1.3-1.9-1.9
			c-1.3-1-2.8-2-3.6-3.5c-0.8-1.4-0.8-3.2,0-4.7C-207.1-133.9-206.2-134.7-205.1-135.1z"/>
		<path fill="#D73E2F" d="M-194.2-135.3c3.1-0.1,6.1,0,9.2,0c0.2,0,0.5-0.1,0.7,0.2c0,1,0,2-0.2,3c-0.3-0.4-0.5-1-1.1-1.1
			c-0.9-0.2-1.9-0.2-2.9-0.2c-0.8,0-1.7-0.1-2.5,0.1c0,2.1,0,4.2,0,6.2c1.5,0,3,0,4.5,0c0.6,0,1-0.4,1.4-0.7c0,1.1,0,2.3,0,3.4
			c-0.4-0.4-0.9-0.8-1.6-0.8c-1.5,0-2.9,0-4.4,0c0,2.1,0,4.2,0,6.3c-0.1,0.2,0.1,0.4,0.3,0.4c1.7,0,3.4,0,5.1,0c0.7,0,1-0.7,1.4-1.1
			c0.1,1.1,0,2.1,0,3.2c-3.4,0-6.8,0-10.2,0c0.2-0.3,0.5-0.5,0.7-0.8c0.3-0.5,0.2-1.2,0.2-1.8c0.2-1.6,0.1-3.2,0.1-4.8
			c0-2.4,0-4.8,0-7.2c0-0.5,0-1-0.1-1.5c-0.1-0.6,0-1.3-0.2-1.9C-193.6-134.8-193.9-135-194.2-135.3z"/>
		<g>
			<path fill="#D73E2F" d="M-178.2-135.2c0.9-0.2,1.8-0.1,2.7-0.1c1.6,0,3.2-0.1,4.7,0.4c1.4,0.4,2.5,1.5,3,2.9
				c0.4,0.9,0.3,1.9,0.3,2.9c-0.2,1.3-0.9,2.6-2,3.4c-0.6,0.4-1.2,0.8-1.9,1.1c1.4,2,2.9,3.9,4.3,5.9c0.3,0.4,0.6,0.8,0.9,1.1
				c0.4,0.4,1,0.8,1.4,1.2c-0.9,0.1-1.7,0-2.6,0c-0.3,0-0.6,0-0.8-0.1c-0.4-0.3-0.6-0.8-0.9-1.2c-1.4-2-2.9-4.1-4.3-6.1
				c-0.2-0.2-0.4-0.5-0.7-0.5c-0.3,0-0.6,0-0.9,0.1c0,1,0,1.9,0,2.9c0.2,1.3-0.1,2.6,0.2,3.9c0.1,0.5,0.5,0.8,0.8,1.1
				c-0.9,0.1-1.7,0-2.6,0c-0.6,0-1.2,0.1-1.7-0.1c0.3-0.2,0.6-0.4,0.8-0.7c0.2-0.7,0.3-1.4,0.3-2.1c0-1.4,0-2.7,0-4.1
				c0.1-0.9,0-1.8,0.1-2.7c0-0.8,0-1.7-0.1-2.5c-0.1-1.6,0-3.1-0.1-4.7c-0.1-0.4-0.1-0.8-0.3-1.2
				C-177.6-134.9-177.9-135-178.2-135.2z M-174.9-133.4c0,2.4,0,4.8,0,7.2c1.4,0.1,2.9-0.1,4-1.1c1.5-1.3,1.5-4,0-5.3
				C-172-133.5-173.5-133.5-174.9-133.4z"/>
		</g>
	</g>
	<g>
		<path fill="#2E376C" d="M-274.4-156.6c0.6,0.3,1.1,0.9,1.5,1.4c1.7,2.3,2.7,5.2,2.9,8c0.1,1.5-0.1,3-0.4,4.5
			c-0.4,1.7-1,3.3-1.8,4.8c-0.3,0.5-0.6,1.1-1.3,1.3c-0.1-0.6,0-1.1,0.1-1.7c0.7-2.9,1.2-5.8,1.1-8.8c0-2.8-0.6-5.6-1.7-8.2
			C-274.1-155.6-274.4-156-274.4-156.6z"/>
		<path fill="#2E376C" d="M-298.4-151.2c0.1-0.6,0.3-1.3,0.7-1.8c0.3,0.7,0.2,1.5,0.3,2.3c0.5,3.8,2.1,7.3,3.8,10.7
			c1.7,3.2,3.7,6.2,6.3,8.7c0.7,0.7,1.5,1.2,2.1,2c-0.1,0-0.3,0.1-0.4,0.1c-0.7-0.2-1.4-0.5-2-0.9c-3.1-1.8-5.6-4.5-7.5-7.6
			c-1.4-2.4-2.5-5-3.1-7.7c-0.2-1-0.4-2-0.4-3.1C-298.5-149.3-298.6-150.3-298.4-151.2z"/>
		<path fill="#2E376C" d="M-288.2-147.3c0.7-0.8,1.7-1.1,2.7-1.2c1.7-0.2,3.5,0.5,4.6,1.8c0.7,0.9,1.2,2.1,1.2,3.4
			c0.1,1.6-0.7,3.3-2,4.3c-0.2,0.2-0.5,0.3-0.9,0.4c0.4-1,1.1-1.9,1.2-3c0-0.8,0.1-1.6-0.2-2.3c-0.4-1-1.1-2-2-2.6
			c-1.1-0.6-2.4-0.9-3.6-0.7C-287.5-147.3-287.8-147.3-288.2-147.3z"/>
		<path fill="#2E376C" d="M-273.9-129.6c-0.1-1-0.4-1.9-0.3-2.9c0.6,0.4,1,1,1.2,1.7c0.8,2,1.3,4.2,1.5,6.3c0,1,0.2,2,0.2,3
			c0.1,6.1-1.8,12.1-4.6,17.5c-1.2,2.1-2.5,4.2-4.1,6c-0.8,0.8-1.5,1.7-2.6,1.9c0-0.3,0.1-0.7,0.3-0.9c1.4-2.1,2.6-4.3,3.7-6.6
			c1.2-2.5,2.2-5.2,3.1-7.8C-273.5-117.1-272.9-123.5-273.9-129.6z"/>
		<path fill="#2E376C" d="M-283.8-113.7c0.2-0.3,0.5-0.5,0.8-0.7c0,0.7-0.3,1.4-0.5,2c-0.9,2-2.1,3.9-3.7,5.5
			c-2.8,2.9-6.6,4.8-10.5,5.6c-0.6,0-1.3,0.2-1.9-0.1c0.8-0.6,1.7-0.9,2.6-1.3c4.3-2.1,8-5.3,11.3-8.8
			C-285-112.2-284.4-112.9-283.8-113.7z"/>
		<path fill="#2E376C" d="M-238.7-112.6c0.3,0,0.8-0.4,1,0c-0.3,1.5-0.6,3-1,4.4c0.3-0.1,0.6-0.2,0.8-0.2c-0.4,0.4-0.8,0.8-1.4,0.9
			c0-0.3,0-0.6,0-0.8c0.2-1.1,0.5-2.2,0.7-3.4C-238.4-112-238.6-112.3-238.7-112.6z"/>
		<g>
			<path fill="#2E376C" d="M-222.1-112.5c0.3-0.1,0.7-0.2,1-0.3c0,0,0.1,0.1,0.2,0.2c-0.3,1.4-0.6,2.8-0.9,4.2
				c0.1,0.2,0.2,0.3,0.3,0.5c-0.3,0.1-0.6,0.3-0.9,0.4c-0.1-0.4-0.1-0.8-0.1-1.2c-0.5,0.5-1,1.2-1.8,1.1c-0.5-1.2,0.1-2.6,1.2-3.1
				c0.4-0.2,0.8-0.2,1.2-0.2c0.1-0.4,0.2-0.8,0.2-1.3C-221.7-112.3-221.9-112.4-222.1-112.5z M-223-110.3c-0.6,0.6-0.8,1.5-0.7,2.3
				c1-0.3,1.7-1.4,1.8-2.5C-222.2-110.5-222.7-110.6-223-110.3z"/>
		</g>
		<path fill="#2E376C" d="M-194.9-112.5c0.4-0.1,0.7-0.2,1.1-0.3c0,1-0.4,1.9-0.5,2.9c0.6-0.4,1.1-0.9,1.8-1
			c0.3,0.8-0.2,1.6-0.2,2.4c-0.1,0.3,0.1,0.5,0.2,0.7c-0.3,0.1-0.5,0.3-0.8,0.3c-0.2-0.2-0.1-0.5-0.1-0.8c0.1-0.6,0.3-1.2,0.4-1.9
			c0-0.1-0.1-0.2-0.2-0.2c-0.7,0.4-1.4,1-1.5,1.8c-0.1,0.3-0.1,0.6-0.2,0.9c-0.2,0.1-0.3,0.1-0.5,0.2c0-0.7,0.2-1.4,0.3-2
			c0.2-0.9,0.4-1.7,0.5-2.6C-194.6-112.2-194.7-112.4-194.9-112.5z"/>
		<path fill="#2E376C" d="M-184.7-112.6c0.3-0.2,0.6-0.2,0.9-0.2c0.1,0.2,0.2,0.4,0.3,0.5c-0.4,0.1-0.8-0.1-1.1-0.2
			c-0.3,0.5-0.5,1.1-0.5,1.7c0.3,0,0.6,0,0.9,0.1c-0.3,0.1-0.6,0.3-0.9,0.4c-0.2,1.2-0.4,2.4-0.8,3.5c-0.2,0.6-0.7,1.1-1.4,1
			c0-0.1,0-0.3,0-0.4c0.2,0,0.5,0,0.7,0c0.2-0.2,0.3-0.6,0.4-0.9c0.2-1,0.3-2.1,0.5-3.1c-0.2-0.1-0.5-0.2-0.7-0.2
			c0.2-0.1,0.5-0.2,0.7-0.2C-185.7-111.5-185.4-112.2-184.7-112.6z"/>
		<path fill="#2E376C" d="M-244.8-112c0.1-0.2,0.1-0.5,0.3-0.6c0.2,0,0.3,0.1,0.4,0.2c0,0.2-0.1,0.4-0.1,0.6
			C-244.4-111.8-244.6-111.8-244.8-112z"/>
		<path fill="#2E376C" d="M-200.5-112.2c0.1-0.1,0.3-0.3,0.4-0.4c0.1,0,0.3,0.1,0.4,0.2c0,0.2,0,0.4-0.1,0.6c-0.2,0-0.4,0.1-0.6,0.1
			C-200.3-111.9-200.4-112.1-200.5-112.2z"/>
		<path fill="#2E376C" d="M-258.6-112.3c0.5-0.3,1.2-0.1,1.7,0c0,0.4,0,0.8,0,1.3c-0.1-0.2-0.2-0.5-0.4-0.7
			c-0.2-0.5-0.9-0.4-1.3-0.1c-0.3,0.2-0.2,0.6-0.2,0.9c0.4,0.6,1.3,0.8,1.6,1.5c0.4,0.8-0.2,1.8-1,2c-0.6,0.2-1.2,0-1.8-0.3
			c0-0.4,0-0.8,0-1.2c0.3,0.4,0.5,1.2,1.2,1.2c0.4,0,0.8-0.1,0.9-0.5c0.1-0.4,0.1-0.9-0.2-1.2c-0.4-0.4-1-0.6-1.3-1.1
			C-259.5-111.2-259.2-112-258.6-112.3z"/>
		<g>
			<path fill="#2E376C" d="M-208.6-112.3c0.7,0,1.5,0,2.2,0c0.5,0,1.1,0.4,1.1,0.9c0.1,0.6-0.5,0.9-0.9,1.2c0.3,0.2,0.6,0.5,0.8,0.9
				c0.1,0.7-0.4,1.4-1,1.6c-1,0.3-2,0.2-3,0.2c0.3-0.2,0.8-0.4,0.8-0.8c0.3-1.2,0.5-2.4,0.7-3.5C-208.1-112-208.4-112.2-208.6-112.3
				z M-207.2-112c-0.2,0.5-0.2,1.1-0.3,1.6c0.4,0,0.8,0.1,1.2-0.2c0.2-0.1,0.4-0.3,0.4-0.6c0-0.3,0.1-0.6-0.2-0.8
				C-206.4-112.1-206.9-112.2-207.2-112z M-207.6-110c-0.1,0.7-0.4,1.4-0.3,2c0.3,0,0.6,0.1,0.8,0c0.8-0.1,1.3-1.3,0.6-1.9
				C-206.8-110.1-207.2-109.9-207.6-110z"/>
		</g>
		<path fill="#2E376C" d="M-214.7-110.4c0-0.5,0.1-1,0.3-1.4c0.3,0.4,0.5,0.8,0.8,1.3c0.5-0.1,0.9-0.2,1.4-0.2
			c0.1,0.5-0.3,0.9-0.6,1.2c0.2,0.4,0.5,0.9,0.6,1.3c-0.7,0.1-1.1-0.5-1.7-0.5c-0.4,0.3-0.7,0.6-1.1,0.9c0-0.5,0-1,0.1-1.6
			c-0.4-0.2-0.8-0.5-1.1-0.8C-215.6-110.2-215.1-110.3-214.7-110.4z"/>
		<path fill="#2E376C" d="M-190.5-110.8c0.2-0.3,0.4-0.7,0.8-0.9c0,0.3,0,0.7-0.1,1c0.3,0,0.6,0.1,0.9,0.2c-0.3,0.1-0.7,0.2-1,0.2
			c-0.1,0.7-0.3,1.4-0.4,2c0.2,0.1,0.3,0.3,0.5,0.4c-0.3,0.2-0.6,0.3-0.9,0.4c-0.1-0.3-0.2-0.5-0.1-0.8c0.1-0.7,0.3-1.3,0.5-2
			c-0.2-0.1-0.4-0.2-0.6-0.3C-190.9-110.6-190.7-110.7-190.5-110.8z"/>
		<path fill="#2E376C" d="M-179.1-110.7c0.1-0.4,0.4-0.7,0.8-1c-0.1,0.3-0.1,0.7-0.2,1c0.3,0,0.6,0,0.9,0.1
			c-0.3,0.2-0.7,0.3-1.1,0.4c-0.1,0.8-0.3,1.5-0.4,2.2c0.3-0.2,0.6-0.3,1-0.4c-0.4,0.5-0.8,1-1.5,1c-0.1-0.9,0.2-1.8,0.4-2.8
			c-0.2-0.1-0.4-0.2-0.7-0.3C-179.6-110.6-179.4-110.7-179.1-110.7z"/>
		<g>
			<path fill="#2E376C" d="M-256-110.2c0.4-0.3,0.8-0.7,1.2-1.1c0.1,0.2,0.2,0.3,0.3,0.5c0.5,0,1.1-0.1,1.4,0.4
				c0.3,0.9-0.2,1.9-0.9,2.4c-0.4,0.4-0.9,0.4-1.4,0.6c-0.1,0.4-0.1,0.7-0.2,1.1c0.2,0.1,0.5,0.2,0.7,0.4c-0.6,0.1-1.2,0.1-1.9,0
				c0.2-0.2,0.6-0.4,0.6-0.7c0.3-1.2,0.5-2.4,0.7-3.6C-255.6-110.2-255.8-110.2-256-110.2z M-254.7-110.5c-0.2,0.8-0.4,1.7-0.5,2.5
				c0.2,0.1,0.3,0.1,0.5,0.2c0.8-0.5,1.3-1.5,1-2.4C-253.9-110.6-254.4-110.5-254.7-110.5z"/>
		</g>
		<path fill="#2E376C" d="M-233.2-110.3c0.3-0.3,0.8-0.5,1.2-0.5c0.1,0.9-0.3,1.7-0.4,2.6c0.2,0,0.4,0,0.7,0
			c-0.3,0.4-0.8,0.7-1.3,0.8c-0.1-1,0.3-1.9,0.5-2.9C-232.7-110.3-232.9-110.3-233.2-110.3z"/>
		<path fill="#2E376C" d="M-181.5-110.7c0.2-0.1,0.4-0.1,0.6-0.2c-0.2,0.9-0.4,1.8-0.6,2.7c0.2-0.1,0.5-0.1,0.7-0.2
			c-0.3,0.4-0.8,0.7-1.3,0.9c0-0.4,0-0.8,0-1.2c-0.5,0.5-1,1.2-1.8,1.1c-0.1-0.9,0.2-1.8,0.4-2.6c-0.2,0-0.5,0-0.7,0
			c0.4-0.3,0.7-0.7,1.2-0.8c0,0,0.1,0.1,0.2,0.2c-0.1,0.9-0.5,1.8-0.4,2.8C-182.2-108.5-181.5-109.5-181.5-110.7z"/>
		<path fill="#2E376C" d="M-177.2-110.1c0.4-0.4,0.8-0.7,1.3-0.8c0.1,1-0.5,1.9-0.4,2.9c0.8-0.4,1.5-1.2,1.6-2.1
			c0-0.2,0.1-0.4,0.2-0.6c0.2,0,0.4,0,0.6,0c-0.2,0.8-0.4,1.7-0.6,2.5c0.2,0.1,0.4,0.1,0.5,0.2c-0.3,0.2-0.6,0.4-1,0.5
			c-0.4-0.3,0-0.8,0-1.3c-0.6,0.5-1.1,1.3-1.9,1.2c-0.1-0.9,0.2-1.7,0.4-2.6C-176.7-110.1-177-110.1-177.2-110.1z"/>
		<g>
			<path fill="#2E376C" d="M-168.8-110.7c0.3-0.2,0.7-0.2,1-0.1c0.3,0.2,0.3,0.5,0.3,0.8c-0.5,0.6-1.2,0.8-1.9,1.1
				c-0.1,0.3,0,0.6,0.1,0.9c0.6,0.1,1.1-0.1,1.6-0.4c-0.4,0.6-1,1-1.7,0.9c-0.3,0-0.5-0.4-0.6-0.6
				C-170.2-109.1-169.7-110.3-168.8-110.7z M-168.7-110.5c-0.4,0.2-0.6,0.7-0.7,1.2c0.4-0.1,0.8-0.2,1.1-0.5
				c0.2-0.2,0.1-0.4,0.1-0.7C-168.3-110.5-168.5-110.5-168.7-110.5z"/>
		</g>
		<path fill="#2E376C" d="M-251.7-109.8c0.3-0.6,1-1.1,1.7-1.1c0.4,0,0.8,0.6,0.5,0.9c-0.4,0.5-1,0.8-1.6,0.8
			c0.4-0.3,0.8-0.5,1.1-0.9c0-0.1-0.2-0.3-0.2-0.4c-0.3,0.1-0.7,0.2-0.8,0.5c-0.3,0.3-0.1,0.8-0.2,1.1c-0.1,0.3,0,0.6,0,0.9
			c0.3,0,0.6,0.1,0.9,0c0.3-0.1,0.5-0.3,0.8-0.4c-0.3,0.6-1.1,1-1.8,0.9c-0.3,0-0.4-0.2-0.5-0.4
			C-252.1-108.6-252.1-109.2-251.7-109.8z"/>
		<path fill="#2E376C" d="M-248.8-108c-0.3-1.2,0.5-2.7,1.8-2.8c0.3-0.1,0.5,0.2,0.8,0.3c-0.1,0.1-0.3,0.3-0.4,0.4
			c-0.3-0.1-0.5-0.3-0.8-0.3c-0.7,0.6-0.9,1.6-0.6,2.4c0.5,0.1,1-0.2,1.5-0.4c-0.3,0.6-1.1,1-1.9,0.9
			C-248.6-107.7-248.7-107.8-248.8-108z"/>
		<path fill="#2E376C" d="M-245.7-110.1c0.4-0.3,0.8-0.7,1.3-0.8c0,0,0.1,0.1,0.2,0.2c-0.1,0.7-0.4,1.4-0.5,2.1
			c-0.1,0.3,0.1,0.5,0.2,0.7c-0.3,0.1-0.6,0.3-0.8,0.4c-0.1-0.9,0.3-1.8,0.4-2.7C-245.2-110.1-245.4-110.1-245.7-110.1z"/>
		<g>
			<path fill="#2E376C" d="M-243.1-109.5c0.4-1,1.6-1.6,2.7-1.3c0,0.9-0.4,1.8-0.4,2.6c0.2-0.1,0.5-0.1,0.7-0.2
				c-0.3,0.4-0.8,0.7-1.3,0.8c0-0.4,0-0.8,0-1.1c-0.5,0.5-1,1.2-1.8,1.1C-243.3-108.2-243.4-108.9-243.1-109.5z M-242.1-110.2
				c-0.5,0.6-0.8,1.5-0.5,2.2c0.9-0.5,1.6-1.4,1.5-2.5C-241.4-110.5-241.8-110.6-242.1-110.2z"/>
		</g>
		<path fill="#2E376C" d="M-234.9-110.2c0.3-0.3,0.7-0.5,1.1-0.8c0.1,0.5,0.2,1,0.1,1.4c-0.4,0.5-0.5,1.2-0.6,1.8
			c-0.1,0.1-0.4,0.2-0.5,0.2c0-0.9,0.4-1.8,0.5-2.7C-234.5-110.2-234.7-110.2-234.9-110.2z"/>
		<g>
			<path fill="#2E376C" d="M-230.7-107.8c-0.5-1.2,0.3-2.8,1.6-3c0.3-0.1,0.6,0.1,0.8,0.3c0,1-1.2,1.3-2,1.6c0,0.3,0,0.6,0.2,0.9
				c0.6,0.2,1.1-0.2,1.6-0.4c-0.3,0.5-0.8,0.9-1.4,0.9C-230.1-107.5-230.5-107.5-230.7-107.8z M-230.1-109.3
				c0.6-0.1,1.4-0.5,1.2-1.2C-229.6-110.6-230-109.9-230.1-109.3z"/>
		</g>
		<g>
			<path fill="#2E376C" d="M-226.3-110.7c0.4-0.2,0.8-0.2,1.2,0c0,0.2,0,0.5,0,0.7c-0.5,0.6-1.2,0.8-1.9,1.1c0,0.3,0.1,0.6,0.2,0.8
				c0.6,0.2,1.1-0.2,1.7-0.4c-0.4,0.5-1,1-1.8,0.9c-0.4,0-0.6-0.4-0.7-0.7C-227.7-109.2-227.2-110.3-226.3-110.7z M-226.9-109.5
				c0,0,0.1,0.1,0.2,0.2c0.5-0.1,0.9-0.4,1.1-0.8c-0.1-0.1-0.2-0.3-0.2-0.4C-226.4-110.5-226.7-110-226.9-109.5z"/>
		</g>
		<path fill="#2E376C" d="M-220-109.5c-0.1-0.6,0.4-1.2,1-1.4c0.3-0.1,0.6,0.1,0.8,0.2c-0.1,0.1-0.2,0.4-0.2,0.5
			c-0.3-0.1-0.5-0.2-0.8-0.4c-0.1,0.1-0.2,0.2-0.3,0.3c0,0.1,0,0.2,0,0.4c0.4,0.4,1.2,0.7,1,1.3c-0.1,0.4-0.5,0.8-0.9,1
			c-0.3,0.1-0.7,0-1-0.1c0-0.2,0-0.4,0-0.6c0.3,0.1,0.6,0.3,0.9,0.4c0.3,0,0.6-0.3,0.4-0.6C-219.3-108.9-219.7-109.2-220-109.5z"/>
		<path fill="#2E376C" d="M-204.3-110.2c0.3-0.3,0.6-0.5,1-0.7c0,0.3,0,0.5,0,0.8c0.3-0.3,0.5-0.5,0.8-0.7c0.2,0,0.3,0.1,0.5,0.2
			c0,0.2,0,0.3-0.1,0.5c-0.3,0.1-0.7-0.1-0.9,0.2c-0.5,0.7-0.6,1.5-0.7,2.3c-0.2,0.1-0.4,0.1-0.6,0.2c0.2-0.9,0.3-1.7,0.6-2.6
			C-203.9-110.1-204.1-110.2-204.3-110.2z"/>
		<path fill="#2E376C" d="M-201.3-110c0.4-0.4,0.8-0.9,1.4-0.8c0,0.9-0.4,1.7-0.6,2.6c0.3,0,0.5-0.1,0.8-0.1
			c-0.4,0.4-0.8,0.7-1.3,0.9c-0.1-1,0.4-1.9,0.5-2.8C-200.8-110.1-201-110.1-201.3-110z"/>
		<g>
			<path fill="#2E376C" d="M-198.8-109.3c-0.1-1,1-1.8,1.9-1.5c0.4,0.1,0.7,0.1,1.1,0.1c-0.2,0.1-0.4,0.3-0.5,0.4
				c-0.1,0.4-0.1,0.8-0.4,1.1c-0.4,0.4-0.9,0.6-1.3,0.8c0.4,0.4,1,0.6,1.4,1c0.2,0.2,0.2,0.5,0,0.7c-0.3,0.5-0.9,0.7-1.5,0.8
				c-0.5,0-1-0.2-1.3-0.6c-0.2-0.6,0.6-0.9,1-1.2c0-0.3,0-0.6,0-0.9C-198.5-108.7-198.8-108.9-198.8-109.3z M-197.7-110.5
				c-0.5,0.3-0.4,1-0.4,1.5c0.2,0.2,0.4,0.2,0.6,0.2c0.2-0.2,0.4-0.5,0.5-0.8c0.1-0.3,0-0.7-0.1-1
				C-197.3-110.5-197.5-110.5-197.7-110.5z M-198.2-107.4c-0.3,0.2-0.6,0.5-0.5,0.9c0.3,0.4,0.9,0.4,1.4,0.3
				c0.2-0.1,0.3-0.4,0.5-0.5C-197.3-107-197.7-107.6-198.2-107.4z"/>
		</g>
		<path fill="#2E376C" d="M-172.8-110.4c0.2-0.2,0.5-0.3,0.7-0.5c0.1,0.1,0.2,0.2,0.3,0.2c0,0.2,0,0.4,0,0.6c0.3-0.4,0.6-1,1.1-0.8
			c0.1,0.2,0.1,0.4,0.1,0.6c-0.3,0-0.5,0-0.8,0c-0.7,0.6-0.7,1.6-0.9,2.5c-0.2,0.1-0.4,0.1-0.5,0.2c0-0.9,0.3-1.7,0.4-2.5
			C-172.5-110.1-172.6-110.2-172.8-110.4z"/>
		<path fill="#2E376C" d="M-166-110.6c0.4-0.2,0.9-0.4,1.2,0c0,0.2,0,0.3-0.1,0.5c-0.3-0.1-0.6-0.2-1-0.4L-166-110.6z"/>
		<path fill="#2E376C" d="M-166.3-110.5c0,0,0.1,0.1,0.2,0.1c0.1,0.2,0.1,0.4,0.1,0.6c0.3,0.2,0.7,0.5,0.9,0.8
			c0.1,0.4,0,0.9-0.4,1.2c-0.4,0.4-0.9,0.3-1.3,0.2c-0.1-0.2-0.2-0.4-0.2-0.5c0.5-0.4,1,0.5,1.5,0.1c0-0.2,0-0.4,0-0.6
			c-0.3-0.3-0.6-0.5-0.9-0.8C-166.6-109.8-166.5-110.2-166.3-110.5z"/>
	</g>
</g>
<g>
	<g>
		<path fill="#FFFFFF" d="M203.5-79.7h3.3c2.9,6.7,5.9,13.4,8.8,20.1c-1.2,0-2.5,0-3.7,0c-0.7-1.6-1.3-3.2-2.1-4.8
			c-3.1,0-6.2,0-9.4,0c-0.6,1.6-1.4,3.2-2,4.8c-1.2,0-2.4,0-3.6,0C197.6-66.4,200.6-73,203.5-79.7z M205.1-75.5
			c-1.1,2.6-2.3,5.2-3.3,7.8c2.2,0,4.4,0,6.7,0c0-0.2-0.1-0.5-0.2-0.7C207.2-70.7,206.2-73.1,205.1-75.5z"/>
	</g>
	<path fill="#FFFFFF" d="M79.7-79.6c1.3-0.1,2.6-0.1,3.8,0c1.6,4.9,3.1,9.8,4.7,14.6c1.6-4.9,3.2-9.7,4.8-14.6c1,0,2,0,3.1,0
		c1.6,4.9,3.2,9.7,4.8,14.6c0.3-0.7,0.5-1.5,0.7-2.2c1.3-4.1,2.7-8.3,4-12.4c1.2-0.1,2.5-0.1,3.7,0c-2.3,6.7-4.6,13.4-7,20.1
		c-1,0-2.1,0-3.1,0c-1.4-4-2.8-8.1-4.1-12.1c-0.2-0.7-0.4-1.4-0.7-2c-1.5,4.2-2.9,8.5-4.4,12.8c-0.1,0.4-0.3,0.9-0.4,1.3
		c-1,0.1-2.1,0.1-3.1,0C84.3-66.2,82-72.9,79.7-79.6z"/>
	<path fill="#FFFFFF" d="M110.4-79.6c1.1-0.1,2.2-0.1,3.4-0.1c0.3,0,0.8,0,1,0.3c1.5,2.4,3.1,4.9,4.6,7.3c0.2,0.4,0.5,0.8,0.8,1.1
		c1.8-2.8,3.6-5.6,5.4-8.4c0.2-0.4,0.7-0.3,1-0.3c1.1,0,2.2-0.1,3.2,0.1c-2.6,3.8-5,7.6-7.6,11.4c-0.1,0.2-0.3,0.5-0.3,0.8
		c0,2.5,0,5.1,0,7.6c-1.2,0-2.4,0-3.6,0c0-2.4,0-4.9,0-7.3c0-0.3,0-0.5-0.1-0.8C115.6-71.7,113-75.6,110.4-79.6z"/>
	<path fill="#FFFFFF" d="M131.7-79.6c0.9,0,1.9-0.1,2.8,0c0.7,0,1,0.7,1.4,1.2c3.2,4.2,6.4,8.4,9.7,12.5c0-4.5,0-9.1,0-13.6
		c1.1-0.1,2.3-0.1,3.5,0c0,6.6,0,13.3,0,19.9c-1,0-2,0-2.9,0c-3.7-4.6-7.3-9.4-10.9-14c0,4.7,0,9.3,0,14c-1.2,0-2.3,0-3.5,0
		C131.7-66.3,131.7-73,131.7-79.6z"/>
	<g>
		<path fill="#FFFFFF" d="M153.7-79.6c1.2-0.1,2.5,0,3.7-0.1c2.3,0.1,4.7-0.2,7,0.5c2.6,0.7,5,2.4,6.2,4.8c1.1,2,1.4,4.5,1,6.7
			c-0.5,2.6-2.1,5-4.4,6.4c-1.7,1.1-3.8,1.6-5.9,1.6c-2.5,0-5.1,0-7.6,0C153.7-66.3,153.7-73,153.7-79.6z M157.2-76.4
			c0,4.5,0,9,0,13.5c1.4,0,2.9,0,4.3,0c2.1,0,4.2-1,5.4-2.8c2-3,1.3-7.7-1.8-9.6C162.7-76.8,159.8-76.3,157.2-76.4z"/>
	</g>
	<path fill="#FFFFFF" d="M175.4-79.6c1.2,0,2.4-0.1,3.6,0.1c0,2.7,0,5.5,0,8.2c3.1,0,6.3,0,9.4,0c0.1-2.7,0-5.5,0-8.2
		c1.2-0.1,2.4-0.1,3.6,0c0,6.6,0,13.3,0,19.9c-1.2,0-2.4,0-3.6,0c0-2.8,0-5.6,0-8.3c-3.2,0-6.3,0-9.5,0c0,2.8,0,5.6,0,8.3
		c-1.2,0.1-2.4,0-3.6,0C175.4-66.3,175.4-73,175.4-79.6z"/>
	<path fill="#FFFFFF" d="M217.8-79.6c1.1-0.1,2.2,0,3.3-0.1c0.7-0.1,0.9,0.7,1.2,1.1c1.8,2.8,3.5,5.6,5.4,8.3c1.9-3.1,4-6.1,5.9-9.3
		c1.3-0.3,2.6-0.1,3.9-0.1c0,6.6,0,13.3,0,19.9c-1.2,0-2.4,0-3.5,0c-0.1-4.7,0-9.4-0.1-14.1c-2.1,3-4.1,6.1-6.2,9.1
		c-0.2,0.2-0.3-0.2-0.5-0.4c-1.9-3-3.9-5.9-5.9-8.8c0,4.4,0,8.9,0,13.3c0,0.3,0,0.6-0.1,0.8c-1.1,0-2.3,0-3.4,0
		c-0.1-0.8,0-1.5-0.1-2.3C217.8-67.8,217.8-73.7,217.8-79.6z"/>
	<path fill="#FFFFFF" d="M145.3-56.3c16.3-0.2,32.5-0.1,48.8,0.7c15.4,0.7,30.7,1.9,45.9,4.1c5.9,0.9,11.7,1.9,17.4,3.4v0
		c-14.1-2.1-28.4-3.3-42.7-4.1c-19.2-1.1-38.4-1.5-57.6-1.6c-23.4,0.1-46.9,0.7-70.2,2.7c-9,0.8-18.1,1.7-27,3.1
		c0,0-0.1,0.1-0.2,0.1v-0.2c0.8-0.1,1.6-0.4,2.4-0.6c3.1-0.8,6.3-1.4,9.5-1.9c9.6-1.7,19.4-2.8,29.1-3.6
		C115.6-55.5,130.5-56.1,145.3-56.3z"/>
	<g>
		<path fill="#FFFFFF" d="M208.1-48.1c1.1-0.2,2,1.1,1.6,2.1c-0.4,1-1.8,1.2-2.5,0.4C206.3-46.4,206.9-48,208.1-48.1z M207.8-47.8
			c-0.8,0.3-1.1,1.5-0.4,2.1c0.4,0.4,1,0.3,1.6,0.2c-0.3-0.4-0.6-0.7-0.9-1c-0.1,0.3-0.1,0.7-0.5,0.6c0-0.6,0-1.1,0-1.7
			c0.4,0,0.7,0,1.1,0.1c0.4,0.2,0.2,0.7,0,1c0.1,0.2,0.3,0.5,0.4,0.7c0.2-0.4,0.4-0.7,0.4-1.2C209.4-47.6,208.5-48.1,207.8-47.8z
			 M208-47.1c0,0.1,0,0.3,0,0.4c0.1,0,0.3,0,0.4,0c0-0.1,0-0.3,0-0.4C208.4-47.1,208.1-47.1,208-47.1z"/>
	</g>
	<g>
		<path fill="#FFFFFF" d="M113.8-48c1.3,0,2.5,0,3.8,0c0.9,0,1.9,0.4,2.3,1.2c0.5,0.9,0.4,2.2-0.3,3c-0.3,0.4-0.8,0.5-1.2,0.7
			c0.5,1.1,1.4,2,2,3c-0.6,0-1.1,0.1-1.7,0c-0.8-0.8-1.3-1.9-2-2.7c-0.5-0.1-1.1,0-1.6,0c0,0.9,0,1.8,0,2.8c-0.5,0-0.9,0-1.4,0
			C113.8-42.7,113.7-45.4,113.8-48z M115.2-46.7c0,0.9,0,1.7,0,2.6c0.7,0,1.5,0,2.2,0c0.5,0,1.1-0.3,1.3-0.8
			c0.3-0.6-0.1-1.5-0.8-1.7C117-46.8,116.1-46.7,115.2-46.7z"/>
	</g>
	<path fill="#FFFFFF" d="M127.5-48c2,0,3.9,0,5.9,0c0,0.4,0,0.8,0,1.2c-1.5,0-3,0-4.5,0c0,0.7-0.1,1.3,0,2c1.3,0.2,2.6,0,3.9,0.1
		c0,0.4,0,0.9,0,1.3c-1.3,0-2.6,0-4,0c0,0.7,0,1.4,0,2.1c1.5,0,3,0,4.5,0c0,0.4,0,0.8,0,1.3c-2,0-4,0-6,0
		C127.5-42.7,127.4-45.4,127.5-48z"/>
	<path fill="#FFFFFF" d="M139.9-48c0.5,0,1,0,1.5,0c0.6,1.9,1.2,3.8,1.8,5.7c0.7-1.9,1.3-3.8,1.9-5.7c0.4,0,0.9,0,1.3,0
		c0.6,1.9,1.2,3.9,1.9,5.8c0.6-1.9,1.2-3.8,1.8-5.7c0.5,0,1,0,1.5,0c-0.9,2.7-1.9,5.3-2.8,8c-0.4,0-0.8,0-1.3,0
		c-0.7-1.8-1.2-3.7-2-5.6c-0.6,1.9-1.3,3.7-1.9,5.5c-0.4,0-0.8,0-1.3,0C141.7-42.7,140.8-45.3,139.9-48z"/>
	<g>
		<path fill="#FFFFFF" d="M171.2-48c1.3,0,2.5,0,3.8,0c0.9,0,1.9,0.4,2.4,1.2c0.5,0.9,0.4,2.2-0.3,3c-0.3,0.4-0.8,0.5-1.2,0.8
			c0.6,1,1.4,1.9,2,2.9c-0.6,0-1.1,0.1-1.7,0c-0.7-0.8-1.2-1.9-2-2.7c-0.5-0.1-1.1,0-1.7,0c0,0.9,0,1.8,0,2.8c-0.5,0-0.9,0-1.4,0
			C171.2-42.7,171.2-45.4,171.2-48z M172.6-46.7c0,0.9,0,1.7,0,2.6c0.7,0,1.5,0,2.2,0c0.5,0,1.1-0.3,1.3-0.8
			c0.3-0.6-0.1-1.5-0.8-1.7C174.5-46.8,173.5-46.7,172.6-46.7z"/>
	</g>
	<g>
		<path fill="#FFFFFF" d="M185.1-48c1.4,0.1,2.9-0.1,4.3,0.1c1.7,0.4,3.1,2,3,3.8c0.1,1.2-0.5,2.5-1.4,3.2c-0.8,0.7-2,1-3.1,1
			c-0.9,0-1.9,0-2.8,0C185.2-42.6,185.1-45.3,185.1-48z M186.6-46.7c0,1.8,0,3.6,0,5.4c1.1-0.1,2.3,0.2,3.2-0.4
			c1.5-1,1.5-3.5,0.1-4.5C188.9-46.9,187.7-46.7,186.6-46.7z"/>
	</g>
	<path fill="#FFFFFF" d="M198.7-47.7c1.4-0.8,3.3-0.4,4.5,0.6c-0.2,0.4-0.5,0.7-0.7,1.1c-0.9-0.6-1.9-1.1-3-0.6
		c-0.6,0.3-0.7,1.2-0.1,1.5c1.1,0.6,2.5,0.5,3.5,1.4c1,1.1,0.5,3.1-0.9,3.6c-1.6,0.6-3.6,0.2-4.8-1.1c0.3-0.3,0.6-0.6,0.9-1
		c0.9,0.8,2.1,1.3,3.3,0.9c0.6-0.2,0.9-1.2,0.3-1.5c-1.1-0.6-2.5-0.5-3.5-1.4C197.2-45.2,197.5-47.1,198.7-47.7z"/>
	<g>
		<path fill="#FFFFFF" d="M160.3-47.8c0.4-0.2,0.9-0.1,1.4,0c1.2,2.6,2.3,5.3,3.5,7.9c-0.5,0-1,0-1.5,0c-0.3-0.6-0.5-1.2-0.8-1.8
			c-1.2-0.1-2.5,0-3.7,0c-0.4,0.5-0.5,1.2-0.8,1.8c-0.4,0.2-0.9,0.1-1.4,0.1c0.1-0.3,0.2-0.7,0.3-1
			C158.3-43.2,159.3-45.5,160.3-47.8z M159.7-43.1c0.9,0,1.7,0,2.6,0c-0.3-1.1-0.8-2-1.3-3C160.5-45.1,160.1-44.1,159.7-43.1z"/>
	</g>
</g>
<path fill="#FFFFFF" d="M58,49.6c5.6,1.6,11.4,0.9,15.6-0.5c-5.6-0.4-9.8-2.8-12.9-5.6c0-0.2,0-0.4,0-0.6c0-1.9-0.6-3.7-1.6-5.3
	l10.4-7.2c0.2-0.1,0.3-0.3,0.4-0.5c0,0,0,0,0,0c0,0,0,0,0,0c0-0.1,0-0.1,0-0.2c0.4-1.5,0.5-3.3,0.4-5.2c0,0,0,0,0,0c0,0,0-0.1,0-0.1
	c0-0.3-0.1-0.6-0.1-0.9c0-0.1,0-0.3,0-0.4c0-0.3-0.1-0.6-0.1-0.8C70,22,70,21.7,69.9,21.4c0,0,0-0.1,0-0.1C67,9.2,54.1,4.5,54.1,4.5
	h0c-0.6-0.3-1.2-0.5-1.8-0.7c0.8,0.6,1.5,1.3,2.1,2.1c2.3,3.3,2,7.5-0.6,9.2c-1.2,0.8-2.7,1-4.2,0.6c1.5,2.9,3.5,5.9,6,8.5
	c1.2,1.4,2.7,2.7,4.6,3.6c0.4,0.2,0.7,0.4,1.1,0.6L54.7,33c0,0-0.1,0.1-0.1,0.1c-1.7-1.1-3.7-2-5.9-2.7l-3.1-5.3l-2.4,4.2
	c-1.1-0.1-2.2-0.2-3.3-0.2c-1,0-1.9,0.1-2.9,0.1l-2.4-4.2l-3,5.1c-2.5,0.7-4.8,1.7-6.7,3c-0.1-0.1-0.2-0.2-0.3-0.3L18,28.4
	c0.4-0.2,0.7-0.4,1.1-0.6c2-1,3.5-2.2,4.6-3.6c2.5-2.5,4.5-5.5,6-8.5c-1.5,0.4-3,0.3-4.2-0.6c-2.6-1.8-2.9-5.9-0.6-9.2
	C25.5,5,26.2,4.3,27,3.7c-0.6,0.2-1.2,0.5-1.8,0.7h0c0,0-12.8,4.7-15.7,16.8c0,0,0,0.1,0,0.1c-0.1,0.3-0.1,0.5-0.2,0.8
	c-0.1,0.3-0.1,0.5-0.1,0.8c0,0.1,0,0.3,0,0.4c0,0.3-0.1,0.6-0.1,0.9c0,0,0,0.1,0,0.1c0,0,0,0,0,0c-0.1,1.8,0,3.7,0.4,5.2
	c0,0.1,0,0.1,0,0.2c0,0,0,0,0,0h0c0.1,0.2,0.2,0.4,0.4,0.5l10.7,7.4c-1,1.6-1.5,3.3-1.5,5.1c0,0.5,0.1,0.9,0.1,1.4
	c-3,2.4-7,4.5-12.1,4.8c4.2,1.4,10,2.1,15.6,0.5c-2.7,2.8-6.4,5.4-11.5,6.4c0.5,0.1,1,0.2,1.5,0.2c4.1,0.4,12.9,0.5,19.4-5.2
	c0.2,0.2,0.4,0.3,0.6,0.5c7.9,6.6,15.1,0.3,15.1,0.3s0.3-0.3,0.9-0.8c6.5,5.8,15.3,5.7,19.4,5.2c0.5-0.1,1-0.1,1.5-0.2
	C64.4,55,60.7,52.4,58,49.6z"/>
</svg>
