<?xml version="1.0" encoding="utf-8"?>
<!-- Generator: Adobe Illustrator 16.0.0, SVG Export Plug-In . SVG Version: 6.00 Build 0)  -->
<!DOCTYPE svg PUBLIC "-//W3C//DTD SVG 1.1//EN" "http://www.w3.org/Graphics/SVG/1.1/DTD/svg11.dtd">
<svg version="1.1" id="Layer_1" xmlns="http://www.w3.org/2000/svg" xmlns:xlink="http://www.w3.org/1999/xlink" x="0px" y="0px"
	 width="287.3px" height="31.9px" viewBox="0 0 287.3 31.9" enable-background="new 0 0 287.3 31.9" xml:space="preserve">
<g>
	<path fill="#FFFFFF" d="M69.7,3.9c2.3-0.6,4.5-1.4,6.9-1.8c-0.4,0.2-0.8,0.5-1.3,0.7c-7,3.1-13.8,6.8-19.7,11.9
		c-4,3.5-7.3,7.7-9.7,12.4c-4.6-1.4-9-3-13.5-4.8c4.1-4.4,9.2-7.9,14.7-10.4C54.4,8.4,62,6.1,69.7,3.9z"/>
	<g>
		<path fill="#FFFFFF" d="M83,2.3c1.2,0,2.4,0,3.6,0c1.4,2.3,3,4.5,4.5,6.8c-1.1,0-2.3,0-3.4-0.1c-0.2-0.4-0.4-0.7-0.6-1.1
			c-1.6,0-3.2,0-4.8,0C81.6,9.4,79.8,9,78.5,9C79.9,6.7,81.5,4.5,83,2.3z M84.5,4c-0.6,0.8-1,1.7-1.5,2.6c1.1,0,2.3,0,3.4,0
			C85.7,5.8,85.4,4.4,84.5,4z"/>
	</g>
	<path fill="#FFFFFF" d="M95.4,2.2c1.1,0,2.3,0,3.4,0c0.9,1.6,1.8,3.1,2.7,4.7c0.9-1.6,1.8-3.1,2.7-4.7c1.1,0,2.2,0,3.4,0
		c0.7,2.3,1.4,4.5,2,6.8c-1,0-2,0-3.1,0c-0.3-1.4-0.6-2.8-1-4.2c-1.1,1.3-1.8,2.8-2.6,4.2c-1,0-1.9,0.1-2.9-0.1
		c-1-1.3-1.7-2.9-2.6-4.3C97,6.1,96.7,7.5,96.3,9c-1,0-2,0-3,0C94,6.8,94.6,4.5,95.4,2.2z"/>
	<path fill="#FFFFFF" d="M111.5,2.2c3.7,0,7.4,0,11.1,0c-0.1,0.5-0.2,1-0.3,1.5c-1.3,0-2.5,0-3.8,0c0,1.8,0,3.5,0,5.3
		c-1,0-2.1,0-3.1,0c-0.1-1.8-0.1-3.5-0.1-5.3c-1.4,0-2.7,0-4.1,0C111.3,3.3,111.4,2.7,111.5,2.2z"/>
	<g>
		<path fill="#FFFFFF" d="M125.4,2.2c2.8,0.1,5.6-0.2,8.4,0.3c1.1,0.2,2.3,0.9,2.1,2.2c0,1-1.1,1.3-1.8,1.8c0.7,0.8,1.5,1.7,2.2,2.5
			c-1.2,0-2.3,0-3.4,0c-0.5-0.7-1.1-1.4-1.6-2c-0.9,0-1.9,0-2.8,0c0,0.7,0,1.4,0,2c-1,0-2.1,0-3.1,0C125.5,6.8,125.5,4.5,125.4,2.2z
			 M128.6,3.5c0,0.7,0,1.5,0,2.2c1.1,0,2.3,0.1,3.4-0.1c0.8-0.1,1.4-1.3,0.5-1.8C131.3,3.4,129.9,3.5,128.6,3.5z"/>
	</g>
	<g>
		<path fill="#FFFFFF" d="M143.4,2.2c1.2,0,2.3,0,3.5,0c1.5,2.3,3,4.5,4.6,6.7c-1,0-2.1,0.1-3.1,0c-0.4-0.3-0.7-0.7-1-1.1
			c-1.6,0-3.2,0-4.8,0c-0.2,0.4-0.5,0.8-0.7,1.1c-1,0-2,0-3.1,0C140.4,6.8,141.9,4.5,143.4,2.2z M143.3,6.6c1.1,0,2.3,0,3.4,0
			c-0.5-1-1.1-1.9-1.7-2.9C144.4,4.7,143.9,5.6,143.3,6.6z"/>
	</g>
	<path fill="#FFFFFF" d="M154.3,2.2c1,0,2,0,3,0c0,1,0,2,0,3c1.3-0.9,2.6-2,3.8-3c1.3,0,2.5,0,3.8,0c-1.4,1.1-2.9,2.1-4.3,3.2
		c1.5,1.2,3,2.4,4.5,3.5c-1.4-0.1-2.8,0.2-4.1-0.2c-1.3-0.9-2.4-2.1-3.7-2.9c0,1-0.1,2.1-0.1,3.1c-1,0-2,0-3,0
		C154.3,6.8,154.3,4.5,154.3,2.2z"/>
	<path fill="#FFFFFF" d="M20.5,3.5c7-0.5,14-0.6,21-0.3c2.7,0.6,5.3,1.1,8,1.6c-11.4,0.8-22.9,1.9-33.6,5.9
		c-1.4,0.5-2.8,1.3-4.2,1.7C8.4,10.7,5.2,8.8,2,7C7.9,4.7,14.3,4,20.5,3.5z"/>
	<path fill="#FFFFFF" d="M56.1,5.1c3,0,6-0.4,8.9-0.5c-3,0.8-6,1.3-9,2.1C45.8,9.2,35.5,13.1,27.4,20c-3.7-1.6-7.3-3.3-10.8-5.1
		c6.9-4,14.7-6.1,22.5-7.7C44.7,6.2,50.4,5.1,56.1,5.1z"/>
	<g>
		<path fill="#FFFFFF" d="M258.4,12c1.7,0,3.4,0,5.2,0c0,5.7,0,11.4,0,17.1c-1.6,0-3.1,0-4.7,0c0-0.7,0-1.4,0-2
			c-2.3,2.7-6.7,3-9.5,1.1c-2.8-1.9-3.4-6.2-1.3-8.8c2.5-3.1,7.4-3,10.4-0.6C258.4,16.4,258.4,14.2,258.4,12z M254,20.2
			c-1.6,0.6-2.4,2.6-1.7,4.2c0.7,1.9,3.4,2.4,4.9,1.2c1.5-1.1,1.6-3.5,0.3-4.7C256.7,20,255.2,19.9,254,20.2z"/>
	</g>
	<path fill="#FFFFFF" d="M71.5,13c2.8-0.2,5.6,0,8.4,0.6c-0.1,1.1-0.3,2.2-0.4,3.3c-3.5-1.2-7.5-1.4-10.8,0.4
		c-2.5,1.4-2.8,5.3-0.7,7.1c1.9,1.8,4.8,2,7.3,1.7c0-1.1,0-2.3,0-3.4c-1,0-2.1,0-3.1,0c0-1,0-2,0-3c2.8,0,5.5,0,8.3,0
		c0,3,0,5.9,0,8.8c-4.5,0.8-9.2,1.2-13.6-0.2c-2.2-0.8-4.4-2.3-5.2-4.6c-1-2.8-0.4-6.2,1.9-8.1C65.7,13.8,68.7,13.2,71.5,13z"/>
	<path fill="#FFFFFF" d="M136,14.5c1.7-0.4,3.3-0.8,5-1.2c0,1.3,0,2.6,0,3.9c1.2,0,2.4,0,3.7,0c0,0.9,0,1.9,0,2.8
		c-1.2,0-2.4,0-3.6,0c0.1,1.9-0.2,3.9,0.2,5.7c0.6,1.3,2.3,0.7,3.5,0.8c0.1,0.8,0.1,1.7,0.2,2.5c-2.3,0.1-4.8,0.5-7-0.4
		c-1.1-0.4-1.8-1.5-1.9-2.7c-0.2-2,0-4-0.1-6c-1,0-2,0-2.9,0c0-1,0-1.9,0-2.8c1,0,2,0,3,0C136,16.3,136,15.4,136,14.5z"/>
	<g>
		<path fill="#FFFFFF" d="M156,13.1c3,0,6.1,0,9.1,0c2,0.1,4.1,0.2,5.7,1.6c1.2,1,1.3,2.7,0.8,4.1c-0.6,1.4-2,2-3.3,2.4
			c0.7,0.5,1.4,1,1.7,1.7c1,2,1.9,4.1,2.8,6.1c-1.8,0-3.7,0-5.5,0c-0.7-1.8-1.3-3.7-2.4-5.3c-0.8-1.2-2.4-1-3.7-1.1
			c0,2.1,0,4.2,0,6.4c-1.8,0-3.5,0-5.3,0C156,23.7,156,18.4,156,13.1z M161.3,16c0,1.3,0,2.5,0,3.8c1.7,0.1,3.5,0.1,5.1-0.7
			c0.1-0.8,0.6-1.7-0.2-2.3C164.7,15.9,162.9,16.1,161.3,16z"/>
	</g>
	<path fill="#FFFFFF" d="M120.6,18.2c3-1.8,6.8-1.4,10.1-0.6c-0.1,0.9-0.3,1.8-0.4,2.8c-2-0.6-4.2-1.2-6.2-0.4
		c-0.1,0.2-0.2,0.6-0.3,0.8c2.1,1.5,5.3,0.7,7.1,2.8c1.4,1.6,0.5,4.3-1.5,5c-3.2,1.3-6.9,0.9-10.3,0.3c0.1-1,0.2-1.9,0.3-2.9
		c2.3,0.6,4.8,1.2,7.1,0.3c-0.1-0.4-0.2-0.8-0.4-1.2c-2-1.1-4.5-0.7-6.3-2.3C118.6,21.5,119,19.1,120.6,18.2z"/>
	<g>
		<path fill="#FFFFFF" d="M218.8,17.7c3.2-0.8,6.6-1.2,9.7-0.2c1.6,0.5,3,1.8,3.2,3.6c0.2,2.7-0.1,5.3,0.3,8c-1.5,0-3.1,0-4.6,0
			c-0.1-0.6-0.1-1.1-0.2-1.7c-1.1,0.9-2.2,1.8-3.7,1.9c-1.9,0.2-4,0-5.6-1.2c-1.6-1.3-1.5-4,0.3-5.1c2.6-1.6,5.9-1.4,8.9-1.3
			c-0.4-0.7-0.6-1.5-1.4-1.8c-2.3-0.7-4.8-0.2-7,0.5C218.8,19.5,218.8,18.6,218.8,17.7z M222.4,24.2c-0.7,0.3-0.9,1.1-0.6,1.8
			c1.2,1,3,0.9,4.2,0c0.7-0.5,0.9-1.4,1.2-2.2C225.6,23.7,223.9,23.4,222.4,24.2z"/>
	</g>
	<path fill="#FFFFFF" d="M94.4,17.2c1.7,0,3.4,0,5.1,0c0,4,0,7.9,0,11.9c-1.5,0-3.1,0-4.6,0c0-0.7,0-1.4,0-2
		c-1.5,1.6-3.7,2.5-5.9,2.3c-2.3,0-4.8-1.3-5.2-3.7c-0.3-2.8-0.1-5.6-0.2-8.4c1.7,0,3.4,0,5.2,0c0,2,0,4,0,6c0,0.9,0.2,1.9,1,2.4
		c1.6,0.8,4,0.1,4.4-1.8C94.6,21.7,94.3,19.4,94.4,17.2z"/>
	<g>
		<path fill="#FFFFFF" d="M104.4,18.1c2.1-1.2,4.6-1.4,6.9-1.1c1.9,0.2,3.8,1.2,4.8,2.8c0.8,1.3,1,2.9,1,4.4c-3.5,0-7,0-10.5,0
			c0.4,0.9,1,1.8,2,2c2.4,0.6,4.9,0.2,7.1-0.5c0,0.9-0.1,1.9-0.1,2.8c-3.4,0.8-7.2,1.2-10.4-0.3c-2-0.9-3.7-2.8-3.7-5.1
			C101.4,21.1,102.6,19.1,104.4,18.1z M107.9,19.8c-0.9,0.4-1.2,1.4-1.5,2.2c2,0,4.1,0,6.1,0c-0.3-0.7-0.3-1.5-0.9-1.9
			C110.5,19.3,109.1,19.3,107.9,19.8z"/>
	</g>
	<g>
		<path fill="#FFFFFF" d="M175.4,19.2c1.8-1.8,4.4-2.3,6.9-2.2c2.2,0.1,4.7,0.8,6,2.7c1,1.4,1.1,3,1.1,4.7c-3.5,0-7,0-10.5,0
			c0.4,0.9,1,1.7,2,2c2.4,0.7,4.9,0.3,7.2-0.5c0,0.9-0.1,1.9-0.1,2.8c-2.9,0.7-5.9,1-8.9,0.3c-2-0.5-4-1.7-4.8-3.6
			C173.4,23.3,173.8,20.7,175.4,19.2z M180.2,19.8c-0.9,0.4-1.1,1.4-1.4,2.2c2,0,4.1,0,6.1,0c-0.3-0.7-0.4-1.7-1.1-2.1
			C182.7,19.3,181.3,19.3,180.2,19.8z"/>
	</g>
	<path fill="#FFFFFF" d="M189.6,17.2c1.8,0,3.6,0,5.4,0c0.8,2.9,1.6,5.8,2.4,8.7c1.1-2.8,1.8-5.8,2.7-8.7c2.1,0,4.1,0,6.2,0
		c0.8,2.9,1.7,5.8,2.5,8.6c1-2.8,1.7-5.8,2.5-8.6c1.7,0,3.3,0,5,0c-1.6,3.9-3,7.9-4.6,11.9c-2,0-4,0-6,0c-0.8-2.9-1.7-5.8-2.5-8.7
		c-1.1,2.9-1.9,5.8-3,8.7c-2,0-4,0-6,0C192.7,25.1,191.2,21.1,189.6,17.2z"/>
	<path fill="#FFFFFF" d="M235.2,17.2c1.6,0,3.2,0,4.7,0c0,0.7,0,1.5,0,2.2c0.7-0.8,1.3-1.6,2.3-2c1.2-0.5,2.6-0.4,3.9-0.3
		c-0.1,1.1-0.2,2.2-0.2,3.3c-1.3,0-2.8-0.2-4,0.5c-0.9,0.5-1.4,1.6-1.5,2.6c-0.1,1.8,0,3.7,0,5.5c-1.7,0-3.4,0-5.2,0
		C235.2,25.1,235.2,21.2,235.2,17.2z"/>
	<path fill="#FFFFFF" d="M267.6,18.1c3-1.8,6.8-1.3,10-0.6c-0.1,0.9-0.3,1.9-0.4,2.8c-2-0.7-4.3-1.2-6.3-0.3c0,0.2-0.1,0.6-0.2,0.8
		c2,1.3,4.5,0.8,6.5,2.2c1.5,1,1.7,3.3,0.5,4.6c-0.9,1-2.3,1.4-3.6,1.6c-2.7,0.3-5.4,0.2-8-0.3c0.1-0.9,0.2-1.9,0.2-2.8
		c2.1,0.3,4.2,0.9,6.4,0.5c0.8-0.2,0.8-1.3,0.1-1.6c-1.9-0.9-4.4-0.7-6-2.2C265.5,21.4,266,19,267.6,18.1z"/>
	<g>
		<path fill="#FFFFFF" d="M281.5,17c1.3,0.2,3.1,0.7,3.3,2.2c0.4,1.8-1.8,3.4-3.4,2.4c-1.9-0.9-1.4-4.2,0.8-4.5
			c-1.4,0.7-1.3,2.4-0.6,3.4c0.2-0.8,0-1.6,0.1-2.4c0.8,0.2,2.1-0.2,2.1,1.2c-0.3-0.2-0.8-0.6-1.1-0.8l-0.4,0.1l-0.3,0.8
			c0.2,0,0.7,0,1,0c0.2,0.5,0.3,1.1,0.5,1.6c-0.4-0.4-0.8-0.9-1.3-1.2c0.1,0.3,0.2,1,0.2,1.4c-0.3-0.1-0.9-0.3-1.1-0.4
			c0.4,1,2,1,2.6,0.2c0.8-0.6,0.5-1.7,0.5-2.5C283.4,18,282.4,17.5,281.5,17z M280.9,20.4c0.3-0.3,0.1-1-0.1-1.3
			C280.4,19.3,280.5,20.2,280.9,20.4z"/>
	</g>
</g>
</svg>
