<svg xmlns="http://www.w3.org/2000/svg" width="196.8" height="109" viewBox="0 0 196.8 109"><path fill="#fff" d="M4.6-112.5c2.3-.6 4.5-1.4 6.9-1.8-.4.2-.8.5-1.3.7-7 3.1-13.8 6.8-19.7 11.9-4 3.5-7.3 7.7-9.7 12.4-4.6-1.4-9-3-13.5-4.8 4.1-4.4 9.2-7.9 14.7-10.4 7.3-3.5 15-5.8 22.6-8zm13.3-1.7h3.6c1.4 2.3 3 4.5 4.5 6.8-1.1 0-2.3 0-3.4-.1l-.6-1.1h-4.8c-.7 1.6-2.4 1.1-3.8 1.1 1.5-2.2 3.1-4.4 4.5-6.7zm1.5 1.8c-.6.8-1 1.7-1.5 2.6h3.4c-.7-.8-.9-2.2-1.9-2.6zm10.9-1.8h3.4l2.7 4.7 2.7-4.7h3.4c.7 2.3 1.4 4.5 2 6.8h-3.1c-.3-1.4-.6-2.8-1-4.2-1.1 1.3-1.8 2.8-2.6 4.2-1 0-1.9.1-2.9-.1-1-1.3-1.7-2.9-2.6-4.3l-1.1 4.4h-3l2.1-6.8zm16.1 0h11.1l-.3 1.5h-3.8v5.3h-3.1c-.1-1.8-.1-3.5-.1-5.3h-4.1l.3-1.5zm14 0c2.8.1 5.6-.2 8.4.3 1.1.2 2.3.9 2.1 2.2 0 1-1.1 1.3-1.8 1.8l2.2 2.5h-3.4c-.5-.7-1.1-1.4-1.6-2h-2.8v2h-3.1v-6.8zm3.1 1.3v2.2c1.1 0 2.3.1 3.4-.1.8-.1 1.4-1.3.5-1.8-1.2-.5-2.6-.3-3.9-.3zm14.9-1.3h3.5c1.5 2.3 3 4.5 4.6 6.7-1 0-2.1.1-3.1 0-.4-.3-.7-.7-1-1.1h-4.8c-.2.4-.5.8-.7 1.1h-3.1c1.5-2.1 3-4.4 4.6-6.7zm-.2 4.4h3.4c-.5-1-1.1-1.9-1.7-2.9-.5 1-1.1 1.9-1.7 2.9zm11.1-4.4h3v3c1.3-.9 2.6-2 3.8-3h3.8l-4.3 3.2c1.5 1.2 3 2.4 4.5 3.5-1.4-.1-2.8.2-4.1-.2-1.3-.9-2.4-2.1-3.7-2.9l-.1 3.1h-3c.1-2.2.1-4.4.1-6.7zm-133.8 1.3c7-.5 14-.6 21-.3 2.7.6 5.3 1.1 8 1.6-11.4.8-22.9 1.9-33.6 5.9-1.4.5-2.8 1.3-4.2 1.7-3.3-1.6-6.5-3.6-9.7-5.4 5.9-2.3 12.2-3 18.5-3.5zm35.6 1.6c3 0 6-.4 8.9-.5l-9 2.1c-10.3 2.5-20.6 6.4-28.7 13.3-3.7-1.6-7.3-3.3-10.8-5.1 6.9-4 14.7-6.1 22.5-7.7 5.6-1.1 11.3-2.1 17.1-2.1zm202.3 6.8h5.2v17.1h-4.7v-2c-2.3 2.7-6.7 3-9.5 1.1s-3.4-6.2-1.3-8.8c2.5-3.1 7.4-3 10.4-.6-.1-2.3-.1-4.5-.1-6.8zm-4.5 8.3c-1.6.6-2.4 2.6-1.7 4.2.7 1.9 3.4 2.4 4.9 1.2 1.5-1.1 1.6-3.5.3-4.7-.8-1-2.3-1-3.5-.7zm-182.4-7.2c2.8-.2 5.6 0 8.4.6l-.4 3.3c-3.5-1.2-7.5-1.4-10.8.4-2.5 1.4-2.8 5.3-.7 7.1 1.9 1.8 4.8 2 7.3 1.7v-3.4h-3.1v-3h8.3v8.8c-4.6.9-9.3 1.4-13.7-.1-2.2-.8-4.4-2.3-5.2-4.6-1-2.8-.4-6.2 1.9-8.1 2.2-1.9 5.2-2.5 8-2.7zm64.4 1.5l5-1.2v3.9h3.7v2.8h-3.6c.1 1.9-.2 3.9.2 5.7.6 1.3 2.3.7 3.5.8l.2 2.5c-2.3.1-4.8.5-7-.4-1.1-.4-1.8-1.5-1.9-2.7-.2-2 0-4-.1-6h-2.9v-2.8h3c-.1-.8-.1-1.7-.1-2.6zm20.1-1.4h9.1c2 .1 4.1.2 5.7 1.6 1.2 1 1.3 2.7.8 4.1-.6 1.4-2 2-3.3 2.4.7.5 1.4 1 1.7 1.7 1 2 1.9 4.1 2.8 6.1h-5.5c-.7-1.8-1.3-3.7-2.4-5.3-.8-1.2-2.4-1-3.7-1.1v6.4h-5.3c.1-5.3.1-10.6.1-15.9zm5.2 2.9v3.8c1.7.1 3.5.1 5.1-.7.1-.8.6-1.7-.2-2.3-1.4-.9-3.3-.7-4.9-.8zm-40.6 2.2c3-1.8 6.8-1.4 10.1-.6-.1.9-.3 1.8-.4 2.8-2-.6-4.2-1.2-6.2-.4l-.3.8c2.1 1.5 5.3.7 7.1 2.8 1.4 1.6.5 4.3-1.5 5-3.2 1.3-6.9.9-10.3.3l.3-2.9c2.3.6 4.8 1.2 7.1.3-.1-.4-.2-.8-.4-1.2-2-1.1-4.5-.7-6.3-2.3-1.3-1.3-.8-3.8.8-4.6zm98.1-.5c3.2-.8 6.6-1.2 9.7-.2 1.6.5 3 1.8 3.2 3.6.2 2.7-.1 5.3.3 8h-4.6l-.2-1.7c-1.1.9-2.2 1.8-3.7 1.9-1.9.2-4 0-5.6-1.2-1.6-1.3-1.5-4 .3-5.1 2.6-1.6 5.9-1.4 8.9-1.3-.4-.7-.6-1.5-1.4-1.8-2.3-.7-4.8-.2-7 .5.1-.9.1-1.8.1-2.7zm3.7 6.5c-.7.3-.9 1.1-.6 1.8 1.2 1 3 .9 4.2 0 .7-.5.9-1.4 1.2-2.2-1.7-.1-3.4-.4-4.8.4zm-128.1-7h5.1v11.9h-4.6v-2c-1.5 1.6-3.7 2.5-5.9 2.3-2.3 0-4.8-1.3-5.2-3.7-.3-2.8-.1-5.6-.2-8.4h5.2v6c0 .9.2 1.9 1 2.4 1.6.8 4 .1 4.4-1.8.4-2.2.2-4.5.2-6.7zm10 .9c2.1-1.2 4.6-1.4 6.9-1.1 1.9.2 3.8 1.2 4.8 2.8.8 1.3 1 2.9 1 4.4h-10.5c.4.9 1 1.8 2 2 2.4.6 4.9.2 7.1-.5l-.1 2.8c-3.4.8-7.2 1.2-10.4-.3-2-.9-3.7-2.8-3.7-5.1-.1-2 1.1-4 2.9-5zm3.6 1.7c-.9.4-1.2 1.4-1.5 2.2h6.1c-.3-.7-.3-1.5-.9-1.9-1.1-.8-2.6-.8-3.7-.3zm67.4-.6c1.8-1.8 4.4-2.3 6.9-2.2 2.2.1 4.7.8 6 2.7 1 1.4 1.1 3 1.1 4.7h-10.5c.4.9 1 1.7 2 2 2.4.7 4.9.3 7.2-.5l-.1 2.8c-2.9.7-5.9 1-8.9.3-2-.5-4-1.7-4.8-3.6-.9-2.1-.5-4.7 1.1-6.2zm4.9.6c-.9.4-1.1 1.4-1.4 2.2h6.1c-.3-.7-.4-1.7-1.1-2.1-1.2-.6-2.6-.6-3.6-.1zm9.4-2.6h5.4l2.4 8.7c1.1-2.8 1.8-5.8 2.7-8.7h6.2c.8 2.9 1.7 5.8 2.5 8.6 1-2.8 1.7-5.8 2.5-8.6h5c-1.6 3.9-3 7.9-4.6 11.9h-6l-2.5-8.7-3 8.7h-6c-1.6-4-3.1-8-4.6-11.9zm45.5 0h4.7v2.2c.7-.8 1.3-1.6 2.3-2 1.2-.5 2.6-.4 3.9-.3-.1 1.1-.2 2.2-.2 3.3-1.3 0-2.8-.2-4 .5-.9.5-1.4 1.6-1.5 2.6-.1 1.8 0 3.7 0 5.5h-5.2v-11.8zm32.5.9c3-1.8 6.8-1.3 10-.6l-.4 2.8c-2-.7-4.3-1.2-6.3-.3 0 .2-.1.6-.2.8 2 1.3 4.5.8 6.5 2.2 1.5 1 1.7 3.3.5 4.6-.9 1-2.3 1.4-3.6 1.6-2.7.3-5.4.2-8-.3.1-.9.2-1.9.2-2.8 2.1.3 4.2.9 6.4.5.8-.2.8-1.3.1-1.6-1.9-.9-4.4-.7-6-2.2-1.3-1.4-.8-3.8.8-4.7zm13.9-1.1c1.3.2 3.1.7 3.3 2.2.4 1.8-1.8 3.4-3.4 2.4-1.9-.9-1.4-4.2.8-4.5-1.4.7-1.3 2.4-.6 3.4.2-.8 0-1.6.1-2.4.8.2 2.1-.2 2.1 1.2l-1.1-.8-.4.1-.3.8h1l.5 1.6c-.4-.4-.8-.9-1.3-1.2.1.3.2 1 .2 1.4-.3-.1-.9-.3-1.1-.4.4 1 2 1 2.6.2.8-.6.5-1.7.5-2.5-1.1-.5-2-1-2.9-1.5zm-.6 3.4c.3-.3.1-1-.1-1.3-.5.2-.3 1.1.1 1.3zm-202.2 100.8c.6-1.2.7-2.6 1.4-3.8 1.3.5 2.1 1.6 3 2.7 1.6-.3 3.2-.3 4.8-.2.1 1.8-.7 3.5-1.7 4.9.6 1.3 1.5 2.6 1.2 4-.3.5-.9.3-1.4.3-1.2 0-2.4-.4-3.5-.6-.5-.1-.8.2-1.2.4-.7.4-1.3.9-2.1 1l-.4-.3c-.1-.9-.1-1.8.2-2.7.3.6.4 1.2.5 1.9 1-.3 1.7-1.2 2.5-1.8 1.3.2 2.5.9 3.9.8.1-1.1-.8-2-1.2-2.9-.2-.3-.2-.8.1-1.1.6-.8 1.4-1.6 1.3-2.7-1.3-.2-2.5.4-3.7.4-.5-.9-1-2-1.9-2.6-.5.9-.5 2-.9 3-.8.6-1.9.7-2.9.6.6-.6 1.4-.8 2-1.3zm100.9 47c.1-.4.5-.6.8-.8 2.9 6.9 5.5 13.9 8.3 20.8.6 1.5 1.2 3 2 4.4.3.7.9 1.1 1.4 1.6-.4.1-.8.2-1.2.2h-4.8c.1-.4.6-.7.6-1.2.1-.7-.2-1.5-.5-2.2-.5-1.4-1-2.8-1.6-4.1h-9.4c-.7 1.8-1.5 3.6-2.1 5.5-.1.3-.2.6-.1.9.2.3.6.6.8 1-1 .2-2.1.1-3.1.1s-1.9.1-2.9-.1c.6-.5 1.3-1.1 1.6-1.8 1.5-3.1 2.7-6.3 4.1-9.4 2.1-5 4.2-9.9 6.1-14.9zm.5 6.2l-2.3 5.8c-.5 1.3-1.1 2.6-1.4 4h7.4c-1.3-3.2-2.5-6.5-3.7-9.8zm-55.3-6.2c.4-.1.9-.2 1.3-.2h12.5c-.1 1.5.2 3-.4 4.4-.3-.5-.6-1.1-1.1-1.4-.6-.3-1.2-.3-1.8-.3h-4.4c-.6 0-1.1.1-1.7.2v9.2c1.6.1 3.1 0 4.7 0 .9 0 1.8.1 2.6-.2.4-.2.8-.5 1.2-.8v4.9c-.7-.5-1.3-1.2-2.2-1.1h-6.1v6.6c0 1.2 0 2.3.2 3.5.2.7.9 1 1.3 1.5-2.1.1-4.2 0-6.3 0 .6-.7 1.3-1.3 1.3-2.3l.1-10.7v-11.2c0-1-.6-1.6-1.2-2.1zm21.5 0c.8-.2 1.6-.2 2.4-.2 1.9 0 3.8-.1 5.7 0 1.9.2 3.8.8 5.1 2.3 1.3 1.3 1.9 3.1 1.8 4.9.2 2.4-1 4.8-2.9 6.2-.8.6-1.7 1-2.5 1.4 1.7 2.5 3.6 4.9 5.4 7.4l1.8 2.4c.6.7 1.4 1.1 2.1 1.7l-3.6.1c-.6 0-1.3.1-1.7-.5l-3.2-4.6-4.3-6h-1.6v7.7c0 .6.1 1.2.2 1.7.1.7.8 1.2 1.2 1.7-1.3.1-2.5 0-3.8 0-.7 0-1.5.1-2.2-.2.4-.4 1-.7 1.2-1.2.4-1.4.1-2.8.4-4.2v-15.6c-.2-1.3 0-2.6-.3-3.8-.2-.6-.8-.9-1.2-1.2zm4.6 2.5v10.1c1 0 2 .1 2.9-.2 1.2-.3 2.5-.9 3.2-2 1.5-2 1.3-5.2-.6-6.9-1.6-1.2-3.7-1.1-5.5-1zm50.1-2.3c1.1-.5 2.2-.4 3.4-.4 1.2 0 2.5 0 3.7.4v3.3c0 .4-.1.8-.3 1.1-.4-.6-.7-1.5-1.5-1.8-1.5-.7-3.2-.4-4.5.3-.9.5-1.5 1.4-1.8 2.4-.3 1.5.3 3 1.4 4.1l5.3 4.4c1.1 1 1.9 2.4 2.2 3.9.1 1 .1 2 0 3-.3 1.9-1.6 3.7-3.3 4.6-2.9 1.6-6.5 1.4-9.5.3 0-1.5.1-3 .3-4.5.6.6.9 1.6 1.7 2.1 1.2.6 2.6.7 3.9.5 1.5-.2 2.8-1.1 3.4-2.5.6-1.2.3-2.7-.3-3.8-.6-1.1-1.7-1.8-2.6-2.6-1.8-1.4-3.8-2.8-5-4.8-1.1-2-1.1-4.5 0-6.6.6-1.7 1.9-2.9 3.5-3.4zm15.2-.4l12.8-.1c.3 0 .8-.1 1 .2 0 1.4 0 2.8-.2 4.2-.5-.5-.7-1.3-1.5-1.5-1.3-.3-2.7-.2-4-.2-1.2 0-2.3-.1-3.5.1v8.7h6.3c.8 0 1.4-.5 2-.9v4.7c-.6-.6-1.3-1.1-2.2-1.1h-6.1v8.8c-.1.3.1.6.4.6h7.1c1 0 1.4-.9 2-1.6.1 1.5 0 3 0 4.4h-14.2l1-1.1c.4-.8.3-1.6.3-2.5.3-2.2.1-4.5.1-6.7v-10.1c0-.7 0-1.4-.1-2.1-.1-.9 0-1.8-.3-2.6-.1-.5-.6-.8-.9-1.2zm22.4.2c1.2-.3 2.5-.1 3.8-.2 2.2 0 4.5-.2 6.6.5 1.9.6 3.5 2.1 4.1 4 .5 1.3.4 2.7.4 4.1-.3 1.8-1.3 3.6-2.8 4.7-.8.6-1.7 1.1-2.6 1.5 2 2.8 4 5.5 6 8.2l1.2 1.6c.6.6 1.3 1.1 2 1.7l-3.6.1c-.4 0-.8 0-1.2-.1-.6-.4-.9-1.1-1.3-1.6-2-2.9-4-5.7-6-8.5-.3-.3-.5-.8-1-.7-.4 0-.8.1-1.3.2v4c.3 1.8-.1 3.7.3 5.4.2.7.7 1.1 1.1 1.5-1.2.1-2.4 0-3.6 0-.8 0-1.6.1-2.4-.2.4-.3.9-.6 1.1-1 .3-1 .4-2 .4-3v-5.7c.2-1.2.1-2.5.1-3.7 0-1.2.1-2.4-.1-3.5l-.1-6.6c-.1-.6-.1-1.2-.4-1.7 0-.5-.4-.7-.7-1zm4.6 2.5v10.1c1.9.1 4.1-.1 5.5-1.6 2-1.9 2.1-5.5 0-7.4-1.5-1.3-3.6-1.3-5.5-1.1zm-139-32.3c.9.4 1.5 1.2 2.1 2 2.4 3.2 3.8 7.2 4 11.2.2 2.1-.2 4.3-.6 6.4-.5 2.3-1.3 4.6-2.5 6.7-.5.7-.9 1.6-1.8 1.8-.1-.8 0-1.6.2-2.4 1-4 1.7-8.1 1.6-12.2-.1-3.9-.9-7.8-2.4-11.4-.3-.8-.7-1.4-.6-2.1zm-33.6 7.5c.2-.9.4-1.8 1-2.5.4 1 .2 2.1.4 3.2.7 5.3 2.9 10.3 5.3 14.9 2.4 4.4 5.2 8.7 8.8 12.2 1 .9 2.1 1.7 2.9 2.8-.1 0-.4.1-.6.2-1-.2-1.9-.7-2.8-1.2-4.3-2.5-7.9-6.3-10.4-10.6-1.9-3.4-3.5-7-4.3-10.8-.2-1.4-.6-2.8-.6-4.3.1-1.3 0-2.6.3-3.9zm14.3 5.4c.9-1.2 2.4-1.6 3.8-1.7 2.4-.2 4.9.7 6.4 2.5 1 1.3 1.7 3 1.6 4.7.1 2.3-1 4.6-2.8 6-.3.3-.8.4-1.2.6.6-1.4 1.6-2.7 1.7-4.3 0-1.1.1-2.2-.3-3.3-.6-1.4-1.5-2.8-2.9-3.6-1.5-.9-3.3-1.2-5-.9h-1.3zm19.9 24.7c-.2-1.3-.6-2.7-.4-4 .9.5 1.3 1.4 1.7 2.3 1.2 2.8 1.8 5.8 2.1 8.8 0 1.4.3 2.8.2 4.3.1 8.6-2.5 17-6.5 24.5-1.6 3-3.5 5.9-5.8 8.4-1.1 1-2.1 2.3-3.6 2.7 0-.5.1-.9.4-1.3 1.9-2.9 3.7-6 5.2-9.2 1.7-3.5 3.1-7.2 4.4-10.9 2.8-8.1 3.8-17 2.3-25.6zm-13.8 22.3c.3-.4.7-.7 1.1-1 0 1-.4 1.9-.7 2.9-1.2 2.9-3 5.5-5.1 7.7-3.9 4-9.2 6.7-14.7 7.8-.9 0-1.8.3-2.6-.2 1.1-.8 2.4-1.2 3.6-1.8 6.1-2.9 11.2-7.4 15.8-12.3.9-1 1.8-2.1 2.6-3.1zm62.9 1.5c.4 0 1.1-.6 1.4 0l-1.3 6.2 1.2-.3c-.5.6-1.2 1.2-2 1.2 0-.4 0-.8.1-1.2l1-4.7c.1-.4-.1-.8-.4-1.2zm23.3.2c.5-.2 1-.3 1.5-.4.1.1.2.2.2.3l-1.2 5.9c.1.3.3.5.4.7l-1.2.6c-.2-.5-.1-1.1-.1-1.6-.7.7-1.4 1.6-2.5 1.5-.7-1.6.1-3.6 1.7-4.4.5-.3 1.1-.3 1.6-.3l.3-1.8c-.2-.2-.4-.4-.7-.5zm-1.2 3c-.8.8-1.1 2.1-.9 3.2 1.4-.5 2.3-2 2.5-3.5-.6.1-1.3-.1-1.6.3zm39.2-3c.5-.2 1-.3 1.6-.5.1 1.4-.5 2.7-.6 4.1.8-.6 1.5-1.3 2.5-1.4.5 1.1-.3 2.2-.3 3.3-.1.4.1.7.3 1-.4.2-.7.4-1.1.5-.3-.3-.2-.7-.1-1.1.2-.9.5-1.7.6-2.6-.1-.1-.2-.2-.2-.3-1 .5-1.9 1.4-2.1 2.5-.1.4-.2.8-.2 1.2l-.7.3c0-1 .3-1.9.4-2.8.2-1.2.5-2.4.7-3.7-.4-.2-.6-.4-.8-.5zm14.2-.2c.4-.3.9-.2 1.3-.2.1.2.2.5.4.7-.5.1-1.1-.1-1.6-.2-.4.7-.6 1.5-.7 2.3.4 0 .8 0 1.2.1-.4.2-.9.4-1.3.5-.3 1.6-.5 3.3-1.1 4.9-.3.8-1 1.5-1.9 1.4 0-.2 0-.4-.1-.6h1c.3-.3.4-.8.5-1.2.3-1.4.5-2.9.7-4.3l-.9-.3 1-.3c.1-1.3.6-2.3 1.5-2.8zm-83.9.8c.1-.3.2-.7.5-.9.2.1.4.1.6.3 0 .3-.1.6-.2.9-.3-.1-.7 0-.9-.3zm61.9-.3l.6-.6c.1.1.4.2.6.3l-.1.8-.8.1c0-.2-.2-.4-.3-.6zm-81.1-.1c.8-.4 1.6-.2 2.4 0v1.8l-.5-1c-.3-.7-1.3-.6-1.8-.2-.4.3-.3.9-.2 1.3.6.9 1.8 1.1 2.2 2.1.6 1.1-.3 2.5-1.4 2.8-.8.3-1.7 0-2.5-.4 0-.5 0-1.1.1-1.6.4.6.7 1.7 1.7 1.6.5.1 1-.2 1.3-.6.1-.6.2-1.3-.3-1.7-.6-.5-1.4-.8-1.8-1.6-.6-1-.1-2.1.8-2.5zm69.8-.1h3.1c.7.1 1.5.5 1.5 1.3.1.8-.7 1.3-1.3 1.7.4.3.9.7 1.1 1.2.2 1-.5 2-1.4 2.2-1.3.4-2.8.3-4.2.3.4-.3 1.1-.5 1.2-1.1.4-1.6.6-3.3 1-5-.4-.1-.7-.3-1-.6zm1.9.6c-.2.7-.3 1.5-.5 2.3.5 0 1.2.1 1.6-.2.3-.2.6-.4.6-.8s.1-.9-.2-1.1c-.4-.4-1.1-.6-1.5-.2zm-.6 2.7c-.2.9-.5 1.9-.4 2.9.4.1.8.1 1.2 0 1.2-.1 1.9-1.9.9-2.6-.5-.4-1.1-.2-1.7-.3zm-9.9-.5c0-.7.1-1.3.5-1.9.4.6.8 1.2 1.1 1.8.6-.1 1.3-.2 2-.2.1.7-.4 1.2-.8 1.7.3.6.7 1.2.9 1.9-.9.2-1.6-.7-2.4-.8-.5.4-1 .9-1.6 1.3-.1-.7 0-1.5.2-2.2-.5-.3-1.1-.6-1.5-1.1.4-.3 1-.4 1.6-.5zm33.8-.6c.3-.5.6-1 1.1-1.3 0 .5 0 .9-.2 1.4.4 0 .9.1 1.3.3-.5.1-.9.3-1.4.3-.2 1-.4 1.9-.6 2.8.2.2.4.4.7.5l-1.3.6c-.1-.4-.3-.7-.2-1.1.2-.9.4-1.9.7-2.8l-.9-.4c.2 0 .5-.1.8-.3zm15.9.1c.2-.6.6-1 1.1-1.3l-.3 1.4c.4 0 .9 0 1.3.1-.5.3-1 .4-1.5.5-.1 1.1-.4 2.1-.6 3.1l1.4-.6c-.5.7-1.2 1.3-2.1 1.4-.2-1.3.3-2.6.6-3.9l-.9-.4c.4-.1.7-.2 1-.3zm-107.3.7c.6-.5 1.1-1 1.6-1.6.1.2.3.4.4.7.7-.1 1.6-.1 2 .6.5 1.2-.2 2.6-1.2 3.4-.6.5-1.3.6-2 .8l-.3 1.5 1 .5c-.9.1-1.7.1-2.6.1.3-.3.8-.5.9-1 .4-1.7.7-3.4 1-5h-.8zm1.7-.4c-.3 1.2-.6 2.3-.7 3.5l.7.3c1.1-.6 1.8-2.1 1.4-3.3-.2-.6-.9-.4-1.4-.5zm30.2.2c.5-.4 1.1-.7 1.7-.8.2 1.3-.4 2.4-.6 3.7h.9c-.5.6-1.1 1-1.8 1.2-.1-1.4.5-2.7.8-4-.4 0-.7 0-1-.1zm72.2-.4l.9-.3-.8 3.8c.3-.1.7-.2 1-.2-.5.6-1.1 1-1.8 1.2 0-.5 0-1.1.1-1.6-.8.6-1.4 1.7-2.5 1.6-.2-1.2.2-2.4.5-3.6-.3 0-.7 0-1 .1.5-.4 1-.9 1.6-1.1l.3.3c-.1 1.3-.7 2.5-.6 3.9 1.2-1.1 2.2-2.5 2.3-4.1zm5.9.8c.5-.5 1.1-1 1.8-1.2l-.6 4.1c1.1-.6 2-1.7 2.3-3l.2-.9h.8c-.3 1.2-.5 2.4-.8 3.5l.8.3c-.5.3-.9.6-1.4.7-.5-.4 0-1.2 0-1.7-.8.7-1.5 1.8-2.7 1.7-.2-1.2.3-2.4.6-3.6-.3.1-.7.1-1 .1zm11.8-.9c.4-.3.9-.3 1.4-.2.5.2.5.8.4 1.2-.6.8-1.7 1.1-2.6 1.5-.1.4.1.8.2 1.2.8.1 1.5-.2 2.2-.5-.5.8-1.5 1.4-2.4 1.2-.5 0-.7-.5-.8-.8-.4-1.4.3-2.9 1.6-3.6zm.2.4c-.6.3-.8 1-1 1.7.5-.1 1.1-.3 1.5-.7.2-.3.1-.6.2-.9-.3-.1-.5-.2-.7-.1zm-116.1.9c.5-.8 1.4-1.5 2.4-1.5.6 0 1 .8.6 1.2-.5.7-1.3 1.2-2.2 1.1.5-.4 1.1-.8 1.5-1.3-.1-.2-.2-.5-.3-.6-.4.1-.9.3-1.1.7-.4.5-.1 1.1-.3 1.6-.2.4 0 .8 0 1.2.4 0 .8.1 1.2 0 .4-.2.8-.4 1.2-.5-.5.9-1.5 1.4-2.5 1.3-.4 0-.6-.3-.8-.6-.2-.9-.2-1.8.3-2.6zm4.1 2.5c-.4-1.7.7-3.7 2.5-4 .4-.1.8.2 1.1.5-.2.2-.4.4-.6.5-.4-.1-.7-.4-1.2-.4-1 .8-1.3 2.3-.9 3.4.7.1 1.4-.3 2.1-.5-.5.9-1.6 1.5-2.6 1.2l-.4-.7zm4.3-2.9c.5-.5 1.1-.9 1.8-1.1.1.1.2.2.2.3l-.7 3c-.1.4.1.7.3 1l-1.2.6c-.1-1.3.4-2.5.6-3.7-.3-.1-.6-.1-1-.1zm3.7.9c.5-1.4 2.3-2.3 3.7-1.8l-.6 3.7c.3-.1.7-.2 1-.2-.5.6-1.1 1-1.8 1.2v-1.6c-.7.7-1.4 1.6-2.5 1.5-.2-1-.2-2 .2-2.8zm1.4-1.1c-.6.9-1.1 2.1-.7 3.1 1.2-.7 2.2-2 2.1-3.5-.4.1-1.1-.1-1.4.4zm9.9.1c.5-.4 1-.8 1.6-1.1.1.7.3 1.4.2 2-.5.8-.7 1.6-.8 2.5l-.8.3c.1-1.3.5-2.5.8-3.8-.4.1-.7.1-1 .1zm6 3.3c-.7-1.7.4-3.9 2.2-4.2.5-.1.8.2 1.2.4 0 1.5-1.7 1.8-2.7 2.3 0 .4 0 .8.2 1.2.8.2 1.5-.3 2.2-.5-.5.6-1.2 1.2-2 1.3-.3-.1-.9-.1-1.1-.5zm.9-2.1c.8-.2 1.9-.7 1.7-1.7-1.1-.2-1.7.9-1.7 1.7zm5.2-2c.5-.3 1.2-.2 1.7 0v1c-.6.9-1.7 1.1-2.7 1.5.1.4.2.8.2 1.2.9.3 1.6-.3 2.4-.5-.6.8-1.5 1.4-2.5 1.3-.6 0-.9-.6-1-1 0-1.4.6-2.9 1.9-3.5zm-.8 1.8c.1.1.2.2.3.2.7-.1 1.2-.6 1.6-1.1-.1-.1-.2-.4-.3-.6-.9-.1-1.3.8-1.6 1.5zm9.6-.1c-.1-.9.6-1.6 1.4-1.9.4-.1.8.1 1.2.3l-.3.7-1.1-.5-.4.4v.5c.6.5 1.6.9 1.4 1.9-.2.6-.7 1.1-1.2 1.3-.5.1-1 0-1.4-.1v-.9c.4.2.9.4 1.3.5.5 0 .8-.5.6-.9-.4-.5-1-.8-1.5-1.3zm22-1c.4-.4.9-.7 1.4-.9 0 .4 0 .7.1 1.1.4-.4.7-.7 1.1-1l.7.2-.1.7c-.4.1-1-.2-1.3.2-.7.9-.9 2.1-1 3.3l-.9.3c.2-1.2.4-2.4.8-3.6-.3-.2-.5-.2-.8-.3zm4.2.3c.5-.5 1.1-1.2 1.9-1.2-.1 1.2-.5 2.4-.8 3.6l1.1-.1c-.6.5-1.2 1-1.9 1.3-.2-1.3.5-2.6.7-3.9l-1 .3zm3.5 1c-.1-1.3 1.4-2.6 2.7-2.1.5.1 1 .1 1.5.1l-.8.6c-.2.5-.1 1.2-.5 1.6-.5.6-1.2.8-1.9 1.2.6.5 1.4.9 1.9 1.4.3.2.3.7.1 1-.5.7-1.3.9-2.1 1.1-.7 0-1.4-.2-1.8-.8-.2-.9.8-1.3 1.4-1.7v-1.2c-.2-.4-.5-.7-.5-1.2zm1.4-1.6c-.6.5-.6 1.4-.5 2.1.2.2.6.2.8.3.3-.3.6-.7.7-1.1.1-.5 0-.9-.2-1.4-.2 0-.5 0-.8.1zm-.7 4.2c-.4.3-.9.7-.7 1.3.5.5 1.2.6 1.9.4.3-.2.4-.5.6-.8-.4-.3-1-1.1-1.8-.9zm35.6-4.1l1-.7.4.3c0 .3 0 .6-.1.9.4-.5.8-1.3 1.6-1.1.1.3.1.6.1.9-.4 0-.7 0-1.1.1-1 .9-1 2.3-1.3 3.5l-.7.3c0-1.2.4-2.3.6-3.5-.1-.3-.3-.5-.5-.7zm9.4-.3c.5-.3 1.2-.6 1.7-.1.1.3 0 .5-.2.7-.5-.2-.9-.3-1.3-.5l-.2-.1zm-.3.2c.1 0 .2.1.2.1.1.3.1.5.1.8.4.3 1 .6 1.3 1.1.1.6 0 1.3-.6 1.7-.5.5-1.2.4-1.9.3l-.3-.8c.7-.5 1.4.7 2.1.1 0-.3 0-.6-.1-.8l-1.2-1.1c-.1-.5 0-1.1.4-1.4z"/></svg>