<svg xmlns="http://www.w3.org/2000/svg" width="287.3" height="31.9" viewBox="0 0 287.3 31.9"><path fill="#fff" d="M69.7 3.9c2.3-.6 4.5-1.4 6.9-1.8-.4.2-.8.5-1.3.7-7 3.1-13.8 6.8-19.7 11.9-4 3.5-7.3 7.7-9.7 12.4-4.6-1.4-9-3-13.5-4.8 4.1-4.4 9.2-7.9 14.7-10.4 7.3-3.5 14.9-5.8 22.6-8zm13.3-1.6h3.6c1.4 2.3 3 4.5 4.5 6.8-1.1 0-2.3 0-3.4-.1l-.6-1.1h-4.8c-.7 1.5-2.5 1.1-3.8 1.1 1.4-2.3 3-4.5 4.5-6.7zm1.5 1.7c-.6.8-1 1.7-1.5 2.6h3.4c-.7-.8-1-2.2-1.9-2.6zm10.9-1.8h3.4l2.7 4.7 2.7-4.7h3.4c.7 2.3 1.4 4.5 2 6.8h-3.1c-.3-1.4-.6-2.8-1-4.2-1.1 1.3-1.8 2.8-2.6 4.2-1 0-1.9.1-2.9-.1-1-1.3-1.7-2.9-2.6-4.3l-1.1 4.4h-3c.7-2.2 1.3-4.5 2.1-6.8zm16.1 0h11.1l-.3 1.5h-3.8v5.3h-3.1c-.1-1.8-.1-3.5-.1-5.3h-4.1c.1-.4.2-1 .3-1.5zm13.9 0c2.8.1 5.6-.2 8.4.3 1.1.2 2.3.9 2.1 2.2 0 1-1.1 1.3-1.8 1.8l2.2 2.5h-3.4c-.5-.7-1.1-1.4-1.6-2h-2.8v2h-3.1c.1-2.2.1-4.5 0-6.8zm3.2 1.3v2.2c1.1 0 2.3.1 3.4-.1.8-.1 1.4-1.3.5-1.8-1.2-.4-2.6-.3-3.9-.3zm14.8-1.3h3.5c1.5 2.3 3 4.5 4.6 6.7-1 0-2.1.1-3.1 0-.4-.3-.7-.7-1-1.1h-4.8c-.2.4-.5.8-.7 1.1h-3.1c1.6-2.1 3.1-4.4 4.6-6.7zm-.1 4.4h3.4c-.5-1-1.1-1.9-1.7-2.9l-1.7 2.9zm11-4.4h3v3c1.3-.9 2.6-2 3.8-3h3.8l-4.3 3.2c1.5 1.2 3 2.4 4.5 3.5-1.4-.1-2.8.2-4.1-.2-1.3-.9-2.4-2.1-3.7-2.9l-.1 3.1h-3c.1-2.1.1-4.4.1-6.7zm-133.8 1.3c7-.5 14-.6 21-.3 2.7.6 5.3 1.1 8 1.6-11.4.8-22.9 1.9-33.6 5.9-1.4.5-2.8 1.3-4.2 1.7-3.3-1.7-6.5-3.6-9.7-5.4 5.9-2.3 12.3-3 18.5-3.5zm35.6 1.6c3 0 6-.4 8.9-.5l-9 2.1c-10.2 2.5-20.5 6.4-28.6 13.3-3.7-1.6-7.3-3.3-10.8-5.1 6.9-4 14.7-6.1 22.5-7.7 5.6-1 11.3-2.1 17-2.1zm202.3 6.9h5.2v17.1h-4.7v-2c-2.3 2.7-6.7 3-9.5 1.1s-3.4-6.2-1.3-8.8c2.5-3.1 7.4-3 10.4-.6-.1-2.4-.1-4.6-.1-6.8zm-4.4 8.2c-1.6.6-2.4 2.6-1.7 4.2.7 1.9 3.4 2.4 4.9 1.2 1.5-1.1 1.6-3.5.3-4.7-.8-.9-2.3-1-3.5-.7zm-182.5-7.2c2.8-.2 5.6 0 8.4.6l-.4 3.3c-3.5-1.2-7.5-1.4-10.8.4-2.5 1.4-2.8 5.3-.7 7.1 1.9 1.8 4.8 2 7.3 1.7v-3.4h-3.1v-3h8.3v8.8c-4.5.8-9.2 1.2-13.6-.2-2.2-.8-4.4-2.3-5.2-4.6-1-2.8-.4-6.2 1.9-8.1 2.1-1.8 5.1-2.4 7.9-2.6zm64.5 1.5l5-1.2v3.9h3.7v2.8h-3.6c.1 1.9-.2 3.9.2 5.7.6 1.3 2.3.7 3.5.8l.2 2.5c-2.3.1-4.8.5-7-.4-1.1-.4-1.8-1.5-1.9-2.7-.2-2 0-4-.1-6h-2.9v-2.8h3c-.1-.8-.1-1.7-.1-2.6zm20-1.4h9.1c2 .1 4.1.2 5.7 1.6 1.2 1 1.3 2.7.8 4.1-.6 1.4-2 2-3.3 2.4.7.5 1.4 1 1.7 1.7 1 2 1.9 4.1 2.8 6.1h-5.5c-.7-1.8-1.3-3.7-2.4-5.3-.8-1.2-2.4-1-3.7-1.1v6.4h-5.3c.1-5.3.1-10.6.1-15.9zm5.3 2.9v3.8c1.7.1 3.5.1 5.1-.7.1-.8.6-1.7-.2-2.3-1.5-.9-3.3-.7-4.9-.8zm-40.7 2.2c3-1.8 6.8-1.4 10.1-.6-.1.9-.3 1.8-.4 2.8-2-.6-4.2-1.2-6.2-.4l-.3.8c2.1 1.5 5.3.7 7.1 2.8 1.4 1.6.5 4.3-1.5 5-3.2 1.3-6.9.9-10.3.3l.3-2.9c2.3.6 4.8 1.2 7.1.3-.1-.4-.2-.8-.4-1.2-2-1.1-4.5-.7-6.3-2.3-1.2-1.3-.8-3.7.8-4.6zm98.2-.5c3.2-.8 6.6-1.2 9.7-.2 1.6.5 3 1.8 3.2 3.6.2 2.7-.1 5.3.3 8h-4.6l-.2-1.7c-1.1.9-2.2 1.8-3.7 1.9-1.9.2-4 0-5.6-1.2-1.6-1.3-1.5-4 .3-5.1 2.6-1.6 5.9-1.4 8.9-1.3-.4-.7-.6-1.5-1.4-1.8-2.3-.7-4.8-.2-7 .5.1-.9.1-1.8.1-2.7zm3.6 6.5c-.7.3-.9 1.1-.6 1.8 1.2 1 3 .9 4.2 0 .7-.5.9-1.4 1.2-2.2-1.6-.1-3.3-.4-4.8.4zm-128-7h5.1v11.9h-4.6v-2c-1.5 1.6-3.7 2.5-5.9 2.3-2.3 0-4.8-1.3-5.2-3.7-.3-2.8-.1-5.6-.2-8.4h5.2v6c0 .9.2 1.9 1 2.4 1.6.8 4 .1 4.4-1.8.4-2.2.1-4.5.2-6.7zm10 .9c2.1-1.2 4.6-1.4 6.9-1.1 1.9.2 3.8 1.2 4.8 2.8.8 1.3 1 2.9 1 4.4h-10.5c.4.9 1 1.8 2 2 2.4.6 4.9.2 7.1-.5l-.1 2.8c-3.4.8-7.2 1.2-10.4-.3-2-.9-3.7-2.8-3.7-5.1-.1-2 1.1-4 2.9-5zm3.5 1.7c-.9.4-1.2 1.4-1.5 2.2h6.1c-.3-.7-.3-1.5-.9-1.9-1.1-.8-2.5-.8-3.7-.3zm67.5-.6c1.8-1.8 4.4-2.3 6.9-2.2 2.2.1 4.7.8 6 2.7 1 1.4 1.1 3 1.1 4.7h-10.5c.4.9 1 1.7 2 2 2.4.7 4.9.3 7.2-.5l-.1 2.8c-2.9.7-5.9 1-8.9.3-2-.5-4-1.7-4.8-3.6-.9-2.1-.5-4.7 1.1-6.2zm4.8.6c-.9.4-1.1 1.4-1.4 2.2h6.1c-.3-.7-.4-1.7-1.1-2.1-1.1-.6-2.5-.6-3.6-.1zm9.4-2.6h5.4l2.4 8.7c1.1-2.8 1.8-5.8 2.7-8.7h6.2c.8 2.9 1.7 5.8 2.5 8.6 1-2.8 1.7-5.8 2.5-8.6h5c-1.6 3.9-3 7.9-4.6 11.9h-6l-2.5-8.7-3 8.7h-6c-1.5-4-3-8-4.6-11.9zm45.6 0h4.7v2.2c.7-.8 1.3-1.6 2.3-2 1.2-.5 2.6-.4 3.9-.3-.1 1.1-.2 2.2-.2 3.3-1.3 0-2.8-.2-4 .5-.9.5-1.4 1.6-1.5 2.6-.1 1.8 0 3.7 0 5.5h-5.2v-11.8zm32.4.9c3-1.8 6.8-1.3 10-.6l-.4 2.8c-2-.7-4.3-1.2-6.3-.3 0 .2-.1.6-.2.8 2 1.3 4.5.8 6.5 2.2 1.5 1 1.7 3.3.5 4.6-.9 1-2.3 1.4-3.6 1.6-2.7.3-5.4.2-8-.3.1-.9.2-1.9.2-2.8 2.1.3 4.2.9 6.4.5.8-.2.8-1.3.1-1.6-1.9-.9-4.4-.7-6-2.2-1.3-1.4-.8-3.8.8-4.7zm13.9-1.1c1.3.2 3.1.7 3.3 2.2.4 1.8-1.8 3.4-3.4 2.4-1.9-.9-1.4-4.2.8-4.5-1.4.7-1.3 2.4-.6 3.4.2-.8 0-1.6.1-2.4.8.2 2.1-.2 2.1 1.2l-1.1-.8-.4.1-.3.8h1l.5 1.6c-.4-.4-.8-.9-1.3-1.2.1.3.2 1 .2 1.4-.3-.1-.9-.3-1.1-.4.4 1 2 1 2.6.2.8-.6.5-1.7.5-2.5-1-.5-2-1-2.9-1.5zm-.6 3.4c.3-.3.1-1-.1-1.3-.4.2-.3 1.1.1 1.3z"/></svg>