<svg xmlns="http://www.w3.org/2000/svg" width="221.2" height="89.7" viewBox="0 0 221.2 89.7"><path fill="#fff" d="M36.3 43.5v5h8v3.6h-8v5.5h9v3.6h-13.1v-21.2h12.7v3.5zm27.5-3.5h4.1v21.3h-4.1zm22.6 0h2.9l11.9 13.8v-13.8h4.1v21.2h-2.9l-11.9-13.9v13.9h-4.1zm39.2 10.5c0 4.2 3.1 7.3 7.3 7.3 2 0 3.5-.7 4.7-1.7v-3.3h-5.5v-3.6h9.6v8.3c-1.9 2.4-5.1 4.1-8.9 4.1-6.6 0-11.3-4.9-11.3-10.9 0-6.1 4.6-10.9 11.3-10.9 3.1 0 5.8 1.2 7.8 3.1l-2.7 2.9c-1.2-1.2-3.1-2.2-5.2-2.2-4.1-.4-7.1 2.9-7.1 6.9m-29.7-48.6c6.6 0 11.1 4.9 11.1 10.9s-4.5 10.9-11.1 10.9-11.1-4.9-11.1-10.9 4.5-10.9 11.1-10.9m0 18.2c4 0 7-3.3 7-7.3s-3-7.3-7-7.3-7 3.3-7 7.3 2.9 7.3 7 7.3m-83.1 29.2s-.1-.1-.2-.1c1.3-1 2.2-2.4 2.2-4.2 0-2.9-2.3-5-5-5h-9.6v21.3h8.3c2.8 0 4.4-.7 5.5-1.9 1.2-1.2 2-2.9 2-4.6 0-2.4-1.3-4.6-3.2-5.5m-8.5-5.8h3.9c1.2 0 1.9.3 2.3.8.4.4.7 1 .7 1.4 0 .6-.2 1.1-.7 1.4-.5.5-1 .9-2.3.9h-3.9v-4.5zm6.8 13.2c-.6.6-1.3 1-2.8 1h-4v-5.7h4.1c1.4 0 2.2.4 2.8 1 .4.6.8 1.2.8 2-.1.3-.3 1.1-.9 1.7"/><path fill="#fff" d="M194.5 80.4v2.2h3.4v1.6h-3.4v2.2h3.9v1.5h-5.7v-9h5.4v1.5zm-108.1-12.4h.8l.9 2.6.9-2.6h.5l.9 2.6.9-2.6h.8l-1.4 4h-.5l-1-2.5-.9 2.5h-.4zm7.1 0h.8v4.1h-.8zm5.6 0v.7h-1.1v3.3h-.8v-3.3h-1.1v-.7zm4.7 2.2h-2.1v1.8h-.9v-4h.9v1.6h2.1v-1.6h.7v4h-.7zm5.8 8.7h1.8v9h-1.8zm7.7 6.7c.6.6 1.3 1 2.1 1s1.3-.4 1.3-1.1c0-1.2-1.7-1.3-2.9-2-.7-.4-1.2-1-1.2-2 0-1.7 1.4-2.5 3-2.5 1 0 1.8.2 2.5.9l-1 1.2c-.4-.3-1-.7-1.5-.7-.7 0-1.4.3-1.4 1 0 1.4 4.2 1 4.2 4.1 0 1.5-1.4 2.6-3.1 2.6-1.2 0-2.3-.4-3.3-1.3l1.3-1.2zm15.8-6.7v1.5h-2.4v7.5h-1.7v-7.5h-2.4v-1.5zm2.8 9l3.9-9h1.2l3.9 9h-1.8l-.9-2h-3.6l-.9 2h-1.8zm3.3-3.5h2.3l-1.2-2.6-1.1 2.6zm21.5-5.5v1.5h-2.3v7.5h-1.8v-7.5h-2.4v-1.5zm4.5 0h1.8v9h-1.8zm8.5 5.4v3.6h-1.7v-9h3.4c1.2 0 1.8.3 2.3.8.4.4.7 1.2.7 1.9s-.2 1.4-.7 1.9c-.4.6-1.2.8-2.3.8h-1.7zm1.6-1.6c.7 0 .9-.1 1.1-.4.1-.2.3-.4.3-.8 0-.3-.1-.6-.3-.8-.2-.2-.4-.4-1.1-.4h-1.5v2.3l1.5.1zm8.8 1.6v3.6h-1.8v-9h3.4c1.2 0 1.9.3 2.3.8.4.4.7 1.2.7 1.9s-.2 1.4-.7 1.9c-.4.6-1.2.8-2.3.8h-1.6zm1.6-1.6c.7 0 .9-.1 1.1-.4.1-.2.3-.4.3-.8 0-.3-.1-.6-.3-.8-.2-.2-.4-.4-1.1-.4h-1.5v2.3l1.5.1zm23.4-3.8v1.5h-2.5v7.5h-1.7v-7.5h-2.4v-1.5zm10.3 0v1.5h-2.4v7.5h-1.6v-7.5h-2.4v-1.5zm-125.7 0h-2.3l-2.9 3.6v-3.6h-1.7v9h1.7v-2.6l.6-.8 2.4 3.4h2l-3.2-5zm11.3 9l-1.8-3.9c.3-.1.6-.3.8-.6.4-.4.7-1.2.7-1.9s-.2-1.4-.7-1.9c-.4-.6-1.2-.8-2.3-.8h-3.4v9.2h1.8v-3.9h1.4l1.7 3.6h1.9v.2zm-5-7.5h1.5c.7 0 .9.1 1.1.4.1.2.3.4.3.8 0 .3-.1.6-.3.8-.2.2-.4.4-1.1.4h-1.5v-2.4z"/></svg>