<?xml version="1.0" encoding="utf-8"?>
<!-- Generator: Adobe Illustrator 16.0.0, SVG Export Plug-In . SVG Version: 6.00 Build 0)  -->
<!DOCTYPE svg PUBLIC "-//W3C//DTD SVG 1.1//EN" "http://www.w3.org/Graphics/SVG/1.1/DTD/svg11.dtd">
<svg version="1.1" id="Layer_1" xmlns="http://www.w3.org/2000/svg" xmlns:xlink="http://www.w3.org/1999/xlink" x="0px" y="0px"
	 width="210.3px" height="45.3px" viewBox="0 0 210.3 45.3" enable-background="new 0 0 210.3 45.3" xml:space="preserve">
<g>
	<path fill="#FFFFFF" d="M-6.9-137.9c2.3-0.6,4.5-1.4,6.9-1.8c-0.4,0.2-0.8,0.5-1.3,0.7c-7,3.1-13.8,6.8-19.7,11.9
		c-4,3.5-7.3,7.7-9.7,12.4c-4.6-1.4-9-3-13.5-4.8c4.1-4.4,9.2-7.9,14.7-10.4C-22.1-133.4-14.5-135.7-6.9-137.9z"/>
	<g>
		<path fill="#FFFFFF" d="M6.4-139.5c1.2,0,2.4,0,3.6,0c1.4,2.3,3,4.5,4.5,6.8c-1.1,0-2.3,0-3.4-0.1c-0.2-0.4-0.4-0.7-0.6-1.1
			c-1.6,0-3.2,0-4.8,0c-0.7,1.6-2.4,1.1-3.8,1.1C3.4-135.1,5-137.3,6.4-139.5z M7.9-137.8c-0.6,0.8-1,1.7-1.5,2.6c1.1,0,2.3,0,3.4,0
			C9.1-136,8.9-137.4,7.9-137.8z"/>
	</g>
	<path fill="#FFFFFF" d="M18.8-139.6c1.1,0,2.3,0,3.4,0c0.9,1.6,1.8,3.1,2.7,4.7c0.9-1.6,1.8-3.1,2.7-4.7c1.1,0,2.2,0,3.4,0
		c0.7,2.3,1.4,4.5,2,6.8c-1,0-2,0-3.1,0c-0.3-1.4-0.6-2.8-1-4.2c-1.1,1.3-1.8,2.8-2.6,4.2c-1,0-1.9,0.1-2.9-0.1
		c-1-1.3-1.7-2.9-2.6-4.3c-0.4,1.5-0.7,2.9-1.1,4.4c-1,0-2,0-3,0C17.4-135.1,18.1-137.3,18.8-139.6z"/>
	<path fill="#FFFFFF" d="M34.9-139.6c3.7,0,7.4,0,11.1,0c-0.1,0.5-0.2,1-0.3,1.5c-1.3,0-2.5,0-3.8,0c0,1.8,0,3.5,0,5.3
		c-1,0-2.1,0-3.1,0c-0.1-1.8-0.1-3.5-0.1-5.3c-1.4,0-2.7,0-4.1,0C34.7-138.6,34.8-139.1,34.9-139.6z"/>
	<g>
		<path fill="#FFFFFF" d="M48.9-139.6c2.8,0.1,5.6-0.2,8.4,0.3c1.1,0.2,2.3,0.9,2.1,2.2c0,1-1.1,1.3-1.8,1.8
			c0.7,0.8,1.5,1.7,2.2,2.5c-1.2,0-2.3,0-3.4,0c-0.5-0.7-1.1-1.4-1.6-2c-0.9,0-1.9,0-2.8,0c0,0.7,0,1.4,0,2c-1,0-2.1,0-3.1,0
			C48.9-135.1,48.9-137.3,48.9-139.6z M52-138.3c0,0.7,0,1.5,0,2.2c1.1,0,2.3,0.1,3.4-0.1c0.8-0.1,1.4-1.3,0.5-1.8
			C54.7-138.4,53.3-138.3,52-138.3z"/>
	</g>
	<g>
		<path fill="#FFFFFF" d="M66.9-139.6c1.2,0,2.3,0,3.5,0c1.5,2.3,3,4.5,4.6,6.7c-1,0-2.1,0.1-3.1,0c-0.4-0.3-0.7-0.7-1-1.1
			c-1.6,0-3.2,0-4.8,0c-0.2,0.4-0.5,0.8-0.7,1.1c-1,0-2,0-3.1,0C63.8-135,65.3-137.3,66.9-139.6z M66.8-135.2c1.1,0,2.3,0,3.4,0
			c-0.5-1-1.1-1.9-1.7-2.9C67.9-137.1,67.3-136.2,66.8-135.2z"/>
	</g>
	<path fill="#FFFFFF" d="M77.8-139.6c1,0,2,0,3,0c0,1,0,2,0,3c1.3-0.9,2.6-2,3.8-3c1.3,0,2.5,0,3.8,0c-1.4,1.1-2.9,2.1-4.3,3.2
		c1.5,1.2,3,2.4,4.5,3.5c-1.4-0.1-2.8,0.2-4.1-0.2c-1.3-0.9-2.4-2.1-3.7-2.9c0,1-0.1,2.1-0.1,3.1c-1,0-2,0-3,0
		C77.8-135.1,77.8-137.3,77.8-139.6z"/>
	<path fill="#FFFFFF" d="M-56-138.3c7-0.5,14-0.6,21-0.3c2.7,0.6,5.3,1.1,8,1.6c-11.4,0.8-22.9,1.9-33.6,5.9
		c-1.4,0.5-2.8,1.3-4.2,1.7c-3.3-1.6-6.5-3.6-9.7-5.4C-68.6-137.1-62.3-137.8-56-138.3z"/>
	<path fill="#FFFFFF" d="M-20.4-136.7c3,0,6-0.4,8.9-0.5c-3,0.8-6,1.3-9,2.1c-10.3,2.5-20.6,6.4-28.7,13.3
		c-3.7-1.6-7.3-3.3-10.8-5.1c6.9-4,14.7-6.1,22.5-7.7C-31.9-135.6-26.2-136.7-20.4-136.7z"/>
	<g>
		<path fill="#FFFFFF" d="M181.9-129.9c1.7,0,3.4,0,5.2,0c0,5.7,0,11.4,0,17.1c-1.6,0-3.1,0-4.7,0c0-0.7,0-1.4,0-2
			c-2.3,2.7-6.7,3-9.5,1.1c-2.8-1.9-3.4-6.2-1.3-8.8c2.5-3.1,7.4-3,10.4-0.6C181.9-125.4,181.9-127.6,181.9-129.9z M177.4-121.6
			c-1.6,0.6-2.4,2.6-1.7,4.2c0.7,1.9,3.4,2.4,4.9,1.2c1.5-1.1,1.6-3.5,0.3-4.7C180.1-121.9,178.6-121.9,177.4-121.6z"/>
	</g>
	<path fill="#FFFFFF" d="M-5-128.8c2.8-0.2,5.6,0,8.4,0.6c-0.1,1.1-0.3,2.2-0.4,3.3c-3.5-1.2-7.5-1.4-10.8,0.4
		c-2.5,1.4-2.8,5.3-0.7,7.1c1.9,1.8,4.8,2,7.3,1.7c0-1.1,0-2.3,0-3.4c-1,0-2.1,0-3.1,0c0-1,0-2,0-3c2.8,0,5.5,0,8.3,0
		c0,3,0,5.9,0,8.8c-4.5,0.8-9.2,1.2-13.6-0.2c-2.2-0.8-4.4-2.3-5.2-4.6c-1-2.8-0.4-6.2,1.9-8.1C-10.8-128-7.8-128.6-5-128.8z"/>
	<path fill="#FFFFFF" d="M59.4-127.3c1.7-0.4,3.3-0.8,5-1.2c0,1.3,0,2.6,0,3.9c1.2,0,2.4,0,3.7,0c0,0.9,0,1.9,0,2.8
		c-1.2,0-2.4,0-3.6,0c0.1,1.9-0.2,3.9,0.2,5.7c0.6,1.3,2.3,0.7,3.5,0.8c0.1,0.8,0.1,1.7,0.2,2.5c-2.3,0.1-4.8,0.5-7-0.4
		c-1.1-0.4-1.8-1.5-1.9-2.7c-0.2-2,0-4-0.1-6c-1,0-2,0-2.9,0c0-1,0-1.9,0-2.8c1,0,2,0,3,0C59.4-125.5,59.4-126.4,59.4-127.3z"/>
	<g>
		<path fill="#FFFFFF" d="M79.5-128.7c3,0,6.1,0,9.1,0c2,0.1,4.1,0.2,5.7,1.6c1.2,1,1.3,2.7,0.8,4.1c-0.6,1.4-2,2-3.3,2.4
			c0.7,0.5,1.4,1,1.7,1.7c1,2,1.9,4.1,2.8,6.1c-1.8,0-3.7,0-5.5,0c-0.7-1.8-1.3-3.7-2.4-5.3c-0.8-1.2-2.4-1-3.7-1.1
			c0,2.1,0,4.2,0,6.4c-1.8,0-3.5,0-5.3,0C79.5-118.1,79.5-123.4,79.5-128.7z M84.7-125.8c0,1.3,0,2.5,0,3.8c1.7,0.1,3.5,0.1,5.1-0.7
			c0.1-0.8,0.6-1.7-0.2-2.3C88.2-125.9,86.4-125.7,84.7-125.8z"/>
	</g>
	<path fill="#FFFFFF" d="M44.1-123.6c3-1.8,6.8-1.4,10.1-0.6c-0.1,0.9-0.3,1.8-0.4,2.8c-2-0.6-4.2-1.2-6.2-0.4
		c-0.1,0.2-0.2,0.6-0.3,0.8c2.1,1.5,5.3,0.7,7.1,2.8c1.4,1.6,0.5,4.3-1.5,5c-3.2,1.3-6.9,0.9-10.3,0.3c0.1-1,0.2-1.9,0.3-2.9
		c2.3,0.6,4.8,1.2,7.1,0.3c-0.1-0.4-0.2-0.8-0.4-1.2c-2-1.1-4.5-0.7-6.3-2.3C42-120.3,42.5-122.7,44.1-123.6z"/>
	<g>
		<path fill="#FFFFFF" d="M142.3-124.1c3.2-0.8,6.6-1.2,9.7-0.2c1.6,0.5,3,1.8,3.2,3.6c0.2,2.7-0.1,5.3,0.3,8c-1.5,0-3.1,0-4.6,0
			c-0.1-0.6-0.1-1.1-0.2-1.7c-1.1,0.9-2.2,1.8-3.7,1.9c-1.9,0.2-4,0-5.6-1.2c-1.6-1.3-1.5-4,0.3-5.1c2.6-1.6,5.9-1.4,8.9-1.3
			c-0.4-0.7-0.6-1.5-1.4-1.8c-2.3-0.7-4.8-0.2-7,0.5C142.2-122.3,142.3-123.2,142.3-124.1z M145.9-117.6c-0.7,0.3-0.9,1.1-0.6,1.8
			c1.2,1,3,0.9,4.2,0c0.7-0.5,0.9-1.4,1.2-2.2C149.1-118.1,147.3-118.4,145.9-117.6z"/>
	</g>
	<path fill="#FFFFFF" d="M17.8-124.6c1.7,0,3.4,0,5.1,0c0,4,0,7.9,0,11.9c-1.5,0-3.1,0-4.6,0c0-0.7,0-1.4,0-2
		c-1.5,1.6-3.7,2.5-5.9,2.3c-2.3,0-4.8-1.3-5.2-3.7C6.8-119,7-121.8,7-124.6c1.7,0,3.4,0,5.2,0c0,2,0,4,0,6c0,0.9,0.2,1.9,1,2.4
		c1.6,0.8,4,0.1,4.4-1.8C18-120.1,17.8-122.4,17.8-124.6z"/>
	<g>
		<path fill="#FFFFFF" d="M27.9-123.7c2.1-1.2,4.6-1.4,6.9-1.1c1.9,0.2,3.8,1.2,4.8,2.8c0.8,1.3,1,2.9,1,4.4c-3.5,0-7,0-10.5,0
			c0.4,0.9,1,1.8,2,2c2.4,0.6,4.9,0.2,7.1-0.5c0,0.9-0.1,1.9-0.1,2.8c-3.4,0.8-7.2,1.2-10.4-0.3c-2-0.9-3.7-2.8-3.7-5.1
			C24.8-120.7,26-122.7,27.9-123.7z M31.4-122c-0.9,0.4-1.2,1.4-1.5,2.2c2,0,4.1,0,6.1,0c-0.3-0.7-0.3-1.5-0.9-1.9
			C34-122.5,32.5-122.5,31.4-122z"/>
	</g>
	<g>
		<path fill="#FFFFFF" d="M98.8-122.6c1.8-1.8,4.4-2.3,6.9-2.2c2.2,0.1,4.7,0.8,6,2.7c1,1.4,1.1,3,1.1,4.7c-3.5,0-7,0-10.5,0
			c0.4,0.9,1,1.7,2,2c2.4,0.7,4.9,0.3,7.2-0.5c0,0.9-0.1,1.9-0.1,2.8c-2.9,0.7-5.9,1-8.9,0.3c-2-0.5-4-1.7-4.8-3.6
			C96.8-118.5,97.2-121.1,98.8-122.6z M103.7-122c-0.9,0.4-1.1,1.4-1.4,2.2c2,0,4.1,0,6.1,0c-0.3-0.7-0.4-1.7-1.1-2.1
			C106.1-122.5,104.8-122.5,103.7-122z"/>
	</g>
	<path fill="#FFFFFF" d="M113.1-124.6c1.8,0,3.6,0,5.4,0c0.8,2.9,1.6,5.8,2.4,8.7c1.1-2.8,1.8-5.8,2.7-8.7c2.1,0,4.1,0,6.2,0
		c0.8,2.9,1.7,5.8,2.5,8.6c1-2.8,1.7-5.8,2.5-8.6c1.7,0,3.3,0,5,0c-1.6,3.9-3,7.9-4.6,11.9c-2,0-4,0-6,0c-0.8-2.9-1.7-5.8-2.5-8.7
		c-1.1,2.9-1.9,5.8-3,8.7c-2,0-4,0-6,0C116.1-116.7,114.6-120.7,113.1-124.6z"/>
	<path fill="#FFFFFF" d="M158.6-124.6c1.6,0,3.2,0,4.7,0c0,0.7,0,1.5,0,2.2c0.7-0.8,1.3-1.6,2.3-2c1.2-0.5,2.6-0.4,3.9-0.3
		c-0.1,1.1-0.2,2.2-0.2,3.3c-1.3,0-2.8-0.2-4,0.5c-0.9,0.5-1.4,1.6-1.5,2.6c-0.1,1.8,0,3.7,0,5.5c-1.7,0-3.4,0-5.2,0
		C158.6-116.7,158.7-120.7,158.6-124.6z"/>
	<path fill="#FFFFFF" d="M191.1-123.7c3-1.8,6.8-1.3,10-0.6c-0.1,0.9-0.3,1.9-0.4,2.8c-2-0.7-4.3-1.2-6.3-0.3c0,0.2-0.1,0.6-0.2,0.8
		c2,1.3,4.5,0.8,6.5,2.2c1.5,1,1.7,3.3,0.5,4.6c-0.9,1-2.3,1.4-3.6,1.6c-2.7,0.3-5.4,0.2-8-0.3c0.1-0.9,0.2-1.9,0.2-2.8
		c2.1,0.3,4.2,0.9,6.4,0.5c0.8-0.2,0.8-1.3,0.1-1.6c-1.9-0.9-4.4-0.7-6-2.2C189-120.4,189.5-122.8,191.1-123.7z"/>
	<g>
		<path fill="#FFFFFF" d="M205-124.8c1.3,0.2,3.1,0.7,3.3,2.2c0.4,1.8-1.8,3.4-3.4,2.4c-1.9-0.9-1.4-4.2,0.8-4.5
			c-1.4,0.7-1.3,2.4-0.6,3.4c0.2-0.8,0-1.6,0.1-2.4c0.8,0.2,2.1-0.2,2.1,1.2c-0.3-0.2-0.8-0.6-1.1-0.8l-0.4,0.1l-0.3,0.8
			c0.2,0,0.7,0,1,0c0.2,0.5,0.3,1.1,0.5,1.6c-0.4-0.4-0.8-0.9-1.3-1.2c0.1,0.3,0.2,1,0.2,1.4c-0.3-0.1-0.9-0.3-1.1-0.4
			c0.4,1,2,1,2.6,0.2c0.8-0.6,0.5-1.7,0.5-2.5C206.9-123.8,205.9-124.3,205-124.8z M204.4-121.4c0.3-0.3,0.1-1-0.1-1.3
			C203.8-122.5,204-121.6,204.4-121.4z"/>
	</g>
</g>
<g>
	<g>
		<path fill="#D73E2F" d="M-292.6-185.3c0.4-0.9,0.5-1.9,1-2.7c0.9,0.4,1.5,1.2,2.1,1.9c1.1-0.2,2.3-0.2,3.5-0.2
			c0.1,1.3-0.5,2.5-1.2,3.5c0.4,0.9,1.1,1.8,0.9,2.9c-0.2,0.3-0.7,0.2-1,0.2c-0.9,0-1.7-0.3-2.5-0.4c-0.3-0.1-0.6,0.1-0.9,0.3
			c-0.5,0.3-0.9,0.6-1.5,0.7c-0.1,0-0.2-0.1-0.3-0.2c-0.1-0.6-0.1-1.3,0.2-1.9c0.2,0.4,0.3,0.9,0.4,1.3c0.7-0.2,1.2-0.9,1.8-1.3
			c0.9,0.1,1.8,0.6,2.8,0.5c0-0.8-0.6-1.4-0.9-2.1c-0.1-0.3-0.1-0.6,0.1-0.8c0.4-0.6,1-1.1,0.9-1.9c-0.9-0.1-1.8,0.3-2.7,0.3
			c-0.4-0.7-0.7-1.4-1.4-1.9c-0.4,0.7-0.4,1.4-0.6,2.1c-0.6,0.5-1.4,0.5-2.1,0.4C-293.6-184.8-293-185-292.6-185.3z"/>
		<g>
			<path fill="#D73E2F" d="M-220.4-151.7c0.1-0.3,0.3-0.4,0.6-0.6c2,4.9,3.9,10,5.9,14.9c0.4,1.1,0.9,2.2,1.4,3.2
				c0.2,0.5,0.7,0.8,1,1.1c-0.3,0.1-0.6,0.1-0.9,0.1c-1.1,0-2.3,0-3.4,0c0.1-0.3,0.4-0.5,0.5-0.9c0-0.5-0.2-1-0.3-1.5
				c-0.4-1-0.7-2-1.2-3c-2.3,0-4.5,0-6.8,0c-0.5,1.3-1.1,2.6-1.5,3.9c-0.1,0.2-0.1,0.4-0.1,0.7c0.2,0.2,0.4,0.5,0.6,0.7
				c-0.7,0.2-1.5,0.1-2.2,0.1c-0.7,0-1.4,0.1-2-0.1c0.4-0.4,0.9-0.8,1.2-1.3c1.1-2.2,1.9-4.5,2.9-6.7
				C-223.2-144.6-221.8-148.1-220.4-151.7z M-220-147.2c-0.6,1.4-1.1,2.8-1.6,4.2c-0.3,1-0.8,1.9-1,2.9c1.8,0,3.5,0,5.3,0
				C-218.3-142.5-219.2-144.9-220-147.2z"/>
		</g>
		<path fill="#D73E2F" d="M-259.6-151.7c0.3-0.1,0.6-0.1,1-0.1c3,0,6,0,9,0c-0.1,1.1,0.1,2.2-0.3,3.2c-0.2-0.3-0.4-0.8-0.8-1
			c-0.4-0.2-0.9-0.2-1.3-0.2c-1.1,0-2.1,0-3.2,0c-0.4,0-0.8,0-1.2,0.1c0,2.2,0,4.4,0,6.6c1.1,0.1,2.2,0,3.3,0c0.6,0,1.3,0.1,1.9-0.2
			c0.3-0.2,0.6-0.4,0.8-0.6c0,1.2,0,2.3,0,3.5c-0.5-0.3-0.9-0.9-1.6-0.8c-1.5,0-2.9,0-4.4,0c0,1.6,0,3.2,0,4.7c0,0.8,0,1.7,0.2,2.5
			c0.2,0.5,0.6,0.7,1,1.1c-1.5,0-3,0-4.5,0c0.4-0.5,1-1,1-1.6c0.1-2.6,0-5.1,0-7.7c0-2.7,0-5.3,0-8
			C-258.7-150.9-259.2-151.3-259.6-151.7z"/>
		<g>
			<path fill="#D73E2F" d="M-244.2-151.7c0.6-0.2,1.1-0.1,1.7-0.1c1.4,0,2.7-0.1,4.1,0c1.3,0.1,2.7,0.6,3.6,1.6
				c0.9,0.9,1.4,2.2,1.3,3.5c0.1,1.7-0.7,3.4-2,4.4c-0.5,0.4-1.2,0.7-1.8,1c1.3,1.8,2.6,3.5,3.9,5.3c0.4,0.6,0.9,1.2,1.3,1.7
				c0.4,0.5,1,0.8,1.5,1.2c-0.9,0.1-1.7,0-2.6,0c-0.4,0-0.9,0.1-1.2-0.3c-0.8-1.1-1.5-2.2-2.3-3.3c-1-1.4-2-2.9-3.1-4.3
				c-0.4,0-0.7,0-1.1,0c0,1.8,0,3.7,0,5.5c0,0.4,0.1,0.8,0.1,1.2c0.1,0.5,0.5,0.8,0.8,1.2c-0.9,0-1.8,0-2.7,0c-0.5,0-1.1,0-1.6-0.1
				c0.3-0.3,0.7-0.5,0.8-0.9c0.3-1,0.1-2,0.3-3c0-3.4,0-6.8,0-10.2c0-0.3,0-0.7,0-1c-0.1-0.9,0-1.8-0.2-2.7
				C-243.5-151.3-243.9-151.5-244.2-151.7z M-240.9-149.9c0,2.4,0,4.8,0,7.2c0.7,0,1.4,0.1,2.1-0.1c0.9-0.2,1.8-0.7,2.3-1.4
				c1-1.5,0.9-3.7-0.5-4.9C-238.1-150.1-239.6-150-240.9-149.9z"/>
		</g>
		<path fill="#D73E2F" d="M-205.1-151.6c0.8-0.4,1.6-0.3,2.4-0.3c0.9,0,1.8,0,2.6,0.3c0,0.8,0,1.6,0,2.4c0,0.3-0.1,0.5-0.2,0.8
			c-0.3-0.5-0.5-1.1-1.1-1.3c-1-0.5-2.3-0.3-3.2,0.2c-0.6,0.4-1.1,1-1.3,1.7c-0.2,1.1,0.2,2.2,1,2.9c1.2,1.2,2.6,2,3.8,3.2
			c0.8,0.7,1.4,1.7,1.6,2.8c0.1,0.7,0.1,1.4,0,2.1c-0.2,1.4-1.1,2.6-2.4,3.3c-2.1,1.2-4.6,1-6.8,0.2c0-1.1,0-2.2,0.2-3.3
			c0.5,0.5,0.6,1.2,1.2,1.5c0.8,0.4,1.9,0.5,2.8,0.3c1-0.1,2-0.8,2.4-1.8c0.4-0.9,0.2-1.9-0.2-2.7c-0.4-0.8-1.2-1.3-1.9-1.9
			c-1.3-1-2.8-2-3.6-3.5c-0.8-1.4-0.8-3.2,0-4.7C-207.1-150.4-206.2-151.2-205.1-151.6z"/>
		<path fill="#D73E2F" d="M-194.2-151.8c3.1-0.1,6.1,0,9.2,0c0.2,0,0.5-0.1,0.7,0.2c0,1,0,2-0.2,3c-0.3-0.4-0.5-1-1.1-1.1
			c-0.9-0.2-1.9-0.2-2.9-0.2c-0.8,0-1.7-0.1-2.5,0.1c0,2.1,0,4.2,0,6.2c1.5,0,3,0,4.5,0c0.6,0,1-0.4,1.4-0.7c0,1.1,0,2.3,0,3.4
			c-0.4-0.4-0.9-0.8-1.6-0.8c-1.5,0-2.9,0-4.4,0c0,2.1,0,4.2,0,6.3c-0.1,0.2,0.1,0.4,0.3,0.4c1.7,0,3.4,0,5.1,0c0.7,0,1-0.7,1.4-1.1
			c0.1,1.1,0,2.1,0,3.2c-3.4,0-6.8,0-10.2,0c0.2-0.3,0.5-0.5,0.7-0.8c0.3-0.5,0.2-1.2,0.2-1.8c0.2-1.6,0.1-3.2,0.1-4.8
			c0-2.4,0-4.8,0-7.2c0-0.5,0-1-0.1-1.5c-0.1-0.6,0-1.3-0.2-1.9C-193.6-151.3-193.9-151.5-194.2-151.8z"/>
		<g>
			<path fill="#D73E2F" d="M-178.2-151.7c0.9-0.2,1.8-0.1,2.7-0.1c1.6,0,3.2-0.1,4.7,0.4c1.4,0.4,2.5,1.5,3,2.9
				c0.4,0.9,0.3,1.9,0.3,2.9c-0.2,1.3-0.9,2.6-2,3.4c-0.6,0.4-1.2,0.8-1.9,1.1c1.4,2,2.9,3.9,4.3,5.9c0.3,0.4,0.6,0.8,0.9,1.1
				c0.4,0.4,1,0.8,1.4,1.2c-0.9,0.1-1.7,0-2.6,0c-0.3,0-0.6,0-0.8-0.1c-0.4-0.3-0.6-0.8-0.9-1.2c-1.4-2-2.9-4.1-4.3-6.1
				c-0.2-0.2-0.4-0.5-0.7-0.5c-0.3,0-0.6,0-0.9,0.1c0,1,0,1.9,0,2.9c0.2,1.3-0.1,2.6,0.2,3.9c0.1,0.5,0.5,0.8,0.8,1.1
				c-0.9,0.1-1.7,0-2.6,0c-0.6,0-1.2,0.1-1.7-0.1c0.3-0.2,0.6-0.4,0.8-0.7c0.2-0.7,0.3-1.4,0.3-2.1c0-1.4,0-2.7,0-4.1
				c0.1-0.9,0-1.8,0.1-2.7c0-0.8,0-1.7-0.1-2.5c-0.1-1.6,0-3.1-0.1-4.7c-0.1-0.4-0.1-0.8-0.3-1.2
				C-177.6-151.4-177.9-151.5-178.2-151.7z M-174.9-149.9c0,2.4,0,4.8,0,7.2c1.4,0.1,2.9-0.1,4-1.1c1.5-1.3,1.5-4,0-5.3
				C-172-150-173.5-150-174.9-149.9z"/>
		</g>
	</g>
	<g>
		<path fill="#2E376C" d="M-274.4-173.1c0.6,0.3,1.1,0.9,1.5,1.4c1.7,2.3,2.7,5.2,2.9,8c0.1,1.5-0.1,3-0.4,4.5
			c-0.4,1.7-1,3.3-1.8,4.8c-0.3,0.5-0.6,1.1-1.3,1.3c-0.1-0.6,0-1.1,0.1-1.7c0.7-2.9,1.2-5.8,1.1-8.8c0-2.8-0.6-5.6-1.7-8.2
			C-274.1-172.1-274.4-172.5-274.4-173.1z"/>
		<path fill="#2E376C" d="M-298.4-167.7c0.1-0.6,0.3-1.3,0.7-1.8c0.3,0.7,0.2,1.5,0.3,2.3c0.5,3.8,2.1,7.3,3.8,10.7
			c1.7,3.2,3.7,6.2,6.3,8.7c0.7,0.7,1.5,1.2,2.1,2c-0.1,0-0.3,0.1-0.4,0.1c-0.7-0.2-1.4-0.5-2-0.9c-3.1-1.8-5.6-4.5-7.5-7.6
			c-1.4-2.4-2.5-5-3.1-7.7c-0.2-1-0.4-2-0.4-3.1C-298.5-165.8-298.6-166.8-298.4-167.7z"/>
		<path fill="#2E376C" d="M-288.2-163.8c0.7-0.8,1.7-1.1,2.7-1.2c1.7-0.2,3.5,0.5,4.6,1.8c0.7,0.9,1.2,2.1,1.2,3.4
			c0.1,1.6-0.7,3.3-2,4.3c-0.2,0.2-0.5,0.3-0.9,0.4c0.4-1,1.1-1.9,1.2-3c0-0.8,0.1-1.6-0.2-2.3c-0.4-1-1.1-2-2-2.6
			c-1.1-0.6-2.4-0.9-3.6-0.7C-287.5-163.8-287.8-163.8-288.2-163.8z"/>
		<path fill="#2E376C" d="M-273.9-146.1c-0.1-1-0.4-1.9-0.3-2.9c0.6,0.4,1,1,1.2,1.7c0.8,2,1.3,4.2,1.5,6.3c0,1,0.2,2,0.2,3
			c0.1,6.1-1.8,12.1-4.6,17.5c-1.2,2.1-2.5,4.2-4.1,6c-0.8,0.8-1.5,1.7-2.6,1.9c0-0.3,0.1-0.7,0.3-0.9c1.4-2.1,2.6-4.3,3.7-6.6
			c1.2-2.5,2.2-5.2,3.1-7.8C-273.5-133.6-272.9-140-273.9-146.1z"/>
		<path fill="#2E376C" d="M-283.8-130.2c0.2-0.3,0.5-0.5,0.8-0.7c0,0.7-0.3,1.4-0.5,2c-0.9,2-2.1,3.9-3.7,5.5
			c-2.8,2.9-6.6,4.8-10.5,5.6c-0.6,0-1.3,0.2-1.9-0.1c0.8-0.6,1.7-0.9,2.6-1.3c4.3-2.1,8-5.3,11.3-8.8
			C-285-128.7-284.4-129.4-283.8-130.2z"/>
		<path fill="#2E376C" d="M-238.7-129.1c0.3,0,0.8-0.4,1,0c-0.3,1.5-0.6,3-1,4.4c0.3-0.1,0.6-0.2,0.8-0.2c-0.4,0.4-0.8,0.8-1.4,0.9
			c0-0.3,0-0.6,0-0.8c0.2-1.1,0.5-2.2,0.7-3.4C-238.4-128.5-238.6-128.8-238.7-129.1z"/>
		<g>
			<path fill="#2E376C" d="M-222.1-129c0.3-0.1,0.7-0.2,1-0.3c0,0,0.1,0.1,0.2,0.2c-0.3,1.4-0.6,2.8-0.9,4.2
				c0.1,0.2,0.2,0.3,0.3,0.5c-0.3,0.1-0.6,0.3-0.9,0.4c-0.1-0.4-0.1-0.8-0.1-1.2c-0.5,0.5-1,1.2-1.8,1.1c-0.5-1.2,0.1-2.6,1.2-3.1
				c0.4-0.2,0.8-0.2,1.2-0.2c0.1-0.4,0.2-0.8,0.2-1.3C-221.7-128.8-221.9-128.9-222.1-129z M-223-126.8c-0.6,0.6-0.8,1.5-0.7,2.3
				c1-0.3,1.7-1.4,1.8-2.5C-222.2-127-222.7-127.1-223-126.8z"/>
		</g>
		<path fill="#2E376C" d="M-194.9-129c0.4-0.1,0.7-0.2,1.1-0.3c0,1-0.4,1.9-0.5,2.9c0.6-0.4,1.1-0.9,1.8-1c0.3,0.8-0.2,1.6-0.2,2.4
			c-0.1,0.3,0.1,0.5,0.2,0.7c-0.3,0.1-0.5,0.3-0.8,0.3c-0.2-0.2-0.1-0.5-0.1-0.8c0.1-0.6,0.3-1.2,0.4-1.9c0-0.1-0.1-0.2-0.2-0.2
			c-0.7,0.4-1.4,1-1.5,1.8c-0.1,0.3-0.1,0.6-0.2,0.9c-0.2,0.1-0.3,0.1-0.5,0.2c0-0.7,0.2-1.4,0.3-2c0.2-0.9,0.4-1.7,0.5-2.6
			C-194.6-128.7-194.7-128.9-194.9-129z"/>
		<path fill="#2E376C" d="M-184.7-129.1c0.3-0.2,0.6-0.2,0.9-0.2c0.1,0.2,0.2,0.4,0.3,0.5c-0.4,0.1-0.8-0.1-1.1-0.2
			c-0.3,0.5-0.5,1.1-0.5,1.7c0.3,0,0.6,0,0.9,0.1c-0.3,0.1-0.6,0.3-0.9,0.4c-0.2,1.2-0.4,2.4-0.8,3.5c-0.2,0.6-0.7,1.1-1.4,1
			c0-0.1,0-0.3,0-0.4c0.2,0,0.5,0,0.7,0c0.2-0.2,0.3-0.6,0.4-0.9c0.2-1,0.3-2.1,0.5-3.1c-0.2-0.1-0.5-0.2-0.7-0.2
			c0.2-0.1,0.5-0.2,0.7-0.2C-185.7-128-185.4-128.7-184.7-129.1z"/>
		<path fill="#2E376C" d="M-244.8-128.5c0.1-0.2,0.1-0.5,0.3-0.6c0.2,0,0.3,0.1,0.4,0.2c0,0.2-0.1,0.4-0.1,0.6
			C-244.4-128.3-244.6-128.3-244.8-128.5z"/>
		<path fill="#2E376C" d="M-200.5-128.7c0.1-0.1,0.3-0.3,0.4-0.4c0.1,0,0.3,0.1,0.4,0.2c0,0.2,0,0.4-0.1,0.6c-0.2,0-0.4,0.1-0.6,0.1
			C-200.3-128.4-200.4-128.6-200.5-128.7z"/>
		<path fill="#2E376C" d="M-258.6-128.8c0.5-0.3,1.2-0.1,1.7,0c0,0.4,0,0.8,0,1.3c-0.1-0.2-0.2-0.5-0.4-0.7
			c-0.2-0.5-0.9-0.4-1.3-0.1c-0.3,0.2-0.2,0.6-0.2,0.9c0.4,0.6,1.3,0.8,1.6,1.5c0.4,0.8-0.2,1.8-1,2c-0.6,0.2-1.2,0-1.8-0.3
			c0-0.4,0-0.8,0-1.2c0.3,0.4,0.5,1.2,1.2,1.2c0.4,0,0.8-0.1,0.9-0.5c0.1-0.4,0.1-0.9-0.2-1.2c-0.4-0.4-1-0.6-1.3-1.1
			C-259.5-127.7-259.2-128.5-258.6-128.8z"/>
		<g>
			<path fill="#2E376C" d="M-208.6-128.8c0.7,0,1.5,0,2.2,0c0.5,0,1.1,0.4,1.1,0.9c0.1,0.6-0.5,0.9-0.9,1.2c0.3,0.2,0.6,0.5,0.8,0.9
				c0.1,0.7-0.4,1.4-1,1.6c-1,0.3-2,0.2-3,0.2c0.3-0.2,0.8-0.4,0.8-0.8c0.3-1.2,0.5-2.4,0.7-3.5
				C-208.1-128.5-208.4-128.7-208.6-128.8z M-207.2-128.5c-0.2,0.5-0.2,1.1-0.3,1.6c0.4,0,0.8,0.1,1.2-0.2c0.2-0.1,0.4-0.3,0.4-0.6
				c0-0.3,0.1-0.6-0.2-0.8C-206.4-128.6-206.9-128.7-207.2-128.5z M-207.6-126.5c-0.1,0.7-0.4,1.4-0.3,2c0.3,0,0.6,0.1,0.8,0
				c0.8-0.1,1.3-1.3,0.6-1.9C-206.8-126.6-207.2-126.4-207.6-126.5z"/>
		</g>
		<path fill="#2E376C" d="M-214.7-126.9c0-0.5,0.1-1,0.3-1.4c0.3,0.4,0.5,0.8,0.8,1.3c0.5-0.1,0.9-0.2,1.4-0.2
			c0.1,0.5-0.3,0.9-0.6,1.2c0.2,0.4,0.5,0.9,0.6,1.3c-0.7,0.1-1.1-0.5-1.7-0.5c-0.4,0.3-0.7,0.6-1.1,0.9c0-0.5,0-1,0.1-1.6
			c-0.4-0.2-0.8-0.5-1.1-0.8C-215.6-126.7-215.1-126.8-214.7-126.9z"/>
		<path fill="#2E376C" d="M-190.5-127.3c0.2-0.3,0.4-0.7,0.8-0.9c0,0.3,0,0.7-0.1,1c0.3,0,0.6,0.1,0.9,0.2c-0.3,0.1-0.7,0.2-1,0.2
			c-0.1,0.7-0.3,1.4-0.4,2c0.2,0.1,0.3,0.3,0.5,0.4c-0.3,0.2-0.6,0.3-0.9,0.4c-0.1-0.3-0.2-0.5-0.1-0.8c0.1-0.7,0.3-1.3,0.5-2
			c-0.2-0.1-0.4-0.2-0.6-0.3C-190.9-127.1-190.7-127.2-190.5-127.3z"/>
		<path fill="#2E376C" d="M-179.1-127.2c0.1-0.4,0.4-0.7,0.8-1c-0.1,0.3-0.1,0.7-0.2,1c0.3,0,0.6,0,0.9,0.1
			c-0.3,0.2-0.7,0.3-1.1,0.4c-0.1,0.8-0.3,1.5-0.4,2.2c0.3-0.2,0.6-0.3,1-0.4c-0.4,0.5-0.8,1-1.5,1c-0.1-0.9,0.2-1.8,0.4-2.8
			c-0.2-0.1-0.4-0.2-0.7-0.3C-179.6-127.1-179.4-127.2-179.1-127.2z"/>
		<g>
			<path fill="#2E376C" d="M-256-126.7c0.4-0.3,0.8-0.7,1.2-1.1c0.1,0.2,0.2,0.3,0.3,0.5c0.5,0,1.1-0.1,1.4,0.4
				c0.3,0.9-0.2,1.9-0.9,2.4c-0.4,0.4-0.9,0.4-1.4,0.6c-0.1,0.4-0.1,0.7-0.2,1.1c0.2,0.1,0.5,0.2,0.7,0.4c-0.6,0.1-1.2,0.1-1.9,0
				c0.2-0.2,0.6-0.4,0.6-0.7c0.3-1.2,0.5-2.4,0.7-3.6C-255.6-126.7-255.8-126.7-256-126.7z M-254.7-127c-0.2,0.8-0.4,1.7-0.5,2.5
				c0.2,0.1,0.3,0.1,0.5,0.2c0.8-0.5,1.3-1.5,1-2.4C-253.9-127.1-254.4-127-254.7-127z"/>
		</g>
		<path fill="#2E376C" d="M-233.2-126.8c0.3-0.3,0.8-0.5,1.2-0.5c0.1,0.9-0.3,1.7-0.4,2.6c0.2,0,0.4,0,0.7,0
			c-0.3,0.4-0.8,0.7-1.3,0.8c-0.1-1,0.3-1.9,0.5-2.9C-232.7-126.8-232.9-126.8-233.2-126.8z"/>
		<path fill="#2E376C" d="M-181.5-127.2c0.2-0.1,0.4-0.1,0.6-0.2c-0.2,0.9-0.4,1.8-0.6,2.7c0.2-0.1,0.5-0.1,0.7-0.2
			c-0.3,0.4-0.8,0.7-1.3,0.9c0-0.4,0-0.8,0-1.2c-0.5,0.5-1,1.2-1.8,1.1c-0.1-0.9,0.2-1.8,0.4-2.6c-0.2,0-0.5,0-0.7,0
			c0.4-0.3,0.7-0.7,1.2-0.8c0,0,0.1,0.1,0.2,0.2c-0.1,0.9-0.5,1.8-0.4,2.8C-182.2-125-181.5-126-181.5-127.2z"/>
		<path fill="#2E376C" d="M-177.2-126.6c0.4-0.4,0.8-0.7,1.3-0.8c0.1,1-0.5,1.9-0.4,2.9c0.8-0.4,1.5-1.2,1.6-2.1
			c0-0.2,0.1-0.4,0.2-0.6c0.2,0,0.4,0,0.6,0c-0.2,0.8-0.4,1.7-0.6,2.5c0.2,0.1,0.4,0.1,0.5,0.2c-0.3,0.2-0.6,0.4-1,0.5
			c-0.4-0.3,0-0.8,0-1.3c-0.6,0.5-1.1,1.3-1.9,1.2c-0.1-0.9,0.2-1.7,0.4-2.6C-176.7-126.6-177-126.6-177.2-126.6z"/>
		<g>
			<path fill="#2E376C" d="M-168.8-127.2c0.3-0.2,0.7-0.2,1-0.1c0.3,0.2,0.3,0.5,0.3,0.8c-0.5,0.6-1.2,0.8-1.9,1.1
				c-0.1,0.3,0,0.6,0.1,0.9c0.6,0.1,1.1-0.1,1.6-0.4c-0.4,0.6-1,1-1.7,0.9c-0.3,0-0.5-0.4-0.6-0.6
				C-170.2-125.6-169.7-126.8-168.8-127.2z M-168.7-127c-0.4,0.2-0.6,0.7-0.7,1.2c0.4-0.1,0.8-0.2,1.1-0.5c0.2-0.2,0.1-0.4,0.1-0.7
				C-168.3-127-168.5-127-168.7-127z"/>
		</g>
		<path fill="#2E376C" d="M-251.7-126.3c0.3-0.6,1-1.1,1.7-1.1c0.4,0,0.8,0.6,0.5,0.9c-0.4,0.5-1,0.8-1.6,0.8
			c0.4-0.3,0.8-0.5,1.1-0.9c0-0.1-0.2-0.3-0.2-0.4c-0.3,0.1-0.7,0.2-0.8,0.5c-0.3,0.3-0.1,0.8-0.2,1.1c-0.1,0.3,0,0.6,0,0.9
			c0.3,0,0.6,0.1,0.9,0c0.3-0.1,0.5-0.3,0.8-0.4c-0.3,0.6-1.1,1-1.8,0.9c-0.3,0-0.4-0.2-0.5-0.4
			C-252.1-125.1-252.1-125.7-251.7-126.3z"/>
		<path fill="#2E376C" d="M-248.8-124.5c-0.3-1.2,0.5-2.7,1.8-2.8c0.3-0.1,0.5,0.2,0.8,0.3c-0.1,0.1-0.3,0.3-0.4,0.4
			c-0.3-0.1-0.5-0.3-0.8-0.3c-0.7,0.6-0.9,1.6-0.6,2.4c0.5,0.1,1-0.2,1.5-0.4c-0.3,0.6-1.1,1-1.9,0.9
			C-248.6-124.2-248.7-124.3-248.8-124.5z"/>
		<path fill="#2E376C" d="M-245.7-126.6c0.4-0.3,0.8-0.7,1.3-0.8c0,0,0.1,0.1,0.2,0.2c-0.1,0.7-0.4,1.4-0.5,2.1
			c-0.1,0.3,0.1,0.5,0.2,0.7c-0.3,0.1-0.6,0.3-0.8,0.4c-0.1-0.9,0.3-1.8,0.4-2.7C-245.2-126.6-245.4-126.6-245.7-126.6z"/>
		<g>
			<path fill="#2E376C" d="M-243.1-126c0.4-1,1.6-1.6,2.7-1.3c0,0.9-0.4,1.8-0.4,2.6c0.2-0.1,0.5-0.1,0.7-0.2
				c-0.3,0.4-0.8,0.7-1.3,0.8c0-0.4,0-0.8,0-1.1c-0.5,0.5-1,1.2-1.8,1.1C-243.3-124.7-243.4-125.4-243.1-126z M-242.1-126.7
				c-0.5,0.6-0.8,1.5-0.5,2.2c0.9-0.5,1.6-1.4,1.5-2.5C-241.4-127-241.8-127.1-242.1-126.7z"/>
		</g>
		<path fill="#2E376C" d="M-234.9-126.7c0.3-0.3,0.7-0.5,1.1-0.8c0.1,0.5,0.2,1,0.1,1.4c-0.4,0.5-0.5,1.2-0.6,1.8
			c-0.1,0.1-0.4,0.2-0.5,0.2c0-0.9,0.4-1.8,0.5-2.7C-234.5-126.7-234.7-126.7-234.9-126.7z"/>
		<g>
			<path fill="#2E376C" d="M-230.7-124.3c-0.5-1.2,0.3-2.8,1.6-3c0.3-0.1,0.6,0.1,0.8,0.3c0,1-1.2,1.3-2,1.6c0,0.3,0,0.6,0.2,0.9
				c0.6,0.2,1.1-0.2,1.6-0.4c-0.3,0.5-0.8,0.9-1.4,0.9C-230.1-124-230.5-124-230.7-124.3z M-230.1-125.8c0.6-0.1,1.4-0.5,1.2-1.2
				C-229.6-127.1-230-126.4-230.1-125.8z"/>
		</g>
		<g>
			<path fill="#2E376C" d="M-226.3-127.2c0.4-0.2,0.8-0.2,1.2,0c0,0.2,0,0.5,0,0.7c-0.5,0.6-1.2,0.8-1.9,1.1c0,0.3,0.1,0.6,0.2,0.8
				c0.6,0.2,1.1-0.2,1.7-0.4c-0.4,0.5-1,1-1.8,0.9c-0.4,0-0.6-0.4-0.7-0.7C-227.7-125.7-227.2-126.8-226.3-127.2z M-226.9-126
				c0,0,0.1,0.1,0.2,0.2c0.5-0.1,0.9-0.4,1.1-0.8c-0.1-0.1-0.2-0.3-0.2-0.4C-226.4-127-226.7-126.5-226.9-126z"/>
		</g>
		<path fill="#2E376C" d="M-220-126c-0.1-0.6,0.4-1.2,1-1.4c0.3-0.1,0.6,0.1,0.8,0.2c-0.1,0.1-0.2,0.4-0.2,0.5
			c-0.3-0.1-0.5-0.2-0.8-0.4c-0.1,0.1-0.2,0.2-0.3,0.3c0,0.1,0,0.2,0,0.4c0.4,0.4,1.2,0.7,1,1.3c-0.1,0.4-0.5,0.8-0.9,1
			c-0.3,0.1-0.7,0-1-0.1c0-0.2,0-0.4,0-0.6c0.3,0.1,0.6,0.3,0.9,0.4c0.3,0,0.6-0.3,0.4-0.6C-219.3-125.4-219.7-125.7-220-126z"/>
		<path fill="#2E376C" d="M-204.3-126.7c0.3-0.3,0.6-0.5,1-0.7c0,0.3,0,0.5,0,0.8c0.3-0.3,0.5-0.5,0.8-0.7c0.2,0,0.3,0.1,0.5,0.2
			c0,0.2,0,0.3-0.1,0.5c-0.3,0.1-0.7-0.1-0.9,0.2c-0.5,0.7-0.6,1.5-0.7,2.3c-0.2,0.1-0.4,0.1-0.6,0.2c0.2-0.9,0.3-1.7,0.6-2.6
			C-203.9-126.6-204.1-126.7-204.3-126.7z"/>
		<path fill="#2E376C" d="M-201.3-126.5c0.4-0.4,0.8-0.9,1.4-0.8c0,0.9-0.4,1.7-0.6,2.6c0.3,0,0.5-0.1,0.8-0.1
			c-0.4,0.4-0.8,0.7-1.3,0.9c-0.1-1,0.4-1.9,0.5-2.8C-200.8-126.6-201-126.6-201.3-126.5z"/>
		<g>
			<path fill="#2E376C" d="M-198.8-125.8c-0.1-1,1-1.8,1.9-1.5c0.4,0.1,0.7,0.1,1.1,0.1c-0.2,0.1-0.4,0.3-0.5,0.4
				c-0.1,0.4-0.1,0.8-0.4,1.1c-0.4,0.4-0.9,0.6-1.3,0.8c0.4,0.4,1,0.6,1.4,1c0.2,0.2,0.2,0.5,0,0.7c-0.3,0.5-0.9,0.7-1.5,0.8
				c-0.5,0-1-0.2-1.3-0.6c-0.2-0.6,0.6-0.9,1-1.2c0-0.3,0-0.6,0-0.9C-198.5-125.2-198.8-125.4-198.8-125.8z M-197.7-127
				c-0.5,0.3-0.4,1-0.4,1.5c0.2,0.2,0.4,0.2,0.6,0.2c0.2-0.2,0.4-0.5,0.5-0.8c0.1-0.3,0-0.7-0.1-1C-197.3-127-197.5-127-197.7-127z
				 M-198.2-123.9c-0.3,0.2-0.6,0.5-0.5,0.9c0.3,0.4,0.9,0.4,1.4,0.3c0.2-0.1,0.3-0.4,0.5-0.5C-197.3-123.5-197.7-124.1-198.2-123.9
				z"/>
		</g>
		<path fill="#2E376C" d="M-172.8-126.9c0.2-0.2,0.5-0.3,0.7-0.5c0.1,0.1,0.2,0.2,0.3,0.2c0,0.2,0,0.4,0,0.6c0.3-0.4,0.6-1,1.1-0.8
			c0.1,0.2,0.1,0.4,0.1,0.6c-0.3,0-0.5,0-0.8,0c-0.7,0.6-0.7,1.6-0.9,2.5c-0.2,0.1-0.4,0.1-0.5,0.2c0-0.9,0.3-1.7,0.4-2.5
			C-172.5-126.6-172.6-126.7-172.8-126.9z"/>
		<path fill="#2E376C" d="M-166-127.1c0.4-0.2,0.9-0.4,1.2,0c0,0.2,0,0.3-0.1,0.5c-0.3-0.1-0.6-0.2-1-0.4L-166-127.1z"/>
		<path fill="#2E376C" d="M-166.3-127c0,0,0.1,0.1,0.2,0.1c0.1,0.2,0.1,0.4,0.1,0.6c0.3,0.2,0.7,0.5,0.9,0.8c0.1,0.4,0,0.9-0.4,1.2
			c-0.4,0.4-0.9,0.3-1.3,0.2c-0.1-0.2-0.2-0.4-0.2-0.5c0.5-0.4,1,0.5,1.5,0.1c0-0.2,0-0.4,0-0.6c-0.3-0.3-0.6-0.5-0.9-0.8
			C-166.6-126.3-166.5-126.7-166.3-127z"/>
	</g>
</g>
<g>
	<g>
		<path fill="#FFFFFF" d="M149.7,3.4h3.3c2.9,6.7,5.9,13.4,8.8,20.1c-1.2,0-2.5,0-3.7,0c-0.7-1.6-1.3-3.2-2.1-4.8
			c-3.1,0-6.2,0-9.4,0c-0.6,1.6-1.4,3.2-2,4.8c-1.2,0-2.4,0-3.6,0C143.8,16.8,146.8,10.1,149.7,3.4z M151.3,7.7
			c-1.1,2.6-2.3,5.2-3.3,7.8c2.2,0,4.4,0,6.7,0c0-0.2-0.1-0.5-0.2-0.7C153.3,12.5,152.3,10.1,151.3,7.7z"/>
	</g>
	<path fill="#FFFFFF" d="M25.8,3.6c1.3-0.1,2.6-0.1,3.8,0c1.6,4.9,3.1,9.8,4.7,14.6c1.6-4.9,3.2-9.7,4.8-14.6c1,0,2,0,3.1,0
		c1.6,4.9,3.2,9.7,4.8,14.6c0.3-0.7,0.5-1.5,0.7-2.2c1.3-4.1,2.7-8.3,4-12.4c1.2-0.1,2.5-0.1,3.7,0c-2.3,6.7-4.6,13.4-7,20.1
		c-1,0-2.1,0-3.1,0c-1.4-4-2.8-8.1-4.1-12.1c-0.2-0.7-0.4-1.4-0.7-2c-1.5,4.2-2.9,8.5-4.4,12.8c-0.1,0.4-0.3,0.9-0.4,1.3
		c-1,0.1-2.1,0.1-3.1,0C30.4,16.9,28.1,10.3,25.8,3.6z"/>
	<path fill="#FFFFFF" d="M56.6,3.6c1.1-0.1,2.2-0.1,3.4-0.1c0.3,0,0.8,0,1,0.3c1.5,2.4,3.1,4.9,4.6,7.3c0.2,0.4,0.5,0.8,0.8,1.1
		c1.8-2.8,3.6-5.6,5.4-8.4c0.2-0.4,0.7-0.3,1-0.3c1.1,0,2.2-0.1,3.2,0.1c-2.6,3.8-5,7.6-7.6,11.4c-0.1,0.2-0.3,0.5-0.3,0.8
		c0,2.5,0,5.1,0,7.6c-1.2,0-2.4,0-3.6,0c0-2.4,0-4.9,0-7.3c0-0.3,0-0.5-0.1-0.8C61.8,11.5,59.1,7.6,56.6,3.6z"/>
	<path fill="#FFFFFF" d="M77.9,3.6c0.9,0,1.9-0.1,2.8,0c0.7,0,1,0.7,1.4,1.2c3.2,4.2,6.4,8.4,9.7,12.5c0-4.5,0-9.1,0-13.6
		c1.1-0.1,2.3-0.1,3.5,0c0,6.6,0,13.3,0,19.9c-1,0-2,0-2.9,0c-3.7-4.6-7.3-9.4-10.9-14c0,4.7,0,9.3,0,14c-1.2,0-2.3,0-3.5,0
		C77.9,16.9,77.8,10.2,77.9,3.6z"/>
	<g>
		<path fill="#FFFFFF" d="M99.8,3.6c1.2-0.1,2.5,0,3.7-0.1c2.3,0.1,4.7-0.2,7,0.5c2.6,0.7,5,2.4,6.2,4.8c1.1,2,1.4,4.5,1,6.7
			c-0.5,2.6-2.1,5-4.4,6.4c-1.7,1.1-3.8,1.6-5.9,1.6c-2.5,0-5.1,0-7.6,0C99.8,16.9,99.8,10.2,99.8,3.6z M103.3,6.8c0,4.5,0,9,0,13.5
			c1.4,0,2.9,0,4.3,0c2.1,0,4.2-1,5.4-2.8c2-3,1.3-7.7-1.8-9.6C108.8,6.4,106,6.9,103.3,6.8z"/>
	</g>
	<path fill="#FFFFFF" d="M121.5,3.6c1.2,0,2.4-0.1,3.6,0.1c0,2.7,0,5.5,0,8.2c3.1,0,6.3,0,9.4,0c0.1-2.7,0-5.5,0-8.2
		c1.2-0.1,2.4-0.1,3.6,0c0,6.6,0,13.3,0,19.9c-1.2,0-2.4,0-3.6,0c0-2.8,0-5.6,0-8.3c-3.2,0-6.3,0-9.5,0c0,2.8,0,5.6,0,8.3
		c-1.2,0.1-2.4,0-3.6,0C121.5,16.9,121.5,10.2,121.5,3.6z"/>
	<path fill="#FFFFFF" d="M164,3.6c1.1-0.1,2.2,0,3.3-0.1c0.7-0.1,0.9,0.7,1.2,1.1c1.8,2.8,3.5,5.6,5.4,8.3c1.9-3.1,4-6.1,5.9-9.3
		c1.3-0.3,2.6-0.1,3.9-0.1c0,6.6,0,13.3,0,19.9c-1.2,0-2.4,0-3.5,0c-0.1-4.7,0-9.4-0.1-14.1c-2.1,3-4.1,6.1-6.2,9.1
		c-0.2,0.2-0.3-0.2-0.5-0.4c-1.9-3-3.9-5.9-5.9-8.8c0,4.4,0,8.9,0,13.3c0,0.3,0,0.6-0.1,0.8c-1.1,0-2.3,0-3.4,0
		c-0.1-0.8,0-1.5-0.1-2.3C164,15.4,164,9.5,164,3.6z"/>
	<path fill="#FFFFFF" d="M91.4,26.9c16.3-0.2,32.5-0.1,48.8,0.7c15.4,0.7,30.7,1.9,45.9,4.1c5.9,0.9,11.7,1.9,17.4,3.4v0
		c-14.1-2.1-28.4-3.3-42.7-4.1c-19.2-1.1-38.4-1.5-57.6-1.6c-23.4,0.1-46.9,0.7-70.2,2.7c-9,0.8-18.1,1.7-27,3.1
		c0,0-0.1,0.1-0.2,0.1v-0.2c0.8-0.1,1.6-0.4,2.4-0.6c3.1-0.8,6.3-1.4,9.5-1.9c9.6-1.7,19.4-2.8,29.1-3.6
		C61.8,27.7,76.6,27.1,91.4,26.9z"/>
	<g>
		<path fill="#FFFFFF" d="M154.2,35.1c1.1-0.2,2,1.1,1.6,2.1c-0.4,1-1.8,1.2-2.5,0.4C152.5,36.8,153,35.2,154.2,35.1z M153.9,35.4
			c-0.8,0.3-1.1,1.5-0.4,2.1c0.4,0.4,1,0.3,1.6,0.2c-0.3-0.4-0.6-0.7-0.9-1c-0.1,0.3-0.1,0.7-0.5,0.6c0-0.6,0-1.1,0-1.7
			c0.4,0,0.7,0,1.1,0.1c0.4,0.2,0.2,0.7,0,1c0.1,0.2,0.3,0.5,0.4,0.7c0.2-0.4,0.4-0.7,0.4-1.2C155.6,35.6,154.6,35.1,153.9,35.4z
			 M154.1,36.1c0,0.1,0,0.3,0,0.4c0.1,0,0.3,0,0.4,0c0-0.1,0-0.3,0-0.4C154.5,36.1,154.3,36.1,154.1,36.1z"/>
	</g>
	<g>
		<path fill="#FFFFFF" d="M59.9,35.2c1.3,0,2.5,0,3.8,0c0.9,0,1.9,0.4,2.3,1.2c0.5,0.9,0.4,2.2-0.3,3c-0.3,0.4-0.8,0.5-1.2,0.7
			c0.5,1.1,1.4,2,2,3c-0.6,0-1.1,0.1-1.7,0c-0.8-0.8-1.3-1.9-2-2.7c-0.5-0.1-1.1,0-1.6,0c0,0.9,0,1.8,0,2.8c-0.5,0-0.9,0-1.4,0
			C59.9,40.5,59.9,37.8,59.9,35.2z M61.4,36.5c0,0.9,0,1.7,0,2.6c0.7,0,1.5,0,2.2,0c0.5,0,1.1-0.3,1.3-0.8c0.3-0.6-0.1-1.5-0.8-1.7
			C63.2,36.4,62.3,36.5,61.4,36.5z"/>
	</g>
	<path fill="#FFFFFF" d="M73.6,35.2c2,0,3.9,0,5.9,0c0,0.4,0,0.8,0,1.2c-1.5,0-3,0-4.5,0c0,0.7-0.1,1.3,0,2c1.3,0.2,2.6,0,3.9,0.1
		c0,0.4,0,0.9,0,1.3c-1.3,0-2.6,0-4,0c0,0.7,0,1.4,0,2.1c1.5,0,3,0,4.5,0c0,0.4,0,0.8,0,1.3c-2,0-4,0-6,0
		C73.6,40.4,73.6,37.8,73.6,35.2z"/>
	<path fill="#FFFFFF" d="M86,35.2c0.5,0,1,0,1.5,0c0.6,1.9,1.2,3.8,1.8,5.7c0.7-1.9,1.3-3.8,1.9-5.7c0.4,0,0.9,0,1.3,0
		c0.6,1.9,1.2,3.9,1.9,5.8c0.6-1.9,1.2-3.8,1.8-5.7c0.5,0,1,0,1.5,0c-0.9,2.7-1.9,5.3-2.8,8c-0.4,0-0.8,0-1.3,0
		c-0.7-1.8-1.2-3.7-2-5.6c-0.6,1.9-1.3,3.7-1.9,5.5c-0.4,0-0.8,0-1.3,0C87.9,40.5,86.9,37.9,86,35.2z"/>
	<g>
		<path fill="#FFFFFF" d="M117.4,35.2c1.3,0,2.5,0,3.8,0c0.9,0,1.9,0.4,2.4,1.2c0.5,0.9,0.4,2.2-0.3,3c-0.3,0.4-0.8,0.5-1.2,0.8
			c0.6,1,1.4,1.9,2,2.9c-0.6,0-1.1,0.1-1.7,0c-0.7-0.8-1.2-1.9-2-2.7c-0.5-0.1-1.1,0-1.7,0c0,0.9,0,1.8,0,2.8c-0.5,0-0.9,0-1.4,0
			C117.3,40.5,117.3,37.8,117.4,35.2z M118.8,36.5c0,0.9,0,1.7,0,2.6c0.7,0,1.5,0,2.2,0c0.5,0,1.1-0.3,1.3-0.8
			c0.3-0.6-0.1-1.5-0.8-1.7C120.6,36.4,119.7,36.5,118.8,36.5z"/>
	</g>
	<g>
		<path fill="#FFFFFF" d="M131.3,35.2c1.4,0.1,2.9-0.1,4.3,0.1c1.7,0.4,3.1,2,3,3.8c0.1,1.2-0.5,2.5-1.4,3.2c-0.8,0.7-2,1-3.1,1
			c-0.9,0-1.9,0-2.8,0C131.3,40.6,131.3,37.9,131.3,35.2z M132.7,36.5c0,1.8,0,3.6,0,5.4c1.1-0.1,2.3,0.2,3.2-0.4
			c1.5-1,1.5-3.5,0.1-4.5C135.1,36.3,133.8,36.5,132.7,36.5z"/>
	</g>
	<path fill="#FFFFFF" d="M144.9,35.4c1.4-0.8,3.3-0.4,4.5,0.6c-0.2,0.4-0.5,0.7-0.7,1.1c-0.9-0.6-1.9-1.1-3-0.6
		c-0.6,0.3-0.7,1.2-0.1,1.5c1.1,0.6,2.5,0.5,3.5,1.4c1,1.1,0.5,3.1-0.9,3.6c-1.6,0.6-3.6,0.2-4.8-1.1c0.3-0.3,0.6-0.6,0.9-1
		c0.9,0.8,2.1,1.3,3.3,0.9c0.6-0.2,0.9-1.2,0.3-1.5c-1.1-0.6-2.5-0.5-3.5-1.4C143.4,38,143.7,36.1,144.9,35.4z"/>
	<g>
		<path fill="#FFFFFF" d="M106.5,35.4c0.4-0.2,0.9-0.1,1.4,0c1.2,2.6,2.3,5.3,3.5,7.9c-0.5,0-1,0-1.5,0c-0.3-0.6-0.5-1.2-0.8-1.8
			c-1.2-0.1-2.5,0-3.7,0c-0.4,0.5-0.5,1.2-0.8,1.8c-0.4,0.2-0.9,0.1-1.4,0.1c0.1-0.3,0.2-0.7,0.3-1C104.5,40,105.4,37.6,106.5,35.4z
			 M105.9,40.1c0.9,0,1.7,0,2.6,0c-0.3-1.1-0.8-2-1.3-3C106.7,38.1,106.2,39.1,105.9,40.1z"/>
	</g>
</g>
</svg>
