<svg xmlns="http://www.w3.org/2000/svg" width="88.3" height="100" viewBox="0 0 88.3 100"><path fill="#8AC756" d="M38.8 7.9c2.2-1.5 5.1-1.3 7.2.2l24.7 14.3c2 1.2 4.6 2.6 4.4 5.3 0 11.3.1 22.6 0 33.9.1 2.1-2 3.3-3.6 4.4-9.3 5.2-18.7 10.6-28 16l-2.5.1c-3.9-2.5-8.2-4.6-11.8-7.5l5.4-2.5c2.5 1.4 5 2.9 7.4 4.5 9.6-4.9 18.7-10.8 28.1-16-.1-11 .5-22-.3-33-9.3-4.9-18.4-10.3-27.4-15.7l-25.7 14.9c-1.1.7-2.6 1.4-2.4 3-.1 10.1.1 20.3-.1 30.4 3.2 2.2 6.5 4.1 10 5.8l1.7.1c.9-1 2.5-1.8 2.3-3.4.2-10.7-.3-21.5.3-32.2l5.3.1v32.2c.1 2.8-1.2 5.8-3.7 7.4-3.5 1.9-7.9 1.2-11.2-.8-3.5-2.1-7.7-3.6-9.8-7.3.2-11.2 0-22.5.1-33.7-.1-2.1 1.3-4.1 3.1-5 8.9-5.2 17.7-10.4 26.5-15.5zm.6 24.7c3-2.6 7.2-3.2 11-3.2 3.9.3 8.3.9 10.9 4.1 1.6 1.9 1.8 4.3 2 6.6h-5.1c-.8-5.9-7.8-6.4-12.4-5.2-2.3.4-3.7 2.7-3 4.9 6 2.5 13 1.3 18.6 4.6 3.2 1.8 3.1 5.8 2.6 8.9-1.2 3.7-5 5.8-8.6 6.3-4.9.8-10.1.6-14.6-1.6-3.4-1.7-5-5.7-4.7-9.4 1.7.1 3.5.1 5.2.3.5 2 1.1 4.6 3.4 5.1 3.9 1.4 8.4 1.4 12.2-.2 2-1 2.9-4.4.4-5.3-5.3-2.4-11.7-.9-16.9-3.8-4.2-2.4-4.4-8.9-1-12.1z"/></svg>