<svg xmlns="http://www.w3.org/2000/svg" width="17.939" height="33.595" viewBox="0 0 17.939 33.595"><path d="M0 19.788s6.92-.835 6.92 6.919v5.062c0 1.559 1.131 1.816 2.051 1.816 0 0 1.842.236 1.801-1.8v-5.048s.206-6.95 7.168-6.95v-2.127h-17.94v2.128zm8.971 11.237c.41 0 .742.334.742.744s-.332.744-.742.744c-.411 0-.744-.334-.744-.744s.333-.744.744-.744zm7.835-30.437c-1.132-1.227-2.171 0-2.171 0s-.755-1.322-1.982 0c-1.228 1.324-3.021 0-3.021 0s-1.982-1.133-2.549 0c-.567 1.135-3.871-.942-4.53 0-.475.851-2.553 0-2.553 0v3.553s2.811-1.037 6.209.945c0 0 1.842.767 3.824-.608 0 0 2.266-1.519 4.438-.194 0 0 2.357.992 3.469 1.014v-4.71c-.001 0-.002 1.228-1.134 0zm-16.806 11.13v4.627h17.939v-9.759h-17.939z"/></svg>