<?xml version="1.0" encoding="utf-8"?>
<!-- Generator: Adobe Illustrator 16.0.0, SVG Export Plug-In . SVG Version: 6.00 Build 0)  -->
<!DOCTYPE svg PUBLIC "-//W3C//DTD SVG 1.1//EN" "http://www.w3.org/Graphics/SVG/1.1/DTD/svg11.dtd">
<svg version="1.1" id="Layer_1" xmlns="http://www.w3.org/2000/svg" xmlns:xlink="http://www.w3.org/1999/xlink" x="0px" y="0px"
	 width="748px" height="189px" viewBox="0 0 748 189" enable-background="new 0 0 748 189" xml:space="preserve">
<g>
	<g>
		<path fill="#F7DC3E" d="M7.108,177.33c0-56.874,0-113.749,0-170.622c56.202,0,112.403,0,168.605-0.002
			c0.731,0,1.462-0.031,2.193-0.047c0.052,0.014,0.104,0.029,0.157,0.043c0.002,0.244,0.004,0.489,0.004,0.733
			c0,55.926,0,111.851,0,167.779c0,0.704-0.012,1.409-0.019,2.112c-0.932,0.187-1.866,0.001-2.799,0.001
			C119.203,177.334,63.156,177.332,7.108,177.33z M100.119,84.991c-0.2-0.198-0.457-0.137-0.691-0.137
			c-4.889-0.003-9.78-0.003-14.671,0.006c-0.207,0.001-0.483-0.14-0.629,0.159c-0.013,0.324-0.037,0.649-0.038,0.973
			c-0.062,18.61,0.118,37.219-0.093,55.828c-0.072,0.508-0.123,1.023-0.222,1.526c-0.511,2.632-1.621,4.82-4.336,5.812
			c-1.19,0.436-2.427,0.523-3.676,0.565c-2.99,0.108-5.431-1-7.366-3.272c-1.165-1.368-2.085-2.9-2.959-4.458
			c-0.214-0.384-0.351-0.494-0.776-0.234c-4.042,2.468-8.098,4.914-12.156,7.356c-0.347,0.209-0.4,0.393-0.215,0.762
			c3.548,7.074,9.08,11.655,16.845,13.459c2.014,0.467,4.064,0.6,6.112,0.778c-0.265,0.025-0.529,0.049-0.793,0.074
			c0.003,0.023,0.006,0.044,0.011,0.067c1.117,0,2.232,0,3.349,0c0.001-0.028,0.003-0.056,0.005-0.081
			c-0.155-0.022-0.311-0.044-0.465-0.063c2.021-0.191,4.045-0.324,6.034-0.781c4.939-1.13,9.177-3.415,12.249-7.548
			c2.694-3.629,3.907-7.804,4.315-12.249c0.152-0.162,0.14-0.347,0.081-0.539c0.006-0.069,0.013-0.14,0.018-0.208
			c0.267-1.037,0.18-2.098,0.18-3.146c0.01-17.898,0.008-35.796,0.005-53.693C100.234,85.626,100.285,85.294,100.119,84.991z
			 M136.795,164.11c-0.154,0.065-0.362-0.045-0.488,0.147c1.349,0,2.686,0,4.021,0c0.001-0.024,0.001-0.052,0.002-0.075
			c-0.317-0.024-0.635-0.05-0.952-0.074c0.322-0.035,0.642-0.09,0.965-0.102c3.489-0.148,6.892-0.764,10.161-1.999
			c5.661-2.136,10.064-5.695,12.509-11.363c1.709-3.964,1.988-8.124,1.538-12.365c-0.542-5.097-2.588-9.463-6.326-13.007
			c-3.106-2.945-6.749-5.076-10.591-6.87c-3.847-1.799-7.761-3.456-11.624-5.226c-1.729-0.789-3.341-1.78-4.689-3.166
			c-2.667-2.736-2.884-9.247,2.424-11.229c3.895-1.453,7.582-0.811,10.728,2.065c1.129,1.034,1.992,2.288,2.75,3.611
			c0.214,0.374,0.38,0.505,0.794,0.233c3.843-2.486,7.693-4.964,11.551-7.429c0.334-0.215,0.451-0.368,0.224-0.752
			c-3.366-5.73-7.991-9.847-14.576-11.5c-2.192-0.552-4.428-0.745-6.667-0.928c0.158-0.068,0.364,0.028,0.504-0.154
			c-1.134,0-2.251,0-3.37,0c0,0.024-0.002,0.049-0.003,0.072c0.156,0.025,0.311,0.05,0.466,0.075
			c-0.268,0.036-0.534,0.092-0.802,0.103c-2.48,0.1-4.903,0.538-7.246,1.344c-6.207,2.134-10.735,6.083-13.102,12.307
			c-1.35,3.554-1.523,7.235-1.104,10.975c0.477,4.257,1.999,8.069,4.794,11.349c2.745,3.213,6.204,5.468,9.924,7.365
			c4.032,2.054,8.296,3.595,12.373,5.55c2.08,0.996,4.149,2.024,5.762,3.741c2.69,2.871,2.606,7.4-0.219,10.117
			c-1.748,1.68-3.912,2.468-6.292,2.725c-1.653,0.003-3.305,0.008-4.958,0.012c-2.089-0.15-4.023-0.813-5.846-1.812
			c-3.009-1.651-5.187-4.152-6.994-6.997c-0.402-0.633-0.681-0.669-1.301-0.303c-3.826,2.254-7.667,4.482-11.53,6.676
			c-0.618,0.35-0.698,0.596-0.351,1.216c4.789,8.571,12.213,13.312,21.73,15.053C132.907,163.845,134.855,163.925,136.795,164.11z"
			/>
		<path fill-rule="evenodd" clip-rule="evenodd" fill="#F2E592" d="M178.049,177.327c0.007-0.703,0.019-1.408,0.019-2.112
			c0-55.928,0-111.853,0-167.779c0-0.244-0.002-0.489-0.005-0.733c0.106,0.001,0.213,0.003,0.32,0.005
			c0,56.738,0.001,113.478-0.023,170.216c0,0.21,0.403,0.753-0.302,0.731C178.054,177.548,178.051,177.438,178.049,177.327z"/>
		<path fill-rule="evenodd" clip-rule="evenodd" fill="#FADE5A" d="M178.049,177.327c0.002,0.11,0.005,0.221,0.008,0.329
			c-56.739,0-113.478,0.002-170.216-0.023c-0.209,0-0.753,0.402-0.732-0.303c56.048,0.002,112.094,0.004,168.142-0.002
			C176.183,177.328,177.117,177.514,178.049,177.327z"/>
		<path fill-rule="evenodd" clip-rule="evenodd" fill="#FBF7BF" d="M178.382,6.708c-0.106-0.002-0.213-0.004-0.32-0.005
			c-0.052-0.014-0.104-0.03-0.156-0.042c-0.297-0.205-0.633-0.11-0.95-0.11C120.34,6.545,63.724,6.545,7.108,6.545
			c0.036-0.05-0.083-0.17,0.082-0.164c0.216,0.006,0.433,0.001,0.65,0.001c56.603,0,113.207-0.001,169.809,0.021
			C177.86,6.404,178.403,6.003,178.382,6.708z"/>
		<path fill-rule="evenodd" clip-rule="evenodd" fill="#E4D88D" d="M7.108,6.545c56.616,0,113.232,0,169.848,0.005
			c0.317,0,0.653-0.095,0.95,0.11c-0.73,0.015-1.462,0.046-2.193,0.046C119.511,6.708,63.31,6.708,7.108,6.708
			C7.108,6.653,7.108,6.599,7.108,6.545z"/>
		<path fill-rule="evenodd" clip-rule="evenodd" fill="#30302D" d="M140.234,149.648c2.38-0.257,4.544-1.045,6.292-2.725
			c2.826-2.716,2.909-7.246,0.219-10.117c-1.612-1.716-3.682-2.745-5.762-3.741c-4.077-1.955-8.34-3.496-12.373-5.55
			c-3.72-1.897-7.18-4.152-9.924-7.365c-2.795-3.28-4.317-7.092-4.794-11.349c-0.419-3.739-0.246-7.42,1.104-10.975
			c2.367-6.224,6.895-10.172,13.102-12.307c2.343-0.807,4.765-1.245,7.246-1.344c0.268-0.011,0.534-0.067,0.801-0.103
			c0.802,0.003,1.602,0.005,2.404,0.007c2.239,0.183,4.476,0.375,6.667,0.928c6.584,1.653,11.21,5.77,14.576,11.5
			c0.227,0.385,0.111,0.538-0.224,0.752c-3.858,2.465-7.708,4.943-11.551,7.429c-0.415,0.271-0.58,0.14-0.794-0.233
			c-0.758-1.323-1.621-2.577-2.75-3.611c-3.146-2.876-6.833-3.518-10.728-2.065c-5.308,1.982-5.09,8.493-2.424,11.229
			c1.349,1.386,2.96,2.377,4.689,3.166c3.863,1.77,7.777,3.427,11.624,5.226c3.842,1.794,7.485,3.925,10.591,6.87
			c3.738,3.544,5.784,7.91,6.326,13.007c0.451,4.241,0.171,8.401-1.538,12.365c-2.445,5.668-6.848,9.228-12.509,11.363
			c-3.27,1.235-6.672,1.851-10.161,1.999c-0.323,0.012-0.643,0.066-0.964,0.102c-0.861,0.002-1.723,0.002-2.584,0.002
			c-1.94-0.186-3.888-0.266-5.811-0.618c-9.517-1.74-16.941-6.481-21.73-15.053c-0.347-0.62-0.267-0.866,0.351-1.216
			c3.863-2.194,7.704-4.422,11.53-6.676c0.62-0.366,0.899-0.33,1.301,0.303c1.807,2.845,3.984,5.346,6.994,6.997
			c1.822,0.999,3.756,1.662,5.846,1.812C136.929,149.944,138.582,149.943,140.234,149.648z"/>
		<path fill-rule="evenodd" clip-rule="evenodd" fill="#302F2D" d="M75.247,164.116c-2.048-0.179-4.098-0.312-6.112-0.778
			c-7.765-1.804-13.296-6.385-16.845-13.459c-0.185-0.369-0.131-0.553,0.215-0.762c4.059-2.442,8.114-4.888,12.156-7.356
			c0.425-0.26,0.562-0.15,0.776,0.234c0.874,1.558,1.794,3.089,2.959,4.458c1.935,2.272,4.376,3.38,7.366,3.272
			c1.249-0.042,2.486-0.13,3.676-0.565c2.715-0.992,3.825-3.18,4.336-5.812c0.099-0.503,0.149-1.019,0.222-1.526
			c0.494-0.259,0.271-0.724,0.271-1.089c0.014-18.171,0.017-36.341-0.005-54.511c-0.001-0.823,0.222-1.063,1.048-1.056
			c4.448,0.038,8.895,0.018,13.342,0.018c1.256,0,1.256,0,1.256,1.219c0,17.411,0,34.822,0,52.233c0,1.464,0.007,2.929,0.013,4.392
			c0.009,0.168,0.02,0.339,0.029,0.505c-0.41,4.449-1.622,8.624-4.316,12.253c-3.072,4.133-7.31,6.418-12.249,7.548
			c-1.988,0.457-4.013,0.59-6.034,0.781C76.651,164.113,75.949,164.114,75.247,164.116z"/>
		<path fill-rule="evenodd" clip-rule="evenodd" fill="#3E3516" d="M99.922,143.026c-0.005-1.463-0.013-2.927-0.013-4.392
			c0-17.411,0-34.823,0-52.233c0-1.219,0-1.219-1.256-1.219c-4.448,0-8.895,0.021-13.342-0.018c-0.826-0.008-1.05,0.233-1.048,1.056
			c0.022,18.17,0.019,36.34,0.005,54.511c0,0.365,0.223,0.831-0.271,1.089c0.211-18.609,0.032-37.218,0.093-55.828
			c0.001-0.324,0.025-0.648,0.038-0.973c5.316,0.006,10.63,0.013,15.946,0.02c0,18.192,0,36.384-0.001,54.58
			c0,1.055-0.014,2.112-0.023,3.169c-0.005,0.068-0.012,0.139-0.018,0.207C99.991,142.995,99.956,143.006,99.922,143.026z"/>
		<path fill-rule="evenodd" clip-rule="evenodd" fill="#A29567" d="M100.049,142.789c0.009-1.057,0.023-2.114,0.023-3.169
			c0.001-18.195,0.001-36.388,0.001-54.58l0.045-0.049c0.166,0.303,0.116,0.635,0.116,0.958c0.003,17.897,0.005,35.795-0.005,53.693
			C100.229,140.69,100.316,141.751,100.049,142.789z"/>
		<path fill-rule="evenodd" clip-rule="evenodd" fill="#E5D78A" d="M100.119,84.991l-0.045,0.049
			c-5.315-0.007-10.63-0.014-15.946-0.02c0.146-0.299,0.422-0.158,0.629-0.159c4.891-0.01,9.782-0.01,14.671-0.006
			C99.662,84.854,99.919,84.793,100.119,84.991z"/>
		<path fill-rule="evenodd" clip-rule="evenodd" fill="#D4C57D" d="M140.234,149.648c-1.652,0.295-3.305,0.296-4.958,0.012
			C136.929,149.656,138.581,149.651,140.234,149.648z"/>
		<path fill-rule="evenodd" clip-rule="evenodd" fill="#F0D96B" d="M136.795,164.11c0.861,0,1.723,0,2.584-0.002
			c0.317,0.024,0.635,0.05,0.952,0.074c-0.001,0.023-0.001,0.051-0.002,0.075c-1.336,0-2.672,0-4.021,0
			C136.434,164.065,136.642,164.176,136.795,164.11z"/>
		<path fill-rule="evenodd" clip-rule="evenodd" fill="#F3D86D" d="M138.549,84.082c-0.802-0.002-1.602-0.004-2.404-0.007
			c-0.155-0.025-0.31-0.049-0.465-0.075c0.001-0.023,0.003-0.048,0.003-0.072c1.119,0,2.236,0,3.37,0
			C138.913,84.11,138.707,84.014,138.549,84.082z"/>
		<path fill-rule="evenodd" clip-rule="evenodd" fill="#EFD96B" d="M75.247,164.116c0.702-0.002,1.404-0.003,2.106-0.003
			c0.155,0.02,0.311,0.041,0.465,0.063c-0.002,0.025-0.003,0.053-0.005,0.081c-1.116,0-2.232,0-3.349,0
			c-0.004-0.023-0.008-0.044-0.011-0.067C74.718,164.165,74.982,164.142,75.247,164.116z"/>
		<path fill-rule="evenodd" clip-rule="evenodd" fill="#A29567" d="M99.922,143.026c0.033-0.02,0.069-0.031,0.109-0.031
			c0.06,0.194,0.072,0.379-0.081,0.541C99.942,143.366,99.932,143.195,99.922,143.026z"/>
	</g>
</g>
<g>
	<path fill-rule="evenodd" clip-rule="evenodd" fill="#F1662A" d="M389.433,39.223c-0.004-5.864,0.028-11.728-0.038-17.59
		c-0.019-1.449,0.47-1.892,1.902-1.889c20.086,0.037,40.174,0.038,60.261-0.003c1.504-0.003,2.127,0.413,1.984,1.971
		c-0.425,4.605-0.769,9.219-1.169,13.827c-0.291,3.34-0.632,6.673-0.934,10.012c-0.446,4.893-0.886,9.786-1.318,14.68
		c-0.383,4.32-0.738,8.642-1.129,12.961c-0.416,4.605-0.873,9.207-1.296,13.81c-0.277,3.053-0.518,6.109-0.791,9.161
		c-0.423,4.721-0.873,9.44-1.293,14.162c-0.281,3.167-0.511,6.338-0.799,9.507c-0.424,4.662-0.9,9.319-1.314,13.983
		c-0.397,4.49-0.75,8.986-1.124,13.482c-0.233,2.824-0.503,5.646-0.694,8.47c-0.08,1.191-0.958,1.328-1.784,1.562
		c-7.034,1.97-14.069,3.94-21.112,5.887c-9.164,2.534-18.354,4.991-27.491,7.61c-1.785,0.511-1.913-0.061-1.898-1.545
		c0.061-5.397,0.028-10.798,0.022-16.197c0-0.749,0.092-1.517-0.337-2.204c0.115-0.04,0.23-0.084,0.346-0.126
		c0.395-0.059,0.802-0.077,1.184-0.183c11.772-3.263,23.539-6.526,35.307-9.797c4.025-1.121,3.929-1.135,4.268-5.331
		c0.683-8.439,1.464-16.87,2.221-25.302c0.869-9.702,1.726-19.407,2.662-29.104c0.149-1.536-0.207-1.944-1.792-1.936
		c-14.052,0.066-28.103,0.036-42.152,0.042c-0.574,0-1.15,0.082-1.725,0.125c0.021-0.079,0.025-0.159,0.01-0.24
		c0.007-6.616,0.016-13.231,0.024-19.848l-0.027-0.156c15.48,0.026,30.962,0.047,46.442,0.094c0.905,0.003,1.201-0.331,1.271-1.191
		c0.467-5.715,0.936-11.43,1.495-17.136c0.119-1.213-0.102-1.551-1.372-1.538c-6.495,0.068-12.991,0.024-19.485,0.033
		c-9.452,0.013-18.902,0.04-28.352,0.06L389.433,39.223z"/>
	<path fill-rule="evenodd" clip-rule="evenodd" fill="#EBE9E9" d="M345.221,98.811c-0.637-7.442-1.258-14.885-1.913-22.326
		c-0.755-8.595-1.541-17.188-2.312-25.782c-0.284-3.173-0.46-6.358-0.883-9.512c-0.204-1.517,0.021-1.954,1.665-1.946
		c15.19,0.069,30.38,0.042,45.572,0.038c0.694-0.001,1.389-0.039,2.082-0.06l-0.028,0.125c0,6.559,0,13.118,0,19.678l0.027,0.156
		c-8.94-0.026-17.879-0.042-26.818-0.094c-0.956-0.005-0.943,0.396-0.872,1.16c0.545,5.89,1.063,11.782,1.53,17.679
		c0.079,1.012,0.5,1.234,1.416,1.226c3.831-0.036,7.663-0.001,11.494-0.019c4.409-0.02,8.818-0.068,13.226-0.104
		c0.016,0.081,0.012,0.161-0.01,0.24c0.009,6.527,0.017,13.053,0.026,19.579c-0.405,0.023-0.811,0.064-1.214,0.064
		c-13.81,0.001-27.62,0.004-41.43-0.001C346.26,98.91,345.739,98.846,345.221,98.811z"/>
	<path fill-rule="evenodd" clip-rule="evenodd" fill="#EBEAEA" d="M389.426,150.754c-0.115,0.042-0.23,0.086-0.346,0.126
		c-12.712-3.529-25.416-7.092-38.152-10.54c-1.568-0.425-2.109-1.125-2.236-2.654c-0.758-9.068-1.563-18.133-2.424-27.193
		c-0.135-1.409,0.113-1.895,1.661-1.866c5.512,0.099,11.026,0.085,16.539,0.004c1.28-0.017,1.642,0.33,1.734,1.602
		c0.313,4.337,0.793,8.657,1.176,12.987c0.066,0.758,0.193,1.241,1.085,1.474c6.827,1.797,13.636,3.663,20.453,5.5
		c0.16,0.042,0.344-0.014,0.517-0.022l-0.029,0.134C389.41,137.124,389.417,143.94,389.426,150.754z"/>
	<path fill-rule="evenodd" clip-rule="evenodd" fill="#F0672C" d="M345.221,98.811c0.519,0.035,1.039,0.099,1.56,0.099
		c13.81,0.005,27.62,0.003,41.43,0.001c0.403,0,0.809-0.041,1.214-0.064c7.358,0.03,14.715,0.057,22.072,0.085
		c2.122,0.009,2.088,0,1.894,2.085c-0.679,7.26-1.369,14.521-1.963,21.789c-0.098,1.18-0.429,1.679-1.609,1.989
		c-6.817,1.781-13.612,3.664-20.414,5.51l0.029-0.134c-0.004-9.632-0.04-19.266,0.019-28.896c0.012-1.587-0.447-2.085-2.06-2.078
		c-13.345,0.06-26.689,0.035-40.033,0.021C346.635,99.218,345.831,99.472,345.221,98.811z"/>
	<path fill-rule="evenodd" clip-rule="evenodd" fill="#FFFEFD" d="M389.403,130.306c6.802-1.846,13.597-3.729,20.414-5.51
		c1.181-0.31,1.512-0.81,1.609-1.989c0.594-7.268,1.284-14.528,1.963-21.789c0.194-2.085,0.229-2.077-1.894-2.085
		c-7.357-0.028-14.714-0.055-22.072-0.085c-0.01-6.526-0.018-13.052-0.026-19.579c0.574-0.043,1.15-0.125,1.725-0.125
		c14.05-0.006,28.101,0.024,42.152-0.042c1.585-0.008,1.941,0.4,1.792,1.936c-0.937,9.696-1.793,19.401-2.662,29.104
		c-0.757,8.432-1.538,16.863-2.221,25.302c-0.339,4.196-0.242,4.21-4.268,5.331c-11.768,3.271-23.534,6.535-35.307,9.797
		c-0.382,0.105-0.789,0.124-1.184,0.183C389.417,143.94,389.41,137.124,389.403,130.306z"/>
	<path fill-rule="evenodd" clip-rule="evenodd" fill="#FFFFFE" d="M389.404,59.025c0-6.56,0-13.119,0-19.678
		c9.449-0.021,18.899-0.047,28.352-0.06c6.494-0.009,12.99,0.035,19.485-0.033c1.271-0.014,1.491,0.325,1.372,1.538
		c-0.56,5.707-1.028,11.421-1.495,17.136c-0.07,0.861-0.366,1.195-1.271,1.191C420.366,59.072,404.885,59.052,389.404,59.025z"/>
	<path fill-rule="evenodd" clip-rule="evenodd" fill="#E44F26" d="M389.407,79.029c-4.407,0.036-8.816,0.084-13.226,0.104
		c-3.831,0.017-7.663-0.018-11.494,0.019c-0.916,0.008-1.337-0.214-1.416-1.226c-0.467-5.897-0.985-11.79-1.53-17.679
		c-0.071-0.764-0.084-1.166,0.872-1.16c8.939,0.052,17.878,0.068,26.818,0.094C389.423,65.798,389.414,72.413,389.407,79.029z"/>
	<path fill-rule="evenodd" clip-rule="evenodd" fill="#76B4DE" d="M409.403,99.625c0.444-0.144,0.89-0.29,1.336-0.432
		C410.293,99.336,409.848,99.48,409.403,99.625z"/>
	<path fill="#E44F26" d="M310.679,6.535c1.282,14.27,2.564,28.539,3.848,42.807c1.119,12.421,2.251,24.839,3.359,37.26
		c1.098,12.305,2.165,24.614,3.261,36.92c1.264,14.212,2.558,28.425,3.788,42.642c0.031,0.377,0.135,0.626,0.284,0.804
		l64.451,17.734l64.042-18.061c0.11-0.227,0.181-0.507,0.212-0.872c1.428-16.406,2.929-32.808,4.392-49.215
		c1.451-16.288,2.865-32.578,4.32-48.865c1.573-17.557,3.169-35.111,4.758-52.667c0.257-2.829,0.513-5.658,0.766-8.488
		C415.666,6.535,363.172,6.535,310.679,6.535z M453.542,21.712c-0.425,4.605-0.769,9.219-1.169,13.827
		c-0.291,3.34-0.632,6.673-0.934,10.012c-0.446,4.893-0.886,9.786-1.318,14.68c-0.383,4.32-0.738,8.642-1.129,12.961
		c-0.416,4.605-0.873,9.207-1.296,13.81c-0.277,3.053-0.518,6.109-0.791,9.161c-0.423,4.721-0.873,9.44-1.293,14.162
		c-0.281,3.167-0.511,6.338-0.799,9.507c-0.424,4.662-0.9,9.319-1.314,13.983c-0.397,4.49-0.75,8.986-1.124,13.482
		c-0.233,2.824-0.503,5.646-0.694,8.47c-0.08,1.191-0.958,1.328-1.784,1.562c-7.034,1.97-14.069,3.94-21.112,5.887
		c-9.164,2.534-18.354,4.991-27.491,7.61c-1.785,0.511-1.913-0.061-1.898-1.545c0.061-5.397,0.028-10.798,0.022-16.197
		c0-0.749,0.092-1.517-0.337-2.204c-12.712-3.529-25.416-7.092-38.152-10.54c-1.568-0.425-2.109-1.125-2.236-2.654
		c-0.758-9.068-1.563-18.133-2.424-27.193c-0.135-1.409,0.113-1.895,1.661-1.866c5.512,0.099,11.026,0.085,16.539,0.004
		c1.28-0.017,1.642,0.33,1.734,1.602c0.313,4.337,0.793,8.657,1.176,12.987c0.066,0.758,0.193,1.241,1.085,1.474
		c6.827,1.797,13.636,3.663,20.453,5.5c0.16,0.042,0.344-0.014,0.517-0.022c-0.004-9.632-0.04-19.266,0.019-28.896
		c0.001-0.172-0.004-0.325-0.016-0.475v-1.945h-0.038h-8.231H345.27c-0.016-0.019-0.033-0.027-0.049-0.044
		c-0.637-7.442-1.258-14.885-1.913-22.326c-0.755-8.595-1.541-17.188-2.312-25.782c-0.284-3.173-0.46-6.358-0.883-9.512
		c-0.204-1.517,0.021-1.954,1.665-1.946c15.19,0.069,30.38,0.042,45.572,0.038c0.694-0.001,1.389-0.039,2.082-0.06
		c-0.004-5.864,0.028-11.728-0.038-17.59c-0.019-1.449,0.47-1.892,1.902-1.889c20.086,0.037,40.174,0.038,60.261-0.003
		C453.062,19.738,453.685,20.154,453.542,21.712z"/>
	<rect x="389.416" y="79.19" fill="#FFFEFD" width="8.979" height="4.15"/>
	<rect x="389.478" y="19.751" fill="#F1662A" width="5.596" height="7.048"/>
	<rect x="389.427" y="39.236" fill="#FFFFFE" width="46.513" height="19.952"/>
</g>
<g>
	<path fill-rule="evenodd" clip-rule="evenodd" fill="#E9EAEB" d="M663.396,130.455c-0.039,6.911-0.077,13.827-0.114,20.741
		c-12.407-3.465-24.805-6.969-37.235-10.346c-2.056-0.559-2.753-1.422-2.911-3.632c-0.568-7.998-1.451-15.976-2.26-23.956
		c-0.424-4.172-0.467-4.169,3.837-4.169c4.339-0.002,8.682,0.129,13.011-0.056c2.214-0.092,3.05,0.792,3.194,2.804
		c0.257,3.583,0.614,7.159,0.798,10.744c0.076,1.496,0.567,2.224,2.1,2.616C650.362,126.871,656.873,128.689,663.396,130.455z"/>
	<path fill-rule="evenodd" clip-rule="evenodd" fill="#73B2DE" d="M663.313,39.341c0-5.929,0.061-11.855-0.027-17.781
		c-0.031-1.91,0.572-2.584,2.534-2.578c20.107,0.054,40.219,0.062,60.325-0.008c2.188-0.008,2.791,0.837,2.599,2.815
		c-0.718,7.425-1.183,14.882-2.172,22.269c-0.559,4.191-0.353,8.384-0.898,12.583c-1.615,12.388-2.39,24.88-3.511,37.317
		c-0.617,6.836-1.479,13.706-1.866,20.6c-0.44,7.726-1.211,15.481-2.077,23.208c-0.638,5.724-1.069,11.513-1.488,17.283
		c-0.135,1.82-0.526,2.702-2.528,3.242c-14.807,4.02-29.487,8.51-44.392,12.188c-0.408,0.102-0.809,0.247-1.207,0.385
		c-5.287,1.811-5.296,1.811-5.284-3.964c0.009-5.081,0.04-10.162,0.061-15.24c1.302-0.403,2.592-0.837,3.903-1.201
		c11.593-3.217,23.192-6.41,34.777-9.646c1.146-0.32,2.509-0.409,2.554-2.247c0.057-2.312,0.405-4.619,0.602-6.931
		c0.901-10.72,1.747-21.446,2.702-32.162c1.579-17.741,3.295-35.47,4.812-53.216c0.585-6.809,0.409-6.821-6.588-6.833
		C691.866,39.398,677.59,39.369,663.313,39.341z"/>
	<path fill-rule="evenodd" clip-rule="evenodd" fill="#E8E9EB" d="M663.378,39.524c-0.041,6.528-0.086,13.056-0.128,19.585
		c-8.865,0.058-17.729,0.116-26.595,0.173c-0.266,0.085-0.536,0.172-0.804,0.259c-5.7-0.003-11.403-0.048-17.103,0.017
		c-1.625,0.019-2.471-0.295-2.619-2.18c-0.43-5.456-1.072-10.894-1.633-16.339c-0.198-1.931,1.219-1.607,2.32-1.609
		c7.708-0.016,15.417-0.022,23.124-0.005C647.754,39.442,655.566,39.49,663.378,39.524z"/>
	<path fill-rule="evenodd" clip-rule="evenodd" fill="#EAEBEB" d="M663.342,79.424c-0.021,6.558-0.043,13.114-0.066,19.671
		c-0.834,0.044-1.668,0.088-2.503,0.13c-13.343-0.277-26.684-0.287-40.026,0.003c-0.848-0.208-1.13-0.778-1.195-1.619
		c-0.41-5.247-0.8-10.498-1.33-15.735c-0.195-1.944,0.385-2.562,2.37-2.549C634.84,79.417,649.091,79.404,663.342,79.424z"/>
	<path fill-rule="evenodd" clip-rule="evenodd" fill="#FDFEFF" d="M663.313,39.341c14.276,0.028,28.553,0.058,42.83,0.084
		c6.997,0.012,7.173,0.024,6.588,6.833c-1.518,17.746-3.233,35.475-4.812,53.216c-0.955,10.715-1.801,21.442-2.702,32.162
		c-0.196,2.312-0.545,4.619-0.602,6.931c-0.045,1.838-1.407,1.927-2.554,2.247c-11.585,3.236-23.185,6.429-34.777,9.646
		c-1.312,0.364-2.602,0.798-3.903,1.201c-0.049-0.152-0.083-0.307-0.099-0.465c0.037-6.914,0.075-13.83,0.114-20.741l-0.057-0.239
		c7.388-0.829,14.279-3.684,21.48-5.284c1.182-0.262,1.188-1.317,1.273-2.286c0.616-7.043,1.23-14.084,1.882-21.124
		c0.139-1.485-0.072-2.429-1.928-2.4c-7.616,0.11-15.232,0.131-22.845,0.185c0,0,0.072-0.209,0.072-0.211
		c0.023-6.557,0.045-13.114,0.066-19.671l-0.075-0.143c7.931,0.018,15.862-0.003,23.792,0.087c1.688,0.019,2.61-0.504,2.754-2.212
		c0.459-5.36,0.914-10.72,1.392-16.078c0.111-1.282-0.264-2.004-1.709-1.978c-8.771,0.158-17.546-0.304-26.312,0.254l0.067-0.246
		c0.042-6.529,0.087-13.057,0.128-19.585L663.313,39.341z"/>
	<path fill-rule="evenodd" clip-rule="evenodd" fill="#74B3DE" d="M663.203,99.306c7.612-0.054,15.229-0.075,22.845-0.185
		c1.855-0.028,2.066,0.915,1.928,2.4c-0.651,7.04-1.266,14.081-1.882,21.124c-0.085,0.969-0.092,2.024-1.273,2.286
		c-7.201,1.6-14.093,4.455-21.48,5.284c-0.003-0.69-0.007-1.379-0.01-2.07C663.286,118.534,663.244,108.919,663.203,99.306z"/>
	<path fill-rule="evenodd" clip-rule="evenodd" fill="#76B4DE" d="M663.183,59.355c8.767-0.559,17.541-0.097,26.312-0.254
		c1.445-0.026,1.82,0.696,1.709,1.978c-0.478,5.358-0.933,10.718-1.392,16.078c-0.144,1.708-1.066,2.231-2.754,2.212
		c-7.93-0.091-15.861-0.07-23.792-0.087C663.238,72.639,663.212,65.997,663.183,59.355z"/>
	<path fill-rule="evenodd" clip-rule="evenodd" fill="#74B3DE" d="M620.746,99.229c13.343-0.29,26.684-0.28,40.026-0.003
		c-0.617,0.544-1.374,0.458-2.108,0.458c-11.936,0.003-23.874,0.003-35.809,0C622.12,99.684,621.364,99.77,620.746,99.229z"/>
	<rect x="619.204" y="99.271" fill="#449AD5" width="43.952" height="3.281"/>
	<rect x="620.752" y="90.025" fill="#EAEBEB" width="42.43" height="9.233"/>
	<rect x="620.752" y="42.224" fill="#EAEBEB" width="42.43" height="17.296"/>
	<rect x="616.025" y="39.409" fill="#EAEBEB" width="47.316" height="9.207"/>
	<rect x="663.178" y="39.376" fill="#FDFEFF" width="25.665" height="20.183"/>
	<path fill-rule="evenodd" clip-rule="evenodd" fill="#FDFEFF" d="M688.843,59.559c0,0,1.215-0.18,1.606,0.389
		c0.396,0.569,0.744,0.962,0.526,3.412c-0.221,2.448,3.301-1.247,3.301-1.247l-1.815-3.915l-4.132,0.044L688.843,59.559z"/>
	<path fill-rule="evenodd" clip-rule="evenodd" fill="#73B2DE" d="M663.282,151.195l39.988-11.15c0,0,1.27,0.727,1.814-5.986
		s5.322-0.122,5.322-0.122l-4.598,10.521l-38.396,10.22l-3.267-0.605L663.282,151.195z"/>
	<path fill-rule="evenodd" clip-rule="evenodd" fill="#73B2DE" d="M701.83,140.419c0,0,2.583-0.248,2.983-4.616
		c0.402-4.371,3.384-2.524,3.384-2.524l-3.074,12.526l-2.956-4.956L701.83,140.419z"/>
	<polygon fill-rule="evenodd" clip-rule="evenodd" fill="#73B2DE" points="663.282,151.195 663.282,172.226 676.089,168.853 
		672.846,166.61 663.66,151.375 	"/>
	<polyline fill-rule="evenodd" clip-rule="evenodd" fill="#449AD5" points="662.862,172.358 674.61,169.269 672.947,172.725 
		662.28,173.257 662.879,172.426 	"/>
	<polygon fill-rule="evenodd" clip-rule="evenodd" fill="#73B2DE" points="663.515,24.634 663.515,19.016 683.148,19.016 
		663.749,25.17 	"/>
	<polygon fill="#74B3DE" points="663.396,130.455 668.867,129.268 668.76,127.415 663.327,128.276 	"/>
	<polyline fill-rule="evenodd" clip-rule="evenodd" fill="#449AD5" points="663.283,126.185 662.529,126.767 661.753,127.372 
		661.495,128.579 663.396,130.455 	"/>
	<polygon fill-rule="evenodd" clip-rule="evenodd" fill="#74B3DE" points="663.166,99.316 663.166,130.552 682.749,125.322 
		680.977,118.413 	"/>
	<polygon fill-rule="evenodd" clip-rule="evenodd" fill="#FDFEFF" points="663.166,130.552 663.166,151.154 666.622,148.717 
		664.761,130.197 	"/>
	<polygon fill-rule="evenodd" clip-rule="evenodd" fill="#FDFEFF" points="663.16,130.973 663.145,130.424 669.541,129.095 
		668.545,130.241 	"/>
	<polygon fill-rule="evenodd" clip-rule="evenodd" fill="#449AD5" points="596.774,137.478 599.341,166.98 599.368,167.378 
		608.229,169.993 607.832,159.139 	"/>
	<path fill-rule="evenodd" clip-rule="evenodd" fill="#449AD5" d="M742.999,6.439h-2.863c-0.24-0.017-0.495-0.027-0.778-0.026
		c-25.086,0.142-50.177,0.079-75.264,0.079c-25.194,0-50.389,0.044-75.58-0.063c-0.111,0-0.199,0.009-0.306,0.01h-3.367l0.619,6.075
		c1.474,14.827,2.813,29.668,4.146,44.51c1.36,15.16,2.631,30.329,3.982,45.49c1.839,20.631,3.762,41.259,5.515,61.898
		c0.147,1.713,0.571,2.736,1.734,3.396l4.382,1.368c18.972,5.192,37.922,10.467,56.875,15.739l66.304-18.272
		c0.169-0.354,0.279-0.774,0.314-1.302c0.327-5.061,0.833-10.111,1.274-15.165c1.329-15.271,2.641-30.542,3.994-45.808
		c1.644-18.53,3.302-37.059,4.99-55.583c1.173-12.839,2.346-25.679,3.652-38.504c0.028-0.277,0.05-0.535,0.062-0.78L742.999,6.439z
		 M728.744,21.79c-0.718,7.425-1.183,14.882-2.172,22.269c-0.559,4.191-0.353,8.384-0.898,12.583
		c-1.615,12.388-2.39,24.88-3.511,37.317c-0.617,6.836-1.479,13.706-1.866,20.6c-0.44,7.726-1.211,15.481-2.077,23.208
		c-0.638,5.724-1.069,11.513-1.488,17.283c-0.135,1.82-0.526,2.702-2.528,3.242c-14.807,4.02-29.487,8.51-44.392,12.188
		c-0.408,0.102-0.809,0.247-1.207,0.385c-5.287,1.811-5.296,1.811-5.284-3.964c0.009-5.081,0.04-10.162,0.061-15.24
		c-0.049-0.152-0.083-0.307-0.099-0.465c-12.407-3.465-24.805-6.969-37.235-10.346c-2.056-0.559-2.753-1.422-2.911-3.632
		c-0.568-7.998-1.451-15.976-2.26-23.956c-0.424-4.172-0.467-4.169,3.837-4.169c4.339-0.002,8.682,0.129,13.011-0.056
		c2.214-0.092,3.05,0.792,3.194,2.804c0.257,3.583,0.614,7.159,0.798,10.744c0.076,1.496,0.567,2.224,2.1,2.616
		c6.547,1.672,13.058,3.49,19.581,5.256l-0.057-0.239c-0.048-10.302-0.093-20.606-0.137-30.91l0.072-0.209
		c-0.834,0.042-1.668,0.086-2.503,0.13c-0.617,0.543-1.374,0.457-2.108,0.457c-11.936,0.003-23.874,0.003-35.809,0
		c-0.735,0-1.491,0.086-2.109-0.456c-0.848-0.208-1.13-0.778-1.195-1.619c-0.41-5.247-0.8-10.498-1.33-15.735
		c-0.195-1.944,0.385-2.562,2.37-2.549c14.249,0.091,28.5,0.078,42.751,0.098l-0.075-0.143c-0.028-6.643-0.055-13.285-0.084-19.926
		l0.067-0.246c-8.865,0.058-17.729,0.116-26.595,0.174c-0.266,0.085-0.536,0.171-0.804,0.257c-5.7-0.003-11.403-0.048-17.103,0.017
		c-1.625,0.019-2.471-0.295-2.619-2.18c-0.43-5.456-1.072-10.894-1.633-16.339c-0.198-1.931,1.219-1.607,2.32-1.609
		c7.708-0.016,15.417-0.022,23.124-0.005c7.812,0.018,15.625,0.065,23.437,0.099l-0.064-0.183c0-5.929,0.061-11.855-0.027-17.781
		c-0.031-1.91,0.572-2.584,2.534-2.578c20.107,0.054,40.219,0.062,60.325-0.008C728.334,18.967,728.937,19.812,728.744,21.79z"/>
	<polygon fill-rule="evenodd" clip-rule="evenodd" fill="#73B2DE" points="663.301,30.74 663.254,19.022 676.878,19 671.606,26.865 
			"/>
</g>
<g display="none">
	<g display="inline">
		<path fill="#F7DC3E" d="M8.218,10.049c0-55.074,0-110.148,0-165.222c54.423,0,108.845,0,163.268-0.002
			c0.708,0,1.416-0.029,2.124-0.045c0.05,0.014,0.101,0.028,0.152,0.042c0.002,0.236,0.004,0.473,0.004,0.709
			c0,54.156,0.001,108.312,0,162.468c0,0.683-0.012,1.364-0.019,2.047c-0.903,0.18-1.807,0.001-2.71,0.001
			C116.765,10.051,62.492,10.05,8.218,10.049z M98.285-79.369c-0.194-0.19-0.443-0.132-0.67-0.132
			c-4.735-0.003-9.471-0.004-14.206,0.006c-0.202,0.001-0.468-0.136-0.609,0.154c-0.013,0.314-0.036,0.628-0.037,0.942
			c-0.06,18.021,0.113,36.04-0.091,54.061c-0.07,0.492-0.119,0.989-0.214,1.478c-0.495,2.549-1.57,4.668-4.199,5.628
			c-1.151,0.422-2.35,0.507-3.559,0.549c-2.896,0.103-5.26-0.969-7.133-3.169c-1.128-1.325-2.019-2.809-2.866-4.317
			c-0.208-0.372-0.339-0.479-0.751-0.227c-3.915,2.39-7.842,4.76-11.772,7.123c-0.335,0.202-0.387,0.381-0.208,0.738
			c3.436,6.851,8.792,11.287,16.311,13.031c1.95,0.453,3.936,0.582,5.918,0.755c-0.256,0.024-0.512,0.049-0.768,0.073
			c0.003,0.021,0.007,0.043,0.01,0.063c1.081,0,2.162,0,3.243,0c0.001-0.026,0.003-0.052,0.005-0.078
			C76.54-2.711,76.39-2.73,76.24-2.751c1.956-0.185,3.917-0.314,5.843-0.755c4.783-1.096,8.887-3.308,11.86-7.311
			c2.61-3.514,3.785-7.557,4.18-11.861c0.148-0.155,0.136-0.335,0.078-0.521c0.006-0.067,0.012-0.134,0.018-0.201
			c0.259-1.004,0.173-2.03,0.174-3.047c0.01-17.331,0.007-34.663,0.005-51.994C98.397-78.753,98.445-79.074,98.285-79.369z
			 M133.8-2.753c-0.148,0.062-0.35-0.045-0.472,0.143c1.307,0,2.601,0,3.894,0c0.001-0.024,0.001-0.049,0.002-0.073
			c-0.307-0.023-0.614-0.047-0.921-0.07c0.312-0.035,0.622-0.088,0.934-0.101c3.379-0.143,6.674-0.739,9.84-1.934
			c5.481-2.07,9.746-5.517,12.113-11.006c1.655-3.837,1.925-7.865,1.488-11.973c-0.525-4.936-2.505-9.163-6.125-12.595
			c-3.008-2.853-6.537-4.914-10.255-6.652c-3.726-1.743-7.516-3.349-11.257-5.061c-1.674-0.766-3.235-1.725-4.541-3.065
			c-2.583-2.652-2.792-8.956,2.347-10.875c3.771-1.407,7.341-0.784,10.389,2.002c1.093,1,1.928,2.215,2.662,3.495
			c0.207,0.36,0.368,0.488,0.769,0.227c3.721-2.409,7.45-4.808,11.186-7.195c0.324-0.207,0.436-0.355,0.216-0.729
			c-3.259-5.549-7.738-9.535-14.114-11.136c-2.123-0.534-4.287-0.721-6.456-0.898c0.152-0.066,0.353,0.028,0.488-0.149
			c-1.098,0-2.181,0-3.263,0c-0.001,0.024-0.002,0.047-0.003,0.07c0.15,0.024,0.3,0.048,0.451,0.072
			c-0.259,0.035-0.516,0.089-0.776,0.1c-2.402,0.097-4.747,0.521-7.016,1.301c-6.01,2.067-10.396,5.891-12.687,11.918
			c-1.309,3.44-1.476,7.006-1.07,10.626c0.462,4.124,1.936,7.816,4.642,10.989c2.657,3.113,6.007,5.296,9.611,7.134
			c3.904,1.989,8.033,3.48,11.981,5.374c2.014,0.965,4.018,1.96,5.579,3.623c2.605,2.778,2.524,7.166-0.213,9.796
			c-1.693,1.626-3.788,2.391-6.092,2.639c-1.6,0.003-3.2,0.006-4.8,0.01c-2.024-0.145-3.896-0.786-5.661-1.754
			c-2.914-1.599-5.021-4.021-6.772-6.775c-0.389-0.612-0.659-0.648-1.259-0.295c-3.706,2.184-7.426,4.342-11.166,6.466
			c-0.599,0.34-0.676,0.578-0.34,1.179c4.637,8.298,11.827,12.891,21.042,14.575C130.035-3.011,131.922-2.933,133.8-2.753z"/>
		<path fill-rule="evenodd" clip-rule="evenodd" fill="#F2E592" d="M173.748,10.046c0.007-0.683,0.019-1.364,0.019-2.047
			c0.001-54.156,0-108.312,0-162.468c0-0.236-0.002-0.473-0.005-0.709c0.103,0.001,0.206,0.003,0.309,0.005
			c0,54.942,0.001,109.886-0.022,164.827c0,0.204,0.39,0.73-0.293,0.71C173.753,10.259,173.75,10.152,173.748,10.046z"/>
		<path fill-rule="evenodd" clip-rule="evenodd" fill="#FADE5A" d="M173.748,10.046c0.002,0.106,0.005,0.213,0.007,0.318
			c-54.942,0-109.885,0.001-164.828-0.022c-0.203,0-0.73,0.39-0.709-0.293c54.273,0.001,108.546,0.002,162.82-0.002
			C171.941,10.047,172.845,10.226,173.748,10.046z"/>
		<path fill-rule="evenodd" clip-rule="evenodd" fill="#FBF7BF" d="M174.071-155.173c-0.103-0.002-0.206-0.003-0.309-0.005
			c-0.05-0.014-0.101-0.028-0.151-0.042c-0.288-0.199-0.614-0.106-0.92-0.106c-54.824-0.004-109.648-0.005-164.472-0.005
			c0.034-0.048-0.08-0.164,0.079-0.159c0.209,0.007,0.42,0.001,0.63,0.001c54.811,0,109.623-0.001,164.434,0.022
			C173.565-155.466,174.091-155.855,174.071-155.173z"/>
		<path fill-rule="evenodd" clip-rule="evenodd" fill="#E4D88D" d="M8.218-155.331c54.824,0,109.648,0.001,164.472,0.005
			c0.307,0,0.633-0.092,0.92,0.106c-0.708,0.015-1.416,0.044-2.124,0.044c-54.423,0.002-108.845,0.002-163.268,0.002
			C8.218-155.226,8.218-155.278,8.218-155.331z"/>
		<path fill-rule="evenodd" clip-rule="evenodd" fill="#30302D" d="M137.13-16.757c2.305-0.248,4.399-1.013,6.092-2.639
			c2.737-2.63,2.818-7.018,0.213-9.796c-1.561-1.663-3.565-2.658-5.579-3.623c-3.948-1.894-8.077-3.385-11.981-5.374
			c-3.604-1.838-6.954-4.021-9.611-7.134c-2.707-3.173-4.18-6.865-4.642-10.989c-0.406-3.62-0.239-7.186,1.07-10.626
			c2.291-6.027,6.676-9.851,12.687-11.918c2.269-0.78,4.614-1.204,7.016-1.301c0.26-0.01,0.517-0.065,0.775-0.1
			c0.776,0.002,1.552,0.005,2.328,0.007c2.169,0.177,4.333,0.364,6.456,0.898c6.376,1.602,10.855,5.587,14.114,11.136
			c0.219,0.373,0.107,0.521-0.216,0.729c-3.736,2.388-7.465,4.786-11.186,7.195c-0.401,0.262-0.562,0.134-0.769-0.227
			c-0.734-1.28-1.569-2.495-2.662-3.495c-3.047-2.786-6.617-3.409-10.389-2.002c-5.14,1.919-4.93,8.223-2.347,10.875
			c1.306,1.341,2.867,2.3,4.541,3.065c3.741,1.712,7.531,3.317,11.257,5.061c3.719,1.738,7.248,3.8,10.255,6.652
			c3.62,3.432,5.6,7.659,6.125,12.595c0.437,4.107,0.167,8.136-1.488,11.973c-2.368,5.489-6.632,8.936-12.113,11.006
			c-3.166,1.194-6.461,1.791-9.84,1.934c-0.312,0.013-0.622,0.065-0.933,0.101c-0.834,0.001-1.669,0.001-2.503,0.001
			c-1.878-0.18-3.765-0.258-5.626-0.599c-9.214-1.685-16.404-6.277-21.042-14.575c-0.336-0.601-0.259-0.839,0.34-1.179
			c3.74-2.124,7.46-4.282,11.166-6.466c0.6-0.354,0.87-0.317,1.259,0.295c1.751,2.755,3.859,5.177,6.772,6.775
			c1.765,0.968,3.637,1.609,5.661,1.754C133.93-16.471,135.53-16.473,137.13-16.757z"/>
		<path fill-rule="evenodd" clip-rule="evenodd" fill="#302F2D" d="M74.2-2.748c-1.982-0.173-3.968-0.302-5.918-0.755
			c-7.519-1.744-12.875-6.181-16.311-13.031c-0.179-0.357-0.127-0.536,0.208-0.738c3.93-2.363,7.857-4.733,11.772-7.123
			c0.412-0.252,0.543-0.146,0.751,0.227c0.847,1.509,1.737,2.992,2.866,4.317c1.873,2.2,4.237,3.271,7.133,3.169
			c1.209-0.042,2.407-0.127,3.559-0.549c2.629-0.96,3.704-3.079,4.199-5.628c0.095-0.488,0.144-0.985,0.214-1.478
			c0.479-0.251,0.263-0.701,0.264-1.056c0.012-17.595,0.016-35.189-0.005-52.785c-0.001-0.796,0.215-1.029,1.016-1.021
			c4.307,0.037,8.614,0.017,12.92,0.017c1.216,0,1.216,0,1.216,1.18c0,16.86,0,33.72,0,50.58c0,1.418,0.008,2.836,0.012,4.254
			c0.009,0.163,0.019,0.326,0.028,0.489c-0.396,4.307-1.57,8.35-4.18,11.863c-2.973,4.003-7.077,6.215-11.86,7.311
			c-1.926,0.44-3.887,0.57-5.843,0.755C75.56-2.75,74.88-2.749,74.2-2.748z"/>
		<path fill-rule="evenodd" clip-rule="evenodd" fill="#3E3516" d="M98.094-23.169c-0.004-1.418-0.012-2.836-0.012-4.254
			c0-16.859,0-33.72,0-50.58c0-1.18,0-1.18-1.216-1.18c-4.307,0-8.614,0.02-12.92-0.017c-0.801-0.007-1.017,0.226-1.016,1.021
			c0.021,17.596,0.018,35.19,0.005,52.785c0,0.354,0.215,0.805-0.264,1.056c0.204-18.021,0.031-36.04,0.091-54.061
			c0.001-0.314,0.024-0.628,0.037-0.942c5.146,0.006,10.293,0.013,15.44,0.019c0,17.617,0,35.234,0,52.851
			c0,1.023-0.014,2.047-0.022,3.069c-0.006,0.067-0.012,0.134-0.018,0.2C98.162-23.2,98.126-23.189,98.094-23.169z"/>
		<path fill-rule="evenodd" clip-rule="evenodd" fill="#A29567" d="M98.218-23.4c0.008-1.022,0.022-2.046,0.022-3.069
			c0.001-17.617,0-35.234,0-52.851l0.044-0.048c0.16,0.294,0.112,0.616,0.112,0.928c0.002,17.331,0.004,34.663-0.005,51.994
			C98.391-25.431,98.477-24.404,98.218-23.4z"/>
		<path fill-rule="evenodd" clip-rule="evenodd" fill="#E5D78A" d="M98.285-79.369l-0.044,0.048
			c-5.147-0.006-10.294-0.013-15.44-0.019c0.141-0.29,0.407-0.153,0.609-0.154c4.735-0.01,9.471-0.01,14.206-0.006
			C97.842-79.5,98.091-79.559,98.285-79.369z"/>
		<path fill-rule="evenodd" clip-rule="evenodd" fill="#D4C57D" d="M137.13-16.757c-1.6,0.284-3.2,0.286-4.801,0.01
			C133.93-16.751,135.53-16.754,137.13-16.757z"/>
		<path fill-rule="evenodd" clip-rule="evenodd" fill="#F0D96B" d="M133.8-2.753c0.834,0,1.669,0,2.503-0.001
			c0.307,0.023,0.614,0.047,0.921,0.07c0,0.024-0.001,0.049-0.002,0.073c-1.293,0-2.587,0-3.894,0
			C133.45-2.798,133.651-2.691,133.8-2.753z"/>
		<path fill-rule="evenodd" clip-rule="evenodd" fill="#F3D86D" d="M135.499-80.249c-0.776-0.002-1.552-0.004-2.328-0.007
			c-0.15-0.024-0.3-0.048-0.45-0.072c0.001-0.023,0.002-0.046,0.003-0.07c1.083,0,2.165,0,3.263,0
			C135.852-80.221,135.651-80.315,135.499-80.249z"/>
		<path fill-rule="evenodd" clip-rule="evenodd" fill="#EFD96B" d="M74.2-2.748c0.68-0.001,1.36-0.002,2.04-0.003
			c0.15,0.021,0.3,0.04,0.451,0.062c-0.002,0.026-0.003,0.052-0.005,0.078c-1.081,0-2.162,0-3.243,0
			c-0.003-0.021-0.007-0.042-0.01-0.063C73.688-2.699,73.944-2.724,74.2-2.748z"/>
		<path fill-rule="evenodd" clip-rule="evenodd" fill="#A29567" d="M98.094-23.169c0.032-0.021,0.067-0.031,0.105-0.031
			c0.059,0.188,0.07,0.367-0.078,0.522C98.113-22.843,98.104-23.006,98.094-23.169z"/>
	</g>
</g>
<g display="none">
	<g display="inline">
		<path fill-rule="evenodd" clip-rule="evenodd" fill="#F1662A" d="M288.172-124.351c-0.004-5.56,0.027-11.121-0.037-16.68
			c-0.016-1.374,0.447-1.794,1.805-1.792c19.046,0.034,38.095,0.036,57.142-0.003c1.428-0.003,2.018,0.392,1.883,1.869
			c-0.402,4.368-0.729,8.742-1.109,13.112c-0.275,3.167-0.598,6.329-0.885,9.495c-0.424,4.639-0.84,9.279-1.25,13.92
			c-0.363,4.096-0.699,8.195-1.07,12.29c-0.395,4.367-0.828,8.73-1.229,13.096c-0.264,2.895-0.49,5.792-0.75,8.686
			c-0.402,4.477-0.828,8.952-1.227,13.428c-0.268,3.004-0.484,6.012-0.758,9.016c-0.402,4.422-0.854,8.838-1.246,13.26
			c-0.379,4.26-0.711,8.523-1.064,12.785c-0.223,2.678-0.479,5.354-0.66,8.033c-0.076,1.129-0.908,1.26-1.691,1.479
			c-6.67,1.869-13.342,3.738-20.02,5.584c-8.691,2.402-17.404,4.732-26.071,7.217c-1.691,0.484-1.813-0.059-1.797-1.465
			c0.057-5.119,0.024-10.24,0.021-15.359c0-0.711,0.086-1.439-0.319-2.09c0.108-0.039,0.216-0.08,0.325-0.119
			c0.375-0.057,0.762-0.074,1.125-0.176c11.161-3.092,22.32-6.188,33.478-9.289c3.816-1.062,3.727-1.076,4.047-5.055
			c0.646-8.002,1.389-15.996,2.105-23.992c0.824-9.201,1.637-18.404,2.525-27.599c0.141-1.456-0.197-1.843-1.699-1.835
			c-13.324,0.062-26.648,0.034-39.972,0.04c-0.545,0-1.09,0.077-1.635,0.119c0.021-0.075,0.023-0.151,0.009-0.228
			c0.007-6.274,0.015-12.547,0.022-18.822l-0.025-0.147c14.679,0.025,29.359,0.044,44.039,0.089c0.859,0.003,1.141-0.313,1.207-1.13
			c0.443-5.418,0.887-10.838,1.418-16.249c0.111-1.151-0.098-1.472-1.303-1.459c-6.158,0.065-12.318,0.023-18.477,0.032
			c-8.961,0.013-17.923,0.037-26.885,0.057L288.172-124.351z"/>
		<path fill-rule="evenodd" clip-rule="evenodd" fill="#EBE9E9" d="M246.247-67.846c-0.603-7.057-1.193-14.115-1.813-21.171
			c-0.717-8.151-1.462-16.299-2.192-24.448c-0.27-3.008-0.437-6.029-0.838-9.02c-0.193-1.438,0.02-1.853,1.579-1.846
			c14.405,0.065,28.81,0.039,43.214,0.036c0.658,0,1.317-0.037,1.976-0.057l-0.028,0.118c0,6.22,0,12.44,0,18.66l0.025,0.147
			c-8.477-0.024-16.953-0.039-25.43-0.089c-0.907-0.005-0.895,0.375-0.828,1.1c0.518,5.585,1.009,11.172,1.451,16.764
			c0.076,0.959,0.475,1.17,1.342,1.162c3.633-0.034,7.267-0.001,10.901-0.017c4.181-0.019,8.361-0.064,12.541-0.099
			c0.015,0.077,0.012,0.153-0.009,0.228c0.008,6.189,0.016,12.377,0.024,18.565c-0.383,0.021-0.767,0.061-1.15,0.061
			c-13.096,0.002-26.192,0.004-39.288-0.002C247.232-67.752,246.74-67.812,246.247-67.846z"/>
		<path fill-rule="evenodd" clip-rule="evenodd" fill="#EBEAEA" d="M288.165-18.589c-0.109,0.039-0.217,0.08-0.325,0.119
			c-12.056-3.346-24.103-6.727-36.18-9.996c-1.488-0.402-2-1.066-2.121-2.516c-0.718-8.6-1.483-17.195-2.299-25.787
			c-0.127-1.336,0.107-1.797,1.576-1.77c5.227,0.094,10.456,0.08,15.683,0.004c1.215-0.016,1.557,0.312,1.645,1.52
			c0.297,4.111,0.752,8.209,1.115,12.314c0.063,0.719,0.183,1.176,1.028,1.398c6.475,1.705,12.932,3.475,19.397,5.217
			c0.15,0.039,0.325-0.014,0.488-0.023l-0.028,0.129C288.15-31.515,288.157-25.052,288.165-18.589z"/>
		<path fill-rule="evenodd" clip-rule="evenodd" fill="#F0672C" d="M246.247-67.846c0.493,0.033,0.985,0.094,1.479,0.094
			c13.096,0.006,26.191,0.004,39.288,0.002c0.383,0,0.767-0.039,1.15-0.061c6.978,0.027,13.954,0.055,20.93,0.08
			c2.012,0.008,1.98,0,1.795,1.978c-0.643,6.885-1.297,13.77-1.861,20.662c-0.092,1.117-0.406,1.592-1.523,1.885
			c-6.467,1.689-12.91,3.475-19.36,5.227l0.028-0.129c-0.003-9.133-0.037-18.268,0.02-27.398c0.01-1.507-0.425-1.979-1.955-1.972
			c-12.654,0.055-25.308,0.033-37.961,0.02C247.588-67.459,246.826-67.219,246.247-67.846z"/>
		<path fill-rule="evenodd" clip-rule="evenodd" fill="#FFFEFD" d="M288.144-37.979c6.451-1.752,12.894-3.537,19.36-5.227
			c1.117-0.293,1.432-0.768,1.523-1.885c0.564-6.893,1.219-13.777,1.861-20.662c0.186-1.978,0.217-1.97-1.795-1.978
			c-6.977-0.025-13.953-0.053-20.93-0.08c-0.008-6.188-0.017-12.376-0.024-18.565c0.545-0.042,1.09-0.119,1.635-0.119
			c13.324-0.006,26.648,0.022,39.972-0.04c1.502-0.007,1.84,0.379,1.699,1.835c-0.889,9.195-1.701,18.397-2.525,27.599
			c-0.717,7.996-1.459,15.99-2.105,23.992c-0.32,3.979-0.23,3.992-4.047,5.055c-11.158,3.102-22.317,6.197-33.478,9.289
			c-0.363,0.102-0.75,0.119-1.125,0.176C288.157-25.052,288.15-31.515,288.144-37.979z"/>
		<path fill-rule="evenodd" clip-rule="evenodd" fill="#FFFFFE" d="M288.145-105.573c0-6.22,0-12.44,0-18.66
			c8.961-0.02,17.924-0.044,26.885-0.057c6.158-0.009,12.318,0.033,18.477-0.032c1.205-0.013,1.414,0.308,1.303,1.459
			c-0.531,5.41-0.975,10.83-1.418,16.249c-0.066,0.817-0.348,1.133-1.207,1.13C317.504-105.529,302.824-105.548,288.145-105.573z"/>
		<path fill-rule="evenodd" clip-rule="evenodd" fill="#E44F26" d="M288.148-86.604c-4.18,0.034-8.36,0.08-12.541,0.099
			c-3.634,0.016-7.268-0.017-10.901,0.017c-0.867,0.008-1.267-0.203-1.342-1.162c-0.442-5.592-0.934-11.179-1.451-16.764
			c-0.067-0.725-0.079-1.105,0.828-1.1c8.477,0.05,16.953,0.064,25.43,0.089C288.163-99.151,288.155-92.877,288.148-86.604z"/>
		<path fill-rule="evenodd" clip-rule="evenodd" fill="#76B4DE" d="M307.109-67.075c0.422-0.137,0.844-0.273,1.266-0.408
			C307.953-67.347,307.531-67.211,307.109-67.075z"/>
		<path fill="#E44F26" d="M213.493-155.347c1.216,13.531,2.432,27.062,3.649,40.593c1.061,11.778,2.134,23.554,3.185,35.333
			c1.041,11.668,2.054,23.341,3.092,35.011c1.199,13.477,2.426,26.953,3.591,40.434c0.031,0.357,0.129,0.594,0.271,0.764
			l61.118,16.816l60.727-17.127c0.105-0.216,0.172-0.48,0.201-0.826c1.354-15.559,2.777-31.111,4.164-46.668
			c1.377-15.445,2.719-30.894,4.1-46.339c1.488-16.648,3.004-33.294,4.51-49.941c0.242-2.683,0.484-5.366,0.727-8.049
			C313.049-155.347,263.271-155.347,213.493-155.347z M348.965-140.956c-0.402,4.368-0.729,8.742-1.109,13.112
			c-0.275,3.167-0.598,6.329-0.885,9.495c-0.424,4.639-0.84,9.279-1.25,13.92c-0.363,4.096-0.699,8.195-1.07,12.29
			c-0.395,4.367-0.828,8.73-1.229,13.096c-0.264,2.895-0.49,5.792-0.75,8.686c-0.402,4.477-0.828,8.952-1.227,13.428
			c-0.268,3.004-0.484,6.012-0.758,9.016c-0.402,4.422-0.854,8.838-1.246,13.26c-0.379,4.26-0.711,8.523-1.064,12.785
			c-0.223,2.678-0.479,5.354-0.66,8.033c-0.076,1.129-0.908,1.26-1.691,1.479c-6.67,1.869-13.342,3.738-20.02,5.584
			c-8.691,2.402-17.404,4.732-26.071,7.217c-1.691,0.484-1.813-0.059-1.797-1.465c0.057-5.119,0.024-10.24,0.021-15.359
			c0-0.711,0.086-1.439-0.319-2.09c-12.056-3.346-24.103-6.727-36.18-9.996c-1.488-0.402-2-1.066-2.121-2.516
			c-0.718-8.6-1.483-17.195-2.299-25.787c-0.127-1.336,0.107-1.797,1.576-1.77c5.227,0.094,10.456,0.08,15.683,0.004
			c1.215-0.016,1.557,0.312,1.645,1.52c0.297,4.111,0.752,8.209,1.115,12.314c0.063,0.719,0.183,1.176,1.028,1.398
			c6.475,1.705,12.932,3.475,19.397,5.217c0.15,0.039,0.325-0.014,0.488-0.023c-0.003-9.133-0.037-18.268,0.02-27.398
			c0.001-0.165-0.006-0.312-0.016-0.452v-1.846h-0.036h-7.806h-34.04c-0.015-0.016-0.031-0.024-0.046-0.041
			c-0.603-7.057-1.193-14.115-1.813-21.171c-0.717-8.151-1.462-16.299-2.192-24.448c-0.27-3.008-0.437-6.029-0.838-9.02
			c-0.193-1.438,0.02-1.853,1.579-1.846c14.405,0.065,28.81,0.039,43.214,0.036c0.658,0,1.317-0.037,1.976-0.057
			c-0.004-5.56,0.027-11.121-0.037-16.68c-0.016-1.374,0.447-1.794,1.805-1.792c19.046,0.034,38.095,0.036,57.142-0.003
			C348.51-142.828,349.1-142.434,348.965-140.956z"/>
	</g>
	<rect x="288.156" y="-86.451" display="inline" fill="#FFFEFD" width="8.516" height="3.935"/>
	<rect x="288.214" y="-142.814" display="inline" fill="#F1662A" width="5.307" height="6.683"/>
	<rect x="288.166" y="-124.338" display="inline" fill="#FFFFFE" width="44.108" height="18.919"/>
</g>
<g display="none">
	<g display="inline">
		<g>
			<g>
				<path fill-rule="evenodd" clip-rule="evenodd" fill="#E9EAEB" d="M439.799-38.809c-0.036,6.501-0.072,13.004-0.107,19.505
					c-11.669-3.257-23.327-6.554-35.017-9.729c-1.935-0.525-2.59-1.337-2.738-3.414c-0.535-7.522-1.365-15.025-2.126-22.53
					c-0.398-3.923-0.438-3.92,3.609-3.921c4.08-0.003,8.165,0.121,12.236-0.052c2.082-0.088,2.867,0.743,3.004,2.636
					c0.242,3.369,0.576,6.732,0.75,10.104c0.071,1.405,0.533,2.091,1.974,2.459C427.541-42.178,433.664-40.468,439.799-38.809z"/>
				<path fill-rule="evenodd" clip-rule="evenodd" fill="#73B2DE" d="M439.721-124.496c0.001-5.574,0.058-11.148-0.025-16.721
					c-0.028-1.796,0.538-2.43,2.383-2.424c18.911,0.052,37.823,0.059,56.733-0.007c2.058-0.007,2.624,0.787,2.444,2.647
					c-0.676,6.982-1.113,13.996-2.043,20.943c-0.526,3.94-0.331,7.883-0.846,11.833c-1.519,11.65-2.246,23.398-3.302,35.095
					c-0.58,6.428-1.389,12.889-1.756,19.373c-0.412,7.266-1.139,14.56-1.951,21.825c-0.601,5.385-1.007,10.828-1.401,16.253
					c-0.125,1.714-0.494,2.543-2.376,3.052c-13.927,3.777-27.731,8.003-41.749,11.462c-0.384,0.095-0.76,0.232-1.135,0.36
					c-4.973,1.703-4.979,1.703-4.97-3.729c0.009-4.776,0.037-9.555,0.058-14.331c1.224-0.378,2.438-0.788,3.671-1.13
					c10.902-3.024,21.81-6.027,32.706-9.071c1.078-0.301,2.359-0.384,2.401-2.111c0.055-2.177,0.381-4.345,0.564-6.519
					c0.849-10.082,1.645-20.169,2.542-30.247c1.485-16.685,3.099-33.357,4.526-50.046c0.549-6.403,0.385-6.415-6.195-6.426
					C466.574-124.441,453.147-124.469,439.721-124.496z"/>
				<g>
					<path fill-rule="evenodd" clip-rule="evenodd" fill="#E8E9EB" d="M439.782-124.323c-0.039,6.14-0.08,12.279-0.12,18.419
						c-8.337,0.055-16.674,0.109-25.011,0.163c-0.252,0.081-0.504,0.162-0.757,0.244c-5.361-0.002-10.724-0.045-16.085,0.016
						c-1.526,0.017-2.321-0.278-2.461-2.051c-0.404-5.13-1.01-10.245-1.536-15.365c-0.187-1.816,1.146-1.511,2.183-1.513
						c7.249-0.016,14.498-0.021,21.747-0.005C425.089-124.4,432.437-124.355,439.782-124.323z"/>
					<path fill-rule="evenodd" clip-rule="evenodd" fill="#EAEBEB" d="M439.748-86.799c-0.021,6.167-0.041,12.333-0.062,18.5
						c-0.785,0.042-1.569,0.083-2.354,0.122c-12.548-0.261-25.096-0.27-37.644,0.004c-0.796-0.196-1.062-0.732-1.123-1.522
						c-0.387-4.935-0.753-9.873-1.25-14.798c-0.185-1.828,0.36-2.408,2.228-2.397C412.944-86.806,426.346-86.818,439.748-86.799z"/>
					<g>
						<path fill-rule="evenodd" clip-rule="evenodd" fill="#449AD5" d="M440.455-155.388c23.594,0,47.188,0.06,70.781-0.074
							c3.06-0.018,3.334,1.086,3.073,3.638c-1.229,12.062-2.334,24.137-3.436,36.211c-1.588,17.422-3.148,34.847-4.693,52.273
							c-1.272,14.358-2.507,28.72-3.757,43.08c-0.413,4.753-0.891,9.502-1.198,14.263c-0.104,1.614-0.894,2.249-2.284,2.634
							c-19.162,5.29-38.324,10.59-57.473,15.932c-1.047,0.292-1.924,0.112-2.894-0.158c-18.771-5.221-37.538-10.451-56.332-15.585
							c-2.095-0.572-2.727-1.57-2.907-3.696c-1.649-19.411-3.457-38.81-5.187-58.213c-1.271-14.259-2.466-28.523-3.746-42.782
							c-1.324-14.75-2.645-29.5-4.127-44.234c-0.273-2.709,0.425-3.358,3.1-3.347C393.068-155.347,416.762-155.388,440.455-155.388z
							 M439.616-68.102c0.042,9.69,0.086,19.38,0.13,29.068l0.053,0.225c-6.135-1.659-12.258-3.369-18.415-4.942
							c-1.44-0.368-1.902-1.054-1.974-2.459c-0.174-3.372-0.508-6.735-0.75-10.104c-0.137-1.893-0.922-2.724-3.004-2.636
							c-4.071,0.173-8.156,0.049-12.236,0.052c-4.048,0.001-4.008-0.002-3.609,3.921c0.761,7.505,1.591,15.008,2.126,22.53
							c0.148,2.077,0.804,2.889,2.738,3.414c11.689,3.176,23.348,6.473,35.017,9.729c0.015,0.149,0.047,0.295,0.094,0.438
							c-0.021,4.776-0.049,9.555-0.058,14.331c-0.01,5.432-0.003,5.432,4.97,3.729c0.375-0.128,0.751-0.266,1.135-0.36
							c14.018-3.459,27.822-7.685,41.749-11.462c1.882-0.509,2.251-1.338,2.376-3.052c0.395-5.425,0.801-10.868,1.401-16.253
							c0.812-7.266,1.539-14.56,1.951-21.825c0.367-6.483,1.176-12.944,1.756-19.373c1.056-11.697,1.783-23.445,3.302-35.095
							c0.515-3.949,0.319-7.892,0.846-11.833c0.93-6.948,1.367-13.961,2.043-20.943c0.18-1.861-0.387-2.655-2.444-2.647
							c-18.91,0.065-37.822,0.059-56.733,0.007c-1.845-0.005-2.411,0.628-2.383,2.424c0.083,5.573,0.026,11.147,0.025,16.721
							l0.062,0.173c-7.346-0.032-14.693-0.077-22.04-0.093c-7.249-0.016-14.498-0.011-21.747,0.005
							c-1.037,0.002-2.369-0.303-2.183,1.513c0.526,5.121,1.132,10.235,1.536,15.365c0.14,1.773,0.935,2.068,2.461,2.051
							c5.361-0.061,10.724-0.019,16.085-0.016c0.252-0.081,0.505-0.162,0.757-0.243c8.337-0.055,16.674-0.109,25.011-0.163
							l-0.063,0.231c0.026,6.246,0.052,12.492,0.078,18.739l0.071,0.135c-13.402-0.019-26.804-0.007-40.205-0.092
							c-1.867-0.011-2.412,0.569-2.228,2.397c0.497,4.926,0.863,9.864,1.25,14.798c0.062,0.79,0.327,1.326,1.123,1.522
							c0.582,0.509,1.293,0.429,1.983,0.429c11.226,0.002,22.452,0.002,33.678,0c0.689,0,1.401,0.08,1.982-0.432
							c0.785-0.04,1.569-0.081,2.354-0.122L439.616-68.102z"/>
						<path fill-rule="evenodd" clip-rule="evenodd" fill="#FDFEFF" d="M439.721-124.496c13.427,0.027,26.854,0.055,40.28,0.08
							c6.58,0.012,6.744,0.023,6.195,6.426c-1.428,16.689-3.041,33.362-4.526,50.046c-0.897,10.078-1.693,20.165-2.542,30.247
							c-0.184,2.174-0.51,4.342-0.564,6.519c-0.042,1.728-1.323,1.811-2.401,2.111c-10.896,3.044-21.804,6.047-32.706,9.071
							c-1.232,0.342-2.447,0.752-3.671,1.13c-0.047-0.144-0.079-0.289-0.094-0.438c0.035-6.501,0.071-13.004,0.107-19.505
							l-0.053-0.225c6.948-0.779,13.43-3.464,20.201-4.969c1.11-0.247,1.118-1.238,1.197-2.149c0.58-6.623,1.158-13.246,1.77-19.866
							c0.13-1.397-0.068-2.284-1.812-2.258c-7.161,0.104-14.324,0.124-21.485,0.174c0,0,0.07-0.197,0.07-0.198
							c0.021-6.166,0.041-12.333,0.062-18.5l-0.071-0.135c7.459,0.017,14.917-0.003,22.374,0.083
							c1.588,0.018,2.456-0.474,2.593-2.081c0.431-5.042,0.859-10.082,1.307-15.121c0.105-1.206-0.248-1.884-1.607-1.86
							c-8.247,0.149-16.5-0.287-24.744,0.24c0,0,0.063-0.231,0.063-0.231c0.04-6.14,0.081-12.279,0.12-18.419L439.721-124.496z"/>
						<path fill-rule="evenodd" clip-rule="evenodd" fill="#74B3DE" d="M439.616-68.102c7.161-0.05,14.324-0.07,21.485-0.174
							c1.744-0.026,1.942,0.86,1.812,2.258c-0.611,6.62-1.189,13.243-1.77,19.866c-0.079,0.911-0.087,1.902-1.197,2.149
							c-6.771,1.505-13.253,4.189-20.201,4.969c-0.003-0.648-0.006-1.297-0.009-1.945C439.696-50.019,439.655-59.06,439.616-68.102z
							"/>
						<path fill-rule="evenodd" clip-rule="evenodd" fill="#76B4DE" d="M439.599-105.673c8.244-0.526,16.497-0.091,24.744-0.24
							c1.359-0.024,1.713,0.654,1.607,1.86c-0.447,5.039-0.876,10.079-1.307,15.121c-0.137,1.607-1.005,2.099-2.593,2.081
							c-7.457-0.086-14.915-0.066-22.374-0.083C439.65-93.181,439.625-99.427,439.599-105.673z"/>
					</g>
				</g>
				<path fill-rule="evenodd" clip-rule="evenodd" fill="#74B3DE" d="M399.688-68.174c12.548-0.273,25.096-0.265,37.644-0.004
					c-0.581,0.513-1.293,0.433-1.982,0.433c-11.226,0.002-22.452,0.002-33.678,0C400.981-67.745,400.271-67.665,399.688-68.174z"/>
				<rect x="398.239" y="-68.134" fill="#449AD5" width="41.333" height="3.084"/>
				<rect x="399.694" y="-76.829" fill="#EAEBEB" width="39.903" height="8.683"/>
				<rect x="399.694" y="-121.784" fill="#EAEBEB" width="39.903" height="16.266"/>
				<rect x="395.25" y="-124.431" fill="#EAEBEB" width="44.498" height="8.658"/>
				<rect x="439.594" y="-124.462" fill="#FDFEFF" width="24.138" height="18.981"/>
				<path fill-rule="evenodd" clip-rule="evenodd" fill="#FDFEFF" d="M463.731-105.481c0,0,1.141-0.169,1.511,0.365
					s0.699,0.905,0.493,3.208s3.105-1.172,3.105-1.172l-1.707-3.681l-3.887,0.041L463.731-105.481z"/>
				<path fill-rule="evenodd" clip-rule="evenodd" fill="#73B2DE" d="M439.691-19.304l37.607-10.484c0,0,1.194,0.683,1.706-5.63
					s5.005-0.114,5.005-0.114l-4.322,9.896l-36.11,9.61l-3.071-0.569L439.691-19.304z"/>
				<path fill-rule="evenodd" clip-rule="evenodd" fill="#73B2DE" d="M475.943-29.438c0,0,2.43-0.231,2.807-4.341
					s3.184-2.373,3.184-2.373l-2.894,11.779l-2.778-4.66L475.943-29.438z"/>
				<polygon fill-rule="evenodd" clip-rule="evenodd" fill="#73B2DE" points="439.691,-19.304 439.691,0.476 451.734,-2.696 
					448.688,-4.806 440.047,-19.134 				"/>
				<polyline fill-rule="evenodd" clip-rule="evenodd" fill="#449AD5" points="439.297,0.601 450.344,-2.306 448.781,0.944 
					438.75,1.444 439.312,0.663 				"/>
			</g>
			<polygon fill-rule="evenodd" clip-rule="evenodd" fill="#73B2DE" points="439.911,-138.326 439.911,-143.61 458.375,-143.61 
				440.131,-137.823 			"/>
		</g>
		<g>
			<polygon fill="#FFFFFF" points="436.325,13.637 498.865,-3.368 498.953,2.227 437.369,16 			"/>
			<polygon fill="#74B3DE" points="439.799,-38.809 444.945,-39.924 444.845,-41.668 439.734,-40.856 			"/>
			<polyline fill-rule="evenodd" clip-rule="evenodd" fill="#449AD5" points="439.693,-42.823 438.984,-42.276 438.254,-41.708 
				438.011,-40.572 439.799,-38.809 			"/>
			<polygon fill-rule="evenodd" clip-rule="evenodd" fill="#74B3DE" points="439.583,-68.092 439.583,-38.717 457.999,-43.635 
				456.332,-50.135 			"/>
			<polygon fill-rule="evenodd" clip-rule="evenodd" fill="#FDFEFF" points="439.583,-38.717 439.583,-19.342 442.833,-21.634 
				441.083,-39.05 			"/>
			<polygon fill-rule="evenodd" clip-rule="evenodd" fill="#FDFEFF" points="439.578,-38.321 439.562,-38.837 445.578,-40.087 
				444.641,-39.009 			"/>
		</g>
	</g>
	<polygon display="inline" fill-rule="evenodd" clip-rule="evenodd" fill="#449AD5" points="377.146,-32.204 379.559,-4.457 
		379.585,-4.083 387.918,-1.624 387.543,-11.833 	"/>
	<polyline display="inline" fill-rule="evenodd" clip-rule="evenodd" fill="#FFFFFF" points="379.54,-4.123 387.415,-1.665 
		379.874,0.377 	"/>
	<polygon display="inline" fill-rule="evenodd" clip-rule="evenodd" fill="#FFFFFF" points="438.575,12.41 501.75,-5 487.75,8.25 
		436.75,14 	"/>
	<polygon display="inline" fill-rule="evenodd" clip-rule="evenodd" fill="#449AD5" points="370.547,-155.438 365.922,-155.438 
		366.859,-146.234 370.5,-153.125 	"/>
	<polygon display="inline" fill-rule="evenodd" clip-rule="evenodd" fill="#449AD5" points="510.036,-155.438 514.661,-155.438 
		513.724,-146.234 510.083,-153.125 	"/>
	<polygon display="inline" fill-rule="evenodd" clip-rule="evenodd" fill="#73B2DE" points="439.708,-132.583 439.666,-143.604 
		452.479,-143.625 447.521,-136.229 	"/>
</g>
<polygon fill-rule="evenodd" clip-rule="evenodd" fill="#FFFFFF" points="261.615,82.121 248.992,82.121 248.992,69.581 
	239.587,69.581 239.587,82.121 227.13,82.121 227.13,91.526 239.587,91.526 239.587,104.067 248.992,104.067 248.992,91.526 
	261.615,91.526 "/>
<polygon fill-rule="evenodd" clip-rule="evenodd" fill="#FFFFFF" points="544.93,82.121 532.308,82.121 532.308,69.581 
	522.902,69.581 522.902,82.121 510.443,82.121 510.443,91.526 522.902,91.526 522.902,104.067 532.308,104.067 532.308,91.526 
	544.93,91.526 "/>
</svg>
