<svg xmlns="http://www.w3.org/2000/svg" width="22.094" height="23.303" viewBox="0 0 22.094 23.303"><path d="M21.609 18.84l.015-.009-7.885-7.917 3.579-3.579 3.197-2.06 1.271-2.285-1.477-1.479-2.285 1.273-2.062 3.196-3.575 3.576-3.547-3.562-.016-4.705-4.809-1.289-.515.511 2.558 2.555-2.494 2.499-2.556-2.554-.515.509 1.291 4.81 4.576.012-.028.03 3.614 3.629-1.336 1.337-.877-.875-1.352 1.353.42.418c-1.215.465-4.567 3.818-5.033 5.031l-.418-.419-1.35 1.353 3.104 3.104 1.353-1.354-.422-.42c1.215-.462 4.569-3.817 5.033-5.03l.419.421 1.352-1.354-.875-.876 1.333-1.333 7.881 7.912.014-.01c.672.65 1.744.651 2.401-.013.664-.661.666-1.731.016-2.406zm-.649 1.769c-.296.296-.774.299-1.073 0-.291-.296-.296-.771-.002-1.071.301-.296.777-.296 1.075 0 .299.295.299.773 0 1.071z"/></svg>