<?xml version="1.0" encoding="utf-8"?>
<!-- Generator: Adobe Illustrator 16.0.0, SVG Export Plug-In . SVG Version: 6.00 Build 0)  -->
<!DOCTYPE svg PUBLIC "-//W3C//DTD SVG 1.1//EN" "http://www.w3.org/Graphics/SVG/1.1/DTD/svg11.dtd">
<svg version="1.1" id="Layer_1" xmlns="http://www.w3.org/2000/svg" xmlns:xlink="http://www.w3.org/1999/xlink" x="0px" y="0px"
	 width="191px" height="48.7px" viewBox="0 0 191 48.7" enable-background="new 0 0 191 48.7" xml:space="preserve">
<path fill="#FFFFFF" d="M24.4,20.7L24.4,20.7l5.2-3.2l-0.2-5.7c-0.1-1.9-0.7-3.6-1.8-5.2c-1.4-1.8-3.4-3.1-5.6-3.5
	c-1.8-1.9-4.3-2.9-6.9-2.8c-2.6,0.1-5,1.3-6.6,3.2c-4.1,1.1-7,4.9-6.9,9.2c0,0.9,0.2,1.8,0.6,2.6c-0.3,0.9-0.4,1.9-0.4,2.9
	c0.1,2,1,4.1,2.4,5.4c1.7,1.6,4,2.8,6,3.8c2.2,1.1,4.6,1.7,6.5,3.4c0.6,0.6,1.1,1.3,1.5,2.1c-0.3,0.9-0.8,1.8-1.4,2.6
	c-0.9,0.2-2,0.3-3,0.1c-0.2-0.2-0.4-0.4-0.5-0.6c-1-1.3-1.6-2.9-1.6-4.6v-0.3l-5.3-2.8H6.3l-5.1,3.2l0.2,5.7
	c0.1,1.9,0.7,3.6,1.8,5.2c1.4,1.8,3.4,3.1,5.6,3.5c1.8,1.9,4.3,2.9,6.9,2.8c2.6-0.1,5-1.3,6.6-3.2c4.1-1.1,7-4.9,6.9-9.2
	c0-0.9-0.2-1.8-0.6-2.6c0.3-0.9,0.4-1.9,0.4-2.9c-0.1-2-0.9-4.1-2.4-5.4c-0.7-0.6-1.4-1.2-2.2-1.7c-2.6-1.5-5.6-2.5-8.2-4
	c-0.8-0.4-1.5-0.9-2.1-1.5c-0.6-0.6-1.1-1.3-1.5-2.1c0.3-0.9,0.8-1.8,1.4-2.6c0.9-0.2,2-0.3,3-0.1c0.2,0.2,0.4,0.4,0.5,0.6
	c1,1.3,1.6,2.9,1.6,4.6v0.3L24.4,20.7z M10.7,30.7c0.1,1.7,0.7,3.3,1.6,4.7c-1.6-0.5-3-1.5-4-2.9c-0.8-1.1-1.4-2.5-1.6-3.9
	L10.7,30.7z M5.9,28.6C6,30.2,6.6,31.8,7.6,33c1.4,1.9,3.5,3.2,5.8,3.5c0.6,0.1,1.2,0.1,1.8,0.1c0.2,0,0.3,0,0.5,0
	c-0.2,0.2-0.5,0.4-0.7,0.6c-1,0.7-2,1.1-3.2,1.4c-0.4,0.1-0.9,0.1-1.3,0.2c-2.7,0.1-5.3-1.1-6.9-3.3c-1-1.3-1.5-2.8-1.6-4.4
	L5.9,28.6z M9,44.1c-2.1-0.4-3.9-1.5-5.2-3.2c-1-1.4-1.6-3-1.6-4.7l-0.1-1.6c0.2,0.4,0.5,0.9,0.8,1.2c1.8,2.4,4.7,3.8,7.6,3.7
	c0.5,0,1-0.1,1.5-0.2c1.3-0.3,2.4-0.8,3.5-1.5c0.7-0.5,1.3-1,1.8-1.6s0.9-1.2,1.2-1.9c0.1,0.3,0.1,0.6,0.1,0.9c0,0.2,0,0.3,0,0.5
	c0,1-0.1,2-0.4,2.9c-0.6,1.6-1.7,3.1-3.1,4.1c-1.3,0.9-2.8,1.4-4.5,1.5C10.2,44.3,9.6,44.2,9,44.1z M21.7,43.9
	c-1.5,1.8-3.7,2.9-6.1,3c-1.9,0.1-3.8-0.5-5.3-1.7c0.2,0,0.4,0,0.5,0c1.8-0.1,3.5-0.6,4.9-1.7c1.6-1.1,2.8-2.7,3.4-4.5
	c0.4-1,0.5-2.1,0.5-3.3c0-0.2,0-0.3,0-0.5c-0.1-0.8-0.3-1.6-0.6-2.3s-0.6-1.3-1.1-1.8c0.3,0.2,0.5,0.3,0.8,0.5c1.1,0.6,2,1.3,2.7,2
	l0.1,0.1c1.1,1.1,1.9,2.6,2,4.3c0,0.2,0,0.3,0,0.5C23.6,40.3,23,42.3,21.7,43.9z M23.1,43.3c0.9-1.5,1.4-3.2,1.3-5
	c0-0.2,0-0.4,0-0.5c-0.2-1.9-1-3.6-2.3-4.9L22,32.8c-2.5-2.3-5.7-3.6-8.8-4.9c-0.9-0.4-1.8-0.8-2.6-1.2c-2-1-4.2-2.2-5.8-3.7
	c-1.2-1.2-2-3-2.1-4.8c0-0.5,0-1,0.1-1.6c0.3,0.6,0.7,1.1,1.2,1.5c0.8,0.7,1.7,1.5,2.9,2.2C8,21,9.2,21.6,9.9,22
	c3.5,1.7,7.1,3.2,10.5,5c1,0.5,2,1,2.9,1.6c1.1,0.7,2.1,1.4,2.8,2.1c0.6,0.6,1.2,1.4,1.5,2.3c0.3,0.8,0.5,1.6,0.5,2.5
	C28.4,38.9,26.3,42,23.1,43.3z M14.6,19c1.4,0.7,2.8,1.3,4.2,2c2.5,1.1,5.1,2.2,7.1,4.1c1.2,1.2,2,3,2.1,4.8c0,0.5,0,1-0.1,1.6
	c-0.3-0.6-0.7-1.1-1.2-1.5c-0.8-0.7-1.7-1.5-2.9-2.2c-3.4-2-7-3.7-10.6-5.3c-2-0.9-4-1.8-5.9-2.9c-1.1-0.7-2.1-1.4-2.8-2.1
	c-0.6-0.6-1.2-1.4-1.5-2.3c-0.3-0.8-0.5-1.6-0.5-2.5C2.4,9.3,4.4,6.1,7.6,4.8C6.7,6.3,6.2,8,6.3,9.8c0,0.2,0,0.4,0,0.5
	c0.2,1.9,1,3.6,2.3,4.9l0.1,0.1c0.7,0.7,1.7,1.4,2.8,2C12.5,17.9,13.5,18.5,14.6,19z M12.8,17.1c-0.3-0.2-0.5-0.3-0.8-0.5
	c-1.1-0.6-2-1.3-2.7-2l-0.1-0.1c-1.1-1.1-1.9-2.6-2-4.3c0-0.2,0-0.3,0-0.5c-0.1-2,0.6-4,1.9-5.5c1.5-1.8,3.7-2.9,6.1-3
	c1.9,0,3.8,0.6,5.3,1.8c-0.2,0-0.4,0-0.5,0c-1.8,0.1-3.5,0.6-4.9,1.7c-1.6,1.1-2.8,2.7-3.4,4.5c-0.4,1-0.5,2.1-0.5,3.3
	c0,0.2,0,0.3,0,0.5c0.1,0.8,0.3,1.6,0.6,2.3C12,15.9,12.4,16.6,12.8,17.1z M13.4,11.8c-0.5,0.6-0.9,1.2-1.2,1.9
	c-0.1-0.3-0.1-0.6-0.1-0.9c0-0.2,0-0.3,0-0.5c0-1,0.1-2,0.4-2.9c0.6-1.6,1.7-3.1,3.1-4.1c1.3-0.9,2.8-1.4,4.5-1.5
	c0.6,0,1.2,0,1.7,0.1c2.1,0.4,3.9,1.5,5.2,3.2c1,1.4,1.6,3,1.6,4.7l0.1,1.6c-0.2-0.4-0.5-0.9-0.8-1.2c-1.8-2.4-4.7-3.8-7.6-3.7
	c-0.5,0-1,0.1-1.5,0.2c-1.3,0.3-2.4,0.8-3.5,1.5C14.5,10.6,13.9,11.2,13.4,11.8z M17.3,11.5c-0.6-0.1-1.2-0.1-1.8-0.1
	c-0.2,0-0.3,0-0.5,0c0.2-0.2,0.5-0.4,0.7-0.6c1-0.7,2-1.1,3.2-1.4c0.4-0.1,0.9-0.1,1.3-0.2c2.7-0.1,5.3,1.1,6.9,3.3
	c1,1.3,1.5,2.8,1.6,4.4l-3.8,2.4c-0.2-1.6-0.8-3.1-1.7-4.4C21.7,13.2,19.6,11.9,17.3,11.5z M18.4,12.7c1.6,0.5,3,1.5,4,2.9
	c0.8,1.1,1.4,2.5,1.6,3.9l-3.9-2.1C19.9,15.7,19.4,14.1,18.4,12.7z"/>
<g enable-background="new    ">
	<path fill="#FFFFFF" d="M47.5,33.7c-2.1,0-3.8-0.5-4.9-1.2l0.3-1.9c1.1,0.7,2.9,1.4,4.8,1.4c2.2,0,3.8-1.2,3.8-3.3
		c0-1.8-0.9-2.8-3.8-4c-3.6-1.6-4.9-2.8-4.9-5.4c0-2.8,2.3-4.7,5.3-4.7c1.8,0,3.1,0.4,4.1,1L52,17.5c-1.1-0.7-2.3-1.2-3.9-1.2
		c-2.2,0-3.4,1.3-3.4,2.9c0,1.7,0.9,2.5,3.8,3.8c3.5,1.5,4.9,2.9,4.9,5.6C53.3,31.7,50.8,33.7,47.5,33.7z"/>
	<path fill="#FFFFFF" d="M58.9,17.7c-0.7,0-1.3-0.6-1.3-1.3c0-0.7,0.6-1.3,1.3-1.3c0.7,0,1.3,0.6,1.3,1.3
		C60.2,17.1,59.6,17.7,58.9,17.7z M58,33.5V20.7h1.8v12.8H58z"/>
	<path fill="#FFFFFF" d="M81.4,33.5v-8.8c0-1.6-0.7-2.6-2.3-2.6c-1.3,0-2.6,0.8-4,2.2v9.3h-1.8v-8.8c0-1.6-0.7-2.6-2.3-2.6
		c-1.3,0-2.7,0.8-4,2.2v9.3h-1.8v-13h1.4l0.3,1.8c1.4-1.2,2.8-2.1,4.5-2.1c2,0,3.1,0.8,3.5,2.2c1.4-1.3,2.9-2.2,4.6-2.2
		c2.5,0,3.7,1.5,3.7,3.9v9.2H81.4z"/>
	<path fill="#FFFFFF" d="M93.3,33.6c-1.3,0-2.4-0.2-3.3-0.6v5.1l-1.8,0.3V20.7h1.4l0.3,1.8c1-1.1,2.3-2.1,4.1-2.1
		c2.8,0,5.1,2,5.1,6.3C99.2,31.4,96.4,33.6,93.3,33.6z M93.9,22c-1.5,0-2.7,0.9-3.8,2.3v7c1,0.5,1.9,0.8,3.3,0.8
		c2.3,0,4.1-1.8,4.1-5.3C97.4,23.7,95.9,22,93.9,22z"/>
	<path fill="#FFFFFF" d="M103.8,33.5V14.4l1.8-0.3v19.4H103.8z"/>
	<path fill="#FFFFFF" d="M120.8,27.2h-8.9c0.1,3.1,1.5,5,4.1,5c1.7,0,3.2-0.8,4.5-1.9l0.3,1.6c-1.3,1.1-2.9,1.8-4.9,1.8
		c-3.3,0-5.7-2.3-5.7-6.7c0-4.1,2.4-6.6,5.5-6.6c3.5,0,5.2,2.9,5.2,6.4C120.8,26.9,120.8,27.1,120.8,27.2z M115.6,21.9
		c-2,0-3.3,1.5-3.6,3.9h7C118.7,23.5,117.7,21.9,115.6,21.9z"/>
	<path fill="#FFFFFF" d="M129.8,33.6c-1.8,0-3.2-0.4-4.6-0.8V14.4l1.8-0.3v8.3c0.9-1,2.2-1.9,3.9-1.9c2.8,0,5.1,2,5.1,6.3
		C136,31.4,133.3,33.6,129.8,33.6z M130.7,22c-1.4,0-2.6,0.9-3.8,2.2v7.3c0.8,0.3,1.6,0.5,2.9,0.5c2.5,0,4.3-1.6,4.3-5.3
		C134.2,23.7,132.7,22,130.7,22z"/>
	<path fill="#FFFFFF" d="M140.6,33.5V14.4l1.8-0.3v19.4H140.6z"/>
	<path fill="#FFFFFF" d="M157.6,27.2h-8.9c0.1,3.1,1.5,5,4.1,5c1.7,0,3.2-0.8,4.5-1.9l0.3,1.6c-1.3,1.1-2.9,1.8-4.9,1.8
		c-3.3,0-5.7-2.3-5.7-6.7c0-4.1,2.4-6.6,5.5-6.6c3.5,0,5.2,2.9,5.2,6.4C157.6,26.9,157.6,27.1,157.6,27.2z M152.4,21.9
		c-2,0-3.3,1.5-3.6,3.9h7C155.6,23.5,154.5,21.9,152.4,21.9z"/>
	<path fill="#FFFFFF" d="M170.3,33.5v-8.8c0-1.6-0.8-2.6-2.4-2.6c-1.3,0-2.7,0.8-4.1,2.2v9.2H162V20.7h1.4l0.3,1.9
		c1.4-1.2,2.9-2.2,4.6-2.2c2.5,0,3.8,1.5,3.8,3.9v9.1h-1.8V33.5z"/>
	<path fill="#FFFFFF" d="M185.9,33.5l-0.3-1.9c-1,1.2-2.2,2.1-4.1,2.1c-2.8,0-5.2-2-5.2-6.3c0-4.7,2.7-6.9,5.8-6.9
		c1.3,0,2.4,0.2,3.3,0.6v-6.7l1.8-0.3v19.4H185.9z M185.5,22.8c-1-0.5-1.9-0.8-3.3-0.8c-2.3,0-4.1,1.7-4.1,5.3
		c0,3.1,1.5,4.8,3.5,4.8c1.5,0,2.7-0.9,3.8-2.3L185.5,22.8L185.5,22.8z"/>
</g>
</svg>
